<?xml version="1.0" encoding="UTF-8" standalone="no"?>
<svg
   xmlns:dc="http://purl.org/dc/elements/1.1/"
   xmlns:cc="http://creativecommons.org/ns#"
   xmlns:rdf="http://www.w3.org/1999/02/22-rdf-syntax-ns#"
   xmlns:svg="http://www.w3.org/2000/svg"
   xmlns="http://www.w3.org/2000/svg"
   xmlns:sodipodi="http://sodipodi.sourceforge.net/DTD/sodipodi-0.dtd"
   xmlns:inkscape="http://www.inkscape.org/namespaces/inkscape"
   width="234px"
   height="128px"
   viewBox="0 0 234 128"
   style="background-color: #ffffff00"
   version="1.1"
   id="svg10333"
   sodipodi:docname="ligation4.svg"
   inkscape:version="0.92.4 (5da689c313, 2019-01-14)">
  <metadata
     id="metadata10339">
    <rdf:RDF>
      <cc:Work
         rdf:about="">
        <dc:format>image/svg+xml</dc:format>
        <dc:type
           rdf:resource="http://purl.org/dc/dcmitype/StillImage" />
      </cc:Work>
    </rdf:RDF>
  </metadata>
  <defs
     id="defs10337" />
  <sodipodi:namedview
     pagecolor="#ffffff"
     bordercolor="#666666"
     borderopacity="1"
     objecttolerance="10"
     gridtolerance="10"
     guidetolerance="10"
     inkscape:pageopacity="0"
     inkscape:pageshadow="2"
     inkscape:window-width="1920"
     inkscape:window-height="986"
     id="namedview10335"
     showgrid="false"
     inkscape:zoom="3.3504273"
     inkscape:cx="117"
     inkscape:cy="64"
     inkscape:window-x="-11"
     inkscape:window-y="-11"
     inkscape:window-maximized="1"
     inkscape:current-layer="svg10333" />
  <g
     aria-label="N"
     transform="matrix(0.1 0 0 0.1 50.5475 81.25)"
     style="font-style:normal;font-weight:bold;font-size:240px;font-family:Arial;fill:#b0e2fa;stroke:none"
     id="text10285" />
  <g
     aria-label="H"
     transform="matrix(0.1 0 0 0.1 50.5475 101.317)"
     style="font-style:normal;font-weight:bold;font-size:240px;font-family:Arial;fill:#b0e2fa;stroke:none"
     id="text10287" />
  <g
     aria-label="O"
     transform="matrix(0.1 0 0 0.1 22.9487 34.66)"
     style="font-style:normal;font-weight:bold;font-size:240px;font-family:Arial;fill:#b0e2fa;stroke:none"
     id="text10291" />
  <g
     aria-label="H"
     transform="matrix(0.1 0 0 0.1 131.244 45.6533)"
     style="font-style:normal;font-weight:bold;font-size:240px;font-family:Arial;fill:#b0e2fa;stroke:none"
     id="text10305" />
  <g
     aria-label="N"
     transform="matrix(0.1 0 0 0.1 131.244 65.72)"
     style="font-style:normal;font-weight:bold;font-size:240px;font-family:Arial;fill:#b0e2fa;stroke:none"
     id="text10307" />
  <g
     aria-label="O"
     transform="matrix(0.1 0 0 0.1 103.645 112.31)"
     style="font-style:normal;font-weight:bold;font-size:240px;font-family:Arial;fill:#b0e2fa;stroke:none"
     id="text10311" />
  <g
     aria-label="N"
     transform="matrix(0.1 0 0 0.1 211.94 50.19)"
     style="font-style:normal;font-weight:bold;font-size:240px;font-family:Arial;fill:#b0e2fa;stroke:none"
     id="text10321" />
  <path
     id="path10331"
     transform="matrix(0.1 0 0 0.1 -1111.1 -310.7)"
     d="m 12592.6,4135.6 a 186.36,186.36 0 1 0 372.7,0 186.36,186.36 0 1 0 -372.7,0 z m 209,-186.5434 h -45.4 v -118.8203 l 22.7,-5.2363 22.7,5.2363 z m 441.8,-287.4066 22.7,39.32 -150.1,86.68 -22.7,-39.32 z m -56.7,-98.29 22.7,39.32 -150.1,86.68 -22.7,-39.32 z m -56.8,-98.29 22.7,39.31 -150.1,86.69 -22.7,-39.32 z m 118.312,143.83 v -171.7969 h 33.75 l 70.313,114.7266 v -114.7266 h 32.227 V 3608.9 h -34.805 l -69.258,-112.0312 V 3608.9 Z m -211.612,41.14 22.7,39.32 -257.7,148.75 -22.7,-13.11 v -26.21 z m -246.3,155.3 -11.4,19.66 -11.3,19.66 -150.8,-87.03 22.7,-39.32 z m -583.4,210.59 h -45.4 v -223.69 h 45.4 z m 113.5,0 h -45.4 v -223.69 h 45.4 z m -162.52,129.3263 q 0,-26.25 7.851,-44.0625 5.86,-13.125 15.938,-23.5547 10.195,-10.4297 22.265,-15.4688 16.055,-6.7969 37.032,-6.7969 37.968,0 60.703,23.5547 22.851,23.5547 22.851,65.5078 0,41.6016 -22.617,65.1563 -22.617,23.4375 -60.469,23.4375 -38.32,0 -60.937,-23.3203 -22.617,-23.4375 -22.617,-64.4531 z m 35.742,-1.1719 q 0,29.1797 13.476,44.2969 13.477,15 34.219,15 20.742,0 33.985,-14.8829 13.359,-15 13.359,-44.8828 0,-29.5312 -13.008,-44.0625 -12.89,-14.5312 -34.336,-14.5312 -21.445,0 -34.57,14.7656 -13.125,14.6484 -13.125,44.2969 z m 185.978,-425.3444 22.7,39.32 -150,86.6 -22.7,-39.32 z m 61.653,45.46 v -171.7969 h 33.75 l 70.312,114.7266 v -114.7266 h 32.227 V 3764.2 h -34.805 l -69.258,-112.0313 V 3764.2 Z m -0.235,-200.667 v -171.7969 h 34.688 v 67.6172 h 67.968 v -67.6172 h 34.688 v 171.7969 h -34.688 v -75.1172 h -67.968 v 75.1172 z M 11785.6,3359.1 a 186.36,186.36 0 1 0 372.7,0 186.36,186.36 0 1 0 -372.7,0 z m 163.7,188.0357 h 45.4 v 117.391 l -22.7,5.1733 -22.7,-5.1733 z m 291.6,251.6543 v 52.42 l -268.9,-155.3 v -26.21 l 22.7,-13.11 z m -280.3,-148.75 11.4,19.66 11.3,19.66 -153.3,88.53 -22.7,-39.32 z M 11468,3484.43 h 45.4 v 218.03 h -45.4 z m -113.5,0 h 45.4 v 218.03 h -45.4 z m -3.583,-115.6737 q 0,-26.25 7.851,-44.0625 5.86,-13.125 15.938,-23.5547 10.195,-10.4297 22.265,-15.4688 16.055,-6.7969 37.032,-6.7969 37.968,0 60.703,23.5547 22.851,23.5547 22.851,65.5078 0,41.6016 -22.617,65.1563 -22.617,23.4375 -60.469,23.4375 -38.32,0 -60.937,-23.3203 -22.617,-23.4375 -22.617,-64.4531 z m 35.742,-1.1719 q 0,29.1797 13.476,44.2969 13.477,15 34.219,15 20.742,0 33.985,-14.8829 13.359,-15 13.359,-44.8828 0,-29.5312 -13.008,-44.0625 -12.891,-14.5312 -34.336,-14.5312 -21.445,0 -34.57,14.7656 -13.125,14.6484 -13.125,44.2969 z m 211.241,370.5556 -22.7,39.32 -152.6,-88.1 22.7,-39.32 z m 36.153,382.03 v -171.7969 h 34.688 v 67.6172 h 67.968 v -67.6172 h 34.688 V 4120.17 h -34.688 v -75.1172 h -67.968 v 75.1172 z m 0.235,-200.67 v -171.7969 h 33.75 l 70.312,114.7266 v -114.7266 h 32.227 V 3919.5 h -34.805 l -69.258,-112.0312 V 3919.5 Z M 11434,3643.49 v 52.42 l -257.7,148.75 -22.6,-39.32 z"
     style="fill:#b0e2fa;fill-opacity:1" />
</svg>
