<?xml version="1.0" encoding="UTF-8" standalone="no"?>
<svg
   xmlns:dc="http://purl.org/dc/elements/1.1/"
   xmlns:cc="http://creativecommons.org/ns#"
   xmlns:rdf="http://www.w3.org/1999/02/22-rdf-syntax-ns#"
   xmlns:svg="http://www.w3.org/2000/svg"
   xmlns="http://www.w3.org/2000/svg"
   xmlns:sodipodi="http://sodipodi.sourceforge.net/DTD/sodipodi-0.dtd"
   xmlns:inkscape="http://www.inkscape.org/namespaces/inkscape"
   width="395px"
   height="128px"
   viewBox="0 0 395 128"
   style="background-color: #ffffff00"
   version="1.1"
   id="svg14876"
   sodipodi:docname="ligation10.svg"
   inkscape:version="0.92.4 (5da689c313, 2019-01-14)">
  <metadata
     id="metadata14882">
    <rdf:RDF>
      <cc:Work
         rdf:about="">
        <dc:format>image/svg+xml</dc:format>
        <dc:type
           rdf:resource="http://purl.org/dc/dcmitype/StillImage" />
      </cc:Work>
    </rdf:RDF>
  </metadata>
  <defs
     id="defs14880" />
  <sodipodi:namedview
     pagecolor="#ffffff"
     bordercolor="#666666"
     borderopacity="1"
     objecttolerance="10"
     gridtolerance="10"
     guidetolerance="10"
     inkscape:pageopacity="0"
     inkscape:pageshadow="2"
     inkscape:window-width="1920"
     inkscape:window-height="986"
     id="namedview14878"
     showgrid="false"
     inkscape:zoom="3.9696202"
     inkscape:cx="197.5"
     inkscape:cy="64"
     inkscape:window-x="-11"
     inkscape:window-y="-11"
     inkscape:window-maximized="1"
     inkscape:current-layer="svg14876" />
  <g
     aria-label="N"
     transform="matrix(0.1 0 0 0.1 50.5475 81.25)"
     style="font-style:normal;font-weight:bold;font-size:240px;font-family:Arial;fill:#b0e2fa;stroke:none"
     id="text14788" />
  <g
     aria-label="H"
     transform="matrix(0.1 0 0 0.1 50.5475 101.317)"
     style="font-style:normal;font-weight:bold;font-size:240px;font-family:Arial;fill:#b0e2fa;stroke:none"
     id="text14790" />
  <g
     aria-label="O"
     transform="matrix(0.1 0 0 0.1 22.9487 34.66)"
     style="font-style:normal;font-weight:bold;font-size:240px;font-family:Arial;fill:#b0e2fa;stroke:none"
     id="text14794" />
  <g
     aria-label="H"
     transform="matrix(0.1 0 0 0.1 131.244 45.6533)"
     style="font-style:normal;font-weight:bold;font-size:240px;font-family:Arial;fill:#b0e2fa;stroke:none"
     id="text14808" />
  <g
     aria-label="N"
     transform="matrix(0.1 0 0 0.1 131.244 65.72)"
     style="font-style:normal;font-weight:bold;font-size:240px;font-family:Arial;fill:#b0e2fa;stroke:none"
     id="text14810" />
  <g
     aria-label="O"
     transform="matrix(0.1 0 0 0.1 103.645 112.31)"
     style="font-style:normal;font-weight:bold;font-size:240px;font-family:Arial;fill:#b0e2fa;stroke:none"
     id="text14814" />
  <g
     aria-label="N"
     transform="matrix(0.1 0 0 0.1 211.94 81.25)"
     style="font-style:normal;font-weight:bold;font-size:240px;font-family:Arial;fill:#b0e2fa;stroke:none"
     id="text14828" />
  <g
     aria-label="H"
     transform="matrix(0.1 0 0 0.1 211.94 101.317)"
     style="font-style:normal;font-weight:bold;font-size:240px;font-family:Arial;fill:#b0e2fa;stroke:none"
     id="text14830" />
  <g
     aria-label="O"
     transform="matrix(0.1 0 0 0.1 184.341 34.66)"
     style="font-style:normal;font-weight:bold;font-size:240px;font-family:Arial;fill:#b0e2fa;stroke:none"
     id="text14834" />
  <g
     aria-label="H"
     transform="matrix(0.1 0 0 0.1 292.636 45.6533)"
     style="font-style:normal;font-weight:bold;font-size:240px;font-family:Arial;fill:#b0e2fa;stroke:none"
     id="text14848" />
  <g
     aria-label="N"
     transform="matrix(0.1 0 0 0.1 292.636 65.72)"
     style="font-style:normal;font-weight:bold;font-size:240px;font-family:Arial;fill:#b0e2fa;stroke:none"
     id="text14850" />
  <g
     aria-label="O"
     transform="matrix(0.1 0 0 0.1 265.037 112.31)"
     style="font-style:normal;font-weight:bold;font-size:240px;font-family:Arial;fill:#b0e2fa;stroke:none"
     id="text14854" />
  <g
     aria-label="N"
     transform="matrix(0.1 0 0 0.1 373.332 50.19)"
     style="font-style:normal;font-weight:bold;font-size:240px;font-family:Arial;fill:#b0e2fa;stroke:none"
     id="text14868" />
  <path
     id="path14874"
     transform="matrix(0.1 0 0 0.1 -1111.1 -310.7)"
     d="m 14857.4,3661.65 22.7,39.32 -150.2,86.68 -22.7,-39.32 z m -56.8,-98.29 22.7,39.32 -150.1,86.68 -22.7,-39.32 z m -56.7,-98.29 22.7,39.31 -150.2,86.69 -22.7,-39.32 z m 118.232,143.83 v -171.7969 h 33.75 l 70.313,114.7266 v -114.7266 h 32.227 V 3608.9 h -34.805 l -69.258,-112.0312 V 3608.9 Z m -655.632,526.7 a 186.36,186.36 0 1 0 372.7,0 186.36,186.36 0 1 0 -372.7,0 z m 209,-186.4158 h -45.4 v -118.9426 l 22.7,-5.2416 22.7,5.2416 z m 235,-299.1442 22.7,39.32 -257.7,148.75 -22.7,-13.11 v -26.21 z m -246.3,155.3 -11.4,19.66 -11.3,19.66 -150.7,-87.03 22.7,-39.32 z m -583.4,210.59 h -45.4 v -223.69 h 45.4 z m 113.5,0 h -45.4 v -223.69 h 45.4 z m -162.5,129.3263 q 0,-26.25 7.851,-44.0625 5.86,-13.125 15.938,-23.5547 10.195,-10.4297 22.265,-15.4688 16.055,-6.7969 37.032,-6.7969 37.968,0 60.703,23.5547 22.851,23.5547 22.851,65.5078 0,41.6016 -22.617,65.1563 -22.617,23.4375 -60.469,23.4375 -38.32,0 -60.937,-23.3203 -22.617,-23.4375 -22.617,-64.4531 z m 35.742,-1.1719 q 0,29.1797 13.476,44.2969 13.477,15 34.219,15 20.742,0 33.985,-14.8829 13.359,-15 13.359,-44.8828 0,-29.5312 -13.008,-44.0625 -12.891,-14.5312 -34.336,-14.5312 -21.445,0 -34.57,14.7656 -13.125,14.6484 -13.125,44.2969 z m 185.958,-425.3444 22.7,39.32 -150,86.6 -22.7,-39.32 z m 61.673,45.46 v -171.7969 h 33.75 l 70.312,114.7266 v -114.7266 h 32.227 V 3764.2 h -34.805 l -69.258,-112.0313 V 3764.2 Z m -0.235,-200.667 v -171.7969 h 34.688 v 67.6172 h 67.968 v -67.6172 h 34.688 v 171.7969 h -34.688 v -75.1172 h -67.968 v 75.1172 z M 13399.5,3359.1 a 186.36,186.36 0 1 0 372.7,0 186.36,186.36 0 1 0 -372.7,0 z m 163.7,183.8967 h 45.4 v 121.3553 l -22.7,5.348 -22.7,-5.348 z m 291.7,255.7933 v 52.42 l -269,-155.3 v -26.21 l 22.7,-13.11 z m -280.4,-148.75 11.4,19.66 11.3,19.66 -153.3,88.53 -22.7,-39.32 z M 13082,3484.43 h 45.4 v 218.03 h -45.4 z m -113.5,0 h 45.4 v 218.03 h -45.4 z m -3.66,-115.6737 q 0,-26.25 7.851,-44.0625 5.86,-13.125 15.938,-23.5547 10.195,-10.4297 22.265,-15.4688 16.055,-6.7969 37.032,-6.7969 37.968,0 60.703,23.5547 22.851,23.5547 22.851,65.5078 0,41.6016 -22.617,65.1563 -22.617,23.4375 -60.469,23.4375 -38.32,0 -60.937,-23.3203 -22.617,-23.4375 -22.617,-64.4531 z m 35.742,-1.1719 q 0,29.1797 13.476,44.2969 13.477,15 34.219,15 20.742,0 33.985,-14.8829 13.359,-15 13.359,-44.8828 0,-29.5312 -13.008,-44.0625 -12.891,-14.5312 -34.336,-14.5312 -21.445,0 -34.57,14.7656 -13.125,14.6484 -13.125,44.2969 z m 211.318,370.5556 -22.7,39.32 -152.6,-88.1 22.7,-39.32 z m 36.078,382.03 v -171.7969 h 34.688 v 67.6172 h 67.968 v -67.6172 h 34.688 V 4120.17 h -34.688 v -75.1172 h -67.968 v 75.1172 z m 0.234,-200.67 v -171.7969 h 33.75 l 70.313,114.7266 v -114.7266 h 32.227 V 3919.5 h -34.805 l -69.258,-112.0312 V 3919.5 Z m -655.612,216.1 a 186.36,186.36 0 1 0 372.7,0 186.36,186.36 0 1 0 -372.7,0 z m 209,-186.4158 h -45.4 v -118.9426 l 22.7,-5.2416 22.7,5.2416 z m 246.3,-305.6942 v 52.42 l -246.3,142.2 -22.7,-13.11 v -26.21 z m -257.6,161.85 -11.4,19.66 -11.3,19.66 -150.8,-87.03 22.7,-39.32 z m -583.4,210.59 h -45.4 v -223.69 h 45.4 z m 113.5,0 h -45.4 v -223.69 h 45.4 z m -162.52,129.3263 q 0,-26.25 7.851,-44.0625 5.86,-13.125 15.938,-23.5547 10.195,-10.4297 22.265,-15.4688 16.055,-6.7969 37.032,-6.7969 37.968,0 60.703,23.5547 22.851,23.5547 22.851,65.5078 0,41.6016 -22.617,65.1563 -22.617,23.4375 -60.469,23.4375 -38.32,0 -60.937,-23.3203 -22.617,-23.4375 -22.617,-64.4531 z m 35.742,-1.1719 q 0,29.1797 13.476,44.2969 13.477,15 34.219,15 20.742,0 33.985,-14.8829 13.359,-15 13.359,-44.8828 0,-29.5312 -13.008,-44.0625 -12.89,-14.5312 -34.336,-14.5312 -21.445,0 -34.57,14.7656 -13.125,14.6484 -13.125,44.2969 z m 185.978,-425.3444 22.7,39.32 -150,86.6 -22.7,-39.32 z m 61.653,45.46 v -171.7969 h 33.75 l 70.312,114.7266 v -114.7266 h 32.227 V 3764.2 h -34.805 l -69.258,-112.0313 V 3764.2 Z m -0.235,-200.667 v -171.7969 h 34.688 v 67.6172 h 67.968 v -67.6172 h 34.688 v 171.7969 h -34.688 v -75.1172 h -67.968 v 75.1172 z M 11785.6,3359.1 a 186.36,186.36 0 1 0 372.7,0 186.36,186.36 0 1 0 -372.7,0 z m 163.7,188.935 h 45.4 v 116.5297 l -22.7,5.1353 -22.7,-5.1353 z m 291.6,250.755 v 52.42 l -268.9,-155.3 v -26.21 l 22.7,-13.11 z m -280.3,-148.75 11.4,19.66 11.3,19.66 -153.3,88.53 -22.7,-39.32 z M 11468,3484.43 h 45.4 v 218.03 h -45.4 z m -113.5,0 h 45.4 v 218.03 h -45.4 z m -3.583,-115.6737 q 0,-26.25 7.851,-44.0625 5.86,-13.125 15.938,-23.5547 10.195,-10.4297 22.265,-15.4688 16.055,-6.7969 37.032,-6.7969 37.968,0 60.703,23.5547 22.851,23.5547 22.851,65.5078 0,41.6016 -22.617,65.1563 -22.617,23.4375 -60.469,23.4375 -38.32,0 -60.937,-23.3203 -22.617,-23.4375 -22.617,-64.4531 z m 35.742,-1.1719 q 0,29.1797 13.476,44.2969 13.477,15 34.219,15 20.742,0 33.985,-14.8829 13.359,-15 13.359,-44.8828 0,-29.5312 -13.008,-44.0625 -12.891,-14.5312 -34.336,-14.5312 -21.445,0 -34.57,14.7656 -13.125,14.6484 -13.125,44.2969 z m 211.241,370.5556 -22.7,39.32 -152.6,-88.1 22.7,-39.32 z m 36.153,382.03 v -171.7969 h 34.688 v 67.6172 h 67.968 v -67.6172 h 34.688 V 4120.17 h -34.688 v -75.1172 h -67.968 v 75.1172 z m 0.235,-200.67 v -171.7969 h 33.75 l 70.312,114.7266 v -114.7266 h 32.227 V 3919.5 h -34.805 l -69.258,-112.0312 V 3919.5 Z M 11434,3643.49 v 52.42 l -257.7,148.75 -22.6,-39.32 z" />
</svg>
