<?xml version="1.0" encoding="UTF-8" standalone="no"?>
<svg
   xmlns:dc="http://purl.org/dc/elements/1.1/"
   xmlns:cc="http://creativecommons.org/ns#"
   xmlns:rdf="http://www.w3.org/1999/02/22-rdf-syntax-ns#"
   xmlns:svg="http://www.w3.org/2000/svg"
   xmlns="http://www.w3.org/2000/svg"
   xmlns:sodipodi="http://sodipodi.sourceforge.net/DTD/sodipodi-0.dtd"
   xmlns:inkscape="http://www.inkscape.org/namespaces/inkscape"
   width="116.2475"
   height="67.72876"
   viewBox="0 0 116.2475 67.72876"
   version="1.1"
   id="svg507"
   sodipodi:docname="nucleic2.svg"
   inkscape:version="0.92.4 (5da689c313, 2019-01-14)">
  <metadata
     id="metadata513">
    <rdf:RDF>
      <cc:Work
         rdf:about="">
        <dc:format>image/svg+xml</dc:format>
        <dc:type
           rdf:resource="http://purl.org/dc/dcmitype/StillImage" />
      </cc:Work>
    </rdf:RDF>
  </metadata>
  <defs
     id="defs511" />
  <sodipodi:namedview
     pagecolor="#ffffff"
     bordercolor="#666666"
     borderopacity="1"
     objecttolerance="10"
     gridtolerance="10"
     guidetolerance="10"
     inkscape:pageopacity="0"
     inkscape:pageshadow="2"
     inkscape:window-width="1920"
     inkscape:window-height="986"
     id="namedview509"
     showgrid="false"
     inkscape:zoom="2.9873418"
     inkscape:cx="52.721949"
     inkscape:cy="35.13767"
     inkscape:window-x="-11"
     inkscape:window-y="-11"
     inkscape:window-maximized="1"
     inkscape:current-layer="svg507" />
  <g
     aria-label="O"
     transform="matrix(0.1,0,0,0.1,22.4613,67.43579)"
     style="font-style:normal;font-weight:bold;font-size:240px;font-family:Arial;fill:#000000;stroke:none"
     id="text483" />
  <g
     aria-label="N"
     transform="matrix(0.1,0,0,0.1,23.1613,17.17969)"
     style="font-style:normal;font-weight:bold;font-size:240px;font-family:Arial;fill:#000000;stroke:none"
     id="text485" />
  <g
     aria-label="NH"
     transform="matrix(0.1,0,0,0.1,72.4779,42.30779)"
     style="font-style:normal;font-weight:bold;font-size:240px;font-family:Arial;fill:#000000;stroke:none"
     id="text501" />
  <g
     aria-label="2"
     transform="matrix(0.1,0,0,0.1,107.142,47.40779)"
     style="font-style:normal;font-weight:bold;font-size:180px;font-family:Arial;fill:#000000;stroke:none"
     id="text503" />
  <path
     id="path505"
     d="m 70.88,30.58809 v 4.54 H 50.07 v -2.27 -2.27 z m 45.3675,14.52575 v 2.29395 h -8.6573 q 0.1407,-1.30078 0.8438,-2.46094 0.7031,-1.16894 2.7773,-3.09375 1.67,-1.55566 2.0479,-2.10937 0.5098,-0.76465 0.5098,-1.51172 0,-0.82617 -0.4483,-1.26563 -0.4394,-0.44824 -1.2217,-0.44824 -0.7734,0 -1.2304,0.46582 -0.4571,0.46582 -0.5274,1.54688 l -2.4609,-0.2461 q 0.2197,-2.03906 1.3799,-2.92676 1.1601,-0.88769 2.9004,-0.88769 1.9072,0 2.997,1.02832 1.0899,1.02832 1.0899,2.55762 0,0.87011 -0.3164,1.66113 -0.3077,0.78223 -0.9844,1.64355 -0.4483,0.57129 -1.6172,1.64356 -1.1689,1.07227 -1.4854,1.42383 -0.3076,0.35156 -0.5009,0.68554 z M 91.5795,42.30779 V 25.1281 h 3.4687 v 6.76172 h 6.7969 V 25.1281 h 3.4687 v 17.17969 h -3.4687 v -7.51172 h -6.7969 v 7.51172 z m -17.3204,0 V 25.1281 h 3.375 l 7.0313,11.47266 V 25.1281 h 3.2227 V 42.30779 H 84.4076 L 77.4818,31.10467 V 42.30779 Z M 2.97,19.48709 l -1.4,-4.318 17.71,-5.753 1.4,4.318 z m 26.33,7.957 3.67,-2.668 4.91,6.747 -3.68,2.669 z m 9.18,-6.671 3.67,-2.668 9.75,13.418 -1.83,1.335 -1.84,1.334 z m 9.75,10.75 1.84,1.335 1.83,1.334 -11.13,15.321 -3.67,-2.668 z m -26.95,20.653 -1.41,4.318 -18.3,-5.947 1.4,-4.318 z m -5.39,-12.035 h -4.54 v -14.567 h 4.54 z m -11.35,6.597 -4.54,3.299 v -34.359 l 4.54,3.299 z M 24.9426,17.17969 V 0 h 3.375 l 7.0312,11.47266 V 0 h 3.2227 V 17.17969 H 35.091 L 28.1652,5.97657 v 11.20312 z m -1.4383,41.77172 q 0,-2.625 0.7851,-4.40625 0.586,-1.3125 1.5938,-2.35546 1.0195,-1.04297 2.2265,-1.54688 1.6055,-0.67969 3.7032,-0.67969 3.7968,0 6.0703,2.35547 2.2851,2.35547 2.2851,6.55078 0,4.16016 -2.2617,6.51563 -2.2617,2.34375 -6.0469,2.34375 -3.832,0 -6.0937,-2.33203 -2.2617,-2.34375 -2.2617,-6.44532 z m 3.5742,-0.11718 q 0,2.91797 1.3476,4.42968 1.3477,1.5 3.4219,1.5 2.0742,0 3.3985,-1.48828 1.3359,-1.5 1.3359,-4.48828 0,-2.95312 -1.3008,-4.40625 -1.289,-1.45312 -3.4336,-1.45312 -2.1445,0 -3.457,1.47656 -1.3125,1.46484 -1.3125,4.42969 z"
     inkscape:connector-curvature="0"
     style="stroke-width:0.1" />
</svg>
