<?xml version="1.0" encoding="UTF-8" standalone="no"?>
<svg
   xmlns:dc="http://purl.org/dc/elements/1.1/"
   xmlns:cc="http://creativecommons.org/ns#"
   xmlns:rdf="http://www.w3.org/1999/02/22-rdf-syntax-ns#"
   xmlns:svg="http://www.w3.org/2000/svg"
   xmlns="http://www.w3.org/2000/svg"
   xmlns:sodipodi="http://sodipodi.sourceforge.net/DTD/sodipodi-0.dtd"
   xmlns:inkscape="http://www.inkscape.org/namespaces/inkscape"
   width="268.29529"
   height="183.04776"
   viewBox="0 0 268.29529 183.04776"
   version="1.1"
   id="svg1614"
   sodipodi:docname="nucleic8.svg"
   inkscape:version="0.92.4 (5da689c313, 2019-01-14)">
  <metadata
     id="metadata1620">
    <rdf:RDF>
      <cc:Work
         rdf:about="">
        <dc:format>image/svg+xml</dc:format>
        <dc:type
           rdf:resource="http://purl.org/dc/dcmitype/StillImage" />
      </cc:Work>
    </rdf:RDF>
  </metadata>
  <defs
     id="defs1618" />
  <sodipodi:namedview
     pagecolor="#ffffff"
     bordercolor="#666666"
     borderopacity="1"
     objecttolerance="10"
     gridtolerance="10"
     guidetolerance="10"
     inkscape:pageopacity="0"
     inkscape:pageshadow="2"
     inkscape:window-width="1920"
     inkscape:window-height="986"
     id="namedview1616"
     showgrid="false"
     inkscape:zoom="1.2102564"
     inkscape:cx="118.85705"
     inkscape:cy="93.19697"
     inkscape:window-x="-11"
     inkscape:window-y="-11"
     inkscape:window-maximized="1"
     inkscape:current-layer="svg1614" />
  <g
     aria-label="O"
     transform="matrix(0.1,0,0,0.1,92.8186,60.21219)"
     style="font-style:normal;font-weight:bold;font-size:240px;font-family:Arial;fill:#000000;stroke:none"
     id="text1532" />
  <g
     aria-label="HO"
     transform="matrix(0.1,0,0,0.1,-1.75782,90.95579)"
     style="font-style:normal;font-weight:bold;font-size:240px;font-family:Arial;fill:#000000;stroke:none"
     id="text1546" />
  <g
     aria-label="N"
     transform="matrix(0.1,0,0,0.1,144.8238,65.45129)"
     style="font-style:normal;font-weight:bold;font-size:240px;font-family:Arial;fill:#000000;stroke:none"
     id="text1550" />
  <g
     aria-label="O"
     transform="matrix(0.1,0,0,0.1,68.9932,137.95979)"
     style="font-style:normal;font-weight:bold;font-size:240px;font-family:Arial;fill:#000000;stroke:none"
     id="text1554" />
  <g
     aria-label="P"
     transform="matrix(0.1,0,0,0.1,95.7748,155.79179)"
     style="font-style:normal;font-weight:bold;font-size:240px;font-family:Arial;fill:#000000;stroke:none"
     id="text1556" />
  <g
     aria-label="O"
     transform="matrix(0.1,0,0,0.1,119.2418,137.95979)"
     style="font-style:normal;font-weight:bold;font-size:240px;font-family:Arial;fill:#000000;stroke:none"
     id="text1558" />
  <g
     aria-label="O"
     transform="matrix(0.1,0,0,0.1,66.4616,182.75479)"
     style="font-style:normal;font-weight:bold;font-size:240px;font-family:Arial;fill:#000000;stroke:none"
     id="text1572" />
  <g
     aria-label="O"
     transform="matrix(0.1,0,0,0.1,116.3868,177.75479)"
     style="font-style:normal;font-weight:bold;font-size:240px;font-family:Arial;fill:#000000;stroke:none"
     id="text1578" />
  <g
     aria-label="N"
     transform="matrix(0.1,0,0,0.1,198.6098,64.32339)"
     style="font-style:normal;font-weight:bold;font-size:240px;font-family:Arial;fill:#000000;stroke:none"
     id="text1584" />
  <g
     aria-label="O"
     transform="matrix(0.1,0,0,0.1,171.9938,111.46679)"
     style="font-style:normal;font-weight:bold;font-size:240px;font-family:Arial;fill:#000000;stroke:none"
     id="text1602" />
  <g
     aria-label="NH"
     transform="matrix(0.1,0,0,0.1,224.5258,17.17969)"
     style="font-style:normal;font-weight:bold;font-size:240px;font-family:Arial;fill:#000000;stroke:none"
     id="text1608" />
  <g
     aria-label="2"
     transform="matrix(0.1,0,0,0.1,259.1898,22.27969)"
     style="font-style:normal;font-weight:bold;font-size:180px;font-family:Arial;fill:#000000;stroke:none"
     id="text1610" />
  <path
     id="path1612"
     d="m 220.1868,12.94179 2.35,3.883 -14.75,8.937 -1.18,-1.942 -1.17,-1.941 z m 48.1085,7.04395 v 2.29395 h -8.6573 q 0.1407,-1.30078 0.8438,-2.46094 0.7031,-1.16894 2.7773,-3.09375 1.67,-1.55566 2.0479,-2.10937 0.5098,-0.76465 0.5098,-1.51172 0,-0.82617 -0.4483,-1.26563 -0.4394,-0.44824 -1.2217,-0.44824 -0.7734,0 -1.2304,0.46582 -0.4571,0.46582 -0.5274,1.54688 l -2.4609,-0.2461 q 0.2197,-2.03906 1.3799,-2.92676 1.1601,-0.88769 2.9004,-0.88769 1.9072,0 2.997,1.02832 1.0899,1.02832 1.0899,2.55762 0,0.87011 -0.3164,1.66113 -0.3077,0.78223 -0.9844,1.64355 -0.4483,0.57129 -1.6172,1.64356 -1.1689,1.07227 -1.4854,1.42383 -0.3076,0.35156 -0.5009,0.68554 z M 243.6274,17.17969 V 0 h 3.4687 v 6.76172 h 6.7969 V 0 h 3.4687 V 17.17969 H 253.893 V 9.66797 h -6.7969 v 7.51172 z m -17.3204,0 V 0 h 3.375 l 7.0313,11.47266 V 0 h 3.2227 v 17.17969 h -3.4805 L 229.5297,5.97657 v 11.20312 z m -48.6202,72.9471 -4.54,0.095 -0.47,-22.367 4.54,-0.095 z m 11.35,-0.238 -4.54,0.095 -0.47,-22.367 4.54,-0.095 z m -16,13.09362 q 0,-2.625 0.7851,-4.40625 0.586,-1.3125 1.5938,-2.35546 1.0195,-1.04297 2.2265,-1.54688 1.6055,-0.67969 3.7032,-0.67969 3.7968,0 6.0703,2.35547 2.2851,2.35547 2.2851,6.55078 0,4.16016 -2.2617,6.51563 -2.2617,2.34375 -6.0469,2.34375 -3.832,0 -6.0937,-2.33203 -2.2617,-2.34375 -2.2617,-6.44532 z m 3.5742,-0.11718 q 0,2.91797 1.3476,4.42968 1.3477,1.5 3.4219,1.5 2.0742,0 3.3985,-1.48828 1.3359,-1.5 1.3359,-4.48828 0,-2.95312 -1.3008,-4.40625 -1.2891,-1.45312 -3.4336,-1.45312 -2.1445,0 -3.457,1.47656 -1.3125,1.46484 -1.3125,4.42969 z m -21.1142,-58.52344 -4.54,0.095 -0.4,-19.441 4.54,-0.095 z m 9.99,-11.139 -2.35,-3.883 15.35,-9.301 2.35,3.883 z m -10.37,-6.992 -4.59,-2.525 28.81,-17.449 0.11,5.241 z m 24.33,-14.733 -0.11,-5.241 27.22,14.963 0.05,2.62 -2.24,1.358 z m 13.68,19.179 4.54,-0.095 0.27,12.89 -4.54,0.095 z m 11.21,-6.789 2.27,-0.048 2.27,-0.047 0.41,19.441 -4.54,0.095 z m -10.06,36.218 2.35,3.883 -14.76,8.937 -2.35,-3.884 z m -12.49,8.889 -2.19,3.978 -15.35,-8.437 2.19,-3.978 z m 18.6042,-4.6514 V 47.1437 h 3.375 l 7.0313,11.47266 V 47.1437 h 3.2227 v 17.17969 h -3.4805 l -6.9258,-11.20313 v 11.20313 z m -63.4242,92.3114 h 12.54 v 3.6 h -12.54 z m -18.14,1.552 -3.21,3.21 -7.9,-7.904 3.21,-3.211 z m -1.397,11.08362 q 0,-2.625 0.7851,-4.40625 0.586,-1.3125 1.5938,-2.35546 1.0195,-1.04297 2.2265,-1.54688 1.6055,-0.67969 3.7032,-0.67969 3.7968,0 6.0703,2.35547 2.2851,2.35547 2.2851,6.55078 0,4.16016 -2.2617,6.51563 -2.2617,2.34375 -6.0469,2.34375 -3.832,0 -6.0937,-2.33203 -2.2617,-2.34375 -2.2617,-6.44532 z m 3.5742,-0.11718 q 0,2.91797 1.3476,4.42968 1.3477,1.5 3.4219,1.5 2.0742,0 3.3985,-1.48828 1.3359,-1.5 1.3359,-4.48828 0,-2.95312 -1.3008,-4.40625 -1.2891,-1.45312 -3.4336,-1.45312 -2.1445,0 -3.457,1.47656 -1.3125,1.46484 -1.3125,4.42969 z m -38.8872,-6.66344 -3.15,-3.268 9.24,-8.91 3.15,3.268 z m 7.88,8.171 -3.15,-3.268 9.24,-8.91 3.15,3.268 z m -22.4922,3.60962 q 0,-2.625 0.7851,-4.40625 0.586,-1.3125 1.5938,-2.35546 1.0195,-1.04297 2.2265,-1.54688 1.6055,-0.67969 3.7032,-0.67969 3.7968,0 6.0703,2.35547 2.2851,2.35547 2.2851,6.55078 0,4.16016 -2.2617,6.51563 -2.2617,2.34375 -6.0469,2.34375 -3.832,0 -6.0937,-2.33203 -2.2617,-2.34375 -2.2617,-6.44532 z m 3.5742,-0.11718 q 0,2.91797 1.3476,4.42968 1.3477,1.5 3.4219,1.5 2.0742,0 3.3985,-1.48828 1.3359,-1.5 1.3359,-4.48828 0,-2.95312 -1.3008,-4.40625 -1.2891,-1.45312 -3.4336,-1.45312 -2.1445,0 -3.457,1.47656 -1.3125,1.46484 -1.3125,4.42969 z m 48.818,-60.26144 6.86,-2.294 2.03,4.109 -8.05,2.689 z m -1.84,-9.758 4.31,-1.439 2.03,4.109 -5.49,1.833 z m -0.82,29.743 2.65,3.686 -5.12,3.678 -2.65,-3.687 z m -22.96,3.032 -2.61,3.717 -4.49,-3.149 2.61,-3.717 z m -6.94,-27.751 -5.6,-1.716 1.96,-4.148 4.34,1.33 z m -1.4,9.073 -8.12,-2.487 1.96,-4.148 6.86,2.102 z m 34.348,11.24462 q 0,-2.625 0.7851,-4.40625 0.586,-1.3125 1.5938,-2.35546 1.0195,-1.04297 2.2265,-1.54688 1.6055,-0.67969 3.7032,-0.67969 3.7968,0 6.0703,2.35547 2.2851,2.35547 2.2851,6.55078 0,4.16016 -2.2617,6.51563 -2.2617,2.34375 -6.0469,2.34375 -3.832,0 -6.0937,-2.33203 -2.2617,-2.34375 -2.2617,-6.44532 z m 3.5742,-0.11718 q 0,2.91797 1.3476,4.42968 1.3477,1.5 3.4219,1.5 2.0742,0 3.3985,-1.48828 1.3359,-1.5 1.3359,-4.48828 0,-2.95312 -1.3008,-4.40625 -1.2891,-1.45312 -3.4336,-1.45312 -2.1445,0 -3.457,1.47656 -1.3125,1.46484 -1.3125,4.42969 z M 97.5209,155.79179 V 138.6121 h 5.5664 q 3.1641,0 4.125,0.25781 1.4766,0.38672 2.4727,1.6875 0.9961,1.28907 0.9961,3.33985 0,1.58203 -0.5743,2.66015 -0.5742,1.07813 -1.4648,1.69922 -0.8789,0.60938 -1.793,0.8086 -1.2422,0.24609 -3.5976,0.24609 h -2.2618 v 6.48047 z m 3.4687,-14.27344 v 4.875 h 1.8985 q 2.0508,0 2.7422,-0.26953 0.6914,-0.26953 1.0781,-0.84375 0.3984,-0.57422 0.3984,-1.33594 0,-0.9375 -0.5507,-1.54687 -0.5508,-0.60938 -1.3946,-0.76172 -0.6211,-0.11719 -2.4961,-0.11719 z M 70.0362,129.47541 q 0,-2.625 0.7851,-4.40625 0.586,-1.3125 1.5938,-2.35546 1.0195,-1.04297 2.2265,-1.54688 1.6055,-0.67969 3.7032,-0.67969 3.7968,0 6.0703,2.35547 2.2851,2.35547 2.2851,6.55078 0,4.16016 -2.2617,6.51563 -2.2617,2.34375 -6.0469,2.34375 -3.832,0 -6.0937,-2.33203 -2.2617,-2.34375 -2.2617,-6.44532 z m 3.5742,-0.11718 q 0,2.91797 1.3476,4.42968 1.3477,1.5 3.4219,1.5 2.0742,0 3.3985,-1.48828 1.3359,-1.5 1.3359,-4.48828 0,-2.95312 -1.3008,-4.40625 -1.2891,-1.45312 -3.4336,-1.45312 -2.1445,0 -3.457,1.47656 -1.3125,1.46484 -1.3125,4.42969 z m 65.9564,-71.30844 3.71,7.634 -14.68,4.951 -1,-2.041 -0.99,-2.041 z m 7.0382,7.4015 V 48.2716 h 3.375 l 7.0313,11.47266 V 48.2716 h 3.2227 v 17.17969 h -3.4805 l -6.9258,-11.20313 v 11.20313 z m -111.2882,9.4795 -3.1,-3.322 16.53,-15.388 -2.16,8.217 z m -18.6879,7.54062 q 0,-2.625 0.7852,-4.40625 0.5859,-1.3125 1.5937,-2.35546 1.0195,-1.04297 2.2266,-1.54688 1.6054,-0.67969 3.7031,-0.67969 3.7969,0 6.0703,2.35547 2.2852,2.35547 2.2852,6.55078 0,4.16016 -2.2618,6.51563 -2.2617,2.34375 -6.0468,2.34375 -3.8321,0 -6.0938,-2.33203 -2.2617,-2.34375 -2.2617,-6.44532 z m 3.5742,-0.11718 q 0,2.91797 1.3477,4.42968 1.3476,1.5 3.4218,1.5 2.0743,0 3.3985,-1.48828 1.3359,-1.5 1.3359,-4.48828 0,-2.95312 -1.3008,-4.40625 -1.289,-1.45312 -3.4336,-1.45312 -2.1445,0 -3.457,1.47656 -1.3125,1.46484 -1.3125,4.42969 z M 0,90.95579 V 73.7761 h 3.4687 v 6.76172 h 6.7969 V 73.7761 h 3.4688 V 90.95579 H 10.2656 V 83.44407 H 3.4687 v 7.51172 z m 46.5868,-26.518 2.16,-8.217 28.23,10.656 0.37,2.562 -1.74,1.913 z m 32.13,6.814 -1.37,-1.813 -1.36,-1.814 14.92,-11.231 2.73,3.627 z m 32.29,-11.522 2.6,-3.717 15.3,10.723 -1.31,1.858 -1.3,1.859 z m 13.94,9.776 2.65,-0.912 1.84,1.757 -9.25,30.182 -3.37,-4.484 z m -8.13,26.543 3.37,4.484 -34.35,0.577 3.22,-4.594 z m -27.76,0.467 -3.22,4.594 -10.23,-29.758 1.74,-1.913 2.69,0.822 z m 4.8048,-44.78798 q 0,-2.625 0.7851,-4.40625 0.586,-1.3125 1.5938,-2.35546 1.0195,-1.04297 2.2265,-1.54688 1.6055,-0.67969 3.7032,-0.67969 3.7968,0 6.0703,2.35547 2.2851,2.35547 2.2851,6.55078 0,4.16016 -2.2617,6.51563 -2.2617,2.34375 -6.0469,2.34375 -3.832,0 -6.0937,-2.33203 -2.2617,-2.34375 -2.2617,-6.44532 z m 3.5742,-0.11718 q 0,2.91797 1.3476,4.42968 1.3477,1.5 3.4219,1.5 2.0742,0 3.3985,-1.48828 1.3359,-1.5 1.3359,-4.48828 0,-2.95312 -1.3008,-4.40625 -1.2891,-1.45312 -3.4336,-1.45312 -2.1445,0 -3.457,1.47656 -1.3125,1.46484 -1.3125,4.42969 z"
     inkscape:connector-curvature="0"
     style="stroke-width:0.1" />
</svg>
