<?xml version="1.0" encoding="UTF-8" standalone="no"?>
<svg
   xmlns:dc="http://purl.org/dc/elements/1.1/"
   xmlns:cc="http://creativecommons.org/ns#"
   xmlns:rdf="http://www.w3.org/1999/02/22-rdf-syntax-ns#"
   xmlns:svg="http://www.w3.org/2000/svg"
   xmlns="http://www.w3.org/2000/svg"
   xmlns:sodipodi="http://sodipodi.sourceforge.net/DTD/sodipodi-0.dtd"
   xmlns:inkscape="http://www.inkscape.org/namespaces/inkscape"
   width="244.2198"
   height="57.233662"
   viewBox="0 0 244.2198 57.233662"
   version="1.1"
   id="svg372"
   sodipodi:docname="nucleic1.svg"
   inkscape:version="0.92.4 (5da689c313, 2019-01-14)">
  <metadata
     id="metadata378">
    <rdf:RDF>
      <cc:Work
         rdf:about="">
        <dc:format>image/svg+xml</dc:format>
        <dc:type
           rdf:resource="http://purl.org/dc/dcmitype/StillImage" />
      </cc:Work>
    </rdf:RDF>
  </metadata>
  <defs
     id="defs376" />
  <sodipodi:namedview
     pagecolor="#ffffff"
     bordercolor="#666666"
     borderopacity="1"
     objecttolerance="10"
     gridtolerance="10"
     guidetolerance="10"
     inkscape:pageopacity="0"
     inkscape:pageshadow="2"
     inkscape:window-width="1920"
     inkscape:window-height="986"
     id="namedview374"
     showgrid="false"
     inkscape:zoom="1.53125"
     inkscape:cx="110.73803"
     inkscape:cy="30.221"
     inkscape:window-x="-11"
     inkscape:window-y="-11"
     inkscape:window-maximized="1"
     inkscape:current-layer="svg372" />
  <g
     aria-label="O"
     transform="matrix(0.1,0,0,0.1,-1.04301,17.47266)"
     style="font-style:normal;font-weight:bold;font-size:240px;font-family:Arial;fill:#000000;stroke:none"
     id="text346" />
  <g
     aria-label="OH"
     transform="matrix(0.1,0,0,0.1,47.0795,48.53266)"
     style="font-style:normal;font-weight:bold;font-size:240px;font-family:Arial;fill:#000000;stroke:none"
     id="text352" />
  <g
     aria-label="N"
     transform="matrix(0.1,0,0,0.1,228.8096,41.39596)"
     style="font-style:normal;font-weight:bold;font-size:240px;font-family:Arial;fill:#000000;stroke:none"
     id="text356" />
  <g
     aria-label="H"
     transform="matrix(0.1,0,0,0.1,139.3156,41.39596)"
     style="font-style:normal;font-weight:bold;font-size:240px;font-family:Arial;fill:#000000;stroke:none"
     id="text364" />
  <g
     aria-label="2"
     transform="matrix(0.1,0,0,0.1,156.6476,46.49596)"
     style="font-style:normal;font-weight:bold;font-size:180px;font-family:Arial;fill:#000000;stroke:none"
     id="text366" />
  <g
     aria-label="N"
     transform="matrix(0.1,0,0,0.1,166.6576,41.39596)"
     style="font-style:normal;font-weight:bold;font-size:240px;font-family:Arial;fill:#000000;stroke:none"
     id="text368" />
  <path
     id="path370"
     d="m 185.4166,34.21566 v -4.54 h 20.98 v 4.54 z m -16.9778,7.1803 V 24.21627 h 3.375 l 7.0313,11.47266 V 24.21627 h 3.2227 v 17.17969 h -3.4805 l -6.9258,-11.20313 v 11.20313 z m -2.6857,2.80605 v 2.29395 h -8.6573 q 0.1407,-1.30078 0.8438,-2.46094 0.7031,-1.16894 2.7773,-3.09375 1.67,-1.55566 2.0479,-2.10937 0.5098,-0.76465 0.5098,-1.51172 0,-0.82617 -0.4483,-1.26563 -0.4394,-0.44824 -1.2217,-0.44824 -0.7734,0 -1.2304,0.46582 -0.4571,0.46582 -0.5274,1.54688 l -2.4609,-0.2461 q 0.2197,-2.03906 1.3799,-2.92676 1.1601,-0.88769 2.9004,-0.88769 1.9072,0 2.997,1.02832 1.0899,1.02832 1.0899,2.55762 0,0.87011 -0.3164,1.66113 -0.3077,0.78223 -0.9844,1.64355 -0.4483,0.57129 -1.6172,1.64356 -1.1689,1.07227 -1.4854,1.42383 -0.3076,0.35156 -0.5009,0.68554 z M 141.0734,41.39596 V 24.21627 h 3.4688 v 6.76172 h 6.7968 v -6.76172 h 3.4688 v 17.17969 h -3.4688 v -7.51172 h -6.7968 v 7.51172 z m 86.1332,-0.3703 v 4.54 h -20.81 v -4.54 z m 0,-11.35 v 4.54 h -20.81 v -4.54 z m 0,-11.35 v 4.54 h -20.81 v -4.54 z m 3.3843,23.0703 V 24.21627 h 3.375 l 7.0312,11.47266 V 24.21627 h 3.2227 v 17.17969 h -3.4805 l -6.9258,-11.20313 v 11.20313 z m -185.9043,1.8437 2.27,3.932 -16.29,9.407 -2.27,-3.932 z m 22.807,5.293 V 31.35297 h 3.4687 v 6.76172 h 6.7969 v -6.76172 h 3.4687 v 17.17969 h -3.4687 v -7.51172 h -6.7969 v 7.51172 z M 48.1225,40.04828 q 0,-2.625 0.7851,-4.40625 0.586,-1.3125 1.5938,-2.35546 1.0195,-1.04297 2.2265,-1.54688 1.6055,-0.67969 3.7032,-0.67969 3.7968,0 6.0703,2.35547 2.2851,2.35547 2.2851,6.55078 0,4.16016 -2.2617,6.51563 -2.2617,2.34375 -6.0469,2.34375 -3.832,0 -6.0937,-2.33203 -2.2617,-2.34375 -2.2617,-6.44532 z m 3.5742,-0.11718 q 0,2.91797 1.3476,4.42968 1.3477,1.5 3.4219,1.5 2.0742,0 3.3985,-1.48828 1.3359,-1.5 1.3359,-4.48828 0,-2.95312 -1.3008,-4.40625 -1.289,-1.45312 -3.4336,-1.45312 -2.1445,0 -3.457,1.47656 -1.3125,1.46484 -1.3125,4.42969 z M 11.7166,20.55566 h 4.54 v 11.974 h -4.54 z m -11.35,0 h 4.54 v 18.527 h -4.54 z M 0,8.98829 Q 0,6.36329 0.7851,4.58204 1.3711,3.26954 2.3789,2.22657 3.3984,1.1836 4.6054,0.67969 6.2109,0 8.3086,0 q 3.7968,0 6.0703,2.35547 2.2851,2.35547 2.2851,6.55078 0,4.16016 -2.2617,6.51563 -2.2617,2.34375 -6.0469,2.34375 -3.832,0 -6.0937,-2.33203 Q 0,13.08985 0,8.98829 Z M 3.5742,8.8711 q 0,2.91797 1.3476,4.42969 1.3477,1.5 3.4219,1.5 2.0742,0 3.3984,-1.48829 1.336,-1.5 1.336,-4.48828 0,-2.95312 -1.3008,-4.40625 -1.2891,-1.45312 -3.4336,-1.45312 -2.1445,0 -3.457,1.47656 Q 3.5742,5.90625 3.5742,8.8711 Z m 25.9524,43.12056 v 5.242 l -29.16,-16.84 4.54,-2.622 z"
     inkscape:connector-curvature="0"
     style="stroke-width:0.1" />
</svg>
