<?xml version="1.0" encoding="UTF-8" standalone="no"?>
<svg
   xmlns:dc="http://purl.org/dc/elements/1.1/"
   xmlns:cc="http://creativecommons.org/ns#"
   xmlns:rdf="http://www.w3.org/1999/02/22-rdf-syntax-ns#"
   xmlns:svg="http://www.w3.org/2000/svg"
   xmlns="http://www.w3.org/2000/svg"
   xmlns:sodipodi="http://sodipodi.sourceforge.net/DTD/sodipodi-0.dtd"
   xmlns:inkscape="http://www.inkscape.org/namespaces/inkscape"
   width="308.65619"
   height="75.090431"
   viewBox="0 0 308.65619 75.090431"
   version="1.1"
   id="svg622"
   sodipodi:docname="nucleic3.svg"
   inkscape:version="0.92.4 (5da689c313, 2019-01-14)">
  <metadata
     id="metadata628">
    <rdf:RDF>
      <cc:Work
         rdf:about="">
        <dc:format>image/svg+xml</dc:format>
        <dc:type
           rdf:resource="http://purl.org/dc/dcmitype/StillImage" />
      </cc:Work>
    </rdf:RDF>
  </metadata>
  <defs
     id="defs626" />
  <sodipodi:namedview
     pagecolor="#ffffff"
     bordercolor="#666666"
     borderopacity="1"
     objecttolerance="10"
     gridtolerance="10"
     guidetolerance="10"
     inkscape:pageopacity="0"
     inkscape:pageshadow="2"
     inkscape:window-width="1920"
     inkscape:window-height="986"
     id="namedview624"
     showgrid="false"
     inkscape:zoom="1.225"
     inkscape:cx="139.53599"
     inkscape:cy="39.47107"
     inkscape:window-x="-11"
     inkscape:window-y="-11"
     inkscape:window-maximized="1"
     inkscape:current-layer="svg622" />
  <g
     aria-label="OH"
     transform="matrix(0.1,0,0,0.1,96.2707,17.47266)"
     style="font-style:normal;font-weight:bold;font-size:240px;font-family:Arial;fill:#000000;stroke:none"
     id="text580" />
  <g
     aria-label="HO"
     transform="matrix(0.1,0,0,0.1,-1.75783,33.00266)"
     style="font-style:normal;font-weight:bold;font-size:240px;font-family:Arial;fill:#000000;stroke:none"
     id="text586" />
  <g
     aria-label="O"
     transform="matrix(0.1,0,0,0.1,39.6355,74.67806)"
     style="font-style:normal;font-weight:bold;font-size:240px;font-family:Arial;fill:#000000;stroke:none"
     id="text592" />
  <g
     aria-label="O"
     transform="matrix(0.1,0,0,0.1,214.8697,74.79746)"
     style="font-style:normal;font-weight:bold;font-size:240px;font-family:Arial;fill:#000000;stroke:none"
     id="text598" />
  <g
     aria-label="N"
     transform="matrix(0.1,0,0,0.1,215.5697,24.54126)"
     style="font-style:normal;font-weight:bold;font-size:240px;font-family:Arial;fill:#000000;stroke:none"
     id="text600" />
  <g
     aria-label="NH"
     transform="matrix(0.1,0,0,0.1,264.8867,49.66936)"
     style="font-style:normal;font-weight:bold;font-size:240px;font-family:Arial;fill:#000000;stroke:none"
     id="text616" />
  <g
     aria-label="2"
     transform="matrix(0.1,0,0,0.1,299.5507,54.76936)"
     style="font-style:normal;font-weight:bold;font-size:180px;font-family:Arial;fill:#000000;stroke:none"
     id="text618" />
  <path
     id="path620"
     d="m 263.2817,37.94936 v 4.54 h -20.81 v -2.27 -2.27 z m 45.3745,14.52605 v 2.29395 h -8.6573 q 0.1407,-1.30078 0.8438,-2.46094 0.7031,-1.16894 2.7773,-3.09375 1.67,-1.55566 2.0479,-2.10937 0.5098,-0.76465 0.5098,-1.51172 0,-0.82617 -0.4483,-1.26563 -0.4394,-0.44824 -1.2217,-0.44824 -0.7734,0 -1.2304,0.46582 -0.4571,0.46582 -0.5274,1.54688 l -2.4609,-0.2461 q 0.2197,-2.03906 1.3799,-2.92676 1.1601,-0.88769 2.9004,-0.88769 1.9072,0 2.997,1.02832 1.0899,1.02832 1.0899,2.55762 0,0.87011 -0.3164,1.66113 -0.3077,0.78223 -0.9844,1.64355 -0.4483,0.57129 -1.6172,1.64356 -1.1689,1.07227 -1.4854,1.42383 -0.3076,0.35156 -0.5009,0.68554 z M 283.9883,49.66936 V 32.48967 h 3.4687 v 6.76172 h 6.7969 v -6.76172 h 3.4687 v 17.17969 h -3.4687 v -7.51172 h -6.7969 v 7.51172 z m -17.3204,0 V 32.48967 h 3.375 l 7.0313,11.47266 V 32.48967 h 3.2227 v 17.17969 h -3.4805 l -6.9258,-11.20313 v 11.20313 z m -71.2862,-22.821 -1.4,-4.318 17.7,-5.753 1.4,4.318 z m 26.33,7.958 3.67,-2.669 4.9,6.748 -3.67,2.668 z m 9.18,-6.672 3.67,-2.668 9.75,13.419 -1.84,1.334 -1.83,1.334 z m 9.75,10.751 1.83,1.334 1.84,1.334 -11.13,15.321 -3.67,-2.668 z m -26.96,20.653 -1.4,4.317 -18.3,-5.947 1.4,-4.318 z m -5.38,-12.035 h -4.54 v -14.568 h 4.54 z m -11.35,6.597 -4.54,3.298 v -34.358 l 4.54,3.298 z m 20.3992,-29.5591 V 7.36157 h 3.375 l 7.0313,11.47266 V 7.36157 h 3.2227 v 17.17969 h -3.4805 l -6.9258,-11.20313 v 11.20313 z m -1.4382,41.77182 q 0,-2.625 0.7851,-4.40625 0.586,-1.3125 1.5938,-2.35546 1.0195,-1.04297 2.2265,-1.54688 1.6055,-0.67969 3.7032,-0.67969 3.7968,0 6.0703,2.35547 2.2851,2.35547 2.2851,6.55078 0,4.16016 -2.2617,6.51563 -2.2617,2.34375 -6.0469,2.34375 -3.832,0 -6.0937,-2.33203 -2.2617,-2.34375 -2.2617,-6.44532 z m 3.5742,-0.11718 q 0,2.91797 1.3476,4.42968 1.3477,1.5 3.4219,1.5 2.0742,0 3.3985,-1.48828 1.3359,-1.5 1.3359,-4.48828 0,-2.95312 -1.3008,-4.40625 -1.2891,-1.45312 -3.4336,-1.45312 -2.1445,0 -3.457,1.47656 -1.3125,1.46484 -1.3125,4.42969 z m -161.8652,-9.88454 -2.27,-3.931 10.89,-6.286 2.27,3.931 z m 5.67,9.83 -2.27,-3.932 16.57,-9.563 2.26,3.932 z m -22.6132,0.05232 q 0,-2.625 0.7851,-4.40625 0.586,-1.3125 1.5938,-2.35546 1.0195,-1.04297 2.2265,-1.54688 1.6055,-0.67969 3.7032,-0.67969 3.7968,0 6.0703,2.35547 2.2851,2.35547 2.2851,6.55078 0,4.16016 -2.2617,6.51563 -2.2617,2.34375 -6.0469,2.34375 -3.832,0 -6.0937,-2.33203 -2.2617,-2.34375 -2.2617,-6.44532 z m 3.5742,-0.11718 q 0,2.91797 1.3476,4.42968 1.3477,1.5 3.4219,1.5 2.0742,0 3.3985,-1.48828 1.3359,-1.5 1.3359,-4.48828 0,-2.95312 -1.3008,-4.40625 -1.289,-1.45312 -3.4336,-1.45312 -2.1445,0 -3.457,1.47656 -1.3125,1.46484 -1.3125,4.42969 z m 36.739,-10.15314 -4.54,-2.621 v -28.439 l 2.27,-1.311 2.27,1.461 z m -44.54,-36.404 -2.27,-3.931 16.51,-9.532 2.27,3.932 z m -19.8228,4.99892 q 0,-2.625 0.7851,-4.40625 0.586,-1.3125 1.5938,-2.35546 1.0195,-1.04297 2.2266,-1.54688 1.6054,-0.67969 3.7031,-0.67969 3.7969,0 6.0703,2.35547 2.2852,2.35547 2.2852,6.55078 0,4.16016 -2.2618,6.51563 -2.2617,2.34375 -6.0468,2.34375 -3.8321,0 -6.0938,-2.33203 -2.2617,-2.34375 -2.2617,-6.44532 z m 3.5742,-0.11718 q 0,2.91797 1.3477,4.42968 1.3476,1.5 3.4218,1.5 2.0743,0 3.3985,-1.48828 1.3359,-1.5 1.3359,-4.48828 0,-2.95312 -1.3008,-4.40625 -1.289,-1.45312 -3.4336,-1.45312 -2.1445,0 -3.457,1.47656 -1.3125,1.46484 -1.3125,4.42969 z M 0,33.00266 V 15.82297 h 3.4687 v 6.76172 h 6.7969 v -6.76172 h 3.4688 V 33.00266 H 10.2656 V 25.49094 H 3.4687 v 7.51172 z m 51.8217,-22.3593 v -5.242 l 26.77,15.455 0.13,2.696 -2.27,1.311 z m 41.07,-0.174 4.25,7.352 -17.29,7.697 -1.13,-1.966 -1.13,-1.966 z m 23.7931,7.0033 V 0.29297 h 3.4687 v 6.76172 h 6.7969 V 0.29297 h 3.4687 v 17.17969 h -3.4687 V 9.96094 h -6.7969 v 7.51172 z M 97.3137,8.98829 q 0,-2.625 0.7851,-4.40625 0.586,-1.3125 1.5938,-2.35547 1.0195,-1.04297 2.2265,-1.54688 Q 103.5246,0 105.6223,0 q 3.7968,0 6.0703,2.35547 2.2851,2.35547 2.2851,6.55078 0,4.16016 -2.2617,6.51563 -2.2617,2.34375 -6.0469,2.34375 -3.832,0 -6.0937,-2.33203 -2.2617,-2.34375 -2.2617,-6.44531 z m 3.5742,-0.11719 q 0,2.91797 1.3476,4.42969 1.3477,1.5 3.4219,1.5 2.0742,0 3.3985,-1.48829 1.3359,-1.5 1.3359,-4.48828 0,-2.95312 -1.3008,-4.40625 -1.2891,-1.45312 -3.4336,-1.45312 -2.1445,0 -3.457,1.47656 -1.3125,1.46484 -1.3125,4.42969 z"
     inkscape:connector-curvature="0"
     style="stroke-width:0.1" />
</svg>
