<?xml version="1.0" encoding="UTF-8" standalone="no"?>
<svg
   xmlns:dc="http://purl.org/dc/elements/1.1/"
   xmlns:cc="http://creativecommons.org/ns#"
   xmlns:rdf="http://www.w3.org/1999/02/22-rdf-syntax-ns#"
   xmlns:svg="http://www.w3.org/2000/svg"
   xmlns="http://www.w3.org/2000/svg"
   xmlns:sodipodi="http://sodipodi.sourceforge.net/DTD/sodipodi-0.dtd"
   xmlns:inkscape="http://www.inkscape.org/namespaces/inkscape"
   width="338.05701"
   height="100.75597"
   viewBox="0 0 338.05701 100.75597"
   version="1.1"
   id="svg977"
   sodipodi:docname="nucleic5.svg"
   inkscape:version="0.92.4 (5da689c313, 2019-01-14)">
  <metadata
     id="metadata983">
    <rdf:RDF>
      <cc:Work
         rdf:about="">
        <dc:format>image/svg+xml</dc:format>
        <dc:type
           rdf:resource="http://purl.org/dc/dcmitype/StillImage" />
      </cc:Work>
    </rdf:RDF>
  </metadata>
  <defs
     id="defs981" />
  <sodipodi:namedview
     pagecolor="#ffffff"
     bordercolor="#666666"
     borderopacity="1"
     objecttolerance="10"
     gridtolerance="10"
     guidetolerance="10"
     inkscape:pageopacity="0"
     inkscape:pageshadow="2"
     inkscape:window-width="1920"
     inkscape:window-height="986"
     id="namedview979"
     showgrid="false"
     inkscape:zoom="1.1168091"
     inkscape:cx="153.14716"
     inkscape:cy="50.63597"
     inkscape:window-x="-11"
     inkscape:window-y="-11"
     inkscape:window-maximized="1"
     inkscape:current-layer="svg977" />
  <g
     aria-label="O"
     transform="matrix(0.1,0,0,0.1,92.8186,26.9814)"
     style="font-style:normal;font-weight:bold;font-size:240px;font-family:Arial;fill:#000000;stroke:none"
     id="text917" />
  <g
     aria-label="O"
     transform="matrix(0.1,0,0,0.1,134.5808,92.3422)"
     style="font-style:normal;font-weight:bold;font-size:240px;font-family:Arial;fill:#000000;stroke:none"
     id="text929" />
  <g
     aria-label="N"
     transform="matrix(0.1,0,0,0.1,150.0058,44.8134)"
     style="font-style:normal;font-weight:bold;font-size:240px;font-family:Arial;fill:#000000;stroke:none"
     id="text931" />
  <g
     aria-label="HO"
     transform="matrix(0.1,0,0,0.1,42.9297,100.463)"
     style="font-style:normal;font-weight:bold;font-size:240px;font-family:Arial;fill:#000000;stroke:none"
     id="text943" />
  <g
     aria-label="HO"
     transform="matrix(0.1,0,0,0.1,-1.75782,57.725)"
     style="font-style:normal;font-weight:bold;font-size:240px;font-family:Arial;fill:#000000;stroke:none"
     id="text951" />
  <g
     aria-label="NH"
     transform="matrix(0.1,0,0,0.1,189.6768,83.9874)"
     style="font-style:normal;font-weight:bold;font-size:240px;font-family:Arial;fill:#000000;stroke:none"
     id="text955" />
  <g
     aria-label="2"
     transform="matrix(0.1,0,0,0.1,224.3408,89.0874)"
     style="font-style:normal;font-weight:bold;font-size:180px;font-family:Arial;fill:#000000;stroke:none"
     id="text957" />
  <g
     aria-label="N"
     transform="matrix(0.1,0,0,0.1,322.6468,23.07)"
     style="font-style:normal;font-weight:bold;font-size:240px;font-family:Arial;fill:#000000;stroke:none"
     id="text969" />
  <path
     id="path975"
     d="m 321.0468,22.7 v 4.54 h -20.81 V 22.7 Z m 0,-11.35 v 4.54 h -20.81 v -4.54 z m 0,-11.35 v 4.54 h -20.81 V 0 Z m 3.3812,23.07 V 5.89031 h 3.375 l 7.0313,11.47266 V 5.89031 h 3.2227 V 23.07 h -3.4805 L 327.6507,11.86687 V 23.07 Z M 300.2368,11.35 v 4.54 h -31.06 v -4.54 z m -31.06,11.35 v 4.54 h -31.06 V 22.7 Z m 0,-11.35 v 4.54 h -31.06 v -4.54 z m 0,-11.35 v 4.54 h -31.06 V 0 Z m -81.97,68.592 -1.38,4.324 -17.77,-5.694 0.69,-2.162 0.69,-2.161 z m 46.2395,18.20145 v 2.29395 h -8.6573 q 0.1407,-1.30078 0.8438,-2.46094 0.7031,-1.16894 2.7773,-3.09375 1.67,-1.55566 2.0479,-2.10937 0.5098,-0.76465 0.5098,-1.51172 0,-0.82617 -0.4483,-1.26563 -0.4394,-0.44824 -1.2217,-0.44824 -0.7734,0 -1.2304,0.46582 -0.4571,0.46582 -0.5274,1.54688 l -2.4609,-0.2461 q 0.2197,-2.03906 1.3799,-2.92676 1.1601,-0.88769 2.9004,-0.88769 1.9072,0 2.997,1.02832 1.0899,1.02832 1.0899,2.55762 0,0.87011 -0.3164,1.66113 -0.3077,0.78223 -0.9844,1.64355 -0.4483,0.57129 -1.6172,1.64356 -1.1689,1.07227 -1.4854,1.42383 -0.3076,0.35156 -0.5009,0.68554 z M 208.7784,83.9874 V 66.80771 h 3.4687 v 6.76172 h 6.7969 v -6.76172 h 3.4687 V 83.9874 h -3.4687 v -7.51172 h -6.7969 v 7.51172 z m -17.3204,0 V 66.80771 h 3.375 l 7.0313,11.47266 V 66.80771 h 3.2227 V 83.9874 h -3.4805 L 194.6807,72.78427 V 83.9874 Z M 35.3168,41.7 l -3.1,-3.322 16.53,-15.388 -2.16,8.217 z m -18.6879,7.54062 q 0,-2.625 0.7852,-4.40625 0.5859,-1.3125 1.5937,-2.35546 1.0195,-1.04297 2.2266,-1.54688 1.6054,-0.67969 3.7031,-0.67969 3.7969,0 6.0703,2.35547 2.2852,2.35547 2.2852,6.55078 0,4.16016 -2.2618,6.51563 -2.2617,2.34375 -6.0468,2.34375 -3.8321,0 -6.0938,-2.33203 -2.2617,-2.34375 -2.2617,-6.44532 z m 3.5742,-0.11718 q 0,2.91797 1.3477,4.42968 1.3476,1.5 3.4218,1.5 2.0743,0 3.3985,-1.48828 1.3359,-1.5 1.3359,-4.48828 0,-2.95312 -1.3008,-4.40625 -1.289,-1.45312 -3.4336,-1.45312 -2.1445,0 -3.457,1.47656 -1.3125,1.46484 -1.3125,4.42969 z M 0,57.725 V 40.54531 h 3.4687 v 6.76172 h 6.7969 v -6.76172 h 3.4688 V 57.725 H 10.2656 V 50.21328 H 3.4687 V 57.725 Z m 46.5868,-26.518 2.16,-8.217 28.23,10.656 0.37,2.562 -1.74,1.913 z m 37.55,44.191 -4.8,-3.367 3.15,-3.337 3.72,2.607 z m -4.09,8.132 -6.95,-4.874 3.14,-3.337 5.87,4.114 z m -18.7304,8.44862 q 0,-2.625 0.7852,-4.40625 0.5859,-1.3125 1.5937,-2.35546 1.0196,-1.04297 2.2266,-1.54688 1.6055,-0.67969 3.7031,-0.67969 3.7969,0 6.0703,2.35547 2.2852,2.35547 2.2852,6.55078 0,4.16016 -2.2617,6.51563 -2.2618,2.34375 -6.0469,2.34375 -3.832,0 -6.0938,-2.33203 -2.2617,-2.34375 -2.2617,-6.44532 z m 3.5742,-0.11718 q 0,2.91797 1.3477,4.42968 1.3477,1.5 3.4219,1.5 2.0742,0 3.3984,-1.48828 1.3359,-1.5 1.3359,-4.48828 0,-2.95312 -1.3007,-4.40625 -1.2891,-1.45312 -3.4336,-1.45312 -2.1446,0 -3.4571,1.47656 -1.3125,1.46484 -1.3125,4.42969 z M 44.6875,100.463 V 83.28331 h 3.4688 v 6.76172 h 6.7968 v -6.76172 h 3.4688 V 100.463 h -3.4688 v -7.51172 h -6.7968 v 7.51172 z m 84.5393,-62.675 -1.63,-2.425 v -2.27 l 20.81,-1.975 v 8.49 z m 21,15.108 4.3,-1.461 2.92,8.585 -4.3,1.461 z m 10.75,-3.653 4.3,-1.461 5.62,16.548 -2.15,0.73 -2.15,0.731 z m 6.45,13.974 1.32,1.843 1.33,1.844 -15.05,10.809 -2.65,-3.687 z m -30.87,9.32 -4.88,6.951 -14.48,-12.569 1.3,-1.859 1.31,-1.858 z M 151.787,44.8134 V 27.63371 h 3.375 l 7.0313,11.47266 V 27.63371 h 3.2227 V 44.8134 h -3.4805 L 155.0097,33.61027 V 44.8134 Z m -16.1632,39.04442 q 0,-2.625 0.7851,-4.40625 0.586,-1.3125 1.5938,-2.35546 1.0195,-1.04297 2.2265,-1.54688 1.6055,-0.67969 3.7032,-0.67969 3.7968,0 6.0703,2.35547 2.2851,2.35547 2.2851,6.55078 0,4.16016 -2.2617,6.51563 -2.2617,2.34375 -6.0469,2.34375 -3.832,0 -6.0937,-2.33203 -2.2617,-2.34375 -2.2617,-6.44532 z m 3.5742,-0.11718 q 0,2.91797 1.3476,4.42968 1.3477,1.5 3.4219,1.5 2.0742,0 3.3985,-1.48828 1.3359,-1.5 1.3359,-4.48828 0,-2.95312 -1.3008,-4.40625 -1.2891,-1.45312 -3.4336,-1.45312 -2.1445,0 -3.457,1.47656 -1.3125,1.46484 -1.3125,4.42969 z M 78.7168,38.021 l -1.37,-1.813 -1.36,-1.814 14.92,-11.231 2.73,3.627 z m 32.29,-11.522 2.6,-3.717 15.3,10.723 -1.31,1.858 -1.3,1.859 z m 13.94,9.776 2.65,-0.912 1.63,2.425 -8.02,26.194 -2.71,1.078 -1.68,-2.242 z m -8.13,26.543 1.68,2.242 0.04,2.27 -32.7,0.549 3.22,-4.594 z m -27.76,0.467 -3.22,4.594 -10.23,-29.758 1.74,-1.913 2.69,0.822 z m 4.8048,-44.78798 q 0,-2.625 0.7851,-4.40625 0.586,-1.3125 1.5938,-2.35546 1.0195,-1.04297 2.2265,-1.54688 1.6055,-0.67969 3.7032,-0.67969 3.7968,0 6.0703,2.35547 2.2851,2.35547 2.2851,6.55078 0,4.16016 -2.2617,6.51563 -2.2617,2.34375 -6.0469,2.34375 -3.832,0 -6.0937,-2.33203 -2.2617,-2.34375 -2.2617,-6.44532 z m 3.5742,-0.11718 q 0,2.91797 1.3476,4.42968 1.3477,1.5 3.4219,1.5 2.0742,0 3.3985,-1.48828 1.3359,-1.5 1.3359,-4.48828 0,-2.95312 -1.3008,-4.40625 -1.2891,-1.45312 -3.4336,-1.45312 -2.1445,0 -3.457,1.47656 -1.3125,1.46484 -1.3125,4.42969 z"
     inkscape:connector-curvature="0"
     style="stroke-width:0.1" />
</svg>
