<?xml version="1.0" encoding="UTF-8" standalone="no"?>
<svg
   xmlns:dc="http://purl.org/dc/elements/1.1/"
   xmlns:cc="http://creativecommons.org/ns#"
   xmlns:rdf="http://www.w3.org/1999/02/22-rdf-syntax-ns#"
   xmlns:svg="http://www.w3.org/2000/svg"
   xmlns="http://www.w3.org/2000/svg"
   xmlns:sodipodi="http://sodipodi.sourceforge.net/DTD/sodipodi-0.dtd"
   xmlns:inkscape="http://www.inkscape.org/namespaces/inkscape"
   width="233.4267"
   height="91.21093"
   viewBox="0 0 233.4267 91.21093"
   version="1.1"
   id="svg754"
   sodipodi:docname="nucleic4.svg"
   inkscape:version="0.92.4 (5da689c313, 2019-01-14)">
  <metadata
     id="metadata760">
    <rdf:RDF>
      <cc:Work
         rdf:about="">
        <dc:format>image/svg+xml</dc:format>
        <dc:type
           rdf:resource="http://purl.org/dc/dcmitype/StillImage" />
      </cc:Work>
    </rdf:RDF>
  </metadata>
  <defs
     id="defs758" />
  <sodipodi:namedview
     pagecolor="#ffffff"
     bordercolor="#666666"
     borderopacity="1"
     objecttolerance="10"
     gridtolerance="10"
     guidetolerance="10"
     inkscape:pageopacity="0"
     inkscape:pageshadow="2"
     inkscape:window-width="1920"
     inkscape:window-height="986"
     id="namedview756"
     showgrid="false"
     inkscape:zoom="1.6"
     inkscape:cx="105.4207"
     inkscape:cy="47.47097"
     inkscape:window-x="-11"
     inkscape:window-y="-11"
     inkscape:window-maximized="1"
     inkscape:current-layer="svg754" />
  <g
     aria-label="O"
     transform="matrix(0.1,0,0,0.1,92.8528,17.47266)"
     style="font-style:normal;font-weight:bold;font-size:240px;font-family:Arial;fill:#000000;stroke:none"
     id="text710" />
  <g
     aria-label="O"
     transform="matrix(0.1,0,0,0.1,134.5422,82.87996)"
     style="font-style:normal;font-weight:bold;font-size:240px;font-family:Arial;fill:#000000;stroke:none"
     id="text722" />
  <g
     aria-label="N"
     transform="matrix(0.1,0,0,0.1,150.0202,35.33296)"
     style="font-style:normal;font-weight:bold;font-size:240px;font-family:Arial;fill:#000000;stroke:none"
     id="text724" />
  <g
     aria-label="NH"
     transform="matrix(0.1,0,0,0.1,189.6572,74.50456)"
     style="font-style:normal;font-weight:bold;font-size:240px;font-family:Arial;fill:#000000;stroke:none"
     id="text736" />
  <g
     aria-label="2"
     transform="matrix(0.1,0,0,0.1,224.3212,79.60456)"
     style="font-style:normal;font-weight:bold;font-size:180px;font-family:Arial;fill:#000000;stroke:none"
     id="text738" />
  <g
     aria-label="HO"
     transform="matrix(0.1,0,0,0.1,42.882,90.91796)"
     style="font-style:normal;font-weight:bold;font-size:240px;font-family:Arial;fill:#000000;stroke:none"
     id="text742" />
  <g
     aria-label="HO"
     transform="matrix(0.1,0,0,0.1,-1.75786,48.13006)"
     style="font-style:normal;font-weight:bold;font-size:240px;font-family:Arial;fill:#000000;stroke:none"
     id="text750" />
  <path
     id="path752"
     style="stroke-width:0.1"
     d="m 35.3182,32.11696 -3.09,-3.326 16.54,-15.369 -2.17,8.214 z m -18.6893,7.52872 q 0,-2.625 0.7851,-4.40625 0.586,-1.3125 1.5938,-2.35546 1.0195,-1.04297 2.2265,-1.54688 1.6055,-0.67969 3.7032,-0.67969 3.7968,0 6.0703,2.35547 2.2851,2.35547 2.2851,6.55078 0,4.16016 -2.2617,6.51563 -2.2617,2.34375 -6.0469,2.34375 -3.832,0 -6.0937,-2.33203 -2.2617,-2.34375 -2.2617,-6.44532 z m 3.5742,-0.11718 q 0,2.91797 1.3476,4.42968 1.3477,1.5 3.4219,1.5 2.0742,0 3.3984,-1.48828 1.336,-1.5 1.336,-4.48828 0,-2.95312 -1.3008,-4.40625 -1.2891,-1.45312 -3.4336,-1.45312 -2.1445,0 -3.457,1.47656 -1.3125,1.46484 -1.3125,4.42969 z M 0,48.13006 V 30.95037 h 3.4687 v 6.76172 h 6.7969 v -6.76172 h 3.4687 V 48.13006 H 10.2656 V 40.61834 H 3.4687 v 7.51172 z m 46.5982,-26.4941 2.17,-8.214 28.23,10.687 0.37,2.562 -1.75,1.912 z m 37.51,44.233 -4.79,-3.372 3.15,-3.334 3.71,2.611 z m -4.1,8.128 -6.95,-4.882 3.15,-3.334 5.86,4.121 z m -18.7395,8.43662 q 0,-2.625 0.7852,-4.40625 0.5859,-1.3125 1.5937,-2.35546 1.0196,-1.04297 2.2266,-1.54688 1.6055,-0.67969 3.7031,-0.67969 3.7969,0 6.0703,2.35547 2.2852,2.35547 2.2852,6.55078 0,4.16016 -2.2617,6.51563 -2.2618,2.34375 -6.0469,2.34375 -3.832,0 -6.0938,-2.33203 -2.2617,-2.34375 -2.2617,-6.44532 z m 3.5742,-0.11718 q 0,2.91797 1.3477,4.42968 1.3476,1.5 3.4219,1.5 2.0742,0 3.3984,-1.48828 1.3359,-1.5 1.3359,-4.48828 0,-2.95312 -1.3007,-4.40625 -1.2891,-1.45312 -3.4336,-1.45312 -2.1446,0 -3.4571,1.47656 -1.3125,1.46484 -1.3125,4.42969 z M 44.6398,90.91796 V 73.73827 h 3.4688 v 6.76172 h 6.7968 v -6.76172 h 3.4688 v 17.17969 h -3.4688 v -7.51172 h -6.7968 v 7.51172 z m 142.5484,-31.812 -1.38,4.323 -17.77,-5.698 0.69,-2.161 0.7,-2.162 z m 46.2385,18.20465 v 2.29395 h -8.6573 q 0.1407,-1.30078 0.8438,-2.46094 0.7031,-1.16894 2.7773,-3.09375 1.67,-1.55566 2.0479,-2.10937 0.5098,-0.76465 0.5098,-1.51172 0,-0.82617 -0.4483,-1.26563 -0.4394,-0.44824 -1.2217,-0.44824 -0.7734,0 -1.2304,0.46582 -0.4571,0.46582 -0.5274,1.54688 l -2.4609,-0.2461 q 0.2197,-2.03906 1.3799,-2.92676 1.1601,-0.88769 2.9004,-0.88769 1.9072,0 2.997,1.02832 1.0899,1.02832 1.0899,2.55762 0,0.87011 -0.3164,1.66113 -0.3077,0.78223 -0.9844,1.64355 -0.4483,0.57129 -1.6172,1.64356 -1.1689,1.07227 -1.4854,1.42383 -0.3076,0.35156 -0.5009,0.68554 z M 208.7588,74.50456 V 57.32487 h 3.4687 v 6.76172 h 6.7969 v -6.76172 h 3.4687 v 17.17969 h -3.4687 v -7.51172 h -6.7969 v 7.51172 z m -17.3204,0 V 57.32487 h 3.375 l 7.0313,11.47266 V 57.32487 h 3.2227 v 17.17969 h -3.4805 l -6.9258,-11.20313 v 11.20313 z m -62.2002,-46.1966 -1.62,-2.425 v -2.27 l 20.8,-1.975 v 8.49 z m 20.99,15.097 4.3,-1.457 2.91,8.581 -4.3,1.457 z m 10.75,-3.643 4.3,-1.457 5.6,16.536 -2.15,0.729 -2.15,0.728 z m 6.43,13.965 1.32,1.843 1.33,1.843 -15.07,10.833 -2.65,-3.686 z m -30.88,9.339 -4.88,6.946 -14.47,-12.585 1.3,-1.857 1.31,-1.857 z m 15.2733,-27.733 V 18.15327 h 3.375 l 7.0312,11.47266 V 18.15327 h 3.2227 v 17.17969 h -3.4805 l -6.9258,-11.20313 v 11.20313 z m -16.2163,39.06262 q 0,-2.625 0.7851,-4.40625 0.586,-1.3125 1.5938,-2.35546 1.0195,-1.04297 2.2265,-1.54688 1.6055,-0.67969 3.7032,-0.67969 3.7968,0 6.0703,2.35547 2.2851,2.35547 2.2851,6.55078 0,4.16016 -2.2617,6.51563 -2.2617,2.34375 -6.0469,2.34375 -3.832,0 -6.0937,-2.33203 -2.2617,-2.34375 -2.2617,-6.44532 z m 3.5742,-0.11718 q 0,2.91797 1.3476,4.42968 1.3477,1.5 3.4219,1.5 2.0742,0 3.3985,-1.48828 1.3359,-1.5 1.3359,-4.48828 0,-2.95312 -1.3008,-4.40625 -1.289,-1.45312 -3.4336,-1.45312 -2.1445,0 -3.457,1.47656 -1.3125,1.46484 -1.3125,4.42969 z m -60.4312,-45.79244 -1.36,-1.815 -1.37,-1.815 14.94,-11.215 2.73,3.63 z m 32.3,-11.486 2.61,-3.714 15.28,10.74 -1.3,1.857 -1.31,1.857 z m 13.93,9.792 2.66,-0.909 1.62,2.425 -8.05,26.187 -2.71,1.075 -1.68,-2.244 z m -8.16,26.534 1.68,2.244 0.04,2.269 -32.71,0.513 3.23,-4.591 z m -27.76,0.435 -3.23,4.591 -10.19,-29.769 1.75,-1.912 2.68,0.825 z M 93.8958,8.98829 q 0,-2.625 0.7851,-4.40625 0.586,-1.3125 1.5938,-2.35547 Q 97.2942,1.1836 98.5012,0.67969 100.1067,0 102.2044,0 q 3.7968,0 6.0703,2.35547 2.2851,2.35547 2.2851,6.55078 0,4.16016 -2.2617,6.51563 -2.2617,2.34375 -6.0469,2.34375 -3.832,0 -6.0937,-2.33203 -2.2617,-2.34375 -2.2617,-6.44531 z M 97.47,8.8711 q 0,2.91797 1.3476,4.42968 1.3477,1.5 3.4219,1.5 2.0742,0 3.3985,-1.48828 1.3359,-1.5 1.3359,-4.48828 0,-2.95312 -1.3008,-4.40625 -1.289,-1.45312 -3.4336,-1.45312 -2.1445,0 -3.457,1.47656 Q 97.47,5.90625 97.47,8.8711 Z" />
</svg>
