<?xml version="1.0" encoding="UTF-8" standalone="no"?>
<svg
   xmlns:dc="http://purl.org/dc/elements/1.1/"
   xmlns:cc="http://creativecommons.org/ns#"
   xmlns:rdf="http://www.w3.org/1999/02/22-rdf-syntax-ns#"
   xmlns:svg="http://www.w3.org/2000/svg"
   xmlns="http://www.w3.org/2000/svg"
   xmlns:sodipodi="http://sodipodi.sourceforge.net/DTD/sodipodi-0.dtd"
   xmlns:inkscape="http://www.inkscape.org/namespaces/inkscape"
   width="426.81421"
   height="91.464172"
   viewBox="0 0 426.81421 91.464172"
   version="1.1"
   id="svg1384"
   sodipodi:docname="nucleic7.svg"
   inkscape:version="0.92.4 (5da689c313, 2019-01-14)">
  <metadata
     id="metadata1390">
    <rdf:RDF>
      <cc:Work
         rdf:about="">
        <dc:format>image/svg+xml</dc:format>
        <dc:type
           rdf:resource="http://purl.org/dc/dcmitype/StillImage" />
      </cc:Work>
    </rdf:RDF>
  </metadata>
  <defs
     id="defs1388" />
  <sodipodi:namedview
     pagecolor="#ffffff"
     bordercolor="#666666"
     borderopacity="1"
     objecttolerance="10"
     gridtolerance="10"
     guidetolerance="10"
     inkscape:pageopacity="0"
     inkscape:pageshadow="2"
     inkscape:window-width="1920"
     inkscape:window-height="986"
     id="namedview1386"
     showgrid="false"
     inkscape:zoom="0.89090909"
     inkscape:cx="193.67394"
     inkscape:cy="47.13617"
     inkscape:window-x="-11"
     inkscape:window-y="-11"
     inkscape:window-maximized="1"
     inkscape:current-layer="svg1384" />
  <g
     aria-label="O"
     transform="matrix(0.1,0,0,0.1,92.8186,17.6894)"
     style="font-style:normal;font-weight:bold;font-size:240px;font-family:Arial;fill:#000000;stroke:none"
     id="text1298" />
  <g
     aria-label="O"
     transform="matrix(0.1,0,0,0.1,134.5808,83.0502)"
     style="font-style:normal;font-weight:bold;font-size:240px;font-family:Arial;fill:#000000;stroke:none"
     id="text1310" />
  <g
     aria-label="N"
     transform="matrix(0.1,0,0,0.1,150.0058,35.5214)"
     style="font-style:normal;font-weight:bold;font-size:240px;font-family:Arial;fill:#000000;stroke:none"
     id="text1312" />
  <g
     aria-label="HO"
     transform="matrix(0.1,0,0,0.1,42.9297,91.1712)"
     style="font-style:normal;font-weight:bold;font-size:240px;font-family:Arial;fill:#000000;stroke:none"
     id="text1322" />
  <g
     aria-label="HO"
     transform="matrix(0.1,0,0,0.1,-1.75782,48.433)"
     style="font-style:normal;font-weight:bold;font-size:240px;font-family:Arial;fill:#000000;stroke:none"
     id="text1330" />
  <g
     aria-label="N"
     transform="matrix(0.1,0,0,0.1,189.6768,74.6954)"
     style="font-style:normal;font-weight:bold;font-size:240px;font-family:Arial;fill:#000000;stroke:none"
     id="text1334" />
  <g
     aria-label="NH"
     transform="matrix(0.1,0,0,0.1,242.1108,53.2007)"
     style="font-style:normal;font-weight:bold;font-size:240px;font-family:Arial;fill:#000000;stroke:none"
     id="text1350" />
  <g
     aria-label="2"
     transform="matrix(0.1,0,0,0.1,276.7748,58.3007)"
     style="font-style:normal;font-weight:bold;font-size:180px;font-family:Arial;fill:#000000;stroke:none"
     id="text1352" />
  <g
     aria-label="P"
     transform="matrix(0.1,0,0,0.1,367.1168,47.778)"
     style="font-style:normal;font-weight:bold;font-size:240px;font-family:Arial;fill:#000000;stroke:none"
     id="text1362" />
  <g
     aria-label="OH"
     transform="matrix(0.1,0,0,0.1,392.6658,32.248)"
     style="font-style:normal;font-weight:bold;font-size:240px;font-family:Arial;fill:#000000;stroke:none"
     id="text1364" />
  <g
     aria-label="HO"
     transform="matrix(0.1,0,0,0.1,321.5358,32.248)"
     style="font-style:normal;font-weight:bold;font-size:240px;font-family:Arial;fill:#000000;stroke:none"
     id="text1368" />
  <g
     aria-label="O"
     transform="matrix(0.1,0,0,0.1,339.3038,74.2407)"
     style="font-style:normal;font-weight:bold;font-size:240px;font-family:Arial;fill:#000000;stroke:none"
     id="text1372" />
  <g
     aria-label="O"
     transform="matrix(0.1,0,0,0.1,387.7298,69.7407)"
     style="font-style:normal;font-weight:bold;font-size:240px;font-family:Arial;fill:#000000;stroke:none"
     id="text1378" />
  <path
     id="path1382"
     d="m 403.3768,73.23 h 12.54 v 3.6 h -12.54 z m -13.2,-23.057 -3.21,3.21 -7.91,-7.904 3.21,-3.21 z m -1.404,11.08333 q 0,-2.625 0.7851,-4.40625 0.586,-1.3125 1.5938,-2.35547 1.0195,-1.04297 2.2265,-1.54688 1.6055,-0.67969 3.7032,-0.67969 3.7968,0 6.0703,2.35547 2.2851,2.35547 2.2851,6.55078 0,4.16016 -2.2617,6.51563 -2.2617,2.34375 -6.0469,2.34375 -3.832,0 -6.0937,-2.33203 -2.2617,-2.34375 -2.2617,-6.44531 z m 3.5742,-0.11719 q 0,2.91797 1.3476,4.42969 1.3477,1.5 3.4219,1.5 2.0742,0 3.3985,-1.48829 1.3359,-1.5 1.3359,-4.48828 0,-2.95312 -1.3008,-4.40625 -1.2891,-1.45312 -3.4336,-1.45312 -2.1445,0 -3.457,1.47656 -1.3125,1.46484 -1.3125,4.42969 z m -37.5902,-7.26814 -3.21,-3.211 8.06,-8.054 3.21,3.21 z m 8.03,8.025 -3.21,-3.21 8.05,-8.054 3.21,3.21 z m -22.44,3.86033 q 0,-2.625 0.7851,-4.40625 0.586,-1.3125 1.5938,-2.35547 1.0195,-1.04297 2.2265,-1.54688 1.6055,-0.67969 3.7032,-0.67969 3.7968,0 6.0703,2.35547 2.2851,2.35547 2.2851,6.55078 0,4.16016 -2.2617,6.51563 -2.2617,2.34375 -6.0469,2.34375 -3.832,0 -6.0937,-2.33203 -2.2617,-2.34375 -2.2617,-6.44531 z m 3.5742,-0.11719 q 0,2.91797 1.3476,4.42969 1.3477,1.5 3.4219,1.5 2.0742,0 3.3985,-1.48829 1.3359,-1.5 1.3359,-4.48828 0,-2.95312 -1.3008,-4.40625 -1.2891,-1.45312 -3.4336,-1.45312 -2.1445,0 -3.457,1.47656 -1.3125,1.46484 -1.3125,4.42969 z m 13.8058,-34.72814 2.27,-3.932 5.1,2.944 -2.27,3.932 z m -17.8043,-7.14738 q 0,-2.625 0.7852,-4.40625 0.5859,-1.3125 1.5937,-2.35546 1.0196,-1.04297 2.2266,-1.54688 1.6055,-0.67969 3.7031,-0.67969 3.7969,0 6.0703,2.35547 2.2852,2.35547 2.2852,6.55078 0,4.16016 -2.2617,6.51563 -2.2618,2.34375 -6.0469,2.34375 -3.832,0 -6.0938,-2.33203 -2.2617,-2.34375 -2.2617,-6.44532 z m 3.5742,-0.11718 q 0,2.91797 1.3477,4.42968 1.3476,1.5 3.4219,1.5 2.0742,0 3.3984,-1.48828 1.3359,-1.5 1.3359,-4.48828 0,-2.95312 -1.3007,-4.40625 -1.2891,-1.45312 -3.4336,-1.45312 -2.1446,0 -3.4571,1.47656 -1.3125,1.46484 -1.3125,4.42969 z M 323.2936,32.248 V 15.06831 h 3.4688 v 6.76172 h 6.7968 v -6.76172 h 3.4688 V 32.248 h -3.4688 v -7.51172 h -6.7968 V 32.248 Z m 66.9832,-5.293 2.27,3.932 -6.15,3.55 -2.27,-3.932 z m 22.8031,5.293 V 15.06831 h 3.4687 v 6.76172 h 6.7969 v -6.76172 h 3.4687 V 32.248 h -3.4687 v -7.51172 h -6.7969 V 32.248 Z m -19.3711,-8.48438 q 0,-2.625 0.7851,-4.40625 0.586,-1.3125 1.5938,-2.35546 1.0195,-1.04297 2.2265,-1.54688 1.6055,-0.67969 3.7032,-0.67969 3.7968,0 6.0703,2.35547 2.2851,2.35547 2.2851,6.55078 0,4.16016 -2.2617,6.51563 -2.2617,2.34375 -6.0469,2.34375 -3.832,0 -6.0937,-2.33203 -2.2617,-2.34375 -2.2617,-6.44532 z m 3.5742,-0.11718 q 0,2.91797 1.3476,4.42968 1.3477,1.5 3.4219,1.5 2.0742,0 3.3985,-1.48828 1.3359,-1.5 1.3359,-4.48828 0,-2.95312 -1.3008,-4.40625 -1.2891,-1.45312 -3.4336,-1.45312 -2.1445,0 -3.457,1.47656 -1.3125,1.46484 -1.3125,4.42969 z M 368.8629,47.778 V 30.59831 h 5.5664 q 3.1641,0 4.125,0.25781 1.4766,0.38672 2.4727,1.6875 0.996,1.28907 0.996,3.33985 0,1.58203 -0.5742,2.66015 -0.5742,1.07813 -1.4648,1.69922 -0.8789,0.60938 -1.793,0.8086 -1.2422,0.24609 -3.5976,0.24609 h -2.2618 V 47.778 Z m 3.4687,-14.27344 v 4.875 h 1.8985 q 2.0508,0 2.7422,-0.26953 0.6914,-0.26953 1.0781,-0.84375 0.3984,-0.57422 0.3984,-1.33594 0,-0.9375 -0.5508,-1.54687 -0.5507,-0.60938 -1.3945,-0.76172 -0.6211,-0.11719 -2.4961,-0.11719 z M 252.5768,18.011 v 12.54 h -3.6 v -12.54 z m -8.07,4.47 h 12.54 v 3.6 h -12.54 z m -5.53,22.623 -0.8,4.469 -22.47,-4.016 0.8,-4.469 z m 2,-11.173 -0.8,4.469 -22.48,-4.016 0.8,-4.469 z m 44.9035,22.07575 v 2.29395 h -8.6573 q 0.1407,-1.30078 0.8438,-2.46094 0.7031,-1.16894 2.7773,-3.09375 1.67,-1.55566 2.0479,-2.10937 0.5098,-0.76465 0.5098,-1.51172 0,-0.82617 -0.4483,-1.26563 -0.4394,-0.44824 -1.2217,-0.44824 -0.7734,0 -1.2304,0.46582 -0.4571,0.46582 -0.5274,1.54688 l -2.4609,-0.2461 q 0.2197,-2.03906 1.3799,-2.92676 1.1601,-0.88769 2.9004,-0.88769 1.9072,0 2.997,1.02832 1.0899,1.02832 1.0899,2.55762 0,0.87011 -0.3164,1.66113 -0.3077,0.78223 -0.9844,1.64355 -0.4483,0.57129 -1.6172,1.64356 -1.1689,1.07227 -1.4854,1.42383 -0.3076,0.35156 -0.5009,0.68554 z M 261.2124,53.2007 V 36.02101 h 3.4687 v 6.76172 h 6.7969 v -6.76172 h 3.4687 V 53.2007 h -3.4687 v -7.51172 h -6.7969 v 7.51172 z m -17.3204,0 V 36.02101 h 3.375 l 7.0313,11.47266 V 36.02101 h 3.2227 V 53.2007 h -3.4805 L 247.1147,41.99757 V 53.2007 Z m -74.2752,-36.1797 -3.42,-2.991 11.42,-13.043 3.42,2.991 z m 13.49,0.096 0.88,-4.453 17.91,3.556 -0.88,4.453 z m -2.94,-12.153 -1.68,-4.964 33.33,6.619 -3.45,3.942 z m 28.2,5.597 3.45,-3.942 10.92,32.123 -5.1,-0.911 z m 10.05,26.297 3.53,2.858 -13.01,16.062 -3.53,-2.858 z m -27.74,11.633 -1.39,4.324 -12.32,-3.95 1.38,-4.323 z m -3.47,10.809 -1.38,4.324 -17.77,-5.694 0.69,-2.162 0.69,-2.161 z m 4.2512,15.3954 V 57.51571 h 3.375 l 7.0313,11.47266 V 57.51571 h 3.2227 V 74.6954 h -3.4805 L 194.6807,63.49227 V 74.6954 Z M 35.3168,32.408 l -3.1,-3.322 16.53,-15.388 -2.16,8.217 z m -18.6879,7.54062 q 0,-2.625 0.7852,-4.40625 0.5859,-1.3125 1.5937,-2.35546 1.0195,-1.04297 2.2266,-1.54688 1.6054,-0.67969 3.7031,-0.67969 3.7969,0 6.0703,2.35547 2.2852,2.35547 2.2852,6.55078 0,4.16016 -2.2618,6.51563 -2.2617,2.34375 -6.0468,2.34375 -3.8321,0 -6.0938,-2.33203 -2.2617,-2.34375 -2.2617,-6.44532 z m 3.5742,-0.11718 q 0,2.91797 1.3477,4.42968 1.3476,1.5 3.4218,1.5 2.0743,0 3.3985,-1.48828 1.3359,-1.5 1.3359,-4.48828 0,-2.95312 -1.3008,-4.40625 -1.289,-1.45312 -3.4336,-1.45312 -2.1445,0 -3.457,1.47656 -1.3125,1.46484 -1.3125,4.42969 z M 0,48.433 V 31.25331 h 3.4687 v 6.76172 h 6.7969 v -6.76172 h 3.4688 V 48.433 H 10.2656 V 40.92128 H 3.4687 V 48.433 Z m 46.5868,-26.518 2.16,-8.217 28.23,10.656 0.37,2.562 -1.74,1.913 z m 37.55,44.191 -4.8,-3.367 3.15,-3.337 3.72,2.607 z m -4.09,8.132 -6.95,-4.874 3.14,-3.337 5.87,4.114 z m -18.7304,8.44882 q 0,-2.625 0.7852,-4.40625 0.5859,-1.3125 1.5937,-2.35546 1.0196,-1.04297 2.2266,-1.54688 1.6055,-0.67969 3.7031,-0.67969 3.7969,0 6.0703,2.35547 2.2852,2.35547 2.2852,6.55078 0,4.16016 -2.2617,6.51563 -2.2618,2.34375 -6.0469,2.34375 -3.832,0 -6.0938,-2.33203 -2.2617,-2.34375 -2.2617,-6.44532 z m 3.5742,-0.11718 q 0,2.91797 1.3477,4.42968 1.3477,1.5 3.4219,1.5 2.0742,0 3.3984,-1.48828 1.3359,-1.5 1.3359,-4.48828 0,-2.95312 -1.3007,-4.40625 -1.2891,-1.45312 -3.4336,-1.45312 -2.1446,0 -3.4571,1.47656 -1.3125,1.46484 -1.3125,4.42969 z M 44.6875,91.1712 V 73.99151 h 3.4688 v 6.76172 h 6.7968 v -6.76172 h 3.4688 V 91.1712 h -3.4688 v -7.51172 h -6.7968 v 7.51172 z m 84.5393,-62.6752 -1.63,-2.425 v -2.27 l 20.81,-1.975 v 8.49 z m 31.75,11.455 4.3,-1.461 5.62,16.548 -2.15,0.73 -2.15,0.731 z m 6.45,13.974 1.32,1.843 1.33,1.844 -15.05,10.809 -2.65,-3.687 z m -30.87,9.32 -4.88,6.951 -14.48,-12.569 1.3,-1.859 1.31,-1.858 z M 151.787,35.5214 V 18.34171 h 3.375 l 7.0313,11.47266 V 18.34171 h 3.2227 V 35.5214 h -3.4805 L 155.0097,24.31827 V 35.5214 Z m -16.1632,39.04442 q 0,-2.625 0.7851,-4.40625 0.586,-1.3125 1.5938,-2.35546 1.0195,-1.04297 2.2265,-1.54688 1.6055,-0.67969 3.7032,-0.67969 3.7968,0 6.0703,2.35547 2.2851,2.35547 2.2851,6.55078 0,4.16016 -2.2617,6.51563 -2.2617,2.34375 -6.0469,2.34375 -3.832,0 -6.0937,-2.33203 -2.2617,-2.34375 -2.2617,-6.44532 z m 3.5742,-0.11718 q 0,2.91797 1.3476,4.42968 1.3477,1.5 3.4219,1.5 2.0742,0 3.3985,-1.48828 1.3359,-1.5 1.3359,-4.48828 0,-2.95312 -1.3008,-4.40625 -1.2891,-1.45312 -3.4336,-1.45312 -2.1445,0 -3.457,1.47656 -1.3125,1.46484 -1.3125,4.42969 z M 78.7168,28.729 l -1.37,-1.813 -1.36,-1.814 14.92,-11.231 2.73,3.627 z m 32.29,-11.522 2.6,-3.717 15.3,10.723 -1.31,1.858 -1.3,1.859 z m 13.94,9.776 2.65,-0.912 1.63,2.425 -8.02,26.194 -2.71,1.078 -1.68,-2.242 z m -8.13,26.543 1.68,2.242 0.04,2.27 -32.7,0.549 3.22,-4.594 z m -27.76,0.467 -3.22,4.594 -10.23,-29.758 1.74,-1.913 2.69,0.822 z M 93.8616,9.20502 q 0,-2.625 0.7851,-4.40625 0.586,-1.3125 1.5938,-2.35546 1.0195,-1.04297 2.2265,-1.54688 1.6055,-0.67969 3.7032,-0.67969 3.7968,0 6.0703,2.35547 2.2851,2.35547 2.2851,6.55078 0,4.16016 -2.2617,6.51563 -2.2617,2.34375 -6.0469,2.34375 -3.832,0 -6.0937,-2.33203 -2.2617,-2.34375 -2.2617,-6.44532 z m 3.5742,-0.11718 q 0,2.91797 1.3476,4.42968 1.3477,1.5 3.4219,1.5 2.0742,0 3.3985,-1.48828 1.3359,-1.5 1.3359,-4.48828 0,-2.95312 -1.3008,-4.40625 -1.2891,-1.45312 -3.4336,-1.45312 -2.1445,0 -3.457,1.47656 -1.3125,1.46484 -1.3125,4.42969 z"
     inkscape:connector-curvature="0"
     style="stroke-width:0.1" />
</svg>
