<?xml version="1.0"?><svg xmlns="http://www.w3.org/2000/svg" xmlns:xlink="http://www.w3.org/1999/xlink" viewBox="1.53 2.45 5656.08 2831.62" preserveAspectRatio="xMidYMid" width="100%" height="100%"><clipPath id="73"><rect x="0.3" y="0.3" width="5668.69" height="2834.05" /></clipPath><g id="drawing"><rect x="1.53" y="2.45" width="100%" height="100%" fill="rgb(255, 255, 255)" /><g id="page" clip-path="url(#73)"><g id="Rectangle"><path d="M5.99 6.92 L5.99 6.92 L5653.15 6.92 L5653.15 2829.6 L5.99 2829.6 Z" stroke="rgb(0, 123, 255)" stroke-width="0.6" fill-rule="evenodd" stroke-linejoin="miter" fill="rgb(0, 123, 255)" shape-rendering="geometricPrecision" /></g><g><text xml:space="preserve" text-anchor="start" text-rendering="geometricPrecision"><tspan x="102.4" y="257.4" font-family="Arial" font-size="10" fill="rgb(0, 0, 0)">N</tspan><tspan x="102.4" y="306.85" font-family="Arial" font-size="10" fill="rgb(0, 0, 0)">H</tspan></text></g><g id="Solid"><path d="M110.33 251.35 L110.33 251.35 L110.18 251.09 L110.03 250.83 L118.17 246.13 L118.47 246.3 L118.47 246.65 Z" stroke="rgb(0, 0, 0)" stroke-width="0" fill-rule="evenodd" stroke-linejoin="miter" fill="rgb(0, 0, 0)" shape-rendering="geometricPrecision" /></g><g id="Solid"><path d="M118.47 246.65 L118.47 246.65 L118.47 246.3 L118.77 246.13 L130.94 253.15 L130.94 253.5 L130.94 253.85 Z" stroke="rgb(0, 0, 0)" stroke-width="0" fill-rule="evenodd" stroke-linejoin="miter" fill="rgb(0, 0, 0)" shape-rendering="geometricPrecision" /></g><g id="Solid"><path d="M118.77 246.13 L118.77 246.13 L118.47 246.3 L118.17 246.13 L118.17 232.07 L118.47 231.9 L118.77 231.73 Z" stroke="rgb(0, 0, 0)" stroke-width="0" fill-rule="evenodd" stroke-linejoin="miter" fill="rgb(0, 0, 0)" shape-rendering="geometricPrecision" /></g><g id="Solid"><path d="M118.77 231.73 L118.77 231.73 L118.47 231.9 L118.17 232.07 L105.7 224.87 L106 224.7 L106.3 224.53 Z" stroke="rgb(0, 0, 0)" stroke-width="0" fill-rule="evenodd" stroke-linejoin="miter" fill="rgb(0, 0, 0)" shape-rendering="geometricPrecision" /></g><g id="Solid"><path d="M106.3 224.53 L106.3 224.53 L106 224.7 L105.7 224.87 L105.7 210.47 L106 210.3 L106.3 210.13 Z" stroke="rgb(0, 0, 0)" stroke-width="0" fill-rule="evenodd" stroke-linejoin="miter" fill="rgb(0, 0, 0)" shape-rendering="geometricPrecision" /></g><g id="Solid"><path d="M106.3 210.13 L106.3 210.13 L106 210.3 L105.7 210.47 L93.23 203.27 L93.53 203.1 L93.83 202.93 Z" stroke="rgb(0, 0, 0)" stroke-width="0" fill-rule="evenodd" stroke-linejoin="miter" fill="rgb(0, 0, 0)" shape-rendering="geometricPrecision" /></g><g id="Solid"><path d="M93.83 202.93 L93.83 202.93 L93.53 203.1 L93.23 203.27 L93.23 191.89 L93.53 191.89 L93.83 191.89 Z" stroke="rgb(0, 0, 0)" stroke-width="0" fill-rule="evenodd" stroke-linejoin="miter" fill="rgb(0, 0, 0)" shape-rendering="geometricPrecision" /></g><g><text xml:space="preserve" text-anchor="start" text-rendering="geometricPrecision"><tspan x="89.93" y="192.6" font-family="Arial" font-size="10" fill="rgb(0, 0, 0)">NH</tspan><tspan font-family="Arial" dy="2.26" font-size="7.5" fill="rgb(0, 0, 0)">3</tspan></text></g><g id="Charge22"><circle cx="93.54" cy="178.99" r="3.33333333333333" stroke="rgb(0, 0, 0)" stroke-width="0.48" fill="none" /><line x1="91.57" y1="178.99" x2="95.51" y2="178.99" stroke="rgb(0, 0, 0)" stroke-width="0.48" shape-rendering="auto" /><line x1="93.54" y1="177.02" x2="93.54" y2="180.96" stroke="rgb(0, 0, 0)" stroke-width="0.48" shape-rendering="auto" /></g><g><text xml:space="preserve" text-anchor="start" text-rendering="geometricPrecision"><tspan x="140.09" y="250.2" font-family="Arial" font-size="10" fill="rgb(0, 0, 0)">S</tspan></text></g><g id="Solid"><path d="M130.94 253.85 L130.94 253.85 L130.94 253.5 L130.94 253.15 L139.07 248.46 L139.22 248.72 L139.37 248.98 Z" stroke="rgb(0, 0, 0)" stroke-width="0" fill-rule="evenodd" stroke-linejoin="miter" fill="rgb(0, 0, 0)" shape-rendering="geometricPrecision" /></g><g><text xml:space="preserve" text-anchor="start" text-rendering="geometricPrecision"><tspan x="127.04" y="271.8" font-family="Arial" font-size="10" fill="rgb(0, 0, 0)">O</tspan></text></g><g id="Solid"><line x1="132.24" y1="253.5" x2="132.24" y2="263.01" stroke="rgb(0, 0, 0)" stroke-width="0.6" shape-rendering="auto" /><path d="M129.94 253.27 L129.94 253.27 L129.34 252.92 L129.34 263.01 L129.94 263.01 Z" stroke="rgb(0, 0, 0)" stroke-width="0" fill-rule="evenodd" stroke-linejoin="miter" fill="rgb(0, 0, 0)" shape-rendering="geometricPrecision" /><path d="M132.54 252.92 L132.54 252.92 L131.94 253.27 L131.94 263.01 L132.54 263.01 Z" stroke="rgb(0, 0, 0)" stroke-width="0" fill-rule="evenodd" stroke-linejoin="miter" fill="rgb(0, 0, 0)" shape-rendering="geometricPrecision" /></g><g id="Solid"><path d="M101.97 250.83 L101.97 250.83 L101.82 251.09 L101.67 251.35 L93.53 246.65 L93.53 246.3 L93.53 245.95 Z" stroke="rgb(0, 0, 0)" stroke-width="0" fill-rule="evenodd" stroke-linejoin="miter" fill="rgb(0, 0, 0)" shape-rendering="geometricPrecision" /></g><g id="Solid"><path d="M93.53 245.95 L93.53 245.95 L93.53 246.3 L93.53 246.65 L81.21 253.76 L81.06 253.5 L80.91 253.24 Z" stroke="rgb(0, 0, 0)" stroke-width="0" fill-rule="evenodd" stroke-linejoin="miter" fill="rgb(0, 0, 0)" shape-rendering="geometricPrecision" /></g><g><text xml:space="preserve" text-anchor="start" text-rendering="geometricPrecision"><tspan x="89.63" y="235.8" font-family="Arial" font-size="10" fill="rgb(0, 0, 0)">O</tspan></text></g><g id="Solid"><line x1="92.23" y1="246.3" x2="92.23" y2="237.59" stroke="rgb(0, 0, 0)" stroke-width="0.6" shape-rendering="auto" /><path d="M94.53 246.53 L94.53 246.53 L95.13 246.88 L95.13 237.59 L94.53 237.59 Z" stroke="rgb(0, 0, 0)" stroke-width="0" fill-rule="evenodd" stroke-linejoin="miter" fill="rgb(0, 0, 0)" shape-rendering="geometricPrecision" /><path d="M91.93 246.88 L91.93 246.88 L92.53 246.53 L92.53 237.59 L91.93 237.59 Z" stroke="rgb(0, 0, 0)" stroke-width="0" fill-rule="evenodd" stroke-linejoin="miter" fill="rgb(0, 0, 0)" shape-rendering="geometricPrecision" /></g><g id="Charge34"><circle cx="150.29" cy="239.44" r="3.33333333333333" stroke="rgb(0, 0, 0)" stroke-width="0.48" fill="none" /><line x1="148.32" y1="239.44" x2="152.26" y2="239.44" stroke="rgb(0, 0, 0)" stroke-width="0.48" shape-rendering="auto" /></g><g><text xml:space="preserve" text-anchor="start" text-rendering="geometricPrecision"><tspan x="383.68" y="100.06" font-family="Arial" font-size="10" fill="rgb(0, 0, 0)">O</tspan></text></g><g id="Solid"><path d="M375.25 104.24 L375.25 104.24 L375.5 104 L375.85 104.13 L379.46 117.62 L379.23 117.91 L379 118.2 Z" stroke="rgb(0, 0, 0)" stroke-width="0" fill-rule="evenodd" stroke-linejoin="miter" fill="rgb(0, 0, 0)" shape-rendering="geometricPrecision" /></g><g id="Solid"><path d="M379 118.2 L379 118.2 L379.23 117.91 L379.46 117.62 L393.41 118.35 L393.61 118.66 L393.48 118.95 Z" stroke="rgb(0, 0, 0)" stroke-width="0" fill-rule="evenodd" stroke-linejoin="miter" fill="rgb(0, 0, 0)" shape-rendering="geometricPrecision" /></g><g id="Solid"><path d="M393.97 118.55 L393.97 118.55 L393.61 118.66 L393.41 118.35 L398.41 105.32 L398.77 105.22 L398.97 105.55 Z" stroke="rgb(0, 0, 0)" stroke-width="0" fill-rule="evenodd" stroke-linejoin="miter" fill="rgb(0, 0, 0)" shape-rendering="geometricPrecision" /></g><g id="Solid"><path d="M398.87 104.92 L398.87 104.92 L398.77 105.22 L398.41 105.32 L391.75 99.92 L391.94 99.69 L392.12 99.45 Z" stroke="rgb(0, 0, 0)" stroke-width="0" fill-rule="evenodd" stroke-linejoin="miter" fill="rgb(0, 0, 0)" shape-rendering="geometricPrecision" /></g><g id="Solid"><path d="M382.9 98.84 L382.9 98.84 L383.07 99.09 L383.23 99.34 L375.85 104.13 L375.5 104 L375.48 103.66 Z" stroke="rgb(0, 0, 0)" stroke-width="0" fill-rule="evenodd" stroke-linejoin="miter" fill="rgb(0, 0, 0)" shape-rendering="geometricPrecision" /></g><g><text xml:space="preserve" text-anchor="end" text-rendering="geometricPrecision"><tspan x="374.06" y="133" font-family="Arial" font-size="10" fill="rgb(0, 0, 0)">HO</tspan></text></g><g id="Wedged Hash Begin Bond"><path d="M379 117.72 L379 117.72 L379.46 118.1 L379.15 118.62 L378.55 118.13 Z" stroke="rgb(0, 0, 0)" stroke-width="0" fill-rule="evenodd" stroke-linejoin="miter" fill="rgb(0, 0, 0)" shape-rendering="geometricPrecision" /><path d="M377.01 119.58 L377.01 119.58 L378.06 120.43 L377.74 120.95 L376.56 120 Z" stroke="rgb(0, 0, 0)" stroke-width="0" fill-rule="evenodd" stroke-linejoin="miter" fill="rgb(0, 0, 0)" shape-rendering="geometricPrecision" /><path d="M375.02 121.44 L375.02 121.44 L376.65 122.76 L376.33 123.28 L374.57 121.86 Z" stroke="rgb(0, 0, 0)" stroke-width="0" fill-rule="evenodd" stroke-linejoin="miter" fill="rgb(0, 0, 0)" shape-rendering="geometricPrecision" /><path d="M373.03 123.3 L373.03 123.3 L375.24 125.1 L374.93 125.61 L372.58 123.72 Z" stroke="rgb(0, 0, 0)" stroke-width="0" fill-rule="evenodd" stroke-linejoin="miter" fill="rgb(0, 0, 0)" shape-rendering="geometricPrecision" /></g><g id="WedgeBegin"><path d="M375.48 103.66 L375.48 103.66 L375.5 104 L375.25 104.24 L361.76 100.32 L362.06 98.84 L362.36 97.32 Z" stroke="rgb(0, 0, 0)" stroke-width="0" fill-rule="evenodd" stroke-linejoin="miter" fill="rgb(0, 0, 0)" shape-rendering="geometricPrecision" /></g><g><text xml:space="preserve" text-anchor="start" text-rendering="geometricPrecision"><tspan x="358.16" y="88.34" font-family="Arial" font-size="10" fill="rgb(0, 0, 0)">OH</tspan></text></g><g id="Solid"><path d="M362.36 97.32 L362.36 97.32 L362.06 98.84 L361.76 100.32 L361.76 90.09 L362.06 90.09 L362.36 90.09 Z" stroke="rgb(0, 0, 0)" stroke-width="0" fill-rule="evenodd" stroke-linejoin="miter" fill="rgb(0, 0, 0)" shape-rendering="geometricPrecision" /></g><g><text xml:space="preserve" text-anchor="start" text-rendering="geometricPrecision"><tspan x="400.9" y="131.63" font-family="Arial" font-size="10" fill="rgb(0, 0, 0)">O</tspan></text></g><g><text xml:space="preserve" text-anchor="start" text-rendering="geometricPrecision"><tspan x="409.55" y="109.87" font-family="Arial" font-size="10" fill="rgb(0, 0, 0)">N</tspan></text></g><g id="WedgeBegin"><path d="M393.48 118.95 L393.48 118.95 L393.61 118.66 L393.97 118.55 L401.31 122.96 L400.36 124.14 L399.42 125.31 Z" stroke="rgb(0, 0, 0)" stroke-width="0" fill-rule="evenodd" stroke-linejoin="miter" fill="rgb(0, 0, 0)" shape-rendering="geometricPrecision" /></g><g id="Solid"><path d="M409.3 125.17 L409.3 125.17 L409.13 124.91 L408.97 124.66 L416.53 119.75 L416.88 119.88 L416.92 120.21 Z" stroke="rgb(0, 0, 0)" stroke-width="0" fill-rule="evenodd" stroke-linejoin="miter" fill="rgb(0, 0, 0)" shape-rendering="geometricPrecision" /></g><g id="Solid"><path d="M417.13 119.65 L417.13 119.65 L416.88 119.88 L416.53 119.75 L414.33 111.51 L414.62 111.44 L414.91 111.36 Z" stroke="rgb(0, 0, 0)" stroke-width="0" fill-rule="evenodd" stroke-linejoin="miter" fill="rgb(0, 0, 0)" shape-rendering="geometricPrecision" /><line x1="413.89" y1="118.73" x2="412.11" y2="112.11" stroke="rgb(0, 0, 0)" stroke-width="0.6" shape-rendering="auto" /></g><g id="WedgeEnd"><path d="M408.89 104.24 L408.89 104.24 L408.81 105.74 L408.73 107.25 L398.97 105.55 L398.77 105.22 L398.87 104.92 Z" stroke="rgb(0, 0, 0)" stroke-width="0" fill-rule="evenodd" stroke-linejoin="miter" fill="rgb(0, 0, 0)" shape-rendering="geometricPrecision" /></g><g id="Solid"><path d="M416.92 120.21 L416.92 120.21 L416.88 119.88 L417.13 119.65 L426.12 123.11 L426.02 123.39 L425.91 123.67 Z" stroke="rgb(0, 0, 0)" stroke-width="0" fill-rule="evenodd" stroke-linejoin="miter" fill="rgb(0, 0, 0)" shape-rendering="geometricPrecision" /></g><g><text xml:space="preserve" text-anchor="start" text-rendering="geometricPrecision"><tspan x="426.72" y="128.94" font-family="Arial" font-size="10" fill="rgb(0, 0, 0)">NH</tspan><tspan font-family="Arial" dy="2.26" font-size="7.5" fill="rgb(0, 0, 0)">2</tspan></text></g></g></g></svg>