<?xml version="1.0" encoding="UTF-8" standalone="no"?>
<!-- Created with Inkscape (http://www.inkscape.org/) -->

<svg
   xmlns:dc="http://purl.org/dc/elements/1.1/"
   xmlns:cc="http://creativecommons.org/ns#"
   xmlns:rdf="http://www.w3.org/1999/02/22-rdf-syntax-ns#"
   xmlns:svg="http://www.w3.org/2000/svg"
   xmlns="http://www.w3.org/2000/svg"
   xmlns:sodipodi="http://sodipodi.sourceforge.net/DTD/sodipodi-0.dtd"
   xmlns:inkscape="http://www.inkscape.org/namespaces/inkscape"
   width="36.300621mm"
   height="36.300625mm"
   viewBox="0 0 36.300621 36.300625"
   version="1.1"
   id="svg8"
   inkscape:version="0.92.4 (5da689c313, 2019-01-14)"
   sodipodi:docname="catalysis1.svg">
  <defs
     id="defs2">
    <pattern
       y="0"
       x="0"
       height="6"
       width="6"
       patternUnits="userSpaceOnUse"
       id="EMFhbasepattern" />
    <pattern
       y="0"
       x="0"
       height="6"
       width="6"
       patternUnits="userSpaceOnUse"
       id="EMFhbasepattern-3" />
    <pattern
       y="0"
       x="0"
       height="6"
       width="6"
       patternUnits="userSpaceOnUse"
       id="EMFhbasepattern-9" />
    <pattern
       y="0"
       x="0"
       height="6"
       width="6"
       patternUnits="userSpaceOnUse"
       id="EMFhbasepattern-7" />
    <pattern
       y="0"
       x="0"
       height="6"
       width="6"
       patternUnits="userSpaceOnUse"
       id="EMFhbasepattern-2" />
    <pattern
       y="0"
       x="0"
       height="6"
       width="6"
       patternUnits="userSpaceOnUse"
       id="EMFhbasepattern-0" />
  </defs>
  <sodipodi:namedview
     id="base"
     pagecolor="#ffffff"
     bordercolor="#666666"
     borderopacity="1.0"
     inkscape:pageopacity="0.0"
     inkscape:pageshadow="2"
     inkscape:zoom="0.35"
     inkscape:cx="106.98615"
     inkscape:cy="-53.013754"
     inkscape:document-units="mm"
     inkscape:current-layer="layer1"
     showgrid="false"
     inkscape:window-width="1920"
     inkscape:window-height="986"
     inkscape:window-x="-11"
     inkscape:window-y="-11"
     inkscape:window-maximized="1" />
  <metadata
     id="metadata5">
    <rdf:RDF>
      <cc:Work
         rdf:about="">
        <dc:format>image/svg+xml</dc:format>
        <dc:type
           rdf:resource="http://purl.org/dc/dcmitype/StillImage" />
        <dc:title></dc:title>
      </cc:Work>
    </rdf:RDF>
  </metadata>
  <g
     inkscape:label="Layer 1"
     inkscape:groupmode="layer"
     id="layer1"
     transform="translate(-77.526579,-98.506144)">
    <path
       id="path1506"
       d="m 112.92345,116.65144 c 0,9.52954 -7.72204,17.25158 -17.251581,17.25158 -9.5195,0 -17.24154,-7.72204 -17.24154,-17.25158 0,-9.51951 7.72204,-17.241546 17.24154,-17.241546 9.529541,0 17.251581,7.722036 17.251581,17.241546"
       style="fill:none;stroke:#008000;stroke-width:1.8075px;stroke-linecap:butt;stroke-linejoin:miter;stroke-miterlimit:2;stroke-dasharray:none;stroke-opacity:1"
       inkscape:connector-curvature="0" />
    <path
       id="path1508"
       d="m 84.856989,113.20714 0.3113,-0.723 0.34141,-0.68283 0.3615,-0.63262 0.39163,-0.58242 0.41171,-0.53221 0.42175,-0.482 0.44183,-0.44183 0.45187,-0.38159 0.47196,-0.34141 0.482,-0.29121 0.482,-0.241 0.49204,-0.20083 0.49205,-0.15063 0.49204,-0.10042 0.49204,-0.0602 0.97404,0.0301 0.47196,0.0703 0.91379,0.29121 0.43179,0.21087 0.42175,0.26109 0.40167,0.2912 0.37154,0.34142 0.35146,0.38159 0.33138,0.43179 0.30125,0.46191 0.26108,0.51213 0.241,0.54225 0.20083,0.59246 0.16067,0.63262 0.1205,0.67279 0.0502,0.39163 0.0803,0.78325 0.0602,0.65271 0.0301,0.53221 v 0.42175 l -0.0201,0.32133 -0.0502,0.23096 -0.0703,0.14058 -0.0904,0.0602 -0.11046,-0.01 -0.14059,-0.0703 -0.15062,-0.13054 -0.17071,-0.17071 -0.41171,-0.46192 -0.22091,-0.27112 -0.25105,-0.28117 -0.26108,-0.29121 -0.27112,-0.28117 -0.29121,-0.28116 -0.31129,-0.26109 -0.32134,-0.241 -0.33137,-0.20083 -0.34142,-0.16067 -0.35146,-0.1205 -0.3615,-0.0602 -0.38158,0.01 -0.38158,0.0803 -0.18075,0.0602 -0.76317,0.29121 -0.77321,0.27112 -0.77321,0.23096 -1.4962,0.37154 -0.69288,0.11046 -0.65271,0.0703 h -0.58241 l -0.51213,-0.0602 -0.43179,-0.1205 -0.33138,-0.21087 -0.21087,-0.28117 -0.10042,-0.37154 0.0402,-0.46192 0.0402,-0.16066 z"
       style="fill:#b3d9b3;fill-opacity:1;fill-rule:evenodd;stroke:none;stroke-width:0.26458332"
       inkscape:connector-curvature="0" />
    <path
       id="path1510"
       d="m 84.856989,113.20714 c 3.23342,-8.22412 11.6885,-7.471 12.54205,0.27113 0.86358,7.74212 -1.71713,-1.43596 -5.302,0 -3.58488,1.43596 -7.99317,2.25937 -7.24005,-0.32133"
       style="fill:none;stroke:#008000;stroke-width:0.65270835px;stroke-linecap:butt;stroke-linejoin:miter;stroke-miterlimit:2;stroke-dasharray:none;stroke-opacity:1"
       inkscape:connector-curvature="0" />
    <path
       id="path1512"
       d="m 85.720579,120.94927 1.02425,-0.23096 0.98408,-0.33137 0.92383,-0.42176 0.86359,-0.48199 0.78325,-0.50209 0.69287,-0.51212 0.6025,-0.49205 0.51213,-0.45187 0.38158,-0.37154 0.27113,-0.27113 0.14058,-0.15062 0.0201,-0.0301 -0.0201,0.0703 -0.0603,0.20083 -0.0803,0.30125 -0.0803,0.39162 -0.0703,0.45188 -0.0502,0.50208 -0.01,0.53221 0.0402,0.53221 0.11046,0.52216 0.19079,0.49205 0.29121,0.43179 0.4117,0.35146 0.53221,0.27112 0.68284,0.15063 0.83345,0.01 0.83346,-0.10042 0.68284,-0.0904 0.56233,0.01 0.45188,0.0803 0.34141,0.16067 0.25104,0.21087 0.16067,0.27113 0.0803,0.32133 v 0.35146 l -0.0602,0.38158 -0.31129,0.80334 -0.23096,0.40166 -0.27112,0.39163 -0.30125,0.38158 -0.33138,0.34142 -0.34141,0.32133 -0.3615,0.26108 -0.3615,0.21088 -0.3615,0.15062 -0.35146,0.0703 h -0.33138 l -0.31129,-0.10042 -0.22092,-0.15063 -0.3615,-0.26108 -0.45187,-0.29121 -0.54225,-0.31129 -0.6025,-0.32133 -0.66275,-0.33138 -0.69287,-0.34141 -1.45605,-0.69288 -0.73304,-0.35146 -0.70292,-0.34141 -0.67279,-0.32134 -0.63262,-0.32133 -0.56233,-0.30125 -0.48201,-0.28117 -0.39162,-0.26108 -0.29121,-0.241 -0.16066,-0.20083 -0.0301,-0.17071 0.13054,-0.14059 0.28117,-0.10041 h 0.0402 z"
       style="fill:#b3d9b3;fill-opacity:1;fill-rule:evenodd;stroke:none;stroke-width:0.26458332"
       inkscape:connector-curvature="0" />
    <path
       id="path1514"
       d="m 85.720579,120.94927 c 4.02671,-0.64267 7.19987,-4.24763 7.19987,-4.24763 0,0 -2.08866,6.13546 3.55475,5.11121 5.643421,-1.02425 0.42175,6.507 -1.61671,4.77983 -2.03845,-1.71712 -11.60816,-5.10116 -8.97725,-5.58316"
       style="fill:none;stroke:#008000;stroke-width:0.65270835px;stroke-linecap:butt;stroke-linejoin:miter;stroke-miterlimit:2;stroke-dasharray:none;stroke-opacity:1"
       inkscape:connector-curvature="0" />
    <path
       id="path1516"
       d="m 99.316999,118.10748 -0.0201,-1.3255 0.0301,-0.6025 0.0602,-0.56234 0.11045,-0.51212 0.15063,-0.45188 0.19079,-0.39162 0.251041,-0.33138 0.3113,-0.241 0.37154,-0.1707 0.43179,-0.0703 0.50208,0.01 0.58242,0.1205 0.66275,0.23096 0.74308,0.34142 0.83346,0.46192 0.59246,0.37154 0.78325,0.56233 0.59246,0.52217 0.40166,0.50208 0.241,0.46192 0.10042,0.43179 -0.0301,0.40167 -0.14058,0.38158 -0.23096,0.34142 -0.30125,0.33137 -0.3615,0.29121 -0.40166,0.28117 -0.41171,0.25104 -0.42175,0.23096 -0.76317,0.40166 -0.31129,0.17071 -0.25104,0.16067 -0.10042,0.0803 -0.37154,0.19079 -0.49204,0.0402 -0.57238,-0.10042 -0.61254,-0.241 -0.6025,-0.37154 -0.56233,-0.482 -0.482001,-0.58241 -0.34142,-0.6728 -0.16066,-0.62258 z"
       style="fill:#b3d9b3;fill-opacity:1;fill-rule:evenodd;stroke:none;stroke-width:0.26458332"
       inkscape:connector-curvature="0" />
    <path
       id="path1518"
       d="m 99.316999,118.10748 c -0.21088,-3.81584 0.59245,-6.507 5.804081,-3.12296 5.22166,3.38404 -0.74308,5.00075 -1.60667,5.80408 -0.86358,0.81338 -3.876081,-0.53221 -4.197411,-2.84179"
       style="fill:none;stroke:#008000;stroke-width:0.65270835px;stroke-linecap:butt;stroke-linejoin:miter;stroke-miterlimit:2;stroke-dasharray:none;stroke-opacity:1"
       inkscape:connector-curvature="0" />
    <path
       id="path1520"
       d="m 103.47425,110.0641 c -0.0502,-1.98825 -1.69705,-3.57483 -3.695341,-3.52462 -1.25521,0.0201 -2.48029,0.76316 -3.08279,1.86775"
       style="fill:none;stroke:#008000;stroke-width:0.65270835px;stroke-linecap:round;stroke-linejoin:miter;stroke-miterlimit:2;stroke-dasharray:none;stroke-opacity:1"
       inkscape:connector-curvature="0" />
    <path
       id="path1522"
       d="m 102.55041,112.55443 c 0,0 0.33138,-3.11291 0.33138,-3.11291 0,0 0.28116,0.51212 0.59246,0.62258 0.30124,0.1205 0.84349,-0.0803 0.84349,-0.0803 0,0 -1.76733,2.57066 -1.76733,2.57066 0,0 0,0 0,0"
       style="fill:none;stroke:#008000;stroke-width:0.04016666px;stroke-linecap:round;stroke-linejoin:miter;stroke-miterlimit:2;stroke-dasharray:none;stroke-opacity:1"
       inkscape:connector-curvature="0" />
    <path
       id="path1524"
       d="m 102.55041,112.55443 c 0,0 0.33138,-3.11291 0.33138,-3.11291 0,0 0.28116,0.51212 0.59246,0.62258 0.30124,0.1205 0.84349,-0.0803 0.84349,-0.0803 0,0 -1.76733,2.57066 -1.76733,2.57066 0,0 0,0 0,0 z"
       style="fill:#008000;fill-opacity:1;fill-rule:nonzero;stroke:none;stroke-width:0.26458332"
       inkscape:connector-curvature="0" />
    <path
       id="path1526"
       d="m 99.507789,125.66885 c 1.114621,1.65688 3.363951,2.08867 5.010791,0.964 1.65687,-1.11462 2.08867,-3.36396 0.964,-5.01079 -0.11046,-0.17071 -0.241,-0.33137 -0.39163,-0.482"
       style="fill:none;stroke:#008000;stroke-width:0.65270835px;stroke-linecap:round;stroke-linejoin:miter;stroke-miterlimit:2;stroke-dasharray:none;stroke-opacity:1"
       inkscape:connector-curvature="0" />
    <path
       id="path1528"
       d="m 98.202369,126.63285 2.148921,-2.34975 0.46191,0.42175 -2.148911,2.34975 z"
       style="fill:#008000;fill-opacity:1;fill-rule:evenodd;stroke:none;stroke-width:0.26458332"
       inkscape:connector-curvature="0" />
  </g>
</svg>
