<?xml version="1.0" encoding="UTF-8" standalone="no"?>
<!-- Created with Inkscape (http://www.inkscape.org/) -->

<svg
   xmlns:dc="http://purl.org/dc/elements/1.1/"
   xmlns:cc="http://creativecommons.org/ns#"
   xmlns:rdf="http://www.w3.org/1999/02/22-rdf-syntax-ns#"
   xmlns:svg="http://www.w3.org/2000/svg"
   xmlns="http://www.w3.org/2000/svg"
   xmlns:sodipodi="http://sodipodi.sourceforge.net/DTD/sodipodi-0.dtd"
   xmlns:inkscape="http://www.inkscape.org/namespaces/inkscape"
   width="36.300629mm"
   height="36.300621mm"
   viewBox="0 0 36.300629 36.300621"
   version="1.1"
   id="svg8"
   inkscape:version="0.92.4 (5da689c313, 2019-01-14)"
   sodipodi:docname="catalysis.svg">
  <defs
     id="defs2">
    <pattern
       y="0"
       x="0"
       height="6"
       width="6"
       patternUnits="userSpaceOnUse"
       id="EMFhbasepattern" />
  </defs>
  <sodipodi:namedview
     id="base"
     pagecolor="#ffffff"
     bordercolor="#666666"
     borderopacity="1.0"
     inkscape:pageopacity="0.0"
     inkscape:pageshadow="2"
     inkscape:zoom="0.35"
     inkscape:cx="157.17103"
     inkscape:cy="-45.68611"
     inkscape:document-units="mm"
     inkscape:current-layer="layer1"
     showgrid="false"
     inkscape:window-width="1920"
     inkscape:window-height="986"
     inkscape:window-x="-11"
     inkscape:window-y="-11"
     inkscape:window-maximized="1" />
  <metadata
     id="metadata5">
    <rdf:RDF>
      <cc:Work
         rdf:about="">
        <dc:format>image/svg+xml</dc:format>
        <dc:type
           rdf:resource="http://purl.org/dc/dcmitype/StillImage" />
        <dc:title></dc:title>
      </cc:Work>
    </rdf:RDF>
  </metadata>
  <g
     inkscape:label="Layer 1"
     inkscape:groupmode="layer"
     id="layer1"
     transform="translate(-64.248497,-100.44493)">
    <path
       id="path13"
       d="m 84.181207,106.49001 c -0.61254,0.50209 -0.89371,1.70709 -0.95396,2.90204 -0.0201,0.59246 -0.14058,2.0485 -0.18075,2.63092 -0.0703,0.71296 -0.39162,2.03846 -0.99412,2.64096 -0.59246,0.6025 0.59245,-0.0904 1.45604,-0.93388 0.65271,-0.64266 0.86358,-1.66691 0.93387,-2.42004 0.0703,-0.68283 0.0803,-1.88783 0.19079,-3.03258 0.0803,-0.79329 -0.0201,-1.47613 0.34142,-1.93804 0.67279,-0.8435 0.47196,-0.89371 -0.79329,0.15062"
       style="fill:none;stroke:#700000;stroke-width:0.04016666px;stroke-linecap:butt;stroke-linejoin:miter;stroke-miterlimit:2;stroke-dasharray:none;stroke-opacity:1"
       inkscape:connector-curvature="0" />
    <path
       id="path15"
       d="m 84.181207,106.49001 c -0.61254,0.50209 -0.89371,1.70709 -0.95396,2.90204 -0.0201,0.59246 -0.14058,2.0485 -0.18075,2.63092 -0.0703,0.71296 -0.39162,2.03846 -0.99412,2.64096 -0.59246,0.6025 0.59245,-0.0904 1.45604,-0.93388 0.65271,-0.64266 0.86358,-1.66691 0.93387,-2.42004 0.0703,-0.68283 0.0803,-1.88783 0.19079,-3.03258 0.0803,-0.79329 -0.0201,-1.47613 0.34142,-1.93804 0.67279,-0.8435 0.47196,-0.89371 -0.79329,0.15062 z"
       style="fill:#700000;fill-opacity:1;fill-rule:nonzero;stroke:none;stroke-width:0.26458332"
       inkscape:connector-curvature="0" />
    <path
       id="path17"
       d="m 72.613207,114.1016 c -0.62258,0.51212 -0.90375,1.70708 -0.95396,2.91208 -0.0301,0.59246 -0.14058,2.0485 -0.19079,2.63092 -0.0602,0.70291 -0.39163,2.02841 -0.99413,2.63091 -0.59245,0.6025 0.59246,-0.0803 1.45605,-0.93387 0.66275,-0.64267 0.86358,-1.66692 0.94391,-2.42004 0.0602,-0.6728 0.0703,-1.88784 0.18075,-3.02255 0.0803,-0.80333 -0.01,-1.48616 0.35146,-1.93804 0.66275,-0.85354 0.46192,-0.90375 -0.79329,0.14059"
       style="fill:none;stroke:#700000;stroke-width:0.04016666px;stroke-linecap:butt;stroke-linejoin:miter;stroke-miterlimit:2;stroke-dasharray:none;stroke-opacity:1"
       inkscape:connector-curvature="0" />
    <path
       id="path19"
       d="m 72.613207,114.1016 c -0.62258,0.51212 -0.90375,1.70708 -0.95396,2.91208 -0.0301,0.59246 -0.14058,2.0485 -0.19079,2.63092 -0.0602,0.70291 -0.39163,2.02841 -0.99413,2.63091 -0.59245,0.6025 0.59246,-0.0803 1.45605,-0.93387 0.66275,-0.64267 0.86358,-1.66692 0.94391,-2.42004 0.0602,-0.6728 0.0703,-1.88784 0.18075,-3.02255 0.0803,-0.80333 -0.01,-1.48616 0.35146,-1.93804 0.66275,-0.85354 0.46192,-0.90375 -0.79329,0.14059 z"
       style="fill:#700000;fill-opacity:1;fill-rule:nonzero;stroke:none;stroke-width:0.26458332"
       inkscape:connector-curvature="0" />
    <path
       id="path21"
       d="m 80.596327,108.8498 c -0.61254,0.50209 -0.8937,1.70709 -0.95395,2.90205 -0.0301,0.59245 -0.14059,2.0485 -0.1908,2.63091 -0.0603,0.71296 -0.38158,2.03846 -0.98408,2.64096 -0.6025,0.6025 0.59246,-0.0904 1.45604,-0.93387 0.65271,-0.64267 0.86359,-1.66692 0.93388,-2.42005 0.0602,-0.68283 0.0703,-1.88783 0.19079,-3.03258 0.0803,-0.79329 -0.0201,-1.47612 0.34142,-1.93804 0.67279,-0.8435 0.47195,-0.89371 -0.7933,0.15062"
       style="fill:none;stroke:#ff0000;stroke-width:0.04016666px;stroke-linecap:butt;stroke-linejoin:miter;stroke-miterlimit:2;stroke-dasharray:none;stroke-opacity:1"
       inkscape:connector-curvature="0" />
    <path
       id="path23"
       d="m 80.596327,108.8498 c -0.61254,0.50209 -0.8937,1.70709 -0.95395,2.90205 -0.0301,0.59245 -0.14059,2.0485 -0.1908,2.63091 -0.0603,0.71296 -0.38158,2.03846 -0.98408,2.64096 -0.6025,0.6025 0.59246,-0.0904 1.45604,-0.93387 0.65271,-0.64267 0.86359,-1.66692 0.93388,-2.42005 0.0602,-0.68283 0.0703,-1.88783 0.19079,-3.03258 0.0803,-0.79329 -0.0201,-1.47612 0.34142,-1.93804 0.67279,-0.8435 0.47195,-0.89371 -0.7933,0.15062 z"
       style="fill:#ff0000;fill-opacity:1;fill-rule:nonzero;stroke:none;stroke-width:0.26458332"
       inkscape:connector-curvature="0" />
    <path
       id="path25"
       d="m 81.921827,107.93601 c 0.71296,-0.37154 1.93805,-0.16066 3.07275,0.26109 0.56234,0.21087 1.95813,0.68283 2.52046,0.87362 0.68284,0.22092 2.0485,0.44183 2.83175,0.1205 0.79329,-0.32133 -0.30125,0.51213 -1.41587,0.98408 -0.8435,0.3615 -1.87779,0.15063 -2.61084,-0.0803 -0.6527,-0.21087 -1.78741,-0.68283 -2.892,-1.02425 -0.7732,-0.25104 -1.3757,-0.6025 -1.93804,-0.45187 -1.04433,0.2912 -1.01421,0.0904 0.43179,-0.68284"
       style="fill:none;stroke:#b20000;stroke-width:0.04016666px;stroke-linecap:butt;stroke-linejoin:miter;stroke-miterlimit:2;stroke-dasharray:none;stroke-opacity:1"
       inkscape:connector-curvature="0" />
    <path
       id="path27"
       d="m 81.921827,107.93601 c 0.71296,-0.37154 1.93805,-0.16066 3.07275,0.26109 0.56234,0.21087 1.95813,0.68283 2.52046,0.87362 0.68284,0.22092 2.0485,0.44183 2.83175,0.1205 0.79329,-0.32133 -0.30125,0.51213 -1.41587,0.98408 -0.8435,0.3615 -1.87779,0.15063 -2.61084,-0.0803 -0.6527,-0.21087 -1.78741,-0.68283 -2.892,-1.02425 -0.7732,-0.25104 -1.3757,-0.6025 -1.93804,-0.45187 -1.04433,0.2912 -1.01421,0.0904 0.43179,-0.68284 z"
       style="fill:#b20000;fill-opacity:1;fill-rule:nonzero;stroke:none;stroke-width:0.26458332"
       inkscape:connector-curvature="0" />
    <path
       id="path29"
       d="m 69.018287,116.46139 c -0.61254,0.51212 -0.89371,1.70708 -0.95396,2.91208 -0.0201,0.59246 -0.14058,2.0485 -0.18075,2.63092 -0.0602,0.70291 -0.39162,2.02841 -0.99412,2.63091 -0.59246,0.6025 0.59246,-0.0803 1.45604,-0.93387 0.65271,-0.64267 0.86358,-1.66692 0.93388,-2.42004 0.0703,-0.67279 0.0803,-1.88784 0.19079,-3.02254 0.0803,-0.80334 -0.0201,-1.48617 0.34141,-1.93805 0.6728,-0.85354 0.47196,-0.90375 -0.79329,0.14059"
       style="fill:none;stroke:#840000;stroke-width:0.04016666px;stroke-linecap:butt;stroke-linejoin:miter;stroke-miterlimit:2;stroke-dasharray:none;stroke-opacity:1"
       inkscape:connector-curvature="0" />
    <path
       id="path31"
       d="m 69.018287,116.46139 c -0.61254,0.51212 -0.89371,1.70708 -0.95396,2.91208 -0.0201,0.59246 -0.14058,2.0485 -0.18075,2.63092 -0.0602,0.70291 -0.39162,2.02841 -0.99412,2.63091 -0.59246,0.6025 0.59246,-0.0803 1.45604,-0.93387 0.65271,-0.64267 0.86358,-1.66692 0.93388,-2.42004 0.0703,-0.67279 0.0803,-1.88784 0.19079,-3.02254 0.0803,-0.80334 -0.0201,-1.48617 0.34141,-1.93805 0.6728,-0.85354 0.47196,-0.90375 -0.79329,0.14059 z"
       style="fill:#840000;fill-opacity:1;fill-rule:nonzero;stroke:none;stroke-width:0.26458332"
       inkscape:connector-curvature="0" />
    <path
       id="path33"
       d="m 70.353827,115.55764 c 0.70292,-0.37154 1.928,-0.16067 3.06271,0.26108 0.56234,0.20083 1.96817,0.67279 2.52046,0.86358 0.68283,0.22092 2.0485,0.44184 2.83175,0.1205 0.79329,-0.32133 -0.30125,0.52217 -1.41587,0.99413 -0.8435,0.35146 -1.8778,0.14058 -2.61084,-0.0904 -0.65271,-0.21088 -1.78741,-0.68283 -2.892,-1.02425 -0.77321,-0.241 -1.36566,-0.6025 -1.93804,-0.44183 -1.03429,0.2912 -1.01421,0.0803 0.44183,-0.68284"
       style="fill:none;stroke:#b20000;stroke-width:0.04016666px;stroke-linecap:butt;stroke-linejoin:miter;stroke-miterlimit:2;stroke-dasharray:none;stroke-opacity:1"
       inkscape:connector-curvature="0" />
    <path
       id="path35"
       d="m 70.353827,115.55764 c 0.70292,-0.37154 1.928,-0.16067 3.06271,0.26108 0.56234,0.20083 1.96817,0.67279 2.52046,0.86358 0.68283,0.22092 2.0485,0.44184 2.83175,0.1205 0.79329,-0.32133 -0.30125,0.52217 -1.41587,0.99413 -0.8435,0.35146 -1.8778,0.14058 -2.61084,-0.0904 -0.65271,-0.21088 -1.78741,-0.68283 -2.892,-1.02425 -0.77321,-0.241 -1.36566,-0.6025 -1.93804,-0.44183 -1.03429,0.2912 -1.01421,0.0803 0.44183,-0.68284 z"
       style="fill:#b20000;fill-opacity:1;fill-rule:nonzero;stroke:none;stroke-width:0.26458332"
       inkscape:connector-curvature="0" />
    <path
       id="path37"
       d="m 85.516747,105.57622 c 0.70292,-0.37154 1.928,-0.16067 3.06271,0.26108 0.56233,0.21088 1.96817,0.68284 2.52046,0.87363 0.68283,0.22092 2.0485,0.44183 2.83175,0.1205 0.79329,-0.32133 -0.30125,0.51212 -1.41588,0.98408 -0.8435,0.3615 -1.87779,0.15063 -2.61083,-0.0803 -0.65271,-0.21088 -1.78742,-0.68283 -2.892,-1.02425 -0.77321,-0.25104 -1.36567,-0.6025 -1.93804,-0.44183 -1.04434,0.28116 -1.01421,0.0803 0.44183,-0.69288"
       style="fill:none;stroke:#930000;stroke-width:0.04016666px;stroke-linecap:butt;stroke-linejoin:miter;stroke-miterlimit:2;stroke-dasharray:none;stroke-opacity:1"
       inkscape:connector-curvature="0" />
    <path
       id="path39"
       d="m 85.516747,105.57622 c 0.70292,-0.37154 1.928,-0.16067 3.06271,0.26108 0.56233,0.21088 1.96817,0.68284 2.52046,0.87363 0.68283,0.22092 2.0485,0.44183 2.83175,0.1205 0.79329,-0.32133 -0.30125,0.51212 -1.41588,0.98408 -0.8435,0.3615 -1.87779,0.15063 -2.61083,-0.0803 -0.65271,-0.21088 -1.78742,-0.68283 -2.892,-1.02425 -0.77321,-0.25104 -1.36567,-0.6025 -1.93804,-0.44183 -1.04434,0.28116 -1.01421,0.0803 0.44183,-0.69288 z"
       style="fill:#930000;fill-opacity:1;fill-rule:nonzero;stroke:none;stroke-width:0.26458332"
       inkscape:connector-curvature="0" />
    <path
       id="path41"
       d="m 73.938707,113.19785 c 0.70292,-0.37155 1.928,-0.16067 3.07275,0.26108 0.55229,0.20083 1.95812,0.67279 2.52046,0.86358 0.67279,0.22092 2.03846,0.44184 2.83175,0.1205 0.78325,-0.32133 -0.31129,0.52217 -1.42592,0.99413 -0.8435,0.35146 -1.87779,0.14058 -2.60079,-0.0904 -0.66275,-0.21088 -1.78742,-0.68284 -2.90204,-1.02425 -0.77321,-0.241 -1.36567,-0.6025 -1.928,-0.44184 -1.04434,0.29121 -1.02425,0.0803 0.43179,-0.68283"
       style="fill:none;stroke:#930000;stroke-width:0.04016666px;stroke-linecap:butt;stroke-linejoin:miter;stroke-miterlimit:2;stroke-dasharray:none;stroke-opacity:1"
       inkscape:connector-curvature="0" />
    <path
       id="path43"
       d="m 73.938707,113.19785 c 0.70292,-0.37155 1.928,-0.16067 3.07275,0.26108 0.55229,0.20083 1.95812,0.67279 2.52046,0.86358 0.67279,0.22092 2.03846,0.44184 2.83175,0.1205 0.78325,-0.32133 -0.31129,0.52217 -1.42592,0.99413 -0.8435,0.35146 -1.87779,0.14058 -2.60079,-0.0904 -0.66275,-0.21088 -1.78742,-0.68284 -2.90204,-1.02425 -0.77321,-0.241 -1.36567,-0.6025 -1.928,-0.44184 -1.04434,0.29121 -1.02425,0.0803 0.43179,-0.68283 z"
       style="fill:#930000;fill-opacity:1;fill-rule:nonzero;stroke:none;stroke-width:0.26458332"
       inkscape:connector-curvature="0" />
    <path
       id="path45"
       d="m 73.486827,113.9108 c 0,0 1.07446,1.6368 1.7573,2.67109"
       style="fill:none;stroke:#ff0000;stroke-width:0.19079167px;stroke-linecap:butt;stroke-linejoin:miter;stroke-miterlimit:2;stroke-dasharray:none;stroke-opacity:1"
       inkscape:connector-curvature="0" />
    <path
       id="path47"
       d="m 75.344537,114.2723 c 0,0 1.07446,1.62675 1.75729,2.66105"
       style="fill:none;stroke:#ff0000;stroke-width:0.19079167px;stroke-linecap:butt;stroke-linejoin:miter;stroke-miterlimit:2;stroke-dasharray:none;stroke-opacity:1"
       inkscape:connector-curvature="0" />
    <path
       id="path49"
       d="m 77.282577,114.88485 c 0,0 0.82342,1.2552 1.35563,2.05854"
       style="fill:none;stroke:#ff0000;stroke-width:0.19079167px;stroke-linecap:butt;stroke-linejoin:miter;stroke-miterlimit:2;stroke-dasharray:none;stroke-opacity:1"
       inkscape:connector-curvature="0" />
    <path
       id="path51"
       d="m 80.837327,112.54514 c 0,0 0.82342,1.25521 1.34559,2.0485"
       style="fill:none;stroke:#ff0000;stroke-width:0.19079167px;stroke-linecap:butt;stroke-linejoin:miter;stroke-miterlimit:2;stroke-dasharray:none;stroke-opacity:1"
       inkscape:connector-curvature="0" />
    <path
       id="path53"
       d="m 81.098417,110.4866 c 0,0 1.07446,1.62675 1.75729,2.66104"
       style="fill:none;stroke:#ff0000;stroke-width:0.19079167px;stroke-linecap:butt;stroke-linejoin:miter;stroke-miterlimit:2;stroke-dasharray:none;stroke-opacity:1"
       inkscape:connector-curvature="0" />
    <path
       id="path55"
       d="m 81.459917,108.62889 c 0,0 1.07446,1.62675 1.74725,2.66104"
       style="fill:none;stroke:#ff0000;stroke-width:0.19079167px;stroke-linecap:butt;stroke-linejoin:miter;stroke-miterlimit:2;stroke-dasharray:none;stroke-opacity:1"
       inkscape:connector-curvature="0" />
    <path
       id="path57"
       d="m 85.094997,106.27914 c 0,0 1.07446,1.62675 1.75729,2.66104"
       style="fill:none;stroke:#ff0000;stroke-width:0.19079167px;stroke-linecap:butt;stroke-linejoin:miter;stroke-miterlimit:2;stroke-dasharray:none;stroke-opacity:1"
       inkscape:connector-curvature="0" />
    <path
       id="path59"
       d="m 86.952707,106.6306 c 0,0 1.07446,1.62675 1.75729,2.66104"
       style="fill:none;stroke:#ff0000;stroke-width:0.19079167px;stroke-linecap:butt;stroke-linejoin:miter;stroke-miterlimit:2;stroke-dasharray:none;stroke-opacity:1"
       inkscape:connector-curvature="0" />
    <path
       id="path61"
       d="m 88.890747,107.25318 c 0,0 0.83346,1.25521 1.35563,2.0485"
       style="fill:none;stroke:#ff0000;stroke-width:0.19079167px;stroke-linecap:butt;stroke-linejoin:miter;stroke-miterlimit:2;stroke-dasharray:none;stroke-opacity:1"
       inkscape:connector-curvature="0" />
    <path
       id="path63"
       d="m 69.259287,120.16676 c 0,0 0.82342,1.24517 1.34559,2.03846"
       style="fill:none;stroke:#ff0000;stroke-width:0.19079167px;stroke-linecap:butt;stroke-linejoin:miter;stroke-miterlimit:2;stroke-dasharray:none;stroke-opacity:1"
       inkscape:connector-curvature="0" />
    <path
       id="path65"
       d="m 69.520377,118.09818 c 0,0 1.07445,1.62675 1.75729,2.66104"
       style="fill:none;stroke:#ff0000;stroke-width:0.19079167px;stroke-linecap:butt;stroke-linejoin:miter;stroke-miterlimit:2;stroke-dasharray:none;stroke-opacity:1"
       inkscape:connector-curvature="0" />
    <path
       id="path67"
       d="m 69.881877,116.24047 c 0,0 1.07445,1.62675 1.74725,2.66104"
       style="fill:none;stroke:#ff0000;stroke-width:0.19079167px;stroke-linecap:butt;stroke-linejoin:miter;stroke-miterlimit:2;stroke-dasharray:none;stroke-opacity:1"
       inkscape:connector-curvature="0" />
    <path
       id="path69"
       d="m 87.725917,130.79085 c 0.0803,-0.62259 -0.41171,-1.46609 -1.02425,-2.18909 -0.30125,-0.35146 -1.02425,-1.25521 -1.30542,-1.61671 -0.35146,-0.44183 -0.87362,-1.38575 -0.86358,-2.0485 0.0201,-0.67279 -0.29121,0.37155 -0.33138,1.3255 -0.0301,0.723 0.40167,1.42592 0.77321,1.88784 0.32133,0.43179 0.97404,1.13471 1.52633,1.84766 0.38159,0.50209 0.80334,0.8435 0.8435,1.30542 0.0703,0.8435 0.21088,0.77321 0.38159,-0.51212"
       style="fill:none;stroke:#700000;stroke-width:0.04016666px;stroke-linecap:butt;stroke-linejoin:miter;stroke-miterlimit:2;stroke-dasharray:none;stroke-opacity:1"
       inkscape:connector-curvature="0" />
    <path
       id="path71"
       d="m 87.725917,130.79085 c 0.0803,-0.62259 -0.41171,-1.46609 -1.02425,-2.18909 -0.30125,-0.35146 -1.02425,-1.25521 -1.30542,-1.61671 -0.35146,-0.44183 -0.87362,-1.38575 -0.86358,-2.0485 0.0201,-0.67279 -0.29121,0.37155 -0.33138,1.3255 -0.0301,0.723 0.40167,1.42592 0.77321,1.88784 0.32133,0.43179 0.97404,1.13471 1.52633,1.84766 0.38159,0.50209 0.80334,0.8435 0.8435,1.30542 0.0703,0.8435 0.21088,0.77321 0.38159,-0.51212 z"
       style="fill:#700000;fill-opacity:1;fill-rule:nonzero;stroke:none;stroke-width:0.26458332"
       inkscape:connector-curvature="0" />
    <path
       id="path73"
       d="m 90.276497,120.15672 c 0.0803,-0.62258 -0.41171,-1.46608 -1.02425,-2.18908 -0.30125,-0.35146 -1.02425,-1.25521 -1.31546,-1.61671 -0.34141,-0.43179 -0.87362,-1.37571 -0.85354,-2.0485 0.0201,-0.67279 -0.29121,0.37154 -0.33137,1.3255 -0.0301,0.723 0.40166,1.42592 0.76316,1.89787 0.33138,0.42175 0.98409,1.12467 1.53638,1.83763 0.38158,0.51212 0.80333,0.8435 0.8435,1.30542 0.0703,0.85354 0.21087,0.7732 0.38158,-0.51213"
       style="fill:none;stroke:#700000;stroke-width:0.04016666px;stroke-linecap:butt;stroke-linejoin:miter;stroke-miterlimit:2;stroke-dasharray:none;stroke-opacity:1"
       inkscape:connector-curvature="0" />
    <path
       id="path75"
       d="m 90.276497,120.15672 c 0.0803,-0.62258 -0.41171,-1.46608 -1.02425,-2.18908 -0.30125,-0.35146 -1.02425,-1.25521 -1.31546,-1.61671 -0.34141,-0.43179 -0.87362,-1.37571 -0.85354,-2.0485 0.0201,-0.67279 -0.29121,0.37154 -0.33137,1.3255 -0.0301,0.723 0.40166,1.42592 0.76316,1.89787 0.33138,0.42175 0.98409,1.12467 1.53638,1.83763 0.38158,0.51212 0.80333,0.8435 0.8435,1.30542 0.0703,0.85354 0.21087,0.7732 0.38158,-0.51213 z"
       style="fill:#700000;fill-opacity:1;fill-rule:nonzero;stroke:none;stroke-width:0.26458332"
       inkscape:connector-curvature="0" />
    <path
       id="path77"
       d="m 88.509167,127.49718 c 0.0803,-0.62258 -0.40167,-1.46609 -1.01421,-2.18908 -0.30125,-0.35146 -1.02425,-1.25521 -1.31546,-1.61671 -0.34142,-0.44184 -0.87362,-1.38575 -0.85354,-2.0485 0.0201,-0.67279 -0.29121,0.37154 -0.33138,1.3255 -0.0301,0.71296 0.40167,1.42591 0.76317,1.88783 0.33138,0.43179 0.98408,1.13471 1.52633,1.84767 0.39163,0.50208 0.81338,0.8435 0.85355,1.30541 0.0703,0.8435 0.21087,0.76317 0.37154,-0.51212"
       style="fill:none;stroke:#ff0000;stroke-width:0.04016666px;stroke-linecap:butt;stroke-linejoin:miter;stroke-miterlimit:2;stroke-dasharray:none;stroke-opacity:1"
       inkscape:connector-curvature="0" />
    <path
       id="path79"
       d="m 88.509167,127.49718 c 0.0803,-0.62258 -0.40167,-1.46609 -1.01421,-2.18908 -0.30125,-0.35146 -1.02425,-1.25521 -1.31546,-1.61671 -0.34142,-0.44184 -0.87362,-1.38575 -0.85354,-2.0485 0.0201,-0.67279 -0.29121,0.37154 -0.33138,1.3255 -0.0301,0.71296 0.40167,1.42591 0.76317,1.88783 0.33138,0.43179 0.98408,1.13471 1.52633,1.84767 0.39163,0.50208 0.81338,0.8435 0.85355,1.30541 0.0703,0.8435 0.21087,0.76317 0.37154,-0.51212 z"
       style="fill:#ff0000;fill-opacity:1;fill-rule:nonzero;stroke:none;stroke-width:0.26458332"
       inkscape:connector-curvature="0" />
    <path
       id="path81"
       d="m 88.238037,128.7323 c -0.20083,0.59246 -1.02425,1.13471 -1.90791,1.50625 -0.4318,0.19079 -1.49621,0.67279 -1.91796,0.86359 -0.51213,0.241 -1.41588,0.85354 -1.69704,1.46608 -0.27113,0.6025 -0.10042,-0.47196 0.2912,-1.34558 0.29121,-0.65271 0.99413,-1.09454 1.54642,-1.35563 0.49204,-0.23096 1.39579,-0.57237 2.21921,-0.97404 0.57237,-0.27112 1.10458,-0.39163 1.34558,-0.78325 0.45188,-0.73304 0.54225,-0.6025 0.1205,0.62258"
       style="fill:none;stroke:#b20000;stroke-width:0.04016666px;stroke-linecap:butt;stroke-linejoin:miter;stroke-miterlimit:2;stroke-dasharray:none;stroke-opacity:1"
       inkscape:connector-curvature="0" />
    <path
       id="path83"
       d="m 88.238037,128.7323 c -0.20083,0.59246 -1.02425,1.13471 -1.90791,1.50625 -0.4318,0.19079 -1.49621,0.67279 -1.91796,0.86359 -0.51213,0.241 -1.41588,0.85354 -1.69704,1.46608 -0.27113,0.6025 -0.10042,-0.47196 0.2912,-1.34558 0.29121,-0.65271 0.99413,-1.09454 1.54642,-1.35563 0.49204,-0.23096 1.39579,-0.57237 2.21921,-0.97404 0.57237,-0.27112 1.10458,-0.39163 1.34558,-0.78325 0.45188,-0.73304 0.54225,-0.6025 0.1205,0.62258 z"
       style="fill:#b20000;fill-opacity:1;fill-rule:nonzero;stroke:none;stroke-width:0.26458332"
       inkscape:connector-curvature="0" />
    <path
       id="path85"
       d="m 91.059747,116.86305 c 0.0803,-0.62258 -0.40166,-1.46608 -1.01421,-2.18908 -0.30125,-0.35146 -1.02425,-1.25521 -1.31546,-1.61671 -0.34141,-0.43179 -0.87362,-1.37571 -0.85354,-2.0485 0.0201,-0.67279 -0.29121,0.37154 -0.33137,1.3255 -0.0301,0.723 0.40166,1.42592 0.76316,1.89788 0.33138,0.42175 0.97405,1.12466 1.52634,1.83762 0.39162,0.51213 0.81337,0.8435 0.85354,1.30542 0.0703,0.85354 0.21087,0.77321 0.37154,-0.51213"
       style="fill:none;stroke:#840000;stroke-width:0.04016666px;stroke-linecap:butt;stroke-linejoin:miter;stroke-miterlimit:2;stroke-dasharray:none;stroke-opacity:1"
       inkscape:connector-curvature="0" />
    <path
       id="path87"
       d="m 91.059747,116.86305 c 0.0803,-0.62258 -0.40166,-1.46608 -1.01421,-2.18908 -0.30125,-0.35146 -1.02425,-1.25521 -1.31546,-1.61671 -0.34141,-0.43179 -0.87362,-1.37571 -0.85354,-2.0485 0.0201,-0.67279 -0.29121,0.37154 -0.33137,1.3255 -0.0301,0.723 0.40166,1.42592 0.76316,1.89788 0.33138,0.42175 0.97405,1.12466 1.52634,1.83762 0.39162,0.51213 0.81337,0.8435 0.85354,1.30542 0.0703,0.85354 0.21087,0.77321 0.37154,-0.51213 z"
       style="fill:#840000;fill-opacity:1;fill-rule:nonzero;stroke:none;stroke-width:0.26458332"
       inkscape:connector-curvature="0" />
    <path
       id="path89"
       d="m 90.788627,118.09818 c -0.20084,0.6025 -1.02425,1.13471 -1.90792,1.51629 -0.43179,0.18075 -1.49621,0.66275 -1.91796,0.86358 -0.51212,0.23096 -1.41587,0.8435 -1.69704,1.45605 -0.28117,0.6025 -0.10042,-0.46192 0.29121,-1.33555 0.29121,-0.66275 0.99412,-1.10458 1.54641,-1.35562 0.482,-0.241 1.38575,-0.58242 2.20917,-0.97404 0.58242,-0.28117 1.11463,-0.40167 1.35563,-0.79329 0.44183,-0.73305 0.54225,-0.59246 0.1205,0.62258"
       style="fill:none;stroke:#b20000;stroke-width:0.04016666px;stroke-linecap:butt;stroke-linejoin:miter;stroke-miterlimit:2;stroke-dasharray:none;stroke-opacity:1"
       inkscape:connector-curvature="0" />
    <path
       id="path91"
       d="m 90.788627,118.09818 c -0.20084,0.6025 -1.02425,1.13471 -1.90792,1.51629 -0.43179,0.18075 -1.49621,0.66275 -1.91796,0.86358 -0.51212,0.23096 -1.41587,0.8435 -1.69704,1.45605 -0.28117,0.6025 -0.10042,-0.46192 0.29121,-1.33555 0.29121,-0.66275 0.99412,-1.10458 1.54641,-1.35562 0.482,-0.241 1.38575,-0.58242 2.20917,-0.97404 0.58242,-0.28117 1.11463,-0.40167 1.35563,-0.79329 0.44183,-0.73305 0.54225,-0.59246 0.1205,0.62258 z"
       style="fill:#b20000;fill-opacity:1;fill-rule:nonzero;stroke:none;stroke-width:0.26458332"
       inkscape:connector-curvature="0" />
    <path
       id="path93"
       d="m 87.444747,132.02597 c -0.20083,0.59246 -1.01421,1.13471 -1.89787,1.50625 -0.44184,0.19079 -1.49621,0.67279 -1.91796,0.86358 -0.51213,0.241 -1.41588,0.85354 -1.69704,1.46609 -0.28117,0.6025 -0.11046,-0.47196 0.28116,-1.34559 0.29121,-0.65271 1.00417,-1.09454 1.54642,-1.35562 0.49204,-0.23096 1.39579,-0.57238 2.21921,-0.97404 0.57237,-0.27113 1.11462,-0.39163 1.35562,-0.78325 0.44184,-0.73304 0.53221,-0.6025 0.11046,0.62258"
       style="fill:none;stroke:#930000;stroke-width:0.04016666px;stroke-linecap:butt;stroke-linejoin:miter;stroke-miterlimit:2;stroke-dasharray:none;stroke-opacity:1"
       inkscape:connector-curvature="0" />
    <path
       id="path95"
       d="m 87.444747,132.02597 c -0.20083,0.59246 -1.01421,1.13471 -1.89787,1.50625 -0.44184,0.19079 -1.49621,0.67279 -1.91796,0.86358 -0.51213,0.241 -1.41588,0.85354 -1.69704,1.46609 -0.28117,0.6025 -0.11046,-0.47196 0.28116,-1.34559 0.29121,-0.65271 1.00417,-1.09454 1.54642,-1.35562 0.49204,-0.23096 1.39579,-0.57238 2.21921,-0.97404 0.57237,-0.27113 1.11462,-0.39163 1.35562,-0.78325 0.44184,-0.73304 0.53221,-0.6025 0.11046,0.62258 z"
       style="fill:#930000;fill-opacity:1;fill-rule:nonzero;stroke:none;stroke-width:0.26458332"
       inkscape:connector-curvature="0" />
    <path
       id="path97"
       d="m 89.995327,121.39185 c -0.20083,0.6025 -1.02425,1.1347 -1.90791,1.51629 -0.43179,0.18075 -1.48617,0.66275 -1.91796,0.86358 -0.51213,0.23096 -1.40583,0.8435 -1.687,1.45604 -0.28117,0.6025 -0.11046,-0.46191 0.28117,-1.33554 0.2912,-0.66275 1.00416,-1.10458 1.54641,-1.35562 0.49204,-0.241 1.39579,-0.58242 2.21921,-0.97405 0.57238,-0.28116 1.11463,-0.40166 1.35562,-0.79329 0.44184,-0.73304 0.53221,-0.59246 0.11046,0.62259"
       style="fill:none;stroke:#930000;stroke-width:0.04016666px;stroke-linecap:butt;stroke-linejoin:miter;stroke-miterlimit:2;stroke-dasharray:none;stroke-opacity:1"
       inkscape:connector-curvature="0" />
    <path
       id="path99"
       d="m 89.995327,121.39185 c -0.20083,0.6025 -1.02425,1.1347 -1.90791,1.51629 -0.43179,0.18075 -1.48617,0.66275 -1.91796,0.86358 -0.51213,0.23096 -1.40583,0.8435 -1.687,1.45604 -0.28117,0.6025 -0.11046,-0.46191 0.28117,-1.33554 0.2912,-0.66275 1.00416,-1.10458 1.54641,-1.35562 0.49204,-0.241 1.39579,-0.58242 2.21921,-0.97405 0.57238,-0.28116 1.11463,-0.40166 1.35562,-0.79329 0.44184,-0.73304 0.53221,-0.59246 0.11046,0.62259 z"
       style="fill:#930000;fill-opacity:1;fill-rule:nonzero;stroke:none;stroke-width:0.26458332"
       inkscape:connector-curvature="0" />
    <path
       id="path101"
       d="m 89.874827,120.73914 c 0,0 -1.50625,-0.35146 -2.45016,-0.58242"
       style="fill:none;stroke:#ff0000;stroke-width:0.19079167px;stroke-linecap:butt;stroke-linejoin:miter;stroke-miterlimit:2;stroke-dasharray:none;stroke-opacity:1"
       inkscape:connector-curvature="0" />
    <path
       id="path103"
       d="m 88.609577,121.54247 c 0,0 -1.4962,-0.3615 -2.45016,-0.58242"
       style="fill:none;stroke:#ff0000;stroke-width:0.19079167px;stroke-linecap:butt;stroke-linejoin:miter;stroke-miterlimit:2;stroke-dasharray:none;stroke-opacity:1"
       inkscape:connector-curvature="0" />
    <path
       id="path105"
       d="m 87.163577,122.2253 c 0,0 -1.15479,-0.27112 -1.88783,-0.45187"
       style="fill:none;stroke:#ff0000;stroke-width:0.19079167px;stroke-linecap:butt;stroke-linejoin:miter;stroke-miterlimit:2;stroke-dasharray:none;stroke-opacity:1"
       inkscape:connector-curvature="0" />
    <path
       id="path107"
       d="m 86.380327,125.49889 c 0,0 -1.15479,-0.28117 -1.87779,-0.45188"
       style="fill:none;stroke:#ff0000;stroke-width:0.19079167px;stroke-linecap:butt;stroke-linejoin:miter;stroke-miterlimit:2;stroke-dasharray:none;stroke-opacity:1"
       inkscape:connector-curvature="0" />
    <path
       id="path109"
       d="m 87.344327,126.82439 c 0,0 -1.4962,-0.3615 -2.45016,-0.58242"
       style="fill:none;stroke:#ff0000;stroke-width:0.19079167px;stroke-linecap:butt;stroke-linejoin:miter;stroke-miterlimit:2;stroke-dasharray:none;stroke-opacity:1"
       inkscape:connector-curvature="0" />
    <path
       id="path111"
       d="m 88.137627,128.08964 c 0,0 -1.49621,-0.3615 -2.45017,-0.59246"
       style="fill:none;stroke:#ff0000;stroke-width:0.19079167px;stroke-linecap:butt;stroke-linejoin:miter;stroke-miterlimit:2;stroke-dasharray:none;stroke-opacity:1"
       inkscape:connector-curvature="0" />
    <path
       id="path113"
       d="m 87.314207,131.40339 c 0,0 -1.49621,-0.3615 -2.45017,-0.58242"
       style="fill:none;stroke:#ff0000;stroke-width:0.19079167px;stroke-linecap:butt;stroke-linejoin:miter;stroke-miterlimit:2;stroke-dasharray:none;stroke-opacity:1"
       inkscape:connector-curvature="0" />
    <path
       id="path115"
       d="m 86.048957,132.19668 c 0,0 -1.49621,-0.35146 -2.44013,-0.58242"
       style="fill:none;stroke:#ff0000;stroke-width:0.19079167px;stroke-linecap:butt;stroke-linejoin:miter;stroke-miterlimit:2;stroke-dasharray:none;stroke-opacity:1"
       inkscape:connector-curvature="0" />
    <path
       id="path117"
       d="m 84.602957,132.88955 c 0,0 -1.15479,-0.27112 -1.88783,-0.45187"
       style="fill:none;stroke:#ff0000;stroke-width:0.19079167px;stroke-linecap:butt;stroke-linejoin:miter;stroke-miterlimit:2;stroke-dasharray:none;stroke-opacity:1"
       inkscape:connector-curvature="0" />
    <path
       id="path119"
       d="m 88.930917,114.86476 c 0,0 -1.15479,-0.28116 -1.87779,-0.45187"
       style="fill:none;stroke:#ff0000;stroke-width:0.19079167px;stroke-linecap:butt;stroke-linejoin:miter;stroke-miterlimit:2;stroke-dasharray:none;stroke-opacity:1"
       inkscape:connector-curvature="0" />
    <path
       id="path121"
       d="m 89.894917,116.19026 c 0,0 -1.49621,-0.35146 -2.45017,-0.58241"
       style="fill:none;stroke:#ff0000;stroke-width:0.19079167px;stroke-linecap:butt;stroke-linejoin:miter;stroke-miterlimit:2;stroke-dasharray:none;stroke-opacity:1"
       inkscape:connector-curvature="0" />
    <path
       id="path123"
       d="m 90.688207,117.45551 c 0,0 -1.49621,-0.3615 -2.45017,-0.59246"
       style="fill:none;stroke:#ff0000;stroke-width:0.19079167px;stroke-linecap:butt;stroke-linejoin:miter;stroke-miterlimit:2;stroke-dasharray:none;stroke-opacity:1"
       inkscape:connector-curvature="0" />
    <path
       id="path125"
       d="m 99.645377,118.59022 c 0,9.52954 -7.72205,17.25158 -17.25159,17.25158 -9.5195,0 -17.24154,-7.72204 -17.24154,-17.25158 0,-9.5195 7.72204,-17.24154 17.24154,-17.24154 9.52954,0 17.25159,7.72204 17.25159,17.24154"
       style="fill:none;stroke:#ff0000;stroke-width:1.8075px;stroke-linecap:butt;stroke-linejoin:miter;stroke-miterlimit:2;stroke-dasharray:none;stroke-opacity:1"
       inkscape:connector-curvature="0" />
  </g>
</svg>
