<?xml version="1.0" standalone="no" ?>
<!DOCTYPE svg PUBLIC "-//W3C//DTD SVG 1.1//EN" "http://www.w3.org/Graphics/SVG/1.1/DTD/svg11.dtd">
<svg width="476px" height="128px" viewBox="0 0 476 128" style="background-color: #ffffff00" xmlns="http://www.w3.org/2000/svg" xmlns:xlink="http://www.w3.org/1999/xlink" version="1.1" >
<path stroke="none" fill="#b0e2fa" transform="matrix(0.1 0 0 0.1 -1111.1 -310.7)" d="M 11434,3643.49 L 11434,3695.91 L 11176.3,3844.66 L 11153.7,3805.34 L 11434,3643.49 Z " />
<text x="0" y="0" stroke="none" fill="#b0e2fa" transform="matrix(0.1 0 0 0.1 50.5475 81.25)" font-style="normal" font-weight="bold" font-size="240px" font-family="Arial" >
N</text>
<text x="0" y="0" stroke="none" fill="#b0e2fa" transform="matrix(0.1 0 0 0.1 50.5475 101.317)" font-style="normal" font-weight="bold" font-size="240px" font-family="Arial" >
H</text>
<path stroke="none" fill="#b0e2fa" transform="matrix(0.1 0 0 0.1 -1111.1 -310.7)" d="M 11597.9,3738.14 L 11575.2,3777.46 L 11422.6,3689.36 L 11445.3,3650.04 L 11597.9,3738.14 Z " />
<text x="0" y="0" stroke="none" fill="#b0e2fa" transform="matrix(0.1 0 0 0.1 22.9487 34.66)" font-style="normal" font-weight="bold" font-size="240px" font-family="Arial" >
O</text>
<path stroke="none" fill="#b0e2fa" transform="matrix(0.1 0 0 0.1 -1111.1 -310.7)" d="M 11354.5,3484.43 L 11399.9,3484.43 L 11399.9,3702.46 L 11354.5,3702.46 L 11354.5,3484.43 Z " />
<path stroke="none" fill="#b0e2fa" transform="matrix(0.1 0 0 0.1 -1111.1 -310.7)" d="M 11468,3484.43 L 11513.4,3484.43 L 11513.4,3702.46 L 11468,3702.46 L 11468,3484.43 Z " />
<path stroke="none" fill="#b0e2fa" transform="matrix(0.1 0 0 0.1 -1111.1 -310.7)" d="M 11960.6,3650.04 L 11972,3669.7 L 11983.3,3689.36 L 11830,3777.89 L 11807.3,3738.57 L 11960.6,3650.04 Z " />
<path stroke="none" fill="#b0e2fa" transform="matrix(0.1 0 0 0.1 -1111.1 -310.7)" d="M 12240.9,3798.79 L 12240.9,3851.21 L 11972,3695.91 L 11972,3669.7 L 11994.7,3656.59 L 12240.9,3798.79 Z " />
<path stroke="none" fill="#b0e2fa" transform="matrix(0.1 0 0 0.1 -1111.1 -310.7)" d="M 11949.3,3359.1 L 11994.7,3359.1 L 11994.7,3656.59 L 11972,3669.7 L 11949.3,3656.59 L 11949.3,3359.1 Z " />
<path stroke="none" fill="#b0e2fa" transform="matrix(0.1 0 0 0.1 -1111.1 -310.7)" d="M 11785.6,3359.1 A 186.36,186.36 0 1 0 12158.3,3359.1A 186.36,186.36 0 1 0 11785.6,3359.1Z " />
<text x="0" y="0" stroke="none" fill="#b0e2fa" transform="matrix(0.1 0 0 0.1 131.244 45.6533)" font-style="normal" font-weight="bold" font-size="240px" font-family="Arial" >
H</text>
<text x="0" y="0" stroke="none" fill="#b0e2fa" transform="matrix(0.1 0 0 0.1 131.244 65.72)" font-style="normal" font-weight="bold" font-size="240px" font-family="Arial" >
N</text>
<path stroke="none" fill="#b0e2fa" transform="matrix(0.1 0 0 0.1 -1111.1 -310.7)" d="M 12379.6,3718.74 L 12402.3,3758.06 L 12252.3,3844.66 L 12229.6,3805.34 L 12379.6,3718.74 Z " />
<text x="0" y="0" stroke="none" fill="#b0e2fa" transform="matrix(0.1 0 0 0.1 103.645 112.31)" font-style="normal" font-weight="bold" font-size="240px" font-family="Arial" >
O</text>
<path stroke="none" fill="#b0e2fa" transform="matrix(0.1 0 0 0.1 -1111.1 -310.7)" d="M 12320.4,4015.93 L 12275,4015.93 L 12275,3792.24 L 12320.4,3792.24 L 12320.4,4015.93 Z " />
<path stroke="none" fill="#b0e2fa" transform="matrix(0.1 0 0 0.1 -1111.1 -310.7)" d="M 12206.9,4015.93 L 12161.5,4015.93 L 12161.5,3792.24 L 12206.9,3792.24 L 12206.9,4015.93 Z " />
<path stroke="none" fill="#b0e2fa" transform="matrix(0.1 0 0 0.1 -1111.1 -310.7)" d="M 12790.3,3805.34 L 12778.9,3825 L 12767.6,3844.66 L 12616.8,3757.63 L 12639.5,3718.31 L 12790.3,3805.34 Z " />
<path stroke="none" fill="#b0e2fa" transform="matrix(0.1 0 0 0.1 -1111.1 -310.7)" d="M 13047.9,3643.49 L 13047.9,3695.91 L 12801.6,3838.11 L 12778.9,3825 L 12778.9,3798.79 L 13047.9,3643.49 Z " />
<path stroke="none" fill="#b0e2fa" transform="matrix(0.1 0 0 0.1 -1111.1 -310.7)" d="M 12801.6,4135.6 L 12756.2,4135.6 L 12756.2,3838.11 L 12778.9,3825 L 12801.6,3838.11 L 12801.6,4135.6 Z " />
<path stroke="none" fill="#b0e2fa" transform="matrix(0.1 0 0 0.1 -1111.1 -310.7)" d="M 12592.6,4135.6 A 186.36,186.36 0 1 0 12965.3,4135.6A 186.36,186.36 0 1 0 12592.6,4135.6Z " />
<text x="0" y="0" stroke="none" fill="#b0e2fa" transform="matrix(0.1 0 0 0.1 211.94 81.25)" font-style="normal" font-weight="bold" font-size="240px" font-family="Arial" >
N</text>
<text x="0" y="0" stroke="none" fill="#b0e2fa" transform="matrix(0.1 0 0 0.1 211.94 101.317)" font-style="normal" font-weight="bold" font-size="240px" font-family="Arial" >
H</text>
<path stroke="none" fill="#b0e2fa" transform="matrix(0.1 0 0 0.1 -1111.1 -310.7)" d="M 13211.9,3738.14 L 13189.2,3777.46 L 13036.6,3689.36 L 13059.3,3650.04 L 13211.9,3738.14 Z " />
<text x="0" y="0" stroke="none" fill="#b0e2fa" transform="matrix(0.1 0 0 0.1 184.341 34.66)" font-style="normal" font-weight="bold" font-size="240px" font-family="Arial" >
O</text>
<path stroke="none" fill="#b0e2fa" transform="matrix(0.1 0 0 0.1 -1111.1 -310.7)" d="M 12968.5,3484.43 L 13013.9,3484.43 L 13013.9,3702.46 L 12968.5,3702.46 L 12968.5,3484.43 Z " />
<path stroke="none" fill="#b0e2fa" transform="matrix(0.1 0 0 0.1 -1111.1 -310.7)" d="M 13082,3484.43 L 13127.4,3484.43 L 13127.4,3702.46 L 13082,3702.46 L 13082,3484.43 Z " />
<path stroke="none" fill="#b0e2fa" transform="matrix(0.1 0 0 0.1 -1111.1 -310.7)" d="M 13574.5,3650.04 L 13585.9,3669.7 L 13597.2,3689.36 L 13443.9,3777.89 L 13421.2,3738.57 L 13574.5,3650.04 Z " />
<path stroke="none" fill="#b0e2fa" transform="matrix(0.1 0 0 0.1 -1111.1 -310.7)" d="M 13854.9,3798.79 L 13854.9,3851.21 L 13585.9,3695.91 L 13585.9,3669.7 L 13608.6,3656.59 L 13854.9,3798.79 Z " />
<path stroke="none" fill="#b0e2fa" transform="matrix(0.1 0 0 0.1 -1111.1 -310.7)" d="M 13563.2,3359.1 L 13608.6,3359.1 L 13608.6,3656.59 L 13585.9,3669.7 L 13563.2,3656.59 L 13563.2,3359.1 Z " />
<path stroke="none" fill="#b0e2fa" transform="matrix(0.1 0 0 0.1 -1111.1 -310.7)" d="M 13399.5,3359.1 A 186.36,186.36 0 1 0 13772.2,3359.1A 186.36,186.36 0 1 0 13399.5,3359.1Z " />
<text x="0" y="0" stroke="none" fill="#b0e2fa" transform="matrix(0.1 0 0 0.1 292.636 45.6533)" font-style="normal" font-weight="bold" font-size="240px" font-family="Arial" >
H</text>
<text x="0" y="0" stroke="none" fill="#b0e2fa" transform="matrix(0.1 0 0 0.1 292.636 65.72)" font-style="normal" font-weight="bold" font-size="240px" font-family="Arial" >
N</text>
<path stroke="none" fill="#b0e2fa" transform="matrix(0.1 0 0 0.1 -1111.1 -310.7)" d="M 13993.5,3718.74 L 14016.2,3758.06 L 13866.2,3844.66 L 13843.5,3805.34 L 13993.5,3718.74 Z " />
<text x="0" y="0" stroke="none" fill="#b0e2fa" transform="matrix(0.1 0 0 0.1 265.037 112.31)" font-style="normal" font-weight="bold" font-size="240px" font-family="Arial" >
O</text>
<path stroke="none" fill="#b0e2fa" transform="matrix(0.1 0 0 0.1 -1111.1 -310.7)" d="M 13934.3,4015.93 L 13888.9,4015.93 L 13888.9,3792.24 L 13934.3,3792.24 L 13934.3,4015.93 Z " />
<path stroke="none" fill="#b0e2fa" transform="matrix(0.1 0 0 0.1 -1111.1 -310.7)" d="M 13820.8,4015.93 L 13775.4,4015.93 L 13775.4,3792.24 L 13820.8,3792.24 L 13820.8,4015.93 Z " />
<path stroke="none" fill="#b0e2fa" transform="matrix(0.1 0 0 0.1 -1111.1 -310.7)" d="M 14404.2,3805.34 L 14392.8,3825 L 14381.5,3844.66 L 14230.8,3757.63 L 14253.5,3718.31 L 14404.2,3805.34 Z " />
<path stroke="none" fill="#b0e2fa" transform="matrix(0.1 0 0 0.1 -1111.1 -310.7)" d="M 14661.8,3643.49 L 14661.8,3695.91 L 14415.5,3838.11 L 14392.8,3825 L 14392.8,3798.79 L 14661.8,3643.49 Z " />
<path stroke="none" fill="#b0e2fa" transform="matrix(0.1 0 0 0.1 -1111.1 -310.7)" d="M 14415.5,4135.6 L 14370.1,4135.6 L 14370.1,3838.11 L 14392.8,3825 L 14415.5,3838.11 L 14415.5,4135.6 Z " />
<path stroke="none" fill="#b0e2fa" transform="matrix(0.1 0 0 0.1 -1111.1 -310.7)" d="M 14206.5,4135.6 A 186.36,186.36 0 1 0 14579.2,4135.6A 186.36,186.36 0 1 0 14206.5,4135.6Z " />
<text x="0" y="0" stroke="none" fill="#b0e2fa" transform="matrix(0.1 0 0 0.1 373.332 81.25)" font-style="normal" font-weight="bold" font-size="240px" font-family="Arial" >
N</text>
<text x="0" y="0" stroke="none" fill="#b0e2fa" transform="matrix(0.1 0 0 0.1 373.332 101.317)" font-style="normal" font-weight="bold" font-size="240px" font-family="Arial" >
H</text>
<path stroke="none" fill="#b0e2fa" transform="matrix(0.1 0 0 0.1 -1111.1 -310.7)" d="M 14825.8,3738.14 L 14803.1,3777.46 L 14650.5,3689.36 L 14673.2,3650.04 L 14825.8,3738.14 Z " />
<text x="0" y="0" stroke="none" fill="#b0e2fa" transform="matrix(0.1 0 0 0.1 345.734 34.66)" font-style="normal" font-weight="bold" font-size="240px" font-family="Arial" >
O</text>
<path stroke="none" fill="#b0e2fa" transform="matrix(0.1 0 0 0.1 -1111.1 -310.7)" d="M 14582.4,3484.43 L 14627.8,3484.43 L 14627.8,3702.46 L 14582.4,3702.46 L 14582.4,3484.43 Z " />
<path stroke="none" fill="#b0e2fa" transform="matrix(0.1 0 0 0.1 -1111.1 -310.7)" d="M 14695.9,3484.43 L 14741.3,3484.43 L 14741.3,3702.46 L 14695.9,3702.46 L 14695.9,3484.43 Z " />
<path stroke="none" fill="#b0e2fa" transform="matrix(0.1 0 0 0.1 -1111.1 -310.7)" d="M 15188.5,3650.04 L 15211.2,3689.36 L 15057.8,3777.89 L 15035.1,3738.57 L 15188.5,3650.04 Z " />
<path stroke="none" fill="#b0e2fa" transform="matrix(0.1 0 0 0.1 -1111.1 -310.7)" d="M 15480.1,3805.34 L 15457.4,3844.66 L 15199.8,3695.91 L 15199.8,3643.49 L 15480.1,3805.34 Z " />
<text x="0" y="0" stroke="none" fill="#b0e2fa" transform="matrix(0.1 0 0 0.1 454.029 96.78)" font-style="normal" font-weight="bold" font-size="240px" font-family="Arial" >
N</text>
<path stroke="none" fill="#b0e2fa" transform="matrix(0.1 0 0 0.1 -1111.1 -310.7)" d="M 15689.5,3795.14 L 15666.8,3834.46 L 15514.2,3746.37 L 15536.9,3707.05 L 15689.5,3795.14 Z " />
<path stroke="none" fill="#b0e2fa" transform="matrix(0.1 0 0 0.1 -1111.1 -310.7)" d="M 15632.7,3893.44 L 15610,3932.76 L 15457.4,3844.66 L 15480.1,3805.34 L 15632.7,3893.44 Z " />
<path stroke="none" fill="#b0e2fa" transform="matrix(0.1 0 0 0.1 -1111.1 -310.7)" d="M 15576,3991.73 L 15553.3,4031.05 L 15400.7,3942.95 L 15423.4,3903.63 L 15576,3991.73 Z " />
</svg>
