<?xml version="1.0" encoding="UTF-8" standalone="no"?>
<!-- Created with Inkscape (http://www.inkscape.org/) -->

<svg
   xmlns:dc="http://purl.org/dc/elements/1.1/"
   xmlns:cc="http://creativecommons.org/ns#"
   xmlns:rdf="http://www.w3.org/1999/02/22-rdf-syntax-ns#"
   xmlns:svg="http://www.w3.org/2000/svg"
   xmlns="http://www.w3.org/2000/svg"
   xmlns:sodipodi="http://sodipodi.sourceforge.net/DTD/sodipodi-0.dtd"
   xmlns:inkscape="http://www.inkscape.org/namespaces/inkscape"
   width="8.9936352mm"
   height="9.0321522mm"
   viewBox="0 0 8.9936352 9.0321522"
   version="1.1"
   id="svg8"
   inkscape:version="0.92.4 (5da689c313, 2019-01-14)"
   sodipodi:docname="pep_thumb.svg">
  <defs
     id="defs2">
    <pattern
       y="0"
       x="0"
       height="6"
       width="6"
       patternUnits="userSpaceOnUse"
       id="EMFhbasepattern" />
    <pattern
       y="0"
       x="0"
       height="6"
       width="6"
       patternUnits="userSpaceOnUse"
       id="EMFhbasepattern-3" />
    <pattern
       y="0"
       x="0"
       height="6"
       width="6"
       patternUnits="userSpaceOnUse"
       id="EMFhbasepattern-9" />
    <pattern
       y="0"
       x="0"
       height="6"
       width="6"
       patternUnits="userSpaceOnUse"
       id="EMFhbasepattern-7" />
    <pattern
       y="0"
       x="0"
       height="6"
       width="6"
       patternUnits="userSpaceOnUse"
       id="EMFhbasepattern-2" />
    <pattern
       y="0"
       x="0"
       height="6"
       width="6"
       patternUnits="userSpaceOnUse"
       id="EMFhbasepattern-0" />
  </defs>
  <sodipodi:namedview
     id="base"
     pagecolor="#ffffff"
     bordercolor="#666666"
     borderopacity="1.0"
     inkscape:pageopacity="0.0"
     inkscape:pageshadow="2"
     inkscape:zoom="5.5612564"
     inkscape:cx="71.929424"
     inkscape:cy="10.754341"
     inkscape:document-units="mm"
     inkscape:current-layer="layer1"
     showgrid="false"
     inkscape:window-width="1920"
     inkscape:window-height="986"
     inkscape:window-x="-11"
     inkscape:window-y="-11"
     inkscape:window-maximized="1"
     fit-margin-top="0"
     fit-margin-left="0"
     fit-margin-right="0"
     fit-margin-bottom="0" />
  <metadata
     id="metadata5">
    <rdf:RDF>
      <cc:Work
         rdf:about="">
        <dc:format>image/svg+xml</dc:format>
        <dc:type
           rdf:resource="http://purl.org/dc/dcmitype/StillImage" />
        <dc:title></dc:title>
      </cc:Work>
    </rdf:RDF>
  </metadata>
  <g
     inkscape:label="Layer 1"
     inkscape:groupmode="layer"
     id="layer1"
     transform="translate(-77.54951,-119.98496)">
    <g
       id="g842"
       transform="matrix(0.59957565,0,0,0.60214356,31.066461,47.844089)">
      <path
         inkscape:connector-curvature="0"
         style="fill:none;stroke:#008000;stroke-width:0.7468881px;stroke-linecap:butt;stroke-linejoin:miter;stroke-miterlimit:2;stroke-dasharray:none;stroke-opacity:1"
         d="m 92.153135,127.30469 c 0,3.93776 -3.190871,7.12863 -7.128629,7.12863 -3.933611,0 -7.124483,-3.19087 -7.124483,-7.12863 0,-3.93361 3.190872,-7.12448 7.124483,-7.12448 3.937758,0 7.128629,3.19087 7.128629,7.12448"
         id="path1506" />
      <path
         inkscape:connector-curvature="0"
         style="fill:#b3d9b3;fill-opacity:1;fill-rule:evenodd;stroke:none;stroke-width:0.10933009"
         d="m 80.555622,125.88145 0.128635,-0.29875 0.141076,-0.28216 0.149378,-0.2614 0.161827,-0.24067 0.170126,-0.21992 0.174274,-0.19917 0.18257,-0.18257 0.186721,-0.15768 0.195021,-0.14107 0.199171,-0.12033 0.199169,-0.0996 0.203319,-0.083 0.203323,-0.0623 0.20332,-0.0415 0.203319,-0.0249 0.402489,0.0125 0.195021,0.029 0.377592,0.12034 0.178423,0.0871 0.174274,0.10789 0.165976,0.12033 0.153527,0.14108 0.145229,0.15768 0.136931,0.17842 0.124481,0.19087 0.107884,0.21162 0.09959,0.22407 0.08299,0.24481 0.0664,0.26141 0.04979,0.27801 0.02075,0.16182 0.03318,0.32366 0.02487,0.26971 0.01244,0.21991 v 0.17428 l -0.0083,0.13278 -0.02075,0.0954 -0.02905,0.0581 -0.03736,0.0249 -0.04564,-0.004 -0.0581,-0.029 -0.06224,-0.0539 -0.07054,-0.0705 -0.170124,-0.19088 -0.09129,-0.11203 -0.103737,-0.11618 -0.107883,-0.12033 -0.112031,-0.11619 -0.120333,-0.11617 -0.128629,-0.10789 -0.132784,-0.0996 -0.136927,-0.083 -0.141081,-0.0664 -0.145228,-0.0498 -0.149378,-0.0249 -0.157675,0.004 -0.157675,0.0332 -0.07469,0.0249 -0.315354,0.12033 -0.319503,0.11203 -0.319503,0.0954 -0.618254,0.15353 -0.286309,0.0456 -0.26971,0.029 h -0.24066 l -0.21162,-0.0249 -0.178423,-0.0498 -0.136932,-0.0871 -0.08713,-0.11618 -0.0415,-0.15353 0.01662,-0.19087 0.01661,-0.0664 z"
         id="path1508" />
      <path
         inkscape:connector-curvature="0"
         style="fill:none;stroke:#008000;stroke-width:0.26970959px;stroke-linecap:butt;stroke-linejoin:miter;stroke-miterlimit:2;stroke-dasharray:none;stroke-opacity:1"
         d="m 80.555622,125.88145 c 1.336102,-3.39834 4.829877,-3.08714 5.182578,0.11204 0.356846,3.19917 -0.709546,-0.59336 -2.190872,0 -1.48133,0.59336 -3.302907,0.93361 -2.991706,-0.13278"
         id="path1510" />
      <path
         inkscape:connector-curvature="0"
         style="fill:#b3d9b3;fill-opacity:1;fill-rule:evenodd;stroke:none;stroke-width:0.10933009"
         d="m 80.912472,129.08063 0.423236,-0.0954 0.406639,-0.13693 0.38174,-0.17428 0.356851,-0.19916 0.323651,-0.20747 0.286305,-0.21162 0.248963,-0.20332 0.21162,-0.18672 0.157674,-0.15353 0.112036,-0.11203 0.05809,-0.0622 0.0083,-0.0125 -0.0083,0.029 -0.02491,0.083 -0.03318,0.12448 -0.03318,0.16183 -0.02905,0.18672 -0.02074,0.20747 -0.0041,0.21991 0.01661,0.21992 0.04565,0.21577 0.07883,0.20332 0.120333,0.17842 0.17012,0.14523 0.219918,0.11203 0.282161,0.0622 0.344395,0.004 0.3444,-0.0415 0.28216,-0.0374 0.232363,0.004 0.186724,0.0332 0.141076,0.0664 0.103734,0.0871 0.06639,0.11204 0.03318,0.13277 v 0.14523 l -0.02487,0.15767 -0.12863,0.33196 -0.09544,0.16598 -0.112031,0.16182 -0.124481,0.15768 -0.136932,0.14108 -0.141076,0.13277 -0.149378,0.10789 -0.149377,0.0871 -0.149377,0.0622 -0.14523,0.029 h -0.136932 l -0.12863,-0.0415 -0.09129,-0.0623 -0.149378,-0.10788 -0.186719,-0.12033 -0.224067,-0.12863 -0.248964,-0.13278 -0.273858,-0.13693 -0.286305,-0.14108 -0.601663,-0.28631 -0.302904,-0.14522 -0.290458,-0.14108 -0.278008,-0.13278 -0.261408,-0.13278 -0.232365,-0.12449 -0.199174,-0.11618 -0.161823,-0.10789 -0.120333,-0.0996 -0.06638,-0.083 -0.01244,-0.0705 0.05394,-0.0581 0.116184,-0.0415 h 0.01661 z"
         id="path1512" />
      <path
         inkscape:connector-curvature="0"
         style="fill:none;stroke:#008000;stroke-width:0.26970959px;stroke-linecap:butt;stroke-linejoin:miter;stroke-miterlimit:2;stroke-dasharray:none;stroke-opacity:1"
         d="m 80.912472,129.08063 c 1.663901,-0.26557 2.975102,-1.7552 2.975102,-1.7552 0,0 -0.863068,2.53527 1.468881,2.11204 2.331953,-0.42324 0.174273,2.6888 -0.668052,1.9751 -0.842319,-0.70954 -4.796679,-2.10788 -3.709543,-2.30705"
         id="path1514" />
      <path
         inkscape:connector-curvature="0"
         style="fill:#b3d9b3;fill-opacity:1;fill-rule:evenodd;stroke:none;stroke-width:0.10933009"
         d="m 86.530731,127.90635 -0.0083,-0.54772 0.01244,-0.24896 0.02487,-0.23236 0.04564,-0.21162 0.06225,-0.18673 0.07884,-0.16182 0.103736,-0.13693 0.128633,-0.0996 0.153529,-0.0705 0.17842,-0.029 0.207471,0.004 0.240662,0.0498 0.27386,0.0954 0.307054,0.14108 0.344395,0.19087 0.244816,0.15352 0.323652,0.23237 0.244816,0.21577 0.16597,0.20747 0.09959,0.19087 0.0415,0.17842 -0.01244,0.16598 -0.05809,0.15767 -0.09544,0.14108 -0.124479,0.13693 -0.149381,0.12033 -0.165974,0.11619 -0.170124,0.10373 -0.174271,0.0954 -0.315355,0.16597 -0.128629,0.0705 -0.103737,0.0664 -0.04149,0.0332 -0.15353,0.0788 -0.20332,0.0166 -0.236514,-0.0415 -0.253113,-0.0996 -0.248964,-0.15353 -0.232362,-0.19917 -0.199172,-0.24066 -0.14108,-0.27801 -0.06638,-0.25726 z"
         id="path1516" />
      <path
         inkscape:connector-curvature="0"
         style="fill:none;stroke:#008000;stroke-width:0.26970959px;stroke-linecap:butt;stroke-linejoin:miter;stroke-miterlimit:2;stroke-dasharray:none;stroke-opacity:1"
         d="m 86.530731,127.90635 c -0.08714,-1.57677 0.244811,-2.68879 2.398341,-1.29046 2.157676,1.39834 -0.30705,2.0664 -0.663899,2.39834 -0.35685,0.33611 -1.601663,-0.21991 -1.734442,-1.17427"
         id="path1518" />
      <path
         inkscape:connector-curvature="0"
         style="fill:none;stroke:#008000;stroke-width:0.26970959px;stroke-linecap:round;stroke-linejoin:miter;stroke-miterlimit:2;stroke-dasharray:none;stroke-opacity:1"
         d="m 88.248574,124.5827 c -0.02075,-0.82158 -0.701249,-1.47718 -1.526974,-1.45643 -0.518673,0.008 -1.024895,0.31535 -1.273858,0.77179"
         id="path1520" />
      <path
         inkscape:connector-curvature="0"
         style="fill:none;stroke:#008000;stroke-width:0.01659751px;stroke-linecap:round;stroke-linejoin:miter;stroke-miterlimit:2;stroke-dasharray:none;stroke-opacity:1"
         d="m 87.866829,125.61174 c 0,0 0.136934,-1.2863 0.136934,-1.2863 0,0 0.116179,0.21161 0.244811,0.25726 0.124475,0.0498 0.348548,-0.0332 0.348548,-0.0332 0,0 -0.730293,1.06224 -0.730293,1.06224 0,0 0,0 0,0"
         id="path1522" />
      <path
         inkscape:connector-curvature="0"
         style="fill:#008000;fill-opacity:1;fill-rule:nonzero;stroke:none;stroke-width:0.10933009"
         d="m 87.866829,125.61174 c 0,0 0.136934,-1.2863 0.136934,-1.2863 0,0 0.116179,0.21161 0.244811,0.25726 0.124475,0.0498 0.348548,-0.0332 0.348548,-0.0332 0,0 -0.730293,1.06224 -0.730293,1.06224 0,0 0,0 0,0 z"
         id="path1524" />
      <path
         inkscape:connector-curvature="0"
         style="fill:none;stroke:#008000;stroke-width:0.26970959px;stroke-linecap:round;stroke-linejoin:miter;stroke-miterlimit:2;stroke-dasharray:none;stroke-opacity:1"
         d="m 86.60957,131.03083 c 0.460578,0.68465 1.39004,0.86307 2.070537,0.39834 0.684646,-0.46057 0.863075,-1.39004 0.39834,-2.07054 -0.04564,-0.0705 -0.09959,-0.13692 -0.161825,-0.19917"
         id="path1526" />
      <path
         inkscape:connector-curvature="0"
         style="fill:#008000;fill-opacity:1;fill-rule:evenodd;stroke:none;stroke-width:0.10933009"
         d="m 86.070148,131.42917 0.88797,-0.97095 0.190867,0.17427 -0.887964,0.97096 z"
         id="path1528" />
    </g>
  </g>
</svg>
