<?xml version="1.0" encoding="UTF-8" standalone="no"?>
<!-- Created with Inkscape (http://www.inkscape.org/) -->

<svg
   xmlns:dc="http://purl.org/dc/elements/1.1/"
   xmlns:cc="http://creativecommons.org/ns#"
   xmlns:rdf="http://www.w3.org/1999/02/22-rdf-syntax-ns#"
   xmlns:svg="http://www.w3.org/2000/svg"
   xmlns="http://www.w3.org/2000/svg"
   xmlns:sodipodi="http://sodipodi.sourceforge.net/DTD/sodipodi-0.dtd"
   xmlns:inkscape="http://www.inkscape.org/namespaces/inkscape"
   width="100.27607mm"
   height="89.958321mm"
   viewBox="0 0 100.27607 89.95832"
   version="1.1"
   id="svg8"
   inkscape:version="0.92.4 (5da689c313, 2019-01-14)"
   sodipodi:docname="placeholder.svg">
  <defs
     id="defs2" />
  <sodipodi:namedview
     id="base"
     pagecolor="#ffffff"
     bordercolor="#666666"
     borderopacity="1.0"
     inkscape:pageopacity="0.0"
     inkscape:pageshadow="2"
     inkscape:zoom="1.2305368"
     inkscape:cx="44.420841"
     inkscape:cy="165.94181"
     inkscape:document-units="mm"
     inkscape:current-layer="layer1"
     showgrid="false"
     inkscape:window-width="1920"
     inkscape:window-height="986"
     inkscape:window-x="-11"
     inkscape:window-y="-11"
     inkscape:window-maximized="1" />
  <metadata
     id="metadata5">
    <rdf:RDF>
      <cc:Work
         rdf:about="">
        <dc:format>image/svg+xml</dc:format>
        <dc:type
           rdf:resource="http://purl.org/dc/dcmitype/StillImage" />
        <dc:title />
      </cc:Work>
    </rdf:RDF>
  </metadata>
  <g
     inkscape:label="Layer 1"
     inkscape:groupmode="layer"
     id="layer1"
     transform="translate(-40.475288,-111.55422)">
    <ellipse
       style="opacity:0.056;fill:#7890a1;fill-opacity:0;stroke-width:0.26458332"
       id="path10"
       cx="83.748291"
       cy="159.27046"
       rx="7.100399"
       ry="8.8299828" />
    <rect
       style="opacity:0.34;fill:#e0e0e0;fill-opacity:1;stroke-width:0.49638087"
       id="rect843"
       width="100.27607"
       height="113.60992"
       x="40.475288"
       y="102.09358" />
  </g>
  <g
     inkscape:groupmode="layer"
     id="layer2"
     inkscape:label="Layer 2"
     transform="translate(-40.475288,-111.55422)">
    <circle
       style="opacity:1;fill:#007bff;fill-opacity:1;stroke-width:0.33888412"
       id="path28"
       cx="89.756332"
       cy="162.72963"
       r="17.022753" />
    <ellipse
       style="opacity:1;fill:#ffffff;fill-opacity:0;stroke-width:0.26458332"
       id="path4557"
       cx="117.57034"
       cy="170.384"
       rx="2.5778933"
       ry="3.4295185" />
    <circle
       style="opacity:1;fill:#ffffff;fill-opacity:1;stroke-width:0.80705065"
       id="path4562"
       cx="89.629074"
       cy="161.87094"
       r="15.656334" />
    <rect
       style="opacity:1;fill:#007bff;fill-opacity:1;stroke-width:0.25085199"
       id="rect850-4"
       width="11.469877"
       height="10.001116"
       x="83.910011"
       y="146.82281" />
    <rect
       style="opacity:1;fill:#007bff;fill-opacity:1;stroke-width:0.1510887"
       id="rect850-4-1-8"
       width="20.907375"
       height="6.9628401"
       x="79.20929"
       y="147.9241"
       transform="matrix(0.99999982,-6.0798677e-4,9.5607543e-4,0.99999954,0,0)"
       ry="3.48142" />
    <rect
       style="opacity:1;fill:#007bff;fill-opacity:1;stroke-width:0.17418122"
       id="rect850-4-1-8-4"
       width="25.855099"
       height="7.4830456"
       x="76.646065"
       y="149.87029"
       transform="matrix(0.99999986,-5.2837225e-4,0.00110014,0.99999939,0,0)"
       ry="3.7415228" />
    <rect
       style="opacity:1;fill:#007bff;fill-opacity:1;stroke-width:0.18564557"
       id="rect850-4-1-8-4-4"
       width="29.370586"
       height="7.4830465"
       x="74.634979"
       y="151.88271"
       transform="matrix(0.99999989,-4.6512977e-4,0.00124972,0.99999922,0,0)"
       ry="3.7415233" />
    <rect
       style="opacity:1;fill:#007bff;fill-opacity:1;stroke-width:0.19468416"
       id="rect850-4-1-8-4-4-3"
       width="32.300159"
       height="7.4830475"
       x="73.178429"
       y="155.4512"
       transform="matrix(0.99999991,-4.2294306e-4,0.00137437,0.99999906,0,0)"
       ry="3.7415237" />
    <rect
       style="opacity:1;fill:#007bff;fill-opacity:1;stroke-width:0.19546737"
       id="rect850-4-1-8-4-4-3-9"
       width="32.560566"
       height="7.4830475"
       x="73.203865"
       y="159.31702"
       transform="matrix(0.99999991,-4.1956038e-4,0.00138545,0.99999904,0,0)"
       ry="3.7415237" />
    <rect
       style="opacity:1;fill:#007bff;fill-opacity:1;stroke-width:0.05602017"
       id="rect850-4-1-8-6"
       width="2.8742499"
       height="6.9628367"
       x="102.79848"
       y="155.87379"
       transform="matrix(0.99999022,-0.00442251,1.3143553e-4,0.99999999,0,0)"
       ry="3.4814184" />
    <rect
       style="opacity:1;fill:#007bff;fill-opacity:1;stroke-width:0.10016555"
       id="rect850-4-1-8-6-3"
       width="9.1890888"
       height="6.9628372"
       x="85.21627"
       y="144.23457"
       transform="matrix(0.99999904,-0.00138331,4.2020817e-4,0.99999991,0,0)"
       ry="3.4814186" />
    <rect
       style="opacity:1;fill:#007bff;fill-opacity:1;stroke-width:0.03611604"
       id="rect850-4-1-8-6-3-5"
       width="3.6554439"
       height="2.2755275"
       x="82.210655"
       y="147.26259"
       transform="matrix(0.99999935,-0.00113644,5.1148974e-4,0.99999987,0,0)"
       ry="1.1377637" />
    <rect
       style="opacity:1;fill:#007bff;fill-opacity:1;stroke-width:0.03611604"
       id="rect850-4-1-8-6-3-5-5"
       width="3.6554439"
       height="2.2755275"
       x="93.470253"
       y="147.40862"
       transform="matrix(0.99999935,-0.00113644,5.1148985e-4,0.99999987,0,0)"
       ry="1.1377637" />
    <rect
       style="opacity:1;fill:#007bff;fill-opacity:1;stroke-width:0.03611604"
       id="rect850-4-1-8-6-3-5-5-2"
       width="3.6554439"
       height="2.2755275"
       x="78.555214"
       y="149.53812"
       transform="matrix(0.99999935,-0.00113644,5.1148985e-4,0.99999987,0,0)"
       ry="1.1377637" />
    <rect
       style="opacity:1;fill:#007bff;fill-opacity:1;stroke-width:0.16847454"
       id="rect850-4-1-8-4-4-3-9-7"
       width="16.489601"
       height="10.976914"
       x="134.46976"
       y="-95.429878"
       transform="matrix(0.00121528,0.99999926,-0.99999989,4.7830597e-4,0,0)"
       ry="5.4884572" />
    <rect
       style="opacity:1;fill:#007bff;fill-opacity:1;stroke-width:0.11652913"
       id="rect850-4-1-8-4-4-3-9-7-7"
       width="16.489592"
       height="5.2514706"
       x="-98.144875"
       y="-138.1609"
       transform="matrix(-0.99999983,5.8140278e-4,-9.9978126e-4,-0.9999995,0,0)"
       ry="2.6257353" />
    <circle
       style="opacity:1;fill:#ffffff;fill-opacity:1;stroke-width:0.10267413"
       id="path4777"
       cx="79.820084"
       cy="160.46964"
       r="0.98824865" />
    <circle
       style="opacity:1;fill:#ffffff;fill-opacity:1;stroke-width:0.10267413"
       id="path4777-9"
       cx="77.235435"
       cy="165.03078"
       r="0.98824871" />
  </g>
</svg>
