<?xml version="1.0" encoding="UTF-8" standalone="no"?>
<svg
   xmlns:dc="http://purl.org/dc/elements/1.1/"
   xmlns:cc="http://creativecommons.org/ns#"
   xmlns:rdf="http://www.w3.org/1999/02/22-rdf-syntax-ns#"
   xmlns:svg="http://www.w3.org/2000/svg"
   xmlns="http://www.w3.org/2000/svg"
   xmlns:sodipodi="http://sodipodi.sourceforge.net/DTD/sodipodi-0.dtd"
   xmlns:inkscape="http://www.inkscape.org/namespaces/inkscape"
   width="442px"
   height="412px"
   viewBox="0 0 442 412"
   style="background-color: #ffffff00"
   version="1.1"
   id="svg36"
   sodipodi:docname="randocycle.svg"
   inkscape:version="0.92.4 (5da689c313, 2019-01-14)">
  <metadata
     id="metadata42">
    <rdf:RDF>
      <cc:Work
         rdf:about="">
        <dc:format>image/svg+xml</dc:format>
        <dc:type
           rdf:resource="http://purl.org/dc/dcmitype/StillImage" />
      </cc:Work>
    </rdf:RDF>
  </metadata>
  <defs
     id="defs40" />
  <sodipodi:namedview
     pagecolor="#ffffff"
     bordercolor="#666666"
     borderopacity="1"
     objecttolerance="10"
     gridtolerance="10"
     guidetolerance="10"
     inkscape:pageopacity="0"
     inkscape:pageshadow="2"
     inkscape:window-width="1920"
     inkscape:window-height="986"
     id="namedview38"
     showgrid="false"
     inkscape:zoom="1.620167"
     inkscape:cx="221"
     inkscape:cy="206"
     inkscape:window-x="-11"
     inkscape:window-y="-11"
     inkscape:window-maximized="1"
     inkscape:current-layer="layer2" />
  <path
     stroke="none"
     fill="#ffffff"
     transform="matrix(0.1 0 0 0.1 -255.4 -53.6)"
     d="M 4465.67,994.668 C 4465.67,994.668 4465.67,704.332 4465.67,704.332 C 4465.67,664.591 4497.92,632.333 4537.67,632.333 C 4537.67,632.333 5028,632.333 5028,632.333 C 5067.74,632.333 5100,664.591 5100,704.332 C 5100,704.332 5100,994.668 5100,994.668 C 5100,1034.41 5067.74,1066.67 5028,1066.67 C 5028,1066.67 4537.67,1066.67 4537.67,1066.67 C 4497.92,1066.67 4465.67,1034.41 4465.67,994.668 "
     id="path4"
     style="opacity:0.358" />
  <path
     stroke="#ffffff"
     stroke-width="1"
     fill="none"
     transform="matrix(0.1 0 0 0.1 -255.4 -53.6)"
     d="M 4465.67,994.668 C 4465.67,994.668 4465.67,704.332 4465.67,704.332 C 4465.67,664.591 4497.92,632.333 4537.67,632.333 C 4537.67,632.333 5028,632.333 5028,632.333 C 5067.74,632.333 5100,664.591 5100,704.332 C 5100,704.332 5100,994.668 5100,994.668 C 5100,1034.41 5067.74,1066.67 5028,1066.67 C 5028,1066.67 4537.67,1066.67 4537.67,1066.67 C 4497.92,1066.67 4465.67,1034.41 4465.67,994.668 "
     id="path6"
     style="opacity:0.358" />
  <path
     stroke="none"
     fill="#ffffff"
     transform="matrix(0.1 0 0 0.1 -255.4 -53.6)"
     d="M 6292.33,2959.25 C 6292.33,2959.25 6292.33,2473.47 6292.33,2473.47 C 6292.33,2433.73 6324.59,2401.47 6364.33,2401.47 C 6364.33,2401.47 6854.67,2401.47 6854.67,2401.47 C 6894.41,2401.47 6926.67,2433.73 6926.67,2473.47 C 6926.67,2473.47 6926.67,2959.25 6926.67,2959.25 C 6926.67,2998.99 6894.41,3031.25 6854.67,3031.25 C 6854.67,3031.25 6364.33,3031.25 6364.33,3031.25 C 6324.59,3031.25 6292.33,2998.99 6292.33,2959.25 "
     id="path10"
     style="opacity:0.358" />
  <path
     stroke="#ffffff"
     stroke-width="1"
     fill="none"
     transform="matrix(0.1 0 0 0.1 -255.4 -53.6)"
     d="M 6292.33,2959.25 C 6292.33,2959.25 6292.33,2473.47 6292.33,2473.47 C 6292.33,2433.73 6324.59,2401.47 6364.33,2401.47 C 6364.33,2401.47 6854.67,2401.47 6854.67,2401.47 C 6894.41,2401.47 6926.67,2433.73 6926.67,2473.47 C 6926.67,2473.47 6926.67,2959.25 6926.67,2959.25 C 6926.67,2998.99 6894.41,3031.25 6854.67,3031.25 C 6854.67,3031.25 6364.33,3031.25 6364.33,3031.25 C 6324.59,3031.25 6292.33,2998.99 6292.33,2959.25 "
     id="path12"
     style="opacity:0.358" />
  <path
     stroke="none"
     fill="#ffffff"
     transform="matrix(0.1 0 0 0.1 -255.4 -53.6)"
     d="M 4303.03,4528 C 4303.03,4528 4303.03,4237.67 4303.03,4237.67 C 4303.03,4197.92 4335.29,4165.67 4375.03,4165.67 C 4375.03,4165.67 5218.74,4165.67 5218.74,4165.67 C 5258.48,4165.67 5290.74,4197.92 5290.74,4237.67 C 5290.74,4237.67 5290.74,4528 5290.74,4528 C 5290.74,4567.74 5258.48,4600 5218.74,4600 C 5218.74,4600 4375.03,4600 4375.03,4600 C 4335.29,4600 4303.03,4567.74 4303.03,4528 "
     id="path14"
     style="opacity:0.358" />
  <path
     stroke="#ffffff"
     stroke-width="1"
     fill="none"
     transform="matrix(0.1 0 0 0.1 -255.4 -53.6)"
     d="M 4303.03,4528 C 4303.03,4528 4303.03,4237.67 4303.03,4237.67 C 4303.03,4197.92 4335.29,4165.67 4375.03,4165.67 C 4375.03,4165.67 5218.74,4165.67 5218.74,4165.67 C 5258.48,4165.67 5290.74,4197.92 5290.74,4237.67 C 5290.74,4237.67 5290.74,4528 5290.74,4528 C 5290.74,4567.74 5258.48,4600 5218.74,4600 C 5218.74,4600 4375.03,4600 4375.03,4600 C 4335.29,4600 4303.03,4567.74 4303.03,4528 "
     id="path16"
     style="opacity:0.358" />
  <path
     stroke="none"
     fill="#ffffff"
     transform="matrix(0.1 0 0 0.1 -255.4 -53.6)"
     d="M 2692.33,2821.33 C 2692.33,2821.33 2692.33,2345.33 2692.33,2345.33 C 2692.33,2305.59 2724.59,2273.33 2764.33,2273.33 C 2764.33,2273.33 3254.67,2273.33 3254.67,2273.33 C 3294.41,2273.33 3326.67,2305.59 3326.67,2345.33 C 3326.67,2345.33 3326.67,2821.33 3326.67,2821.33 C 3326.67,2861.08 3294.41,2893.33 3254.67,2893.33 C 3254.67,2893.33 2764.33,2893.33 2764.33,2893.33 C 2724.59,2893.33 2692.33,2861.08 2692.33,2821.33 "
     id="path18"
     style="opacity:0.358" />
  <path
     stroke="#ffffff"
     stroke-width="1"
     fill="none"
     transform="matrix(0.1 0 0 0.1 -255.4 -53.6)"
     d="M 2692.33,2821.33 C 2692.33,2821.33 2692.33,2345.33 2692.33,2345.33 C 2692.33,2305.59 2724.59,2273.33 2764.33,2273.33 C 2764.33,2273.33 3254.67,2273.33 3254.67,2273.33 C 3294.41,2273.33 3326.67,2305.59 3326.67,2345.33 C 3326.67,2345.33 3326.67,2821.33 3326.67,2821.33 C 3326.67,2861.08 3294.41,2893.33 3254.67,2893.33 C 3254.67,2893.33 2764.33,2893.33 2764.33,2893.33 C 2724.59,2893.33 2692.33,2861.08 2692.33,2821.33 "
     id="path20"
     style="opacity:0.358" />
  <g
     inkscape:groupmode="layer"
     id="layer2"
     inkscape:label="bottom"
     style="display:inline">
    <path
       transform="matrix(0.1,0,0,0.1,-255.4,-53.6)"
       d="m 3003.95,2613.33 a 1802.715,1802.715 0 1 0 3605.43,0 1802.715,1802.715 0 1 0 -3605.43,0 z"
       id="path2"
       style="opacity:0.5;fill:none;stroke:#d7effd;stroke-width:85"
       inkscape:connector-curvature="0" />
    <path
       transform="matrix(0.1,0,0,0.1,-255.4,-53.6)"
       d="m 3037.16,2256.24 c 60.62,-311.81 41,-662.4 -55.79,-996.85"
       id="path32"
       style="opacity:0.5;fill:none;stroke:#d7effd;stroke-width:85"
       inkscape:connector-curvature="0" />
    <rect
       style="display:inline;opacity:1;fill:#ffffff;fill-opacity:1"
       id="rect4703"
       width="90.731384"
       height="52.463726"
       x="0.61722034"
       y="181.77682" />
    <rect
       style="display:inline;opacity:1;fill:#ffffff;fill-opacity:1"
       id="rect4703-3"
       width="90.731384"
       height="52.463726"
       x="181.15416"
       y="359.84488" />
    <rect
       style="display:inline;opacity:1;fill:#ffffff;fill-opacity:1;stroke-width:0.75592893"
       id="rect4703-3-6"
       width="51.846504"
       height="52.463726"
       x="195.81911"
       y="2.4743152" />
    <rect
       style="display:inline;opacity:1;fill:#ffffff;fill-opacity:1;stroke-width:0.78312534"
       id="rect4703-3-6-8"
       width="59.870369"
       height="48.760403"
       x="378.04745"
       y="183.93709" />
  </g>
  <g
     inkscape:groupmode="layer"
     id="layer1"
     inkscape:label="top"
     style="display:inline">
    <path
       d="m 383.256,207.9 a 21.344,21.344 0 1 0 42.688,0 21.344,21.344 0 1 0 -42.688,0 z"
       id="path22"
       style="opacity:0.51099997;fill:#ff8888;fill-opacity:1;stroke:none;stroke-width:0.1"
       inkscape:connector-curvature="0" />
    <path
       d="m 4559.9,800 a 213.437,213.437 0 1 0 426.87,0 213.437,213.437 0 1 0 -426.87,0 z"
       id="path8"
       style="opacity:0.51099997;fill:#bcb6ff;fill-opacity:1;stroke:none"
       transform="matrix(0.1,0,0,0.1,-255.4,-53.6)"
       inkscape:connector-curvature="0" />
    <path
       transform="matrix(0.1,0,0,0.1,-255.4,-53.6)"
       d="m 2709.06,1059.17 a 213.44,213.44 0 1 0 426.88,0 213.44,213.44 0 1 0 -426.88,0 z"
       id="path34"
       style="opacity:0.51099997;fill:#ffb38d;fill-opacity:1;stroke:none"
       inkscape:connector-curvature="0" />
    <path
       transform="matrix(0.1,0,0,0.1,-255.4,-53.6)"
       d="m 4386.56,4386.67 a 213.44,213.44 0 1 0 426.88,0 213.44,213.44 0 1 0 -426.88,0 z"
       id="path24"
       style="opacity:0.51099997;fill:#ff8989;fill-opacity:1;stroke:none"
       inkscape:connector-curvature="0" />
    <path
       transform="matrix(0.1,0,0,0.1,-255.4,-53.6)"
       d="m 4806.56,4386.67 a 213.44,213.44 0 1 0 426.88,0 213.44,213.44 0 1 0 -426.88,0 z"
       id="path26"
       style="opacity:0.51099997;fill:#ffcf9f;stroke:none"
       inkscape:connector-curvature="0" />
    <path
       d="m 1.256,207.9 a 21.344,21.344 0 1 0 42.688,0 21.344,21.344 0 1 0 -42.688,0 z"
       id="path28"
       style="opacity:0.51099997;fill:#bcb7ff;fill-opacity:1;stroke:none;stroke-width:0.1"
       inkscape:connector-curvature="0" />
    <path
       d="m 43.256,207.9 a 21.344,21.344 0 1 0 42.688,0 21.344,21.344 0 1 0 -42.688,0 z"
       id="path30"
       style="opacity:0.51099997;fill:#ffcf9f;stroke:none;stroke-width:0.1"
       inkscape:connector-curvature="0" />
    <rect
       style="opacity:0.6;fill:#ffffff;fill-opacity:1"
       id="rect4699"
       width="79.004204"
       height="72.832001"
       x="-154.30508"
       y="75.614922" />
    <rect
       style="opacity:0.6;fill:#ffffff;fill-opacity:1"
       id="rect4701"
       width="101.84135"
       height="60.487591"
       x="-130.23349"
       y="109.56204" />
  </g>
</svg>
