<?xml version="1.0" encoding="UTF-8" standalone="no"?>
<!-- Created with Inkscape (http://www.inkscape.org/) -->

<svg
   xmlns:dc="http://purl.org/dc/elements/1.1/"
   xmlns:cc="http://creativecommons.org/ns#"
   xmlns:rdf="http://www.w3.org/1999/02/22-rdf-syntax-ns#"
   xmlns:svg="http://www.w3.org/2000/svg"
   xmlns="http://www.w3.org/2000/svg"
   xmlns:sodipodi="http://sodipodi.sourceforge.net/DTD/sodipodi-0.dtd"
   xmlns:inkscape="http://www.inkscape.org/namespaces/inkscape"
   width="18.222385mm"
   height="9.1533871mm"
   viewBox="0 0 18.222386 9.1533871"
   version="1.1"
   id="svg8"
   inkscape:version="0.92.4 (5da689c313, 2019-01-14)"
   sodipodi:docname="rna_pep_thumb.svg">
  <defs
     id="defs2">
    <pattern
       y="0"
       x="0"
       height="6"
       width="6"
       patternUnits="userSpaceOnUse"
       id="EMFhbasepattern" />
  </defs>
  <sodipodi:namedview
     id="base"
     pagecolor="#ffffff"
     bordercolor="#666666"
     borderopacity="1.0"
     inkscape:pageopacity="0.0"
     inkscape:pageshadow="2"
     inkscape:zoom="7.9195959"
     inkscape:cx="7.2759458"
     inkscape:cy="4.5025303"
     inkscape:document-units="mm"
     inkscape:current-layer="layer1"
     showgrid="false"
     inkscape:window-width="1920"
     inkscape:window-height="986"
     inkscape:window-x="-11"
     inkscape:window-y="-11"
     inkscape:window-maximized="1"
     fit-margin-top="0"
     fit-margin-left="0"
     fit-margin-right="0"
     fit-margin-bottom="0" />
  <metadata
     id="metadata5">
    <rdf:RDF>
      <cc:Work
         rdf:about="">
        <dc:format>image/svg+xml</dc:format>
        <dc:type
           rdf:resource="http://purl.org/dc/dcmitype/StillImage" />
        <dc:title></dc:title>
      </cc:Work>
    </rdf:RDF>
  </metadata>
  <g
     inkscape:label="Layer 1"
     inkscape:groupmode="layer"
     id="layer1"
     transform="translate(-4.913077,-131.51681)">
    <path
       id="path13"
       d="m 19.077302,133.02387 c -0.151844,0.12523 -0.221544,0.42578 -0.236479,0.72382 -0.005,0.14777 -0.03485,0.51093 -0.0448,0.65619 -0.01742,0.17783 -0.09708,0.50843 -0.246434,0.65871 -0.146866,0.15027 0.146863,-0.0225 0.36094,-0.23293 0.161802,-0.16029 0.214074,-0.41575 0.231499,-0.6036 0.01743,-0.17031 0.01991,-0.47086 0.0473,-0.75638 0.01991,-0.19786 -0.005,-0.36817 0.08463,-0.48338 0.166779,-0.21038 0.116995,-0.22291 -0.196649,0.0376"
       style="fill:none;stroke:#700000;stroke-width:0.00998757px;stroke-linecap:butt;stroke-linejoin:miter;stroke-miterlimit:2;stroke-dasharray:none;stroke-opacity:1"
       inkscape:connector-curvature="0" />
    <path
       id="path15"
       d="m 19.077302,133.02387 c -0.151844,0.12523 -0.221544,0.42578 -0.236479,0.72382 -0.005,0.14777 -0.03485,0.51093 -0.0448,0.65619 -0.01742,0.17783 -0.09708,0.50843 -0.246434,0.65871 -0.146866,0.15027 0.146863,-0.0225 0.36094,-0.23293 0.161802,-0.16029 0.214074,-0.41575 0.231499,-0.6036 0.01743,-0.17031 0.01991,-0.47086 0.0473,-0.75638 0.01991,-0.19786 -0.005,-0.36817 0.08463,-0.48338 0.166779,-0.21038 0.116995,-0.22291 -0.196649,0.0376 z"
       style="fill:#700000;fill-opacity:1;fill-rule:nonzero;stroke:none;stroke-width:0.06578954"
       inkscape:connector-curvature="0" />
    <path
       id="path17"
       d="m 16.209691,134.92233 c -0.154332,0.12773 -0.224032,0.42578 -0.236479,0.72633 -0.0075,0.14777 -0.03485,0.51093 -0.0473,0.65619 -0.01492,0.17532 -0.09708,0.50593 -0.246437,0.6562 -0.146863,0.15027 0.146867,-0.02 0.360943,-0.23293 0.16429,-0.16029 0.214074,-0.41575 0.233987,-0.6036 0.01492,-0.1678 0.01743,-0.47086 0.0448,-0.75387 0.01991,-0.20037 -0.0025,-0.37068 0.08713,-0.48338 0.16429,-0.21289 0.114506,-0.22541 -0.19665,0.0351"
       style="fill:none;stroke:#700000;stroke-width:0.00998757px;stroke-linecap:butt;stroke-linejoin:miter;stroke-miterlimit:2;stroke-dasharray:none;stroke-opacity:1"
       inkscape:connector-curvature="0" />
    <path
       id="path19"
       d="m 16.209691,134.92233 c -0.154332,0.12773 -0.224032,0.42578 -0.236479,0.72633 -0.0075,0.14777 -0.03485,0.51093 -0.0473,0.65619 -0.01492,0.17532 -0.09708,0.50593 -0.246437,0.6562 -0.146863,0.15027 0.146867,-0.02 0.360943,-0.23293 0.16429,-0.16029 0.214074,-0.41575 0.233987,-0.6036 0.01492,-0.1678 0.01743,-0.47086 0.0448,-0.75387 0.01991,-0.20037 -0.0025,-0.37068 0.08713,-0.48338 0.16429,-0.21289 0.114506,-0.22541 -0.19665,0.0351 z"
       style="fill:#700000;fill-opacity:1;fill-rule:nonzero;stroke:none;stroke-width:0.06578954"
       inkscape:connector-curvature="0" />
    <path
       id="path21"
       d="m 18.18864,133.61244 c -0.151844,0.12523 -0.221541,0.42578 -0.236476,0.72382 -0.0075,0.14777 -0.03485,0.51093 -0.0473,0.6562 -0.01494,0.17782 -0.09459,0.50843 -0.243945,0.6587 -0.149355,0.15027 0.146866,-0.0225 0.36094,-0.23292 0.161801,-0.1603 0.214077,-0.41576 0.231501,-0.60361 0.01492,-0.17031 0.01743,-0.47085 0.0473,-0.75638 0.01991,-0.19785 -0.005,-0.36816 0.08463,-0.48338 0.166779,-0.21038 0.116993,-0.2229 -0.196652,0.0376"
       style="fill:none;stroke:#ff0000;stroke-width:0.00998757px;stroke-linecap:butt;stroke-linejoin:miter;stroke-miterlimit:2;stroke-dasharray:none;stroke-opacity:1"
       inkscape:connector-curvature="0" />
    <path
       id="path23"
       d="m 18.18864,133.61244 c -0.151844,0.12523 -0.221541,0.42578 -0.236476,0.72382 -0.0075,0.14777 -0.03485,0.51093 -0.0473,0.6562 -0.01494,0.17782 -0.09459,0.50843 -0.243945,0.6587 -0.149355,0.15027 0.146866,-0.0225 0.36094,-0.23292 0.161801,-0.1603 0.214077,-0.41576 0.231501,-0.60361 0.01492,-0.17031 0.01743,-0.47085 0.0473,-0.75638 0.01991,-0.19785 -0.005,-0.36816 0.08463,-0.48338 0.166779,-0.21038 0.116993,-0.2229 -0.196652,0.0376 z"
       style="fill:#ff0000;fill-opacity:1;fill-rule:nonzero;stroke:none;stroke-width:0.06578954"
       inkscape:connector-curvature="0" />
    <path
       id="path25"
       d="m 18.51722,133.38453 c 0.176737,-0.0927 0.480427,-0.0401 0.761709,0.0651 0.1394,0.0526 0.485404,0.17031 0.624802,0.21789 0.16927,0.0551 0.507806,0.1102 0.701967,0.0301 0.196649,-0.0802 -0.07468,0.12773 -0.350983,0.24544 -0.209096,0.0902 -0.465488,0.0376 -0.647205,-0.02 -0.1618,-0.0526 -0.443084,-0.17031 -0.716903,-0.25547 -0.191669,-0.0626 -0.341024,-0.15027 -0.480424,-0.1127 -0.25888,0.0726 -0.251414,0.0225 0.107037,-0.17032"
       style="fill:none;stroke:#b20000;stroke-width:0.00998757px;stroke-linecap:butt;stroke-linejoin:miter;stroke-miterlimit:2;stroke-dasharray:none;stroke-opacity:1"
       inkscape:connector-curvature="0" />
    <path
       id="path27"
       d="m 18.51722,133.38453 c 0.176737,-0.0927 0.480427,-0.0401 0.761709,0.0651 0.1394,0.0526 0.485404,0.17031 0.624802,0.21789 0.16927,0.0551 0.507806,0.1102 0.701967,0.0301 0.196649,-0.0802 -0.07468,0.12773 -0.350983,0.24544 -0.209096,0.0902 -0.465488,0.0376 -0.647205,-0.02 -0.1618,-0.0526 -0.443084,-0.17031 -0.716903,-0.25547 -0.191669,-0.0626 -0.341024,-0.15027 -0.480424,-0.1127 -0.25888,0.0726 -0.251414,0.0225 0.107037,-0.17032 z"
       style="fill:#b20000;fill-opacity:1;fill-rule:nonzero;stroke:none;stroke-width:0.06578954"
       inkscape:connector-curvature="0" />
    <path
       id="path29"
       d="m 15.318541,135.5109 c -0.151844,0.12774 -0.221543,0.42578 -0.23648,0.72633 -0.005,0.14777 -0.03484,0.51093 -0.0448,0.6562 -0.01492,0.17531 -0.09708,0.50592 -0.246433,0.65619 -0.146867,0.15027 0.146866,-0.02 0.36094,-0.23292 0.161801,-0.16029 0.214074,-0.41576 0.231501,-0.6036 0.01743,-0.16781 0.01991,-0.47086 0.0473,-0.75388 0.01991,-0.20036 -0.005,-0.37067 0.08463,-0.48338 0.166781,-0.21289 0.116995,-0.22541 -0.19665,0.0351"
       style="fill:none;stroke:#840000;stroke-width:0.00998757px;stroke-linecap:butt;stroke-linejoin:miter;stroke-miterlimit:2;stroke-dasharray:none;stroke-opacity:1"
       inkscape:connector-curvature="0" />
    <path
       id="path31"
       d="m 15.318541,135.5109 c -0.151844,0.12774 -0.221543,0.42578 -0.23648,0.72633 -0.005,0.14777 -0.03484,0.51093 -0.0448,0.6562 -0.01492,0.17531 -0.09708,0.50592 -0.246433,0.65619 -0.146867,0.15027 0.146866,-0.02 0.36094,-0.23292 0.161801,-0.16029 0.214074,-0.41576 0.231501,-0.6036 0.01743,-0.16781 0.01991,-0.47086 0.0473,-0.75388 0.01991,-0.20036 -0.005,-0.37067 0.08463,-0.48338 0.166781,-0.21289 0.116995,-0.22541 -0.19665,0.0351 z"
       style="fill:#840000;fill-opacity:1;fill-rule:nonzero;stroke:none;stroke-width:0.06578954"
       inkscape:connector-curvature="0" />
    <path
       id="path33"
       d="m 15.649609,135.28549 c 0.174249,-0.0927 0.477936,-0.0401 0.759221,0.0651 0.139399,0.0501 0.487892,0.16781 0.624801,0.21539 0.169268,0.0551 0.507807,0.11021 0.701968,0.0301 0.196649,-0.0802 -0.07468,0.13024 -0.350983,0.24795 -0.209097,0.0877 -0.465491,0.0351 -0.647206,-0.0225 -0.161801,-0.0526 -0.443083,-0.17031 -0.716902,-0.25546 -0.191673,-0.0601 -0.338536,-0.15027 -0.480424,-0.1102 -0.256392,0.0726 -0.251415,0.02 0.109525,-0.17031"
       style="fill:none;stroke:#b20000;stroke-width:0.00998757px;stroke-linecap:butt;stroke-linejoin:miter;stroke-miterlimit:2;stroke-dasharray:none;stroke-opacity:1"
       inkscape:connector-curvature="0" />
    <path
       id="path35"
       d="m 15.649609,135.28549 c 0.174249,-0.0927 0.477936,-0.0401 0.759221,0.0651 0.139399,0.0501 0.487892,0.16781 0.624801,0.21539 0.169268,0.0551 0.507807,0.11021 0.701968,0.0301 0.196649,-0.0802 -0.07468,0.13024 -0.350983,0.24795 -0.209097,0.0877 -0.465491,0.0351 -0.647206,-0.0225 -0.161801,-0.0526 -0.443083,-0.17031 -0.716902,-0.25546 -0.191673,-0.0601 -0.338536,-0.15027 -0.480424,-0.1102 -0.256392,0.0726 -0.251415,0.02 0.109525,-0.17031 z"
       style="fill:#b20000;fill-opacity:1;fill-rule:nonzero;stroke:none;stroke-width:0.06578954"
       inkscape:connector-curvature="0" />
    <path
       id="path37"
       d="m 19.408371,132.79595 c 0.174248,-0.0927 0.477935,-0.0401 0.759221,0.0651 0.139396,0.0526 0.487892,0.17031 0.6248,0.2179 0.169268,0.0551 0.507806,0.1102 0.701967,0.03 0.196651,-0.0801 -0.07468,0.12774 -0.350984,0.24545 -0.209097,0.0902 -0.465489,0.0376 -0.647203,-0.02 -0.161801,-0.0526 -0.443087,-0.17031 -0.716903,-0.25546 -0.191672,-0.0626 -0.338538,-0.15028 -0.480424,-0.1102 -0.258883,0.0701 -0.251414,0.02 0.109526,-0.17282"
       style="fill:none;stroke:#930000;stroke-width:0.00998757px;stroke-linecap:butt;stroke-linejoin:miter;stroke-miterlimit:2;stroke-dasharray:none;stroke-opacity:1"
       inkscape:connector-curvature="0" />
    <path
       id="path39"
       d="m 19.408371,132.79595 c 0.174248,-0.0927 0.477935,-0.0401 0.759221,0.0651 0.139396,0.0526 0.487892,0.17031 0.6248,0.2179 0.169268,0.0551 0.507806,0.1102 0.701967,0.03 0.196651,-0.0801 -0.07468,0.12774 -0.350984,0.24545 -0.209097,0.0902 -0.465489,0.0376 -0.647203,-0.02 -0.161801,-0.0526 -0.443087,-0.17031 -0.716903,-0.25546 -0.191672,-0.0626 -0.338538,-0.15028 -0.480424,-0.1102 -0.258883,0.0701 -0.251414,0.02 0.109526,-0.17282 z"
       style="fill:#930000;fill-opacity:1;fill-rule:nonzero;stroke:none;stroke-width:0.06578954"
       inkscape:connector-curvature="0" />
    <path
       id="path41"
       d="m 16.538272,134.69692 c 0.174248,-0.0927 0.477935,-0.0401 0.761709,0.0651 0.136907,0.0501 0.485402,0.16781 0.624801,0.21539 0.166779,0.0551 0.505317,0.1102 0.701967,0.0301 0.194161,-0.0802 -0.07717,0.13024 -0.353474,0.24795 -0.209096,0.0877 -0.465488,0.0351 -0.644714,-0.0225 -0.164291,-0.0526 -0.443087,-0.17031 -0.719392,-0.25547 -0.191671,-0.0601 -0.338538,-0.15027 -0.477935,-0.1102 -0.258883,0.0726 -0.253902,0.02 0.107038,-0.17031"
       style="fill:none;stroke:#930000;stroke-width:0.00998757px;stroke-linecap:butt;stroke-linejoin:miter;stroke-miterlimit:2;stroke-dasharray:none;stroke-opacity:1"
       inkscape:connector-curvature="0" />
    <path
       id="path43"
       d="m 16.538272,134.69692 c 0.174248,-0.0927 0.477935,-0.0401 0.761709,0.0651 0.136907,0.0501 0.485402,0.16781 0.624801,0.21539 0.166779,0.0551 0.505317,0.1102 0.701967,0.0301 0.194161,-0.0802 -0.07717,0.13024 -0.353474,0.24795 -0.209096,0.0877 -0.465488,0.0351 -0.644714,-0.0225 -0.164291,-0.0526 -0.443087,-0.17031 -0.719392,-0.25547 -0.191671,-0.0601 -0.338538,-0.15027 -0.477935,-0.1102 -0.258883,0.0726 -0.253902,0.02 0.107038,-0.17031 z"
       style="fill:#930000;fill-opacity:1;fill-rule:nonzero;stroke:none;stroke-width:0.06578954"
       inkscape:connector-curvature="0" />
    <path
       id="path45"
       d="m 16.426254,134.87474 c 0,0 0.26635,0.40825 0.43562,0.66622"
       style="fill:none;stroke:#ff0000;stroke-width:0.047441px;stroke-linecap:butt;stroke-linejoin:miter;stroke-miterlimit:2;stroke-dasharray:none;stroke-opacity:1"
       inkscape:connector-curvature="0" />
    <path
       id="path47"
       d="m 16.886765,134.96491 c 0,0 0.266349,0.40574 0.435618,0.66371"
       style="fill:none;stroke:#ff0000;stroke-width:0.047441px;stroke-linecap:butt;stroke-linejoin:miter;stroke-miterlimit:2;stroke-dasharray:none;stroke-opacity:1"
       inkscape:connector-curvature="0" />
    <path
       id="path49"
       d="m 17.367189,135.11769 c 0,0 0.204119,0.31307 0.33605,0.51343"
       style="fill:none;stroke:#ff0000;stroke-width:0.047441px;stroke-linecap:butt;stroke-linejoin:miter;stroke-miterlimit:2;stroke-dasharray:none;stroke-opacity:1"
       inkscape:connector-curvature="0" />
    <path
       id="path51"
       d="m 18.248382,134.53412 c 0,0 0.204119,0.31307 0.333561,0.51094"
       style="fill:none;stroke:#ff0000;stroke-width:0.047441px;stroke-linecap:butt;stroke-linejoin:miter;stroke-miterlimit:2;stroke-dasharray:none;stroke-opacity:1"
       inkscape:connector-curvature="0" />
    <path
       id="path53"
       d="m 18.313104,134.02069 c 0,0 0.266349,0.40574 0.435618,0.66371"
       style="fill:none;stroke:#ff0000;stroke-width:0.047441px;stroke-linecap:butt;stroke-linejoin:miter;stroke-miterlimit:2;stroke-dasharray:none;stroke-opacity:1"
       inkscape:connector-curvature="0" />
    <path
       id="path55"
       d="m 18.402717,133.55734 c 0,0 0.266349,0.40574 0.433128,0.66371"
       style="fill:none;stroke:#ff0000;stroke-width:0.047441px;stroke-linecap:butt;stroke-linejoin:miter;stroke-miterlimit:2;stroke-dasharray:none;stroke-opacity:1"
       inkscape:connector-curvature="0" />
    <path
       id="path57"
       d="m 19.303823,132.97127 c 0,0 0.266349,0.40574 0.435617,0.66371"
       style="fill:none;stroke:#ff0000;stroke-width:0.047441px;stroke-linecap:butt;stroke-linejoin:miter;stroke-miterlimit:2;stroke-dasharray:none;stroke-opacity:1"
       inkscape:connector-curvature="0" />
    <path
       id="path59"
       d="m 19.764333,133.05893 c 0,0 0.26635,0.40574 0.435618,0.66371"
       style="fill:none;stroke:#ff0000;stroke-width:0.047441px;stroke-linecap:butt;stroke-linejoin:miter;stroke-miterlimit:2;stroke-dasharray:none;stroke-opacity:1"
       inkscape:connector-curvature="0" />
    <path
       id="path61"
       d="m 20.244758,133.21422 c 0,0 0.206608,0.31307 0.336048,0.51093"
       style="fill:none;stroke:#ff0000;stroke-width:0.047441px;stroke-linecap:butt;stroke-linejoin:miter;stroke-miterlimit:2;stroke-dasharray:none;stroke-opacity:1"
       inkscape:connector-curvature="0" />
    <path
       id="path63"
       d="m 15.378282,136.43509 c 0,0 0.20412,0.31057 0.333561,0.50843"
       style="fill:none;stroke:#ff0000;stroke-width:0.047441px;stroke-linecap:butt;stroke-linejoin:miter;stroke-miterlimit:2;stroke-dasharray:none;stroke-opacity:1"
       inkscape:connector-curvature="0" />
    <path
       id="path65"
       d="m 15.443005,135.91915 c 0,0 0.266347,0.40574 0.435618,0.66371"
       style="fill:none;stroke:#ff0000;stroke-width:0.047441px;stroke-linecap:butt;stroke-linejoin:miter;stroke-miterlimit:2;stroke-dasharray:none;stroke-opacity:1"
       inkscape:connector-curvature="0" />
    <path
       id="path67"
       d="m 15.532618,135.4558 c 0,0 0.266347,0.40574 0.433128,0.66371"
       style="fill:none;stroke:#ff0000;stroke-width:0.047441px;stroke-linecap:butt;stroke-linejoin:miter;stroke-miterlimit:2;stroke-dasharray:none;stroke-opacity:1"
       inkscape:connector-curvature="0" />
    <path
       id="path69"
       d="m 19.956006,139.08492 c 0.01991,-0.15528 -0.102062,-0.36567 -0.253904,-0.54599 -0.07468,-0.0877 -0.253902,-0.31307 -0.323602,-0.40324 -0.08713,-0.1102 -0.216563,-0.34563 -0.214074,-0.51093 0.005,-0.16781 -0.07218,0.0927 -0.08214,0.3306 -0.0075,0.18033 0.09958,0.35565 0.191672,0.47086 0.07966,0.1077 0.241457,0.28302 0.378364,0.46084 0.09459,0.12523 0.199141,0.21038 0.209097,0.32559 0.01743,0.21039 0.05227,0.19286 0.09459,-0.12773"
       style="fill:none;stroke:#700000;stroke-width:0.00998757px;stroke-linecap:butt;stroke-linejoin:miter;stroke-miterlimit:2;stroke-dasharray:none;stroke-opacity:1"
       inkscape:connector-curvature="0" />
    <path
       id="path71"
       d="m 19.956006,139.08492 c 0.01991,-0.15528 -0.102062,-0.36567 -0.253904,-0.54599 -0.07468,-0.0877 -0.253902,-0.31307 -0.323602,-0.40324 -0.08713,-0.1102 -0.216563,-0.34563 -0.214074,-0.51093 0.005,-0.16781 -0.07218,0.0927 -0.08214,0.3306 -0.0075,0.18033 0.09958,0.35565 0.191672,0.47086 0.07966,0.1077 0.241457,0.28302 0.378364,0.46084 0.09459,0.12523 0.199141,0.21038 0.209097,0.32559 0.01743,0.21039 0.05227,0.19286 0.09459,-0.12773 z"
       style="fill:#700000;fill-opacity:1;fill-rule:nonzero;stroke:none;stroke-width:0.06578954"
       inkscape:connector-curvature="0" />
    <path
       id="path73"
       d="m 20.588273,136.43259 c 0.01991,-0.15529 -0.102061,-0.36567 -0.253902,-0.546 -0.07468,-0.0877 -0.253904,-0.31307 -0.326092,-0.40323 -0.08463,-0.1077 -0.216564,-0.34313 -0.211586,-0.51094 0.005,-0.1678 -0.07219,0.0927 -0.08214,0.3306 -0.0075,0.18034 0.09956,0.35565 0.189182,0.47337 0.08214,0.10519 0.243947,0.28051 0.380856,0.45833 0.09459,0.12774 0.199138,0.21039 0.209096,0.3256 0.01743,0.21289 0.05227,0.19285 0.09459,-0.12773"
       style="fill:none;stroke:#700000;stroke-width:0.00998757px;stroke-linecap:butt;stroke-linejoin:miter;stroke-miterlimit:2;stroke-dasharray:none;stroke-opacity:1"
       inkscape:connector-curvature="0" />
    <path
       id="path75"
       d="m 20.588273,136.43259 c 0.01991,-0.15529 -0.102061,-0.36567 -0.253902,-0.546 -0.07468,-0.0877 -0.253904,-0.31307 -0.326092,-0.40323 -0.08463,-0.1077 -0.216564,-0.34313 -0.211586,-0.51094 0.005,-0.1678 -0.07219,0.0927 -0.08214,0.3306 -0.0075,0.18034 0.09956,0.35565 0.189182,0.47337 0.08214,0.10519 0.243947,0.28051 0.380856,0.45833 0.09459,0.12774 0.199138,0.21039 0.209096,0.3256 0.01743,0.21289 0.05227,0.19285 0.09459,-0.12773 z"
       style="fill:#700000;fill-opacity:1;fill-rule:nonzero;stroke:none;stroke-width:0.06578954"
       inkscape:connector-curvature="0" />
    <path
       id="path77"
       d="m 20.150167,138.26342 c 0.01991,-0.15528 -0.09957,-0.36566 -0.251414,-0.54599 -0.07468,-0.0877 -0.253903,-0.31307 -0.326092,-0.40324 -0.08463,-0.1102 -0.216562,-0.34563 -0.211585,-0.51093 0.005,-0.1678 -0.07219,0.0927 -0.08214,0.33061 -0.0075,0.17782 0.09957,0.35564 0.189183,0.47085 0.08214,0.1077 0.243945,0.28302 0.378364,0.46084 0.09708,0.12523 0.201631,0.21039 0.211588,0.32559 0.01743,0.21039 0.05228,0.19035 0.0921,-0.12773"
       style="fill:none;stroke:#ff0000;stroke-width:0.00998757px;stroke-linecap:butt;stroke-linejoin:miter;stroke-miterlimit:2;stroke-dasharray:none;stroke-opacity:1"
       inkscape:connector-curvature="0" />
    <path
       id="path79"
       d="m 20.150167,138.26342 c 0.01991,-0.15528 -0.09957,-0.36566 -0.251414,-0.54599 -0.07468,-0.0877 -0.253903,-0.31307 -0.326092,-0.40324 -0.08463,-0.1102 -0.216562,-0.34563 -0.211585,-0.51093 0.005,-0.1678 -0.07219,0.0927 -0.08214,0.33061 -0.0075,0.17782 0.09957,0.35564 0.189183,0.47085 0.08214,0.1077 0.243945,0.28302 0.378364,0.46084 0.09708,0.12523 0.201631,0.21039 0.211588,0.32559 0.01743,0.21039 0.05228,0.19035 0.0921,-0.12773 z"
       style="fill:#ff0000;fill-opacity:1;fill-rule:nonzero;stroke:none;stroke-width:0.06578954"
       inkscape:connector-curvature="0" />
    <path
       id="path81"
       d="m 20.082956,138.57149 c -0.04979,0.14776 -0.253903,0.28301 -0.472955,0.37568 -0.107039,0.0476 -0.370897,0.1678 -0.475446,0.21539 -0.126953,0.0601 -0.350985,0.21289 -0.420682,0.36567 -0.06721,0.15027 -0.02489,-0.11771 0.07218,-0.33561 0.07218,-0.1628 0.246437,-0.273 0.383344,-0.33812 0.121973,-0.0576 0.346005,-0.14276 0.550124,-0.24294 0.141885,-0.0676 0.273816,-0.0977 0.333558,-0.19536 0.112017,-0.18283 0.134419,-0.15027 0.02987,0.15529"
       style="fill:none;stroke:#b20000;stroke-width:0.00998757px;stroke-linecap:butt;stroke-linejoin:miter;stroke-miterlimit:2;stroke-dasharray:none;stroke-opacity:1"
       inkscape:connector-curvature="0" />
    <path
       id="path83"
       d="m 20.082956,138.57149 c -0.04979,0.14776 -0.253903,0.28301 -0.472955,0.37568 -0.107039,0.0476 -0.370897,0.1678 -0.475446,0.21539 -0.126953,0.0601 -0.350985,0.21289 -0.420682,0.36567 -0.06721,0.15027 -0.02489,-0.11771 0.07218,-0.33561 0.07218,-0.1628 0.246437,-0.273 0.383344,-0.33812 0.121973,-0.0576 0.346005,-0.14276 0.550124,-0.24294 0.141885,-0.0676 0.273816,-0.0977 0.333558,-0.19536 0.112017,-0.18283 0.134419,-0.15027 0.02987,0.15529 z"
       style="fill:#b20000;fill-opacity:1;fill-rule:nonzero;stroke:none;stroke-width:0.06578954"
       inkscape:connector-curvature="0" />
    <path
       id="path85"
       d="m 20.782434,135.61109 c 0.01991,-0.15529 -0.09956,-0.36567 -0.251414,-0.546 -0.07468,-0.0877 -0.253903,-0.31307 -0.326091,-0.40323 -0.08463,-0.1077 -0.216563,-0.34313 -0.211586,-0.51094 0.005,-0.1678 -0.07218,0.0927 -0.08214,0.33061 -0.0075,0.18033 0.09956,0.35565 0.189181,0.47336 0.08214,0.10519 0.241458,0.28051 0.378367,0.45834 0.09708,0.12773 0.201627,0.21038 0.211585,0.32559 0.01743,0.21289 0.05227,0.19285 0.0921,-0.12773"
       style="fill:none;stroke:#840000;stroke-width:0.00998757px;stroke-linecap:butt;stroke-linejoin:miter;stroke-miterlimit:2;stroke-dasharray:none;stroke-opacity:1"
       inkscape:connector-curvature="0" />
    <path
       id="path87"
       d="m 20.782434,135.61109 c 0.01991,-0.15529 -0.09956,-0.36567 -0.251414,-0.546 -0.07468,-0.0877 -0.253903,-0.31307 -0.326091,-0.40323 -0.08463,-0.1077 -0.216563,-0.34313 -0.211586,-0.51094 0.005,-0.1678 -0.07218,0.0927 -0.08214,0.33061 -0.0075,0.18033 0.09956,0.35565 0.189181,0.47336 0.08214,0.10519 0.241458,0.28051 0.378367,0.45834 0.09708,0.12773 0.201627,0.21038 0.211585,0.32559 0.01743,0.21289 0.05227,0.19285 0.0921,-0.12773 z"
       style="fill:#840000;fill-opacity:1;fill-rule:nonzero;stroke:none;stroke-width:0.06578954"
       inkscape:connector-curvature="0" />
    <path
       id="path89"
       d="m 20.715226,135.91915 c -0.04979,0.15027 -0.253903,0.28302 -0.472958,0.37819 -0.107037,0.0451 -0.370897,0.1653 -0.475445,0.21539 -0.12695,0.0576 -0.350983,0.21038 -0.420683,0.36317 -0.0697,0.15027 -0.02489,-0.11522 0.07218,-0.33312 0.07218,-0.1653 0.246435,-0.2755 0.383343,-0.33811 0.119484,-0.0601 0.343515,-0.14527 0.547635,-0.24294 0.144377,-0.0701 0.276307,-0.10019 0.336049,-0.19786 0.109526,-0.18284 0.13442,-0.14777 0.02987,0.15528"
       style="fill:none;stroke:#b20000;stroke-width:0.00998757px;stroke-linecap:butt;stroke-linejoin:miter;stroke-miterlimit:2;stroke-dasharray:none;stroke-opacity:1"
       inkscape:connector-curvature="0" />
    <path
       id="path91"
       d="m 20.715226,135.91915 c -0.04979,0.15027 -0.253903,0.28302 -0.472958,0.37819 -0.107037,0.0451 -0.370897,0.1653 -0.475445,0.21539 -0.12695,0.0576 -0.350983,0.21038 -0.420683,0.36317 -0.0697,0.15027 -0.02489,-0.11522 0.07218,-0.33312 0.07218,-0.1653 0.246435,-0.2755 0.383343,-0.33811 0.119484,-0.0601 0.343515,-0.14527 0.547635,-0.24294 0.144377,-0.0701 0.276307,-0.10019 0.336049,-0.19786 0.109526,-0.18284 0.13442,-0.14777 0.02987,0.15528 z"
       style="fill:#b20000;fill-opacity:1;fill-rule:nonzero;stroke:none;stroke-width:0.06578954"
       inkscape:connector-curvature="0" />
    <path
       id="path93"
       d="m 19.886306,139.39298 c -0.04979,0.14777 -0.251414,0.28302 -0.470466,0.37569 -0.109529,0.0476 -0.370898,0.1678 -0.475446,0.21539 -0.126953,0.0601 -0.350985,0.21289 -0.420682,0.36567 -0.0697,0.15027 -0.02738,-0.11772 0.0697,-0.33561 0.07218,-0.1628 0.248926,-0.273 0.383344,-0.33812 0.121973,-0.0576 0.346005,-0.14276 0.550125,-0.24294 0.141885,-0.0676 0.276304,-0.0977 0.336046,-0.19536 0.109529,-0.18283 0.13193,-0.15027 0.02738,0.15528"
       style="fill:none;stroke:#930000;stroke-width:0.00998757px;stroke-linecap:butt;stroke-linejoin:miter;stroke-miterlimit:2;stroke-dasharray:none;stroke-opacity:1"
       inkscape:connector-curvature="0" />
    <path
       id="path95"
       d="m 19.886306,139.39298 c -0.04979,0.14777 -0.251414,0.28302 -0.470466,0.37569 -0.109529,0.0476 -0.370898,0.1678 -0.475446,0.21539 -0.126953,0.0601 -0.350985,0.21289 -0.420682,0.36567 -0.0697,0.15027 -0.02738,-0.11772 0.0697,-0.33561 0.07218,-0.1628 0.248926,-0.273 0.383344,-0.33812 0.121973,-0.0576 0.346005,-0.14276 0.550125,-0.24294 0.141885,-0.0676 0.276304,-0.0977 0.336046,-0.19536 0.109529,-0.18283 0.13193,-0.15027 0.02738,0.15528 z"
       style="fill:#930000;fill-opacity:1;fill-rule:nonzero;stroke:none;stroke-width:0.06578954"
       inkscape:connector-curvature="0" />
    <path
       id="path97"
       d="m 20.518573,136.74065 c -0.04979,0.15027 -0.253902,0.28301 -0.472954,0.37819 -0.107037,0.0451 -0.368409,0.1653 -0.475447,0.21539 -0.126952,0.0576 -0.348493,0.21038 -0.418193,0.36316 -0.0697,0.15028 -0.02738,-0.11521 0.0697,-0.33311 0.07218,-0.1653 0.248923,-0.2755 0.383342,-0.33811 0.121973,-0.0601 0.346004,-0.14527 0.550124,-0.24295 0.141887,-0.0701 0.276307,-0.10018 0.336046,-0.19786 0.109529,-0.18283 0.131931,-0.14777 0.02738,0.15529"
       style="fill:none;stroke:#930000;stroke-width:0.00998757px;stroke-linecap:butt;stroke-linejoin:miter;stroke-miterlimit:2;stroke-dasharray:none;stroke-opacity:1"
       inkscape:connector-curvature="0" />
    <path
       id="path99"
       d="m 20.518573,136.74065 c -0.04979,0.15027 -0.253902,0.28301 -0.472954,0.37819 -0.107037,0.0451 -0.368409,0.1653 -0.475447,0.21539 -0.126952,0.0576 -0.348493,0.21038 -0.418193,0.36316 -0.0697,0.15028 -0.02738,-0.11521 0.0697,-0.33311 0.07218,-0.1653 0.248923,-0.2755 0.383342,-0.33811 0.121973,-0.0601 0.346004,-0.14527 0.550124,-0.24295 0.141887,-0.0701 0.276307,-0.10018 0.336046,-0.19786 0.109529,-0.18283 0.131931,-0.14777 0.02738,0.15529 z"
       style="fill:#930000;fill-opacity:1;fill-rule:nonzero;stroke:none;stroke-width:0.06578954"
       inkscape:connector-curvature="0" />
    <path
       id="path101"
       d="m 20.488703,136.57785 c 0,0 -0.373387,-0.0877 -0.607375,-0.14526"
       style="fill:none;stroke:#ff0000;stroke-width:0.047441px;stroke-linecap:butt;stroke-linejoin:miter;stroke-miterlimit:2;stroke-dasharray:none;stroke-opacity:1"
       inkscape:connector-curvature="0" />
    <path
       id="path103"
       d="m 20.175058,136.77822 c 0,0 -0.370896,-0.0902 -0.607375,-0.14527"
       style="fill:none;stroke:#ff0000;stroke-width:0.047441px;stroke-linecap:butt;stroke-linejoin:miter;stroke-miterlimit:2;stroke-dasharray:none;stroke-opacity:1"
       inkscape:connector-curvature="0" />
    <path
       id="path105"
       d="m 19.816607,136.94853 c 0,0 -0.286263,-0.0676 -0.467978,-0.11271"
       style="fill:none;stroke:#ff0000;stroke-width:0.047441px;stroke-linecap:butt;stroke-linejoin:miter;stroke-miterlimit:2;stroke-dasharray:none;stroke-opacity:1"
       inkscape:connector-curvature="0" />
    <path
       id="path107"
       d="m 19.622445,137.76501 c 0,0 -0.286262,-0.0701 -0.465488,-0.1127"
       style="fill:none;stroke:#ff0000;stroke-width:0.047441px;stroke-linecap:butt;stroke-linejoin:miter;stroke-miterlimit:2;stroke-dasharray:none;stroke-opacity:1"
       inkscape:connector-curvature="0" />
    <path
       id="path109"
       d="m 19.861412,138.09562 c 0,0 -0.370895,-0.0902 -0.607373,-0.14527"
       style="fill:none;stroke:#ff0000;stroke-width:0.047441px;stroke-linecap:butt;stroke-linejoin:miter;stroke-miterlimit:2;stroke-dasharray:none;stroke-opacity:1"
       inkscape:connector-curvature="0" />
    <path
       id="path111"
       d="m 20.058065,138.41119 c 0,0 -0.370898,-0.0902 -0.607377,-0.14777"
       style="fill:none;stroke:#ff0000;stroke-width:0.047441px;stroke-linecap:butt;stroke-linejoin:miter;stroke-miterlimit:2;stroke-dasharray:none;stroke-opacity:1"
       inkscape:connector-curvature="0" />
    <path
       id="path113"
       d="m 19.853946,139.2377 c 0,0 -0.370897,-0.0902 -0.607376,-0.14527"
       style="fill:none;stroke:#ff0000;stroke-width:0.047441px;stroke-linecap:butt;stroke-linejoin:miter;stroke-miterlimit:2;stroke-dasharray:none;stroke-opacity:1"
       inkscape:connector-curvature="0" />
    <path
       id="path115"
       d="m 19.540301,139.43556 c 0,0 -0.370897,-0.0877 -0.604887,-0.14526"
       style="fill:none;stroke:#ff0000;stroke-width:0.047441px;stroke-linecap:butt;stroke-linejoin:miter;stroke-miterlimit:2;stroke-dasharray:none;stroke-opacity:1"
       inkscape:connector-curvature="0" />
    <path
       id="path117"
       d="m 19.18185,139.60838 c 0,0 -0.286263,-0.0676 -0.467977,-0.11271"
       style="fill:none;stroke:#ff0000;stroke-width:0.047441px;stroke-linecap:butt;stroke-linejoin:miter;stroke-miterlimit:2;stroke-dasharray:none;stroke-opacity:1"
       inkscape:connector-curvature="0" />
    <path
       id="path119"
       d="m 20.254715,135.11268 c 0,0 -0.286262,-0.0701 -0.465488,-0.11271"
       style="fill:none;stroke:#ff0000;stroke-width:0.047441px;stroke-linecap:butt;stroke-linejoin:miter;stroke-miterlimit:2;stroke-dasharray:none;stroke-opacity:1"
       inkscape:connector-curvature="0" />
    <path
       id="path121"
       d="m 20.493683,135.44328 c 0,0 -0.370898,-0.0877 -0.607377,-0.14526"
       style="fill:none;stroke:#ff0000;stroke-width:0.047441px;stroke-linecap:butt;stroke-linejoin:miter;stroke-miterlimit:2;stroke-dasharray:none;stroke-opacity:1"
       inkscape:connector-curvature="0" />
    <path
       id="path123"
       d="m 20.690333,135.75886 c 0,0 -0.370898,-0.0902 -0.607377,-0.14777"
       style="fill:none;stroke:#ff0000;stroke-width:0.047441px;stroke-linecap:butt;stroke-linejoin:miter;stroke-miterlimit:2;stroke-dasharray:none;stroke-opacity:1"
       inkscape:connector-curvature="0" />
    <path
       id="path125"
       d="m 22.910741,136.04187 c 0,2.37684 -1.914233,4.30285 -4.276526,4.30285 -2.359804,0 -4.274034,-1.92601 -4.274034,-4.30285 0,-2.37433 1.91423,-4.30034 4.274034,-4.30034 2.362293,0 4.276526,1.92601 4.276526,4.30034"
       style="fill:none;stroke:#ff0000;stroke-width:0.44944102px;stroke-linecap:butt;stroke-linejoin:miter;stroke-miterlimit:2;stroke-dasharray:none;stroke-opacity:1"
       inkscape:connector-curvature="0" />
    <g
       id="g842"
       transform="matrix(0.59957565,0,0,0.60214357,-41.569972,59.49717)">
      <path
         inkscape:connector-curvature="0"
         style="fill:none;stroke:#008000;stroke-width:0.7468881px;stroke-linecap:butt;stroke-linejoin:miter;stroke-miterlimit:2;stroke-dasharray:none;stroke-opacity:1"
         d="m 92.153135,127.30469 c 0,3.93776 -3.190871,7.12863 -7.128629,7.12863 -3.933611,0 -7.124483,-3.19087 -7.124483,-7.12863 0,-3.93361 3.190872,-7.12448 7.124483,-7.12448 3.937758,0 7.128629,3.19087 7.128629,7.12448"
         id="path1506" />
      <path
         inkscape:connector-curvature="0"
         style="fill:#b3d9b3;fill-opacity:1;fill-rule:evenodd;stroke:none;stroke-width:0.10933009"
         d="m 80.555622,125.88145 0.128635,-0.29875 0.141076,-0.28216 0.149378,-0.2614 0.161827,-0.24067 0.170126,-0.21992 0.174274,-0.19917 0.18257,-0.18257 0.186721,-0.15768 0.195021,-0.14107 0.199171,-0.12033 0.199169,-0.0996 0.203319,-0.083 0.203323,-0.0623 0.20332,-0.0415 0.203319,-0.0249 0.402489,0.0125 0.195021,0.029 0.377592,0.12034 0.178423,0.0871 0.174274,0.10789 0.165976,0.12033 0.153527,0.14108 0.145229,0.15768 0.136931,0.17842 0.124481,0.19087 0.107884,0.21162 0.09959,0.22407 0.08299,0.24481 0.0664,0.26141 0.04979,0.27801 0.02075,0.16182 0.03318,0.32366 0.02487,0.26971 0.01244,0.21991 v 0.17428 l -0.0083,0.13278 -0.02075,0.0954 -0.02905,0.0581 -0.03736,0.0249 -0.04564,-0.004 -0.0581,-0.029 -0.06224,-0.0539 -0.07054,-0.0705 -0.170124,-0.19088 -0.09129,-0.11203 -0.103737,-0.11618 -0.107883,-0.12033 -0.112031,-0.11619 -0.120333,-0.11617 -0.128629,-0.10789 -0.132784,-0.0996 -0.136927,-0.083 -0.141081,-0.0664 -0.145228,-0.0498 -0.149378,-0.0249 -0.157675,0.004 -0.157675,0.0332 -0.07469,0.0249 -0.315354,0.12033 -0.319503,0.11203 -0.319503,0.0954 -0.618254,0.15353 -0.286309,0.0456 -0.26971,0.029 h -0.24066 l -0.21162,-0.0249 -0.178423,-0.0498 -0.136932,-0.0871 -0.08713,-0.11618 -0.0415,-0.15353 0.01662,-0.19087 0.01661,-0.0664 z"
         id="path1508" />
      <path
         inkscape:connector-curvature="0"
         style="fill:none;stroke:#008000;stroke-width:0.26970959px;stroke-linecap:butt;stroke-linejoin:miter;stroke-miterlimit:2;stroke-dasharray:none;stroke-opacity:1"
         d="m 80.555622,125.88145 c 1.336102,-3.39834 4.829877,-3.08714 5.182578,0.11204 0.356846,3.19917 -0.709546,-0.59336 -2.190872,0 -1.48133,0.59336 -3.302907,0.93361 -2.991706,-0.13278"
         id="path1510" />
      <path
         inkscape:connector-curvature="0"
         style="fill:#b3d9b3;fill-opacity:1;fill-rule:evenodd;stroke:none;stroke-width:0.10933009"
         d="m 80.912472,129.08063 0.423236,-0.0954 0.406639,-0.13693 0.38174,-0.17428 0.356851,-0.19916 0.323651,-0.20747 0.286305,-0.21162 0.248963,-0.20332 0.21162,-0.18672 0.157674,-0.15353 0.112036,-0.11203 0.05809,-0.0622 0.0083,-0.0125 -0.0083,0.029 -0.02491,0.083 -0.03318,0.12448 -0.03318,0.16183 -0.02905,0.18672 -0.02074,0.20747 -0.0041,0.21991 0.01661,0.21992 0.04565,0.21577 0.07883,0.20332 0.120333,0.17842 0.17012,0.14523 0.219918,0.11203 0.282161,0.0622 0.344395,0.004 0.3444,-0.0415 0.28216,-0.0374 0.232363,0.004 0.186724,0.0332 0.141076,0.0664 0.103734,0.0871 0.06639,0.11204 0.03318,0.13277 v 0.14523 l -0.02487,0.15767 -0.12863,0.33196 -0.09544,0.16598 -0.112031,0.16182 -0.124481,0.15768 -0.136932,0.14108 -0.141076,0.13277 -0.149378,0.10789 -0.149377,0.0871 -0.149377,0.0622 -0.14523,0.029 h -0.136932 l -0.12863,-0.0415 -0.09129,-0.0623 -0.149378,-0.10788 -0.186719,-0.12033 -0.224067,-0.12863 -0.248964,-0.13278 -0.273858,-0.13693 -0.286305,-0.14108 -0.601663,-0.28631 -0.302904,-0.14522 -0.290458,-0.14108 -0.278008,-0.13278 -0.261408,-0.13278 -0.232365,-0.12449 -0.199174,-0.11618 -0.161823,-0.10789 -0.120333,-0.0996 -0.06638,-0.083 -0.01244,-0.0705 0.05394,-0.0581 0.116184,-0.0415 h 0.01661 z"
         id="path1512" />
      <path
         inkscape:connector-curvature="0"
         style="fill:none;stroke:#008000;stroke-width:0.26970959px;stroke-linecap:butt;stroke-linejoin:miter;stroke-miterlimit:2;stroke-dasharray:none;stroke-opacity:1"
         d="m 80.912472,129.08063 c 1.663901,-0.26557 2.975102,-1.7552 2.975102,-1.7552 0,0 -0.863068,2.53527 1.468881,2.11204 2.331953,-0.42324 0.174273,2.6888 -0.668052,1.9751 -0.842319,-0.70954 -4.796679,-2.10788 -3.709543,-2.30705"
         id="path1514" />
      <path
         inkscape:connector-curvature="0"
         style="fill:#b3d9b3;fill-opacity:1;fill-rule:evenodd;stroke:none;stroke-width:0.10933009"
         d="m 86.530731,127.90635 -0.0083,-0.54772 0.01244,-0.24896 0.02487,-0.23236 0.04564,-0.21162 0.06225,-0.18673 0.07884,-0.16182 0.103736,-0.13693 0.128633,-0.0996 0.153529,-0.0705 0.17842,-0.029 0.207471,0.004 0.240662,0.0498 0.27386,0.0954 0.307054,0.14108 0.344395,0.19087 0.244816,0.15352 0.323652,0.23237 0.244816,0.21577 0.16597,0.20747 0.09959,0.19087 0.0415,0.17842 -0.01244,0.16598 -0.05809,0.15767 -0.09544,0.14108 -0.124479,0.13693 -0.149381,0.12033 -0.165974,0.11619 -0.170124,0.10373 -0.174271,0.0954 -0.315355,0.16597 -0.128629,0.0705 -0.103737,0.0664 -0.04149,0.0332 -0.15353,0.0788 -0.20332,0.0166 -0.236514,-0.0415 -0.253113,-0.0996 -0.248964,-0.15353 -0.232362,-0.19917 -0.199172,-0.24066 -0.14108,-0.27801 -0.06638,-0.25726 z"
         id="path1516" />
      <path
         inkscape:connector-curvature="0"
         style="fill:none;stroke:#008000;stroke-width:0.26970959px;stroke-linecap:butt;stroke-linejoin:miter;stroke-miterlimit:2;stroke-dasharray:none;stroke-opacity:1"
         d="m 86.530731,127.90635 c -0.08714,-1.57677 0.244811,-2.68879 2.398341,-1.29046 2.157676,1.39834 -0.30705,2.0664 -0.663899,2.39834 -0.35685,0.33611 -1.601663,-0.21991 -1.734442,-1.17427"
         id="path1518" />
      <path
         inkscape:connector-curvature="0"
         style="fill:none;stroke:#008000;stroke-width:0.26970959px;stroke-linecap:round;stroke-linejoin:miter;stroke-miterlimit:2;stroke-dasharray:none;stroke-opacity:1"
         d="m 88.248574,124.5827 c -0.02075,-0.82158 -0.701249,-1.47718 -1.526974,-1.45643 -0.518673,0.008 -1.024895,0.31535 -1.273858,0.77179"
         id="path1520" />
      <path
         inkscape:connector-curvature="0"
         style="fill:none;stroke:#008000;stroke-width:0.01659751px;stroke-linecap:round;stroke-linejoin:miter;stroke-miterlimit:2;stroke-dasharray:none;stroke-opacity:1"
         d="m 87.866829,125.61174 c 0,0 0.136934,-1.2863 0.136934,-1.2863 0,0 0.116179,0.21161 0.244811,0.25726 0.124475,0.0498 0.348548,-0.0332 0.348548,-0.0332 0,0 -0.730293,1.06224 -0.730293,1.06224 0,0 0,0 0,0"
         id="path1522" />
      <path
         inkscape:connector-curvature="0"
         style="fill:#008000;fill-opacity:1;fill-rule:nonzero;stroke:none;stroke-width:0.10933009"
         d="m 87.866829,125.61174 c 0,0 0.136934,-1.2863 0.136934,-1.2863 0,0 0.116179,0.21161 0.244811,0.25726 0.124475,0.0498 0.348548,-0.0332 0.348548,-0.0332 0,0 -0.730293,1.06224 -0.730293,1.06224 0,0 0,0 0,0 z"
         id="path1524" />
      <path
         inkscape:connector-curvature="0"
         style="fill:none;stroke:#008000;stroke-width:0.26970959px;stroke-linecap:round;stroke-linejoin:miter;stroke-miterlimit:2;stroke-dasharray:none;stroke-opacity:1"
         d="m 86.60957,131.03083 c 0.460578,0.68465 1.39004,0.86307 2.070537,0.39834 0.684646,-0.46057 0.863075,-1.39004 0.39834,-2.07054 -0.04564,-0.0705 -0.09959,-0.13692 -0.161825,-0.19917"
         id="path1526" />
      <path
         inkscape:connector-curvature="0"
         style="fill:#008000;fill-opacity:1;fill-rule:evenodd;stroke:none;stroke-width:0.10933009"
         d="m 86.070148,131.42917 0.88797,-0.97095 0.190867,0.17427 -0.887964,0.97096 z"
         id="path1528" />
    </g>
  </g>
</svg>
