<?xml version="1.0"?><svg xmlns="http://www.w3.org/2000/svg" xmlns:xlink="http://www.w3.org/1999/xlink" viewBox="260.83 145.04 369.38 369.38" preserveAspectRatio="xMidYMid" width="100%" height="100%"><clipPath id="113357"><rect x="0.08" y="0.08" width="1020.31" height="1360.47" /></clipPath><g id="drawing"><rect x="260.83" y="145.04" width="100%" height="100%" fill="rgb(255, 255, 255)" /><g id="page" clip-path="url(#113357)"><g id="Oval"><circle cx="445.52" cy="329.73" r="182.99" stroke="rgb(0, 0, 0)" stroke-width="1.7" fill="rgb(255, 255, 255)" stroke-dasharray="0.45" /></g><g id="Oval"><circle cx="445.52" cy="329.73" r="162.86" stroke="rgb(0, 0, 0)" stroke-width="1.7" fill="rgb(255, 255, 255)" stroke-dasharray="0.45" /></g><g id="Spline"><path d="M386.41 235.13 C390.27 223.31 385.98 209.4 405.09 234.03 C424.2 258.67 423.15 233.46 430 221.47 C436.85 209.48 444.13 222.16 452.78 239.37 C461.43 256.58 471.02 228.88 475.81 221 " stroke="rgb(0, 0, 0)" stroke-width="4.25" fill-rule="evenodd" stroke-linejoin="bevel" fill="none" shape-rendering="geometricPrecision" /></g><g id="Spline"><path d="M485.45 231.79 C483.78 238.34 484.04 252.86 464.93 228.23 C445.82 203.59 446.88 228.8 440.03 240.79 C433.18 252.78 425.9 240.1 417.25 222.89 C408.6 205.68 395.59 236.16 390.79 244.04 " stroke="rgb(0, 0, 0)" stroke-width="4.25" fill-rule="evenodd" stroke-linejoin="bevel" fill="none" shape-rendering="geometricPrecision" /></g><g id="Oval"><circle cx="341.23" cy="359.14" r="29.26" stroke="rgb(0, 0, 0)" stroke-width="1.7" fill="rgb(255, 255, 255)" /></g><g id="Oval"><circle cx="372.79" cy="325.82" r="14.8" stroke="rgb(0, 0, 0)" stroke-width="1.7" fill="rgb(255, 255, 255)" /></g><g id="Oval"><circle cx="347.54" cy="319" r="9.47999999999998" stroke="rgb(0, 0, 0)" stroke-width="1.7" fill="rgb(255, 255, 255)" /></g><g id="Oval"><circle cx="310.57" cy="359.14" r="2.90999999999999" stroke="rgb(0, 0, 0)" stroke-width="1.7" fill="rgb(0, 0, 0)" /></g><g id="Oval"><circle cx="371.57" cy="360.81" r="2.90999999999999" stroke="rgb(0, 0, 0)" stroke-width="1.7" fill="rgb(0, 0, 0)" /></g><g id="Oval"><circle cx="378.23" cy="310.48" r="2.91999999999998" stroke="rgb(0, 0, 0)" stroke-width="1.7" fill="rgb(0, 0, 0)" /></g><g id="Oval"><circle cx="341.57" cy="389.81" r="2.90999999999999" stroke="rgb(0, 0, 0)" stroke-width="1.7" fill="rgb(0, 0, 0)" /></g><g id="Oval"><circle cx="342.9" cy="309.81" r="2.91000000000005" stroke="rgb(0, 0, 0)" stroke-width="1.7" fill="rgb(0, 0, 0)" /></g><g id="Oval"><circle cx="383.23" cy="337.48" r="2.91999999999998" stroke="rgb(0, 0, 0)" stroke-width="1.7" fill="rgb(0, 0, 0)" /></g><g id="Spline"><path d="M319.55 338.24 C319.08 338.61 324.27 337.89 318.86 336.5 " stroke="rgb(0, 0, 0)" stroke-width="1.13" fill-rule="evenodd" stroke-linejoin="bevel" fill="none" shape-rendering="geometricPrecision" /><path d="M325.54 333.52 L320.19 341.33 L319.55 338.24 L316.69 336.89 Z" stroke="rgb(0, 0, 0)" stroke-width="0" fill-rule="evenodd" stroke-linejoin="bevel" fill="rgb(0, 0, 0)" shape-rendering="geometricPrecision" /></g><g id="Spline"><path d="M480.96 342.81 C465.06 329.72 483.72 315.22 505.7 323.76 C527.69 332.31 555.44 350.04 530.93 349.66 C506.42 349.27 483.18 362.08 480.45 342.38 " stroke="rgb(191, 191, 191)" stroke-width="0.43" fill-rule="evenodd" stroke-linejoin="bevel" fill="rgb(191, 191, 191)" shape-rendering="geometricPrecision" /></g><g id="Spline"><path d="M528.2 320.7 C584.43 320.42 585.84 336.75 569.7 350.34 C553.56 363.93 535.46 358.96 547.35 345.8 C559.24 332.64 517.65 331.52 528.64 321.04 " stroke="rgb(191, 191, 191)" stroke-width="0.43" fill-rule="evenodd" stroke-linejoin="bevel" fill="rgb(191, 191, 191)" shape-rendering="geometricPrecision" /></g><g id="Arrow"><path d="M369.92 244.58 C353.93 247.61 341.3 262.61 341.02 278.88 " stroke="rgb(0, 0, 0)" stroke-width="1.7" fill-rule="evenodd" stroke-dasharray="0.45" stroke-linejoin="bevel" fill="none" shape-rendering="geometricPrecision" /><path d="M343 291.19 L344.92 273.77 C342.9 277.33 339.4 277.81 336.5 274.91 Z" stroke="rgb(0, 0, 0)" stroke-width="0" fill-rule="evenodd" stroke-linejoin="miter" stroke-miterlimit="21.3073792047333" fill="rgb(0, 0, 0)" shape-rendering="geometricPrecision" /></g><g id="Arrow"><path d="M420.31 360.89 C434.54 368.79 453.84 365.36 464.46 353.03 " stroke="rgb(0, 0, 0)" stroke-width="1.7" fill-rule="evenodd" stroke-dasharray="0.45" stroke-linejoin="bevel" fill="none" shape-rendering="geometricPrecision" /><path d="M410.65 353.02 L421.49 366.79 C420.43 362.84 422.6 360.04 426.69 360.07 Z" stroke="rgb(0, 0, 0)" stroke-width="0" fill-rule="evenodd" stroke-linejoin="miter" stroke-miterlimit="21.2979609184087" fill="rgb(0, 0, 0)" shape-rendering="geometricPrecision" /></g><g id="Arrow"><path d="M452.66 319.09 C438.43 311.18 419.13 314.61 408.5 326.94 " stroke="rgb(0, 0, 0)" stroke-width="1.7" fill-rule="evenodd" stroke-dasharray="0.45" stroke-linejoin="bevel" fill="none" shape-rendering="geometricPrecision" /><path d="M462.32 326.96 L451.49 313.19 C452.54 317.14 450.37 319.94 446.28 319.91 Z" stroke="rgb(0, 0, 0)" stroke-width="0" fill-rule="evenodd" stroke-linejoin="miter" stroke-miterlimit="21.2979609184084" fill="rgb(0, 0, 0)" shape-rendering="geometricPrecision" /></g><g id="Arrow"><path d="M384.01 301.34 C400 298.31 412.63 283.31 412.91 267.04 " stroke="rgb(0, 0, 0)" stroke-width="1.7" fill-rule="evenodd" stroke-dasharray="0.45" stroke-linejoin="bevel" fill="none" shape-rendering="geometricPrecision" /><path d="M410.93 254.73 L409.01 272.15 C411.03 268.59 414.53 268.11 417.43 271.01 Z" stroke="rgb(0, 0, 0)" stroke-width="0" fill-rule="evenodd" stroke-linejoin="miter" stroke-miterlimit="21.3073792047334" fill="rgb(0, 0, 0)" shape-rendering="geometricPrecision" /></g><g id="Arrow"><path d="M481.3 228.26 C491.36 231.35 502.05 225.7 505.15 215.64 C508.25 205.57 502.6 194.89 492.54 191.8 C482.48 188.71 471.79 194.36 468.69 204.42 C468.66 204.52 468.63 204.61 468.6 204.7 " stroke="rgb(0, 0, 0)" stroke-width="1.7" fill-rule="evenodd" stroke-dasharray="0.45" stroke-linejoin="bevel" fill="none" shape-rendering="geometricPrecision" /><path d="M469.22 217.14 L473.44 200.14 C470.96 203.4 467.43 203.41 464.94 200.16 Z" stroke="rgb(0, 0, 0)" stroke-width="0" fill-rule="evenodd" stroke-linejoin="miter" stroke-miterlimit="21.2766215652895" fill="rgb(0, 0, 0)" shape-rendering="geometricPrecision" /></g><g id="Arrow"><path d="M486.77 256.13 C475.51 269.04 475.53 289.99 486.81 302.88 " stroke="rgb(0, 0, 0)" stroke-width="1.7" fill-rule="evenodd" stroke-dasharray="0.45" stroke-linejoin="bevel" fill="none" shape-rendering="geometricPrecision" /><path d="M496.55 310.68 L486.27 296.46 C487.17 300.46 484.88 303.17 480.79 302.97 Z" stroke="rgb(0, 0, 0)" stroke-width="0" fill-rule="evenodd" stroke-linejoin="miter" stroke-miterlimit="21.3377772138165" fill="rgb(0, 0, 0)" shape-rendering="geometricPrecision" /></g><g id="Arrow"><path d="M532.83 306.8 C549.59 296.62 554.93 274.76 544.75 258 C540.97 251.78 535.24 246.78 528.57 243.87 " stroke="rgb(0, 0, 0)" stroke-width="1.7" fill-rule="evenodd" stroke-dasharray="0.45" stroke-linejoin="bevel" fill="none" shape-rendering="geometricPrecision" /><path d="M516.44 240.98 L531.8 249.44 C529.28 246.21 530.19 242.78 533.97 241.22 Z" stroke="rgb(0, 0, 0)" stroke-width="0" fill-rule="evenodd" stroke-linejoin="miter" stroke-miterlimit="21.3231174235058" fill="rgb(0, 0, 0)" shape-rendering="geometricPrecision" /></g><g id="Arrow"><path d="M356.84 440.43 C360.27 424.52 351.37 407.05 336.49 400.47 " stroke="rgb(0, 0, 0)" stroke-width="1.7" fill-rule="evenodd" stroke-dasharray="0.45" stroke-linejoin="bevel" fill="none" shape-rendering="geometricPrecision" /><path d="M352.12 451.96 L362.15 437.59 C358.67 439.75 355.36 438.49 354.2 434.56 Z" stroke="rgb(0, 0, 0)" stroke-width="0" fill-rule="evenodd" stroke-linejoin="miter" stroke-miterlimit="21.2979609184093" fill="rgb(0, 0, 0)" shape-rendering="geometricPrecision" /></g><g id="Arrow"><path d="M320.24 412.71 C317.41 426.91 324.18 442.39 336.53 449.94 " stroke="rgb(0, 0, 0)" stroke-width="1.7" fill-rule="evenodd" stroke-dasharray="0.45" stroke-linejoin="bevel" fill="none" shape-rendering="geometricPrecision" /><path d="M324.78 401.11 L314.98 415.63 C318.42 413.42 321.75 414.63 322.96 418.54 Z" stroke="rgb(0, 0, 0)" stroke-width="0" fill-rule="evenodd" stroke-linejoin="miter" stroke-miterlimit="21.2966174542329" fill="rgb(0, 0, 0)" shape-rendering="geometricPrecision" /></g><g id="Arrow"><path d="M588.54 387.26 C587.57 374.5 579.2 362.65 567.5 357.47 " stroke="rgb(0, 0, 0)" stroke-width="1.7" fill-rule="evenodd" stroke-dasharray="0.45" stroke-linejoin="bevel" fill="none" shape-rendering="geometricPrecision" /><path d="M587.06 400.44 L592.78 383.88 C590.19 386.14 586.47 385.81 584.31 383.13 Z" stroke="rgb(0, 0, 0)" stroke-width="0" fill-rule="evenodd" stroke-linejoin="miter" stroke-miterlimit="19.464335792983" fill="rgb(0, 0, 0)" shape-rendering="geometricPrecision" /></g><g id="Arrow"><path d="M544.94 373.64 C540.81 392.8 553.02 411.71 572.19 415.84 C575.68 416.59 579.29 416.81 582.85 416.49 " stroke="rgb(0, 0, 0)" stroke-width="1.7" fill-rule="evenodd" stroke-dasharray="0.45" stroke-linejoin="bevel" fill="none" shape-rendering="geometricPrecision" /><path d="M549.66 362.11 L539.64 376.48 C543.11 374.32 546.42 375.58 547.58 379.51 Z" stroke="rgb(0, 0, 0)" stroke-width="0" fill-rule="evenodd" stroke-linejoin="miter" stroke-miterlimit="21.2907147768433" fill="rgb(0, 0, 0)" shape-rendering="geometricPrecision" /></g><g id="Spline"><path d="M363.89 378.65 C364.32 378.23 359.23 379.49 364.75 380.31 " stroke="rgb(0, 0, 0)" stroke-width="1.13" fill-rule="evenodd" stroke-linejoin="bevel" fill="none" shape-rendering="geometricPrecision" /><path d="M358.43 383.98 L362.93 375.64 L363.89 378.65 L366.87 379.68 Z" stroke="rgb(0, 0, 0)" stroke-width="0" fill-rule="evenodd" stroke-linejoin="bevel" fill="rgb(0, 0, 0)" shape-rendering="geometricPrecision" /></g><g id="Spline"><path d="M338.73 324.31 C338.92 324.88 340.03 319.76 336.86 324.35 " stroke="rgb(0, 0, 0)" stroke-width="1.13" fill-rule="evenodd" stroke-linejoin="bevel" fill="none" shape-rendering="geometricPrecision" /><path d="M336.43 317.04 L341.85 324.81 L338.73 324.31 L336.46 326.51 Z" stroke="rgb(0, 0, 0)" stroke-width="0" fill-rule="evenodd" stroke-linejoin="bevel" fill="rgb(0, 0, 0)" shape-rendering="geometricPrecision" /></g><g id="Spline"><path d="M388.04 322.46 C388.01 321.86 385.57 326.5 389.85 322.92 " stroke="rgb(0, 0, 0)" stroke-width="1.13" fill-rule="evenodd" stroke-linejoin="bevel" fill="none" shape-rendering="geometricPrecision" /><path d="M388.29 330.08 L385.17 321.14 L388.04 322.46 L390.82 320.95 Z" stroke="rgb(0, 0, 0)" stroke-width="0" fill-rule="evenodd" stroke-linejoin="bevel" fill="rgb(0, 0, 0)" shape-rendering="geometricPrecision" /></g></g></g></svg>