<?xml version="1.0" encoding="UTF-8" standalone="no"?>
<!-- Created with Inkscape (http://www.inkscape.org/) -->

<svg
   xmlns:dc="http://purl.org/dc/elements/1.1/"
   xmlns:cc="http://creativecommons.org/ns#"
   xmlns:rdf="http://www.w3.org/1999/02/22-rdf-syntax-ns#"
   xmlns:svg="http://www.w3.org/2000/svg"
   xmlns="http://www.w3.org/2000/svg"
   xmlns:sodipodi="http://sodipodi.sourceforge.net/DTD/sodipodi-0.dtd"
   xmlns:inkscape="http://www.inkscape.org/namespaces/inkscape"
   width="94.351509mm"
   height="99.176735mm"
   viewBox="0 0 94.351509 99.176735"
   version="1.1"
   id="svg8"
   inkscape:version="0.92.4 (5da689c313, 2019-01-14)"
   sodipodi:docname="system.svg">
  <defs
     id="defs2">
    <pattern
       y="0"
       x="0"
       height="6"
       width="6"
       patternUnits="userSpaceOnUse"
       id="EMFhbasepattern" />
  </defs>
  <sodipodi:namedview
     id="base"
     pagecolor="#ffffff"
     bordercolor="#666666"
     borderopacity="1.0"
     inkscape:pageopacity="0.0"
     inkscape:pageshadow="2"
     inkscape:zoom="0.98994949"
     inkscape:cx="-25.269384"
     inkscape:cy="178.84917"
     inkscape:document-units="mm"
     inkscape:current-layer="layer1"
     showgrid="false"
     inkscape:window-width="1920"
     inkscape:window-height="986"
     inkscape:window-x="-11"
     inkscape:window-y="-11"
     inkscape:window-maximized="1" />
  <metadata
     id="metadata5">
    <rdf:RDF>
      <cc:Work
         rdf:about="">
        <dc:format>image/svg+xml</dc:format>
        <dc:type
           rdf:resource="http://purl.org/dc/dcmitype/StillImage" />
        <dc:title />
      </cc:Work>
    </rdf:RDF>
  </metadata>
  <g
     inkscape:label="Layer 1"
     inkscape:groupmode="layer"
     id="layer1"
     transform="translate(-67.729012,-127.2152)">
    <path
       id="path13"
       d="m 99.666531,151.79218 c -0.612539,0.50209 -0.893707,1.70709 -0.953958,2.90204 -0.02008,0.59246 -0.140583,2.0485 -0.18075,2.63092 -0.07029,0.71296 -0.391626,2.03846 -0.994124,2.64096 -0.592458,0.6025 0.592458,-0.0904 1.456042,-0.93388 0.652708,-0.64266 0.863584,-1.66691 0.933873,-2.42004 0.07029,-0.68283 0.08033,-1.88783 0.190796,-3.03258 0.0803,-0.79329 -0.0201,-1.47613 0.34141,-1.93804 0.6728,-0.8435 0.47196,-0.89371 -0.793289,0.15062"
       style="fill:none;stroke:#ff6347;stroke-width:0.04016666px;stroke-linecap:butt;stroke-linejoin:miter;stroke-miterlimit:2;stroke-dasharray:none;stroke-opacity:1"
       inkscape:connector-curvature="0" />
    <path
       id="path15"
       d="m 99.666531,151.79218 c -0.612539,0.50209 -0.893707,1.70709 -0.953958,2.90204 -0.02008,0.59246 -0.140583,2.0485 -0.18075,2.63092 -0.07029,0.71296 -0.391626,2.03846 -0.994124,2.64096 -0.592458,0.6025 0.592458,-0.0904 1.456042,-0.93388 0.652708,-0.64266 0.863584,-1.66691 0.933873,-2.42004 0.07029,-0.68283 0.08033,-1.88783 0.190796,-3.03258 0.0803,-0.79329 -0.0201,-1.47613 0.34141,-1.93804 0.6728,-0.8435 0.47196,-0.89371 -0.793289,0.15062 z"
       style="fill:#700000;fill-opacity:1;fill-rule:nonzero;stroke:#ff6347;stroke-width:0.26458332;stroke-opacity:1"
       inkscape:connector-curvature="0" />
    <path
       id="path17"
       d="m 88.098532,159.40377 c -0.622583,0.51212 -0.90375,1.70708 -0.953958,2.91208 -0.03013,0.59246 -0.140584,2.0485 -0.190792,2.63092 -0.06025,0.70291 -0.391625,2.02841 -0.994125,2.63091 -0.592458,0.6025 0.592458,-0.0803 1.456042,-0.93387 0.66275,-0.64267 0.863583,-1.66692 0.943916,-2.42004 0.06025,-0.6728 0.07029,-1.88784 0.18075,-3.02254 0.08033,-0.80334 -0.01004,-1.48617 0.351459,-1.93805 0.66275,-0.85354 0.461916,-0.90375 -0.793292,0.14059"
       style="fill:none;stroke:#ff6347;stroke-width:0.04016666px;stroke-linecap:butt;stroke-linejoin:miter;stroke-miterlimit:2;stroke-dasharray:none;stroke-opacity:1"
       inkscape:connector-curvature="0" />
    <path
       id="path19"
       d="m 88.098532,159.40377 c -0.622583,0.51212 -0.90375,1.70708 -0.953958,2.91208 -0.03013,0.59246 -0.140584,2.0485 -0.190792,2.63092 -0.06025,0.70291 -0.391625,2.02841 -0.994125,2.63091 -0.592458,0.6025 0.592458,-0.0803 1.456042,-0.93387 0.66275,-0.64267 0.863583,-1.66692 0.943916,-2.42004 0.06025,-0.6728 0.07029,-1.88784 0.18075,-3.02254 0.08033,-0.80334 -0.01004,-1.48617 0.351459,-1.93805 0.66275,-0.85354 0.461916,-0.90375 -0.793292,0.14059 z"
       style="fill:#700000;fill-opacity:1;fill-rule:nonzero;stroke:#ff6347;stroke-width:0.26458332;stroke-opacity:1"
       inkscape:connector-curvature="0" />
    <path
       id="path21"
       d="m 96.081657,154.15197 c -0.612542,0.50209 -0.893709,1.70709 -0.953958,2.90205 -0.03013,0.59245 -0.140583,2.0485 -0.190791,2.63091 -0.06025,0.71296 -0.381584,2.03846 -0.984083,2.64096 -0.602501,0.6025 0.592458,-0.0904 1.456039,-0.93387 0.652709,-0.64267 0.863584,-1.66692 0.933876,-2.42004 0.06025,-0.68284 0.07029,-1.88784 0.190791,-3.03259 0.08034,-0.79329 -0.02008,-1.47612 0.341418,-1.93804 0.672791,-0.8435 0.471959,-0.89371 -0.793292,0.15062"
       style="fill:none;stroke:#ff6347;stroke-width:0.04016666px;stroke-linecap:butt;stroke-linejoin:miter;stroke-miterlimit:2;stroke-dasharray:none;stroke-opacity:1"
       inkscape:connector-curvature="0" />
    <path
       id="path23"
       d="m 96.081657,154.15197 c -0.612542,0.50209 -0.893709,1.70709 -0.953958,2.90205 -0.03013,0.59245 -0.140583,2.0485 -0.190791,2.63091 -0.06025,0.71296 -0.381584,2.03846 -0.984083,2.64096 -0.602501,0.6025 0.592458,-0.0904 1.456039,-0.93387 0.652709,-0.64267 0.863584,-1.66692 0.933876,-2.42004 0.06025,-0.68284 0.07029,-1.88784 0.190791,-3.03259 0.08034,-0.79329 -0.02008,-1.47612 0.341418,-1.93804 0.672791,-0.8435 0.471959,-0.89371 -0.793292,0.15062 z"
       style="fill:#ff0000;fill-opacity:1;fill-rule:nonzero;stroke:#ff6347;stroke-width:0.26458332;stroke-opacity:1"
       inkscape:connector-curvature="0" />
    <path
       id="path25"
       d="m 97.407156,153.23818 c 0.71296,-0.37154 1.938044,-0.16066 3.072754,0.26109 0.56233,0.21087 1.95812,0.68283 2.52046,0.87362 0.68283,0.22092 2.0485,0.44183 2.83175,0.1205 0.79329,-0.32133 -0.30125,0.51213 -1.41588,0.98409 -0.8435,0.3615 -1.87779,0.15062 -2.61083,-0.0803 -0.65271,-0.21088 -1.78742,-0.68284 -2.892002,-1.02425 -0.773211,-0.25105 -1.375709,-0.6025 -1.938044,-0.45188 -1.044332,0.29121 -1.014206,0.0904 0.431792,-0.68283"
       style="fill:none;stroke:#ff6347;stroke-width:0.04016666px;stroke-linecap:butt;stroke-linejoin:miter;stroke-miterlimit:2;stroke-dasharray:none;stroke-opacity:1"
       inkscape:connector-curvature="0" />
    <path
       id="path27"
       d="m 97.407156,153.23818 c 0.71296,-0.37154 1.938044,-0.16066 3.072754,0.26109 0.56233,0.21087 1.95812,0.68283 2.52046,0.87362 0.68283,0.22092 2.0485,0.44183 2.83175,0.1205 0.79329,-0.32133 -0.30125,0.51213 -1.41588,0.98409 -0.8435,0.3615 -1.87779,0.15062 -2.61083,-0.0803 -0.65271,-0.21088 -1.78742,-0.68284 -2.892002,-1.02425 -0.773211,-0.25105 -1.375709,-0.6025 -1.938044,-0.45188 -1.044332,0.29121 -1.014206,0.0904 0.431792,-0.68283 z"
       style="fill:#b20000;fill-opacity:1;fill-rule:nonzero;stroke:#ff6347;stroke-width:0.26458332;stroke-opacity:1"
       inkscape:connector-curvature="0" />
    <path
       id="path29"
       d="m 84.503615,161.76356 c -0.612541,0.51212 -0.893708,1.70708 -0.953958,2.91208 -0.02008,0.59246 -0.140583,2.0485 -0.18075,2.63092 -0.06025,0.70292 -0.391625,2.02841 -0.994125,2.63091 -0.592458,0.6025 0.592458,-0.0803 1.456042,-0.93387 0.652708,-0.64267 0.863583,-1.66692 0.933875,-2.42004 0.07029,-0.67279 0.08033,-1.88783 0.190791,-3.02255 0.08033,-0.80333 -0.02008,-1.48616 0.341417,-1.93804 0.672792,-0.85354 0.471958,-0.90375 -0.793292,0.14059"
       style="fill:none;stroke:#840000;stroke-width:0.04016666px;stroke-linecap:butt;stroke-linejoin:miter;stroke-miterlimit:2;stroke-dasharray:none;stroke-opacity:1"
       inkscape:connector-curvature="0" />
    <path
       id="path31"
       d="m 84.503615,161.76356 c -0.612541,0.51212 -0.893708,1.70708 -0.953958,2.91208 -0.02008,0.59246 -0.140583,2.0485 -0.18075,2.63092 -0.06025,0.70292 -0.391625,2.02841 -0.994125,2.63091 -0.592458,0.6025 0.592458,-0.0803 1.456042,-0.93387 0.652708,-0.64267 0.863583,-1.66692 0.933875,-2.42004 0.07029,-0.67279 0.08033,-1.88783 0.190791,-3.02255 0.08033,-0.80333 -0.02008,-1.48616 0.341417,-1.93804 0.672792,-0.85354 0.471958,-0.90375 -0.793292,0.14059 z"
       style="fill:#840000;fill-opacity:1;fill-rule:nonzero;stroke:none;stroke-width:0.26458332"
       inkscape:connector-curvature="0" />
    <path
       id="path33"
       d="m 85.839157,160.85981 c 0.702917,-0.37154 1.928,-0.16067 3.062708,0.26108 0.562334,0.20083 1.968167,0.67279 2.520459,0.86358 0.682833,0.22092 2.048499,0.44184 2.83175,0.12051 0.793292,-0.32134 -0.301249,0.52216 -1.415875,0.99412 -0.8435,0.35146 -1.877792,0.14058 -2.610834,-0.0904 -0.652708,-0.21087 -1.787416,-0.68283 -2.892,-1.02425 -0.773208,-0.241 -1.365666,-0.6025 -1.938041,-0.44183 -1.034292,0.29121 -1.014209,0.0803 0.441833,-0.68284"
       style="fill:none;stroke:#ff6347;stroke-width:0.04016666px;stroke-linecap:butt;stroke-linejoin:miter;stroke-miterlimit:2;stroke-dasharray:none;stroke-opacity:1"
       inkscape:connector-curvature="0" />
    <path
       id="path35"
       d="m 85.839157,160.85981 c 0.702917,-0.37154 1.928,-0.16067 3.062708,0.26108 0.562334,0.20083 1.968167,0.67279 2.520459,0.86358 0.682833,0.22092 2.048499,0.44184 2.83175,0.12051 0.793292,-0.32134 -0.301249,0.52216 -1.415875,0.99412 -0.8435,0.35146 -1.877792,0.14058 -2.610834,-0.0904 -0.652708,-0.21087 -1.787416,-0.68283 -2.892,-1.02425 -0.773208,-0.241 -1.365666,-0.6025 -1.938041,-0.44183 -1.034292,0.29121 -1.014209,0.0803 0.441833,-0.68284 z"
       style="fill:#b20000;fill-opacity:1;fill-rule:nonzero;stroke:#ff6347;stroke-width:0.26458332;stroke-opacity:1"
       inkscape:connector-curvature="0" />
    <path
       id="path37"
       d="m 101.00207,150.87839 c 0.70292,-0.37154 1.928,-0.16067 3.06271,0.26108 0.56233,0.21088 1.96817,0.68284 2.52046,0.87363 0.68283,0.22092 2.0485,0.44183 2.83175,0.1205 0.79329,-0.32133 -0.30125,0.51212 -1.41587,0.98408 -0.8435,0.3615 -1.87779,0.15063 -2.61084,-0.0803 -0.6527,-0.21087 -1.78742,-0.68283 -2.892,-1.02425 -0.77321,-0.25104 -1.36566,-0.6025 -1.93804,-0.44183 -1.044334,0.28117 -1.014208,0.0803 0.44183,-0.69288"
       style="fill:none;stroke:#930000;stroke-width:0.04016666px;stroke-linecap:butt;stroke-linejoin:miter;stroke-miterlimit:2;stroke-dasharray:none;stroke-opacity:1"
       inkscape:connector-curvature="0" />
    <path
       id="path39"
       d="m 101.00207,150.87839 c 0.70292,-0.37154 1.928,-0.16067 3.06271,0.26108 0.56233,0.21088 1.96817,0.68284 2.52046,0.87363 0.68283,0.22092 2.0485,0.44183 2.83175,0.1205 0.79329,-0.32133 -0.30125,0.51212 -1.41587,0.98408 -0.8435,0.3615 -1.87779,0.15063 -2.61084,-0.0803 -0.6527,-0.21087 -1.78742,-0.68283 -2.892,-1.02425 -0.77321,-0.25104 -1.36566,-0.6025 -1.93804,-0.44183 -1.044334,0.28117 -1.014208,0.0803 0.44183,-0.69288 z"
       style="fill:#930000;fill-opacity:1;fill-rule:nonzero;stroke:none;stroke-width:0.26458332"
       inkscape:connector-curvature="0" />
    <path
       id="path41"
       d="m 89.424032,158.50002 c 0.702917,-0.37155 1.928,-0.16067 3.072751,0.26108 0.552291,0.20083 1.958123,0.67279 2.520458,0.86358 0.67279,0.22092 2.038459,0.44184 2.831748,0.1205 0.783251,-0.32133 -0.31129,0.52217 -1.425916,0.99413 -0.8435,0.35146 -1.87779,0.14058 -2.600791,-0.0904 -0.662749,-0.21088 -1.787417,-0.68284 -2.902042,-1.02425 -0.773208,-0.241 -1.365666,-0.6025 -1.928,-0.44184 -1.044333,0.29121 -1.02425,0.0803 0.431792,-0.68283"
       style="fill:none;stroke:#ff6347;stroke-width:0.04016666px;stroke-linecap:butt;stroke-linejoin:miter;stroke-miterlimit:2;stroke-dasharray:none;stroke-opacity:1"
       inkscape:connector-curvature="0" />
    <path
       id="path43"
       d="m 89.424032,158.50002 c 0.702917,-0.37155 1.928,-0.16067 3.072751,0.26108 0.552291,0.20083 1.958123,0.67279 2.520458,0.86358 0.67279,0.22092 2.038459,0.44184 2.831748,0.1205 0.783251,-0.32133 -0.31129,0.52217 -1.425916,0.99413 -0.8435,0.35146 -1.87779,0.14058 -2.600791,-0.0904 -0.662749,-0.21088 -1.787417,-0.68284 -2.902042,-1.02425 -0.773208,-0.241 -1.365666,-0.6025 -1.928,-0.44184 -1.044333,0.29121 -1.02425,0.0803 0.431792,-0.68283 z"
       style="fill:#930000;fill-opacity:1;fill-rule:nonzero;stroke:#ff6347;stroke-width:0.26458332;stroke-opacity:1"
       inkscape:connector-curvature="0" />
    <path
       id="path45"
       d="m 88.972157,159.21297 c 0,0 1.074458,1.6368 1.757292,2.67109"
       style="fill:none;stroke:#ff6347;stroke-width:0.19079167px;stroke-linecap:butt;stroke-linejoin:miter;stroke-miterlimit:2;stroke-dasharray:none;stroke-opacity:1"
       inkscape:connector-curvature="0" />
    <path
       id="path47"
       d="m 90.829865,159.57447 c 0,0 1.074459,1.62676 1.757292,2.66105"
       style="fill:none;stroke:#ff6347;stroke-width:0.19079167px;stroke-linecap:butt;stroke-linejoin:miter;stroke-miterlimit:2;stroke-dasharray:none;stroke-opacity:1"
       inkscape:connector-curvature="0" />
    <path
       id="path49"
       d="m 92.767907,160.18702 c 0,0 0.823418,1.2552 1.355624,2.05854"
       style="fill:none;stroke:#ff6347;stroke-width:0.19079167px;stroke-linecap:butt;stroke-linejoin:miter;stroke-miterlimit:2;stroke-dasharray:none;stroke-opacity:1"
       inkscape:connector-curvature="0" />
    <path
       id="path51"
       d="m 96.322658,157.84731 c 0,0 0.823415,1.25521 1.345581,2.0485"
       style="fill:none;stroke:#ff6347;stroke-width:0.19079167px;stroke-linecap:butt;stroke-linejoin:miter;stroke-miterlimit:2;stroke-dasharray:none;stroke-opacity:1"
       inkscape:connector-curvature="0" />
    <path
       id="path53"
       d="m 96.583741,155.78877 c 0,0 1.074457,1.62675 1.757291,2.66104"
       style="fill:none;stroke:#ff6347;stroke-width:0.19079167px;stroke-linecap:butt;stroke-linejoin:miter;stroke-miterlimit:2;stroke-dasharray:none;stroke-opacity:1"
       inkscape:connector-curvature="0" />
    <path
       id="path55"
       d="m 96.945241,153.93106 c 0,0 1.074457,1.62675 1.74725,2.66104"
       style="fill:none;stroke:#ff6347;stroke-width:0.19079167px;stroke-linecap:butt;stroke-linejoin:miter;stroke-miterlimit:2;stroke-dasharray:none;stroke-opacity:1"
       inkscape:connector-curvature="0" />
    <path
       id="path57"
       d="m 100.58032,151.58131 c 0,0 1.07446,1.62675 1.7573,2.66104"
       style="fill:none;stroke:#ff6347;stroke-width:0.19079167px;stroke-linecap:butt;stroke-linejoin:miter;stroke-miterlimit:2;stroke-dasharray:none;stroke-opacity:1"
       inkscape:connector-curvature="0" />
    <path
       id="path59"
       d="m 102.43803,151.93277 c 0,0 1.07446,1.62675 1.7573,2.66104"
       style="fill:none;stroke:#ff6347;stroke-width:0.19079167px;stroke-linecap:butt;stroke-linejoin:miter;stroke-miterlimit:2;stroke-dasharray:none;stroke-opacity:1"
       inkscape:connector-curvature="0" />
    <path
       id="path61"
       d="m 104.37608,152.55535 c 0,0 0.83345,1.25521 1.35562,2.0485"
       style="fill:none;stroke:#ff6347;stroke-width:0.19079167px;stroke-linecap:butt;stroke-linejoin:miter;stroke-miterlimit:2;stroke-dasharray:none;stroke-opacity:1"
       inkscape:connector-curvature="0" />
    <path
       id="path63"
       d="m 84.744615,165.46893 c 0,0 0.823417,1.24517 1.345584,2.03846"
       style="fill:none;stroke:#ff6347;stroke-width:0.19079167px;stroke-linecap:butt;stroke-linejoin:miter;stroke-miterlimit:2;stroke-dasharray:none;stroke-opacity:1"
       inkscape:connector-curvature="0" />
    <path
       id="path65"
       d="m 85.005699,163.40035 c 0,0 1.074458,1.62675 1.757291,2.66104"
       style="fill:none;stroke:#ff6347;stroke-width:0.19079167px;stroke-linecap:butt;stroke-linejoin:miter;stroke-miterlimit:2;stroke-dasharray:none;stroke-opacity:1"
       inkscape:connector-curvature="0" />
    <path
       id="path67"
       d="m 85.367199,161.54264 c 0,0 1.074458,1.62675 1.74725,2.66104"
       style="fill:none;stroke:#ff6347;stroke-width:0.19079167px;stroke-linecap:butt;stroke-linejoin:miter;stroke-miterlimit:2;stroke-dasharray:none;stroke-opacity:1"
       inkscape:connector-curvature="0" />
    <path
       id="path69"
       d="m 149.51336,163.89239 c 0,9.52954 -7.72204,17.25158 -17.25158,17.25158 -9.5195,0 -17.24154,-7.72204 -17.24154,-17.25158 0,-9.5195 7.72204,-17.24154 17.24154,-17.24154 9.52954,0 17.25158,7.72204 17.25158,17.24154"
       style="fill:none;stroke:#7eb67e;stroke-width:1.8075px;stroke-linecap:butt;stroke-linejoin:miter;stroke-miterlimit:2;stroke-dasharray:none;stroke-opacity:1"
       inkscape:connector-curvature="0" />
    <path
       id="path71"
       d="m 132.32203,194.41906 c 0,9.52954 -7.72204,17.25158 -17.25158,17.25158 -9.5195,0 -17.241543,-7.72204 -17.241543,-17.25158 0,-9.5195 7.722043,-17.24154 17.241543,-17.24154 9.52954,0 17.25158,7.72204 17.25158,17.24154"
       style="fill:none;stroke:#c283ff;stroke-width:1.8075px;stroke-linecap:butt;stroke-linejoin:miter;stroke-miterlimit:2;stroke-dasharray:none;stroke-opacity:1"
       inkscape:connector-curvature="0" />
    <path
       id="path73"
       d="m 121.44691,160.4481 0.31129,-0.723 0.34142,-0.68284 0.3615,-0.63262 0.39162,-0.58242 0.41171,-0.5322 0.86358,-0.92384 0.45188,-0.38158 0.47196,-0.34142 0.482,-0.29121 0.48199,-0.24099 0.49205,-0.20084 0.49204,-0.15062 0.49204,-0.10042 0.49204,-0.0602 0.49204,-0.01 0.482,0.0402 0.47196,0.0703 0.46192,0.13054 0.45187,0.16067 0.4318,0.21087 0.42175,0.26108 0.40166,0.29121 0.37154,0.34142 0.35146,0.38158 0.33138,0.4318 0.30125,0.46191 0.26108,0.51213 0.241,0.54225 0.20083,0.59246 0.16067,0.63262 0.1205,0.67279 0.0502,0.39163 0.0803,0.78325 0.0602,0.65271 0.01,1.27529 -0.0502,0.23096 -0.0703,0.14058 -0.0904,0.0602 -0.11046,-0.01 -0.14058,-0.0703 -0.15063,-0.13054 -0.1707,-0.17071 -0.20084,-0.22092 -0.21087,-0.241 -0.22092,-0.27113 -0.25104,-0.28116 -0.26108,-0.29121 -0.27113,-0.28117 -0.6025,-0.54225 -0.32133,-0.241 -0.33138,-0.20083 -0.34142,-0.16067 -0.35145,-0.1205 -0.3615,-0.0602 -0.38159,0.01 -0.38158,0.0803 -0.18075,0.0602 -0.76317,0.29121 -0.7732,0.27113 -0.77321,0.23096 -0.75313,0.21087 -0.74308,0.16067 -0.69288,0.11045 -0.65271,0.0703 H 122.953 l -0.51213,-0.0602 -0.43179,-0.1205 -0.33137,-0.21087 -0.21088,-0.28117 -0.10041,-0.37154 0.0402,-0.46192 0.0402,-0.16066 z"
       style="fill:#b3d9b3;fill-opacity:1;fill-rule:evenodd;stroke:none;stroke-width:0.26458332"
       inkscape:connector-curvature="0" />
    <path
       id="path75"
       d="m 121.44691,160.4481 c 3.23341,-8.22413 11.6885,-7.471 12.54204,0.27112 0.86358,7.74213 -1.71713,-1.43595 -5.302,0 -3.58488,1.43596 -7.99317,2.25938 -7.24004,-0.32133"
       style="fill:none;stroke:#008000;stroke-width:0.65270835px;stroke-linecap:butt;stroke-linejoin:miter;stroke-miterlimit:2;stroke-dasharray:none;stroke-opacity:1"
       inkscape:connector-curvature="0" />
    <path
       id="path77"
       d="m 122.31049,168.19023 1.02425,-0.23096 0.98408,-0.33138 0.92384,-0.42175 0.86358,-0.482 0.78325,-0.50208 0.69287,-0.51213 0.60251,-0.49204 0.51212,-0.45187 0.38159,-0.37155 0.27112,-0.27112 0.14058,-0.15062 0.0201,-0.0301 -0.0201,0.0703 -0.0603,0.20083 -0.0803,0.30125 -0.0803,0.39162 -0.0703,0.45188 -0.0502,0.50208 -0.01,0.53221 0.0402,0.53221 0.11046,0.52216 0.19079,0.49205 0.29121,0.43179 0.41171,0.35146 0.53221,0.27112 0.68283,0.15063 0.83346,0.01 0.83346,-0.10042 0.68283,-0.0904 0.56233,0.01 0.45188,0.0803 0.34142,0.16067 0.25104,0.21087 0.16066,0.27113 0.0803,0.32133 v 0.35146 l -0.0602,0.38158 -0.13054,0.39163 -0.18075,0.41171 -0.23096,0.40166 -0.27112,0.39163 -0.30125,0.38158 -0.33138,0.34142 -0.34141,0.32133 -0.3615,0.26108 -0.3615,0.21088 -0.3615,0.15062 -0.35146,0.0703 h -0.33138 l -0.31129,-0.10041 -0.22091,-0.15063 -0.3615,-0.26108 -0.45188,-0.29121 -0.54225,-0.31129 -0.6025,-0.32133 -0.66275,-0.33138 -0.69287,-0.34142 -1.45605,-0.69287 -0.73304,-0.35146 -0.70292,-0.34142 -0.67279,-0.32133 -0.63262,-0.32133 -0.56234,-0.30125 -0.48199,-0.28117 -0.39163,-0.26108 -0.29121,-0.241 -0.16066,-0.20084 -0.0301,-0.1707 0.13054,-0.14059 0.28116,-0.10042 h 0.0402 z"
       style="fill:#b3d9b3;fill-opacity:1;fill-rule:evenodd;stroke:none;stroke-width:0.26458332"
       inkscape:connector-curvature="0" />
    <path
       id="path79"
       d="m 122.31049,168.19023 c 4.02671,-0.64267 7.19987,-4.24763 7.19987,-4.24763 0,0 -2.08866,6.13546 3.55476,5.11121 5.64341,-1.02425 0.42175,6.507 -1.61671,4.77983 -2.03846,-1.71712 -11.60817,-5.10117 -8.97725,-5.58317"
       style="fill:none;stroke:#008000;stroke-width:0.65270835px;stroke-linecap:butt;stroke-linejoin:miter;stroke-miterlimit:2;stroke-dasharray:none;stroke-opacity:1"
       inkscape:connector-curvature="0" />
    <path
       id="path81"
       d="m 135.90691,165.34843 -0.0201,-0.68283 v -0.64267 l 0.0301,-0.6025 0.17071,-1.07446 0.15062,-0.45187 0.19079,-0.39163 0.25104,-0.33137 0.3113,-0.241 0.37154,-0.17071 0.43179,-0.0703 0.50208,0.01 0.58242,0.1205 0.66275,0.23096 0.74308,0.34142 0.83346,0.46191 0.59246,0.37155 0.78325,0.56233 0.59246,0.52217 0.40166,0.50208 0.24101,0.46192 0.10041,0.43179 -0.0301,0.40166 -0.14058,0.38159 -0.23096,0.34141 -0.30125,0.33138 -0.3615,0.29121 -0.40167,0.28116 -0.41171,0.25104 -0.42175,0.23096 -0.39162,0.21088 -0.37154,0.19079 -0.31129,0.17071 -0.25105,0.16067 -0.10041,0.0803 -0.37155,0.19079 -0.49204,0.0402 -0.57237,-0.10042 -0.61254,-0.241 -0.6025,-0.37154 -0.56234,-0.482 -0.482,-0.58242 -0.34141,-0.67279 -0.16067,-0.62258 z"
       style="fill:#b3d9b3;fill-opacity:1;fill-rule:evenodd;stroke:none;stroke-width:0.26458332"
       inkscape:connector-curvature="0" />
    <path
       id="path83"
       d="m 135.90691,165.34843 c -0.21088,-3.81583 0.59246,-6.507 5.80408,-3.12296 5.22167,3.38405 -0.74308,5.00075 -1.60667,5.80409 -0.86358,0.81337 -3.87608,-0.53221 -4.19741,-2.84179"
       style="fill:none;stroke:#008000;stroke-width:0.65270835px;stroke-linecap:butt;stroke-linejoin:miter;stroke-miterlimit:2;stroke-dasharray:none;stroke-opacity:1"
       inkscape:connector-curvature="0" />
    <path
       id="path85"
       d="m 101.62466,193.4651 v 0.46192 h 17.593 v -0.46192 z"
       style="fill:#8000ff;fill-opacity:1;fill-rule:evenodd;stroke:none;stroke-width:0.26458332"
       inkscape:connector-curvature="0" />
    <path
       id="path87"
       d="m 111.35503,183.17239 v 20.20383 h 0.47196 v -20.20383 z"
       style="fill:#8000ff;fill-opacity:1;fill-rule:evenodd;stroke:none;stroke-width:0.26458332"
       inkscape:connector-curvature="0" />
    <path
       id="path89"
       d="m 108.61366,199.0081 v 0.46192 h 18.075 v -0.46192 z"
       style="fill:#8000ff;fill-opacity:1;fill-rule:evenodd;stroke:none;stroke-width:0.26458332"
       inkscape:connector-curvature="0" />
    <path
       id="path91"
       d="m 122.8427,195.30273 v 3.53466 h 0.47196 v -3.53466 z"
       style="fill:#8000ff;fill-opacity:1;fill-rule:evenodd;stroke:none;stroke-width:0.26458332"
       inkscape:connector-curvature="0" />
    <path
       id="path93"
       d="m 121.70799,196.75877 v 0.46191 h 5.38233 v -0.46191 z"
       style="fill:#8000ff;fill-opacity:1;fill-rule:evenodd;stroke:none;stroke-width:0.26458332"
       inkscape:connector-curvature="0" />
    <path
       id="path95"
       d="m 120.9147,184.77906 v 5.302 h 0.47196 v -5.302 z"
       style="fill:#8000ff;fill-opacity:1;fill-rule:evenodd;stroke:none;stroke-width:0.26458332"
       inkscape:connector-curvature="0" />
    <path
       id="path97"
       d="m 114.95999,186.79743 v 0.46192 h 13.41567 v -0.46192 z"
       style="fill:#8000ff;fill-opacity:1;fill-rule:evenodd;stroke:none;stroke-width:0.26458332"
       inkscape:connector-curvature="0" />
    <path
       id="path99"
       d="m 126.29703,188.47439 v 15.26333 h 0.47196 v -15.26333 z"
       style="fill:#8000ff;fill-opacity:1;fill-rule:evenodd;stroke:none;stroke-width:0.26458332"
       inkscape:connector-curvature="0" />
    <path
       id="path101"
       d="m 114.59849,202.46243 v 0.46192 h 6.11538 v -0.46192 z"
       style="fill:#8000ff;fill-opacity:1;fill-rule:evenodd;stroke:none;stroke-width:0.26458332"
       inkscape:connector-curvature="0" />
    <path
       id="path103"
       d="m 117.13903,200.84573 v 6.82833 h 0.47196 v -6.82833 z"
       style="fill:#8000ff;fill-opacity:1;fill-rule:evenodd;stroke:none;stroke-width:0.26458332"
       inkscape:connector-curvature="0" />
    <path
       id="path105"
       d="m 103.16103,188.07272 v 13.49601 h 0.47196 v -13.49601 z"
       style="fill:#8000ff;fill-opacity:1;fill-rule:evenodd;stroke:none;stroke-width:0.26458332"
       inkscape:connector-curvature="0" />
    <path
       id="path107"
       d="m 109.09566,206.7201 v 0.46192 h 15.665 v -0.46192 z"
       style="fill:#8000ff;fill-opacity:1;fill-rule:evenodd;stroke:none;stroke-width:0.26458332"
       inkscape:connector-curvature="0" />
    <path
       id="path109"
       d="m 107.56932,184.38743 v 0.46192 h 12.69267 v -0.46192 z"
       style="fill:#8000ff;fill-opacity:1;fill-rule:evenodd;stroke:none;stroke-width:0.26458332"
       inkscape:connector-curvature="0" />
    <path
       id="path111"
       d="m 115.45203,178.75406 v 8.3145 h 0.47196 v -8.3145 z"
       style="fill:#8000ff;fill-opacity:1;fill-rule:evenodd;stroke:none;stroke-width:0.26458332"
       inkscape:connector-curvature="0" />
    <path
       id="path113"
       d="m 99.696657,190.8141 v 0.46192 h 9.559673 v -0.46192 z"
       style="fill:#8000ff;fill-opacity:1;fill-rule:evenodd;stroke:none;stroke-width:0.26458332"
       inkscape:connector-curvature="0" />
    <path
       id="path115"
       d="m 114.8897,203.33606 v 6.507 h 0.47196 v -6.507 z"
       style="fill:#8000ff;fill-opacity:1;fill-rule:evenodd;stroke:none;stroke-width:0.26458332"
       inkscape:connector-curvature="0" />
    <path
       id="path117"
       d="m 117.36999,191.37643 v 0.46192 h 9.25842 v -0.46192 z"
       style="fill:#8000ff;fill-opacity:1;fill-rule:evenodd;stroke:none;stroke-width:0.26458332"
       inkscape:connector-curvature="0" />
    <path
       id="path119"
       d="m 114.55832,192.42077 v 0.46191 h 9.25842 v -0.46191 z"
       style="fill:#8000ff;fill-opacity:1;fill-rule:evenodd;stroke:none;stroke-width:0.26458332"
       inkscape:connector-curvature="0" />
    <path
       id="path121"
       d="m 113.12237,192.89272 v 2.81167 h 0.47196 v -2.81167 z"
       style="fill:#8000ff;fill-opacity:1;fill-rule:evenodd;stroke:none;stroke-width:0.26458332"
       inkscape:connector-curvature="0" />
    <path
       id="path123"
       d="m 116.01437,191.36639 v 7.953 h 0.47195 v -7.953 z"
       style="fill:#8000ff;fill-opacity:1;fill-rule:evenodd;stroke:none;stroke-width:0.26458332"
       inkscape:connector-curvature="0" />
    <path
       id="path125"
       d="m 108.45299,188.14302 v 0.46191 h 18.15533 v -0.46191 z"
       style="fill:#8000ff;fill-opacity:1;fill-rule:evenodd;stroke:none;stroke-width:0.26458332"
       inkscape:connector-curvature="0" />
    <path
       id="path127"
       d="m 106.19361,187.94218 v 17.48254 h 0.46192 v -17.48254 z"
       style="fill:#8000ff;fill-opacity:1;fill-rule:evenodd;stroke:none;stroke-width:0.26458332"
       inkscape:connector-curvature="0" />
    <path
       id="path129"
       d="m 102.02632,197.02989 v 0.46192 h 2.47025 v -0.46192 z"
       style="fill:#8000ff;fill-opacity:1;fill-rule:evenodd;stroke:none;stroke-width:0.26458332"
       inkscape:connector-curvature="0" />
    <path
       id="path131"
       d="m 105.46057,200.77543 v 0.46192 h 2.99242 v -0.46192 z"
       style="fill:#8000ff;fill-opacity:1;fill-rule:evenodd;stroke:none;stroke-width:0.26458332"
       inkscape:connector-curvature="0" />
    <path
       id="path133"
       d="m 104.26562,196.08597 v 7.06934 h 0.46191 v -7.06934 z"
       style="fill:#8000ff;fill-opacity:1;fill-rule:evenodd;stroke:none;stroke-width:0.26458332"
       inkscape:connector-curvature="0" />
    <path
       id="path135"
       d="m 103.74345,202.06077 v 0.46191 h 7.92288 v -0.46191 z"
       style="fill:#8000ff;fill-opacity:1;fill-rule:evenodd;stroke:none;stroke-width:0.26458332"
       inkscape:connector-curvature="0" />
    <path
       id="path137"
       d="m 104.1652,193.64585 c 0,0.41171 -0.33138,0.74308 -0.74309,0.74308 -0.4117,0 -0.74308,-0.33137 -0.74308,-0.74308 0,-0.41171 0.33138,-0.74308 0.74308,-0.74308 0.41171,0 0.74309,0.33137 0.74309,0.74308 z"
       style="fill:#800080;fill-opacity:1;fill-rule:evenodd;stroke:none;stroke-width:0.26458332"
       inkscape:connector-curvature="0" />
    <path
       id="path139"
       d="m 107.1777,193.64585 c 0,0.41171 -0.33138,0.74308 -0.74308,0.74308 -0.41171,0 -0.74309,-0.33137 -0.74309,-0.74308 0,-0.41171 0.33138,-0.74308 0.74309,-0.74308 0.4117,0 0.74308,0.33137 0.74308,0.74308 z"
       style="fill:#800080;fill-opacity:1;fill-rule:evenodd;stroke:none;stroke-width:0.26458332"
       inkscape:connector-curvature="0" />
    <path
       id="path141"
       d="m 112.31903,193.64585 c 0,0.41171 -0.33137,0.74308 -0.74308,0.74308 -0.41171,0 -0.74308,-0.33137 -0.74308,-0.74308 0,-0.41171 0.33137,-0.74308 0.74308,-0.74308 0.41171,0 0.74308,0.33137 0.74308,0.74308 z"
       style="fill:#800080;fill-opacity:1;fill-rule:evenodd;stroke:none;stroke-width:0.26458332"
       inkscape:connector-curvature="0" />
    <path
       id="path143"
       d="m 114.12653,193.56552 c 0,0.4117 -0.33137,0.74308 -0.74308,0.74308 -0.41171,0 -0.74309,-0.33138 -0.74309,-0.74308 0,-0.41171 0.33138,-0.74309 0.74309,-0.74309 0.41171,0 0.74308,0.33138 0.74308,0.74309 z"
       style="fill:#800080;fill-opacity:1;fill-rule:evenodd;stroke:none;stroke-width:0.26458332"
       inkscape:connector-curvature="0" />
    <path
       id="path145"
       d="m 116.97836,193.64585 c 0,0.41171 -0.33137,0.74308 -0.74308,0.74308 -0.41171,0 -0.74308,-0.33137 -0.74308,-0.74308 0,-0.41171 0.33137,-0.74308 0.74308,-0.74308 0.41171,0 0.74308,0.33137 0.74308,0.74308 z"
       style="fill:#800080;fill-opacity:1;fill-rule:evenodd;stroke:none;stroke-width:0.26458332"
       inkscape:connector-curvature="0" />
    <path
       id="path147"
       d="m 119.9507,193.64585 c 0,0.41171 -0.33138,0.74308 -0.74308,0.74308 -0.41171,0 -0.74309,-0.33137 -0.74309,-0.74308 0,-0.41171 0.33138,-0.74308 0.74309,-0.74308 0.4117,0 0.74308,0.33137 0.74308,0.74308 z"
       style="fill:#800080;fill-opacity:1;fill-rule:evenodd;stroke:none;stroke-width:0.26458332"
       inkscape:connector-curvature="0" />
    <path
       id="path149"
       d="m 123.88703,197.01985 c 0,0.41171 -0.33137,0.74308 -0.74308,0.74308 -0.41171,0 -0.74308,-0.33137 -0.74308,-0.74308 0,-0.41171 0.33137,-0.74308 0.74308,-0.74308 0.41171,0 0.74308,0.33137 0.74308,0.74308 z"
       style="fill:#800080;fill-opacity:1;fill-rule:evenodd;stroke:none;stroke-width:0.26458332"
       inkscape:connector-curvature="0" />
    <path
       id="path151"
       d="m 127.38153,197.01985 c 0,0.41171 -0.33137,0.74308 -0.74308,0.74308 -0.41171,0 -0.74308,-0.33137 -0.74308,-0.74308 0,-0.41171 0.33137,-0.74308 0.74308,-0.74308 0.41171,0 0.74308,0.33137 0.74308,0.74308 z"
       style="fill:#800080;fill-opacity:1;fill-rule:evenodd;stroke:none;stroke-width:0.26458332"
       inkscape:connector-curvature="0" />
    <path
       id="path153"
       d="m 121.95903,197.01985 c 0,0.41171 -0.33137,0.74308 -0.74308,0.74308 -0.41171,0 -0.74309,-0.33137 -0.74309,-0.74308 0,-0.41171 0.33138,-0.74308 0.74309,-0.74308 0.41171,0 0.74308,0.33137 0.74308,0.74308 z"
       style="fill:#800080;fill-opacity:1;fill-rule:evenodd;stroke:none;stroke-width:0.26458332"
       inkscape:connector-curvature="0" />
    <path
       id="path155"
       d="m 123.88703,195.17218 c 0,0.41171 -0.33137,0.74308 -0.74308,0.74308 -0.41171,0 -0.74308,-0.33137 -0.74308,-0.74308 0,-0.4117 0.33137,-0.74308 0.74308,-0.74308 0.41171,0 0.74308,0.33138 0.74308,0.74308 z"
       style="fill:#800080;fill-opacity:1;fill-rule:evenodd;stroke:none;stroke-width:0.26458332"
       inkscape:connector-curvature="0" />
    <path
       id="path157"
       d="m 123.88703,199.10852 c 0,0.4117 -0.33137,0.74308 -0.74308,0.74308 -0.41171,0 -0.74308,-0.33138 -0.74308,-0.74308 0,-0.41171 0.33137,-0.74309 0.74308,-0.74309 0.41171,0 0.74308,0.33138 0.74308,0.74309 z"
       style="fill:#800080;fill-opacity:1;fill-rule:evenodd;stroke:none;stroke-width:0.26458332"
       inkscape:connector-curvature="0" />
    <path
       id="path159"
       d="m 117.01853,199.10852 c 0,0.4117 -0.33137,0.74308 -0.74308,0.74308 -0.41171,0 -0.74308,-0.33138 -0.74308,-0.74308 0,-0.41171 0.33137,-0.74309 0.74308,-0.74309 0.41171,0 0.74308,0.33138 0.74308,0.74309 z"
       style="fill:#800080;fill-opacity:1;fill-rule:evenodd;stroke:none;stroke-width:0.26458332"
       inkscape:connector-curvature="0" />
    <path
       id="path161"
       d="m 109.14586,199.10852 c 0,0.4117 -0.33137,0.74308 -0.74308,0.74308 -0.41171,0 -0.74308,-0.33138 -0.74308,-0.74308 0,-0.41171 0.33137,-0.74309 0.74308,-0.74309 0.41171,0 0.74308,0.33138 0.74308,0.74309 z"
       style="fill:#800080;fill-opacity:1;fill-rule:evenodd;stroke:none;stroke-width:0.26458332"
       inkscape:connector-curvature="0" />
    <path
       id="path163"
       d="m 112.39937,199.10852 c 0,0.4117 -0.33138,0.74308 -0.74309,0.74308 -0.41171,0 -0.74308,-0.33138 -0.74308,-0.74308 0,-0.41171 0.33137,-0.74309 0.74308,-0.74309 0.41171,0 0.74309,0.33138 0.74309,0.74309 z"
       style="fill:#800080;fill-opacity:1;fill-rule:evenodd;stroke:none;stroke-width:0.26458332"
       inkscape:connector-curvature="0" />
    <path
       id="path165"
       d="m 112.39937,203.60718 c 0,0.41171 -0.33138,0.74309 -0.74309,0.74309 -0.41171,0 -0.74308,-0.33138 -0.74308,-0.74309 0,-0.41171 0.33137,-0.74308 0.74308,-0.74308 0.41171,0 0.74309,0.33137 0.74309,0.74308 z"
       style="fill:#800080;fill-opacity:1;fill-rule:evenodd;stroke:none;stroke-width:0.26458332"
       inkscape:connector-curvature="0" />
    <path
       id="path167"
       d="m 112.39937,201.92018 c 0,0.41171 -0.33138,0.74309 -0.74309,0.74309 -0.41171,0 -0.74308,-0.33138 -0.74308,-0.74309 0,-0.41171 0.33137,-0.74308 0.74308,-0.74308 0.41171,0 0.74309,0.33137 0.74309,0.74308 z"
       style="fill:#800080;fill-opacity:1;fill-rule:evenodd;stroke:none;stroke-width:0.26458332"
       inkscape:connector-curvature="0" />
    <path
       id="path169"
       d="m 107.21787,202.32185 c 0,0.41171 -0.33138,0.74308 -0.74309,0.74308 -0.41171,0 -0.74308,-0.33137 -0.74308,-0.74308 0,-0.41171 0.33137,-0.74308 0.74308,-0.74308 0.41171,0 0.74309,0.33137 0.74309,0.74308 z"
       style="fill:#800080;fill-opacity:1;fill-rule:evenodd;stroke:none;stroke-width:0.26458332"
       inkscape:connector-curvature="0" />
    <path
       id="path171"
       d="m 107.21787,205.61552 c 0,0.4117 -0.33138,0.74308 -0.74309,0.74308 -0.41171,0 -0.74308,-0.33138 -0.74308,-0.74308 0,-0.41171 0.33137,-0.74309 0.74308,-0.74309 0.41171,0 0.74309,0.33138 0.74309,0.74309 z"
       style="fill:#800080;fill-opacity:1;fill-rule:evenodd;stroke:none;stroke-width:0.26458332"
       inkscape:connector-curvature="0" />
    <path
       id="path173"
       d="m 109.54753,206.86068 c 0,0.41171 -0.33137,0.74309 -0.74308,0.74309 -0.41171,0 -0.74308,-0.33138 -0.74308,-0.74309 0,-0.4117 0.33137,-0.74308 0.74308,-0.74308 0.41171,0 0.74308,0.33138 0.74308,0.74308 z"
       style="fill:#800080;fill-opacity:1;fill-rule:evenodd;stroke:none;stroke-width:0.26458332"
       inkscape:connector-curvature="0" />
    <path
       id="path175"
       d="m 115.8537,206.86068 c 0,0.41171 -0.33138,0.74309 -0.74308,0.74309 -0.41171,0 -0.74309,-0.33138 -0.74309,-0.74309 0,-0.4117 0.33138,-0.74308 0.74309,-0.74308 0.4117,0 0.74308,0.33138 0.74308,0.74308 z"
       style="fill:#800080;fill-opacity:1;fill-rule:evenodd;stroke:none;stroke-width:0.26458332"
       inkscape:connector-curvature="0" />
    <path
       id="path177"
       d="m 118.1432,206.98118 c 0,0.41171 -0.33138,0.74309 -0.74308,0.74309 -0.41171,0 -0.74309,-0.33138 -0.74309,-0.74309 0,-0.41171 0.33138,-0.74308 0.74309,-0.74308 0.4117,0 0.74308,0.33137 0.74308,0.74308 z"
       style="fill:#800080;fill-opacity:1;fill-rule:evenodd;stroke:none;stroke-width:0.26458332"
       inkscape:connector-curvature="0" />
    <path
       id="path179"
       d="m 125.4937,206.98118 c 0,0.41171 -0.33138,0.74309 -0.74308,0.74309 -0.41171,0 -0.74309,-0.33138 -0.74309,-0.74309 0,-0.41171 0.33138,-0.74308 0.74309,-0.74308 0.4117,0 0.74308,0.33137 0.74308,0.74308 z"
       style="fill:#800080;fill-opacity:1;fill-rule:evenodd;stroke:none;stroke-width:0.26458332"
       inkscape:connector-curvature="0" />
    <path
       id="path181"
       d="m 115.8537,202.60302 c 0,0.4117 -0.33138,0.74308 -0.74308,0.74308 -0.41171,0 -0.74309,-0.33138 -0.74309,-0.74308 0,-0.41171 0.33138,-0.74309 0.74309,-0.74309 0.4117,0 0.74308,0.33138 0.74308,0.74309 z"
       style="fill:#800080;fill-opacity:1;fill-rule:evenodd;stroke:none;stroke-width:0.26458332"
       inkscape:connector-curvature="0" />
    <path
       id="path183"
       d="m 115.8537,210.07402 c 0,0.4117 -0.33138,0.74308 -0.74308,0.74308 -0.41171,0 -0.74309,-0.33138 -0.74309,-0.74308 0,-0.41171 0.33138,-0.74309 0.74309,-0.74309 0.4117,0 0.74308,0.33138 0.74308,0.74309 z"
       style="fill:#800080;fill-opacity:1;fill-rule:evenodd;stroke:none;stroke-width:0.26458332"
       inkscape:connector-curvature="0" />
    <path
       id="path185"
       d="m 118.1432,202.64318 c 0,0.41171 -0.33138,0.74308 -0.74308,0.74308 -0.41171,0 -0.74309,-0.33137 -0.74309,-0.74308 0,-0.4117 0.33138,-0.74308 0.74309,-0.74308 0.4117,0 0.74308,0.33138 0.74308,0.74308 z"
       style="fill:#800080;fill-opacity:1;fill-rule:evenodd;stroke:none;stroke-width:0.26458332"
       inkscape:connector-curvature="0" />
    <path
       id="path187"
       d="m 121.35653,202.64318 c 0,0.41171 -0.33137,0.74308 -0.74308,0.74308 -0.41171,0 -0.74308,-0.33137 -0.74308,-0.74308 0,-0.4117 0.33137,-0.74308 0.74308,-0.74308 0.41171,0 0.74308,0.33138 0.74308,0.74308 z"
       style="fill:#800080;fill-opacity:1;fill-rule:evenodd;stroke:none;stroke-width:0.26458332"
       inkscape:connector-curvature="0" />
    <path
       id="path189"
       d="m 118.1432,200.67502 c 0,0.4117 -0.33138,0.74308 -0.74308,0.74308 -0.41171,0 -0.74309,-0.33138 -0.74309,-0.74308 0,-0.41171 0.33138,-0.74309 0.74309,-0.74309 0.4117,0 0.74308,0.33138 0.74308,0.74309 z"
       style="fill:#800080;fill-opacity:1;fill-rule:evenodd;stroke:none;stroke-width:0.26458332"
       inkscape:connector-curvature="0" />
    <path
       id="path191"
       d="m 114.12653,196.25668 c 0,0.41171 -0.33137,0.74309 -0.74308,0.74309 -0.41171,0 -0.74309,-0.33138 -0.74309,-0.74309 0,-0.4117 0.33138,-0.74308 0.74309,-0.74308 0.41171,0 0.74308,0.33138 0.74308,0.74308 z"
       style="fill:#800080;fill-opacity:1;fill-rule:evenodd;stroke:none;stroke-width:0.26458332"
       inkscape:connector-curvature="0" />
    <path
       id="path193"
       d="m 112.31903,188.22335 c 0,0.41171 -0.33137,0.74308 -0.74308,0.74308 -0.41171,0 -0.74308,-0.33137 -0.74308,-0.74308 0,-0.41171 0.33137,-0.74308 0.74308,-0.74308 0.41171,0 0.74308,0.33137 0.74308,0.74308 z"
       style="fill:#800080;fill-opacity:1;fill-rule:evenodd;stroke:none;stroke-width:0.26458332"
       inkscape:connector-curvature="0" />
    <path
       id="path195"
       d="m 112.31903,184.68868 c 0,0.41171 -0.33137,0.74309 -0.74308,0.74309 -0.41171,0 -0.74308,-0.33138 -0.74308,-0.74309 0,-0.41171 0.33137,-0.74308 0.74308,-0.74308 0.41171,0 0.74308,0.33137 0.74308,0.74308 z"
       style="fill:#800080;fill-opacity:1;fill-rule:evenodd;stroke:none;stroke-width:0.26458332"
       inkscape:connector-curvature="0" />
    <path
       id="path197"
       d="m 108.30236,184.68868 c 0,0.41171 -0.33137,0.74309 -0.74308,0.74309 -0.4117,0 -0.74308,-0.33138 -0.74308,-0.74309 0,-0.41171 0.33138,-0.74308 0.74308,-0.74308 0.41171,0 0.74308,0.33137 0.74308,0.74308 z"
       style="fill:#800080;fill-opacity:1;fill-rule:evenodd;stroke:none;stroke-width:0.26458332"
       inkscape:connector-curvature="0" />
    <path
       id="path199"
       d="m 121.59753,184.68868 c 0,0.41171 -0.33137,0.74309 -0.74308,0.74309 -0.41171,0 -0.74309,-0.33138 -0.74309,-0.74309 0,-0.41171 0.33138,-0.74308 0.74309,-0.74308 0.41171,0 0.74308,0.33137 0.74308,0.74308 z"
       style="fill:#800080;fill-opacity:1;fill-rule:evenodd;stroke:none;stroke-width:0.26458332"
       inkscape:connector-curvature="0" />
    <path
       id="path201"
       d="m 112.31903,182.72052 c 0,0.41171 -0.33137,0.74308 -0.74308,0.74308 -0.41171,0 -0.74308,-0.33137 -0.74308,-0.74308 0,-0.41171 0.33137,-0.74309 0.74308,-0.74309 0.41171,0 0.74308,0.33138 0.74308,0.74309 z"
       style="fill:#800080;fill-opacity:1;fill-rule:evenodd;stroke:none;stroke-width:0.26458332"
       inkscape:connector-curvature="0" />
    <path
       id="path203"
       d="m 108.9852,188.30368 c 0,0.41171 -0.33138,0.74309 -0.74308,0.74309 -0.41171,0 -0.74309,-0.33138 -0.74309,-0.74309 0,-0.41171 0.33138,-0.74308 0.74309,-0.74308 0.4117,0 0.74308,0.33137 0.74308,0.74308 z"
       style="fill:#800080;fill-opacity:1;fill-rule:evenodd;stroke:none;stroke-width:0.26458332"
       inkscape:connector-curvature="0" />
    <path
       id="path205"
       d="m 107.1777,191.03502 c 0,0.41171 -0.33138,0.74308 -0.74308,0.74308 -0.41171,0 -0.74309,-0.33137 -0.74309,-0.74308 0,-0.41171 0.33138,-0.74309 0.74309,-0.74309 0.4117,0 0.74308,0.33138 0.74308,0.74309 z"
       style="fill:#800080;fill-opacity:1;fill-rule:evenodd;stroke:none;stroke-width:0.26458332"
       inkscape:connector-curvature="0" />
    <path
       id="path207"
       d="m 107.1777,187.54052 c 0,0.4117 -0.33138,0.74308 -0.74308,0.74308 -0.41171,0 -0.74309,-0.33138 -0.74309,-0.74308 0,-0.41171 0.33138,-0.74309 0.74309,-0.74309 0.4117,0 0.74308,0.33138 0.74308,0.74309 z"
       style="fill:#800080;fill-opacity:1;fill-rule:evenodd;stroke:none;stroke-width:0.26458332"
       inkscape:connector-curvature="0" />
    <path
       id="path209"
       d="m 110.1902,191.03502 c 0,0.41171 -0.33138,0.74308 -0.74308,0.74308 -0.41171,0 -0.74309,-0.33137 -0.74309,-0.74308 0,-0.41171 0.33138,-0.74309 0.74309,-0.74309 0.4117,0 0.74308,0.33138 0.74308,0.74309 z"
       style="fill:#800080;fill-opacity:1;fill-rule:evenodd;stroke:none;stroke-width:0.26458332"
       inkscape:connector-curvature="0" />
    <path
       id="path211"
       d="m 104.12503,191.03502 c 0,0.41171 -0.33137,0.74308 -0.74308,0.74308 -0.41171,0 -0.74308,-0.33137 -0.74308,-0.74308 0,-0.41171 0.33137,-0.74309 0.74308,-0.74309 0.41171,0 0.74308,0.33138 0.74308,0.74309 z"
       style="fill:#800080;fill-opacity:1;fill-rule:evenodd;stroke:none;stroke-width:0.26458332"
       inkscape:connector-curvature="0" />
    <path
       id="path213"
       d="m 104.12503,187.82168 c 0,0.41171 -0.33137,0.74309 -0.74308,0.74309 -0.41171,0 -0.74308,-0.33138 -0.74308,-0.74309 0,-0.41171 0.33137,-0.74308 0.74308,-0.74308 0.41171,0 0.74308,0.33137 0.74308,0.74308 z"
       style="fill:#800080;fill-opacity:1;fill-rule:evenodd;stroke:none;stroke-width:0.26458332"
       inkscape:connector-curvature="0" />
    <path
       id="path215"
       d="m 100.5502,191.03502 c 0,0.41171 -0.33138,0.74308 -0.743085,0.74308 -0.411708,0 -0.743082,-0.33137 -0.743082,-0.74308 0,-0.41171 0.331374,-0.74309 0.743082,-0.74309 0.411705,0 0.743085,0.33138 0.743085,0.74309 z"
       style="fill:#800080;fill-opacity:1;fill-rule:evenodd;stroke:none;stroke-width:0.26458332"
       inkscape:connector-curvature="0" />
    <path
       id="path217"
       d="m 102.07653,193.64585 c 0,0.41171 -0.33137,0.74308 -0.74308,0.74308 -0.41171,0 -0.74308,-0.33137 -0.74308,-0.74308 0,-0.41171 0.33137,-0.74308 0.74308,-0.74308 0.41171,0 0.74308,0.33137 0.74308,0.74308 z"
       style="fill:#800080;fill-opacity:1;fill-rule:evenodd;stroke:none;stroke-width:0.26458332"
       inkscape:connector-curvature="0" />
    <path
       id="path219"
       d="m 104.1652,197.22068 c 0,0.41171 -0.33138,0.74309 -0.74309,0.74309 -0.4117,0 -0.74308,-0.33138 -0.74308,-0.74309 0,-0.41171 0.33138,-0.74308 0.74308,-0.74308 0.41171,0 0.74309,0.33137 0.74309,0.74308 z"
       style="fill:#800080;fill-opacity:1;fill-rule:evenodd;stroke:none;stroke-width:0.26458332"
       inkscape:connector-curvature="0" />
    <path
       id="path221"
       d="m 102.39787,197.22068 c 0,0.41171 -0.33138,0.74309 -0.74309,0.74309 -0.4117,0 -0.74308,-0.33138 -0.74308,-0.74309 0,-0.41171 0.33138,-0.74308 0.74308,-0.74308 0.41171,0 0.74309,0.33137 0.74309,0.74308 z"
       style="fill:#800080;fill-opacity:1;fill-rule:evenodd;stroke:none;stroke-width:0.26458332"
       inkscape:connector-curvature="0" />
    <path
       id="path223"
       d="m 104.1652,202.08085 c 0,0.41171 -0.33138,0.74308 -0.74309,0.74308 -0.4117,0 -0.74308,-0.33137 -0.74308,-0.74308 0,-0.41171 0.33138,-0.74308 0.74308,-0.74308 0.41171,0 0.74309,0.33137 0.74309,0.74308 z"
       style="fill:#800080;fill-opacity:1;fill-rule:evenodd;stroke:none;stroke-width:0.26458332"
       inkscape:connector-curvature="0" />
    <path
       id="path225"
       d="m 105.2497,203.56701 c 0,0.41172 -0.33138,0.74309 -0.74308,0.74309 -0.41171,0 -0.74309,-0.33137 -0.74309,-0.74309 0,-0.4117 0.33138,-0.74308 0.74309,-0.74308 0.4117,0 0.74308,0.33138 0.74308,0.74308 z"
       style="fill:#800080;fill-opacity:1;fill-rule:evenodd;stroke:none;stroke-width:0.26458332"
       inkscape:connector-curvature="0" />
    <path
       id="path227"
       d="m 105.2497,195.53368 c 0,0.41171 -0.33138,0.74309 -0.74308,0.74309 -0.41171,0 -0.74309,-0.33138 -0.74309,-0.74309 0,-0.4117 0.33138,-0.74308 0.74309,-0.74308 0.4117,0 0.74308,0.33138 0.74308,0.74308 z"
       style="fill:#800080;fill-opacity:1;fill-rule:evenodd;stroke:none;stroke-width:0.26458332"
       inkscape:connector-curvature="0" />
    <path
       id="path229"
       d="m 109.38687,200.99635 c 0,0.41171 -0.33138,0.74308 -0.74309,0.74308 -0.41171,0 -0.74308,-0.33137 -0.74308,-0.74308 0,-0.41171 0.33137,-0.74309 0.74308,-0.74309 0.41171,0 0.74309,0.33138 0.74309,0.74309 z"
       style="fill:#800080;fill-opacity:1;fill-rule:evenodd;stroke:none;stroke-width:0.26458332"
       inkscape:connector-curvature="0" />
    <path
       id="path231"
       d="m 106.17353,200.99635 c 0,0.41171 -0.33137,0.74308 -0.74308,0.74308 -0.41171,0 -0.74308,-0.33137 -0.74308,-0.74308 0,-0.41171 0.33137,-0.74309 0.74308,-0.74309 0.41171,0 0.74308,0.33138 0.74308,0.74309 z"
       style="fill:#800080;fill-opacity:1;fill-rule:evenodd;stroke:none;stroke-width:0.26458332"
       inkscape:connector-curvature="0" />
    <path
       id="path233"
       d="m 116.4562,184.68868 c 0,0.41171 -0.33138,0.74309 -0.74308,0.74309 -0.41171,0 -0.74309,-0.33138 -0.74309,-0.74309 0,-0.41171 0.33138,-0.74308 0.74309,-0.74308 0.4117,0 0.74308,0.33137 0.74308,0.74308 z"
       style="fill:#800080;fill-opacity:1;fill-rule:evenodd;stroke:none;stroke-width:0.26458332"
       inkscape:connector-curvature="0" />
    <path
       id="path235"
       d="m 116.37587,186.93802 c 0,0.4117 -0.33138,0.74308 -0.74309,0.74308 -0.41171,0 -0.74308,-0.33138 -0.74308,-0.74308 0,-0.41171 0.33137,-0.74309 0.74308,-0.74309 0.41171,0 0.74309,0.33138 0.74309,0.74309 z"
       style="fill:#800080;fill-opacity:1;fill-rule:evenodd;stroke:none;stroke-width:0.26458332"
       inkscape:connector-curvature="0" />
    <path
       id="path237"
       d="m 116.4562,178.78418 c 0,0.41171 -0.33138,0.74309 -0.74308,0.74309 -0.41171,0 -0.74309,-0.33138 -0.74309,-0.74309 0,-0.41171 0.33138,-0.74308 0.74309,-0.74308 0.4117,0 0.74308,0.33137 0.74308,0.74308 z"
       style="fill:#800080;fill-opacity:1;fill-rule:evenodd;stroke:none;stroke-width:0.26458332"
       inkscape:connector-curvature="0" />
    <path
       id="path239"
       d="m 121.8787,186.93802 c 0,0.4117 -0.33138,0.74308 -0.74308,0.74308 -0.41171,0 -0.74309,-0.33138 -0.74309,-0.74308 0,-0.41171 0.33138,-0.74309 0.74309,-0.74309 0.4117,0 0.74308,0.33138 0.74308,0.74309 z"
       style="fill:#800080;fill-opacity:1;fill-rule:evenodd;stroke:none;stroke-width:0.26458332"
       inkscape:connector-curvature="0" />
    <path
       id="path241"
       d="m 129.51036,186.93802 c 0,0.4117 -0.33137,0.74308 -0.74308,0.74308 -0.41171,0 -0.74308,-0.33138 -0.74308,-0.74308 0,-0.41171 0.33137,-0.74309 0.74308,-0.74309 0.41171,0 0.74308,0.33138 0.74308,0.74309 z"
       style="fill:#800080;fill-opacity:1;fill-rule:evenodd;stroke:none;stroke-width:0.26458332"
       inkscape:connector-curvature="0" />
    <path
       id="path243"
       d="m 121.8787,188.54468 c 0,0.41171 -0.33138,0.74309 -0.74308,0.74309 -0.41171,0 -0.74309,-0.33138 -0.74309,-0.74309 0,-0.41171 0.33138,-0.74308 0.74309,-0.74308 0.4117,0 0.74308,0.33137 0.74308,0.74308 z"
       style="fill:#800080;fill-opacity:1;fill-rule:evenodd;stroke:none;stroke-width:0.26458332"
       inkscape:connector-curvature="0" />
    <path
       id="path245"
       d="m 127.3012,188.54468 c 0,0.41171 -0.33137,0.74309 -0.74309,0.74309 -0.4117,0 -0.74308,-0.33138 -0.74308,-0.74309 0,-0.41171 0.33138,-0.74308 0.74308,-0.74308 0.41172,0 0.74309,0.33137 0.74309,0.74308 z"
       style="fill:#800080;fill-opacity:1;fill-rule:evenodd;stroke:none;stroke-width:0.26458332"
       inkscape:connector-curvature="0" />
    <path
       id="path247"
       d="m 121.8787,190.23168 c 0,0.41171 -0.33138,0.74309 -0.74308,0.74309 -0.41171,0 -0.74309,-0.33138 -0.74309,-0.74309 0,-0.41171 0.33138,-0.74308 0.74309,-0.74308 0.4117,0 0.74308,0.33137 0.74308,0.74308 z"
       style="fill:#800080;fill-opacity:1;fill-rule:evenodd;stroke:none;stroke-width:0.26458332"
       inkscape:connector-curvature="0" />
    <path
       id="path249"
       d="m 116.97836,191.15552 c 0,0.4117 -0.33137,0.74308 -0.74308,0.74308 -0.41171,0 -0.74308,-0.33138 -0.74308,-0.74308 0,-0.41171 0.33137,-0.74309 0.74308,-0.74309 0.41171,0 0.74308,0.33138 0.74308,0.74309 z"
       style="fill:#800080;fill-opacity:1;fill-rule:evenodd;stroke:none;stroke-width:0.26458332"
       inkscape:connector-curvature="0" />
    <path
       id="path251"
       d="m 127.26103,191.51702 c 0,0.4117 -0.33137,0.74308 -0.74308,0.74308 -0.41171,0 -0.74308,-0.33138 -0.74308,-0.74308 0,-0.41171 0.33137,-0.74309 0.74308,-0.74309 0.41171,0 0.74308,0.33138 0.74308,0.74309 z"
       style="fill:#800080;fill-opacity:1;fill-rule:evenodd;stroke:none;stroke-width:0.26458332"
       inkscape:connector-curvature="0" />
    <path
       id="path253"
       d="m 127.38153,199.14868 c 0,0.41171 -0.33137,0.74309 -0.74308,0.74309 -0.41171,0 -0.74308,-0.33138 -0.74308,-0.74309 0,-0.41171 0.33137,-0.74308 0.74308,-0.74308 0.41171,0 0.74308,0.33137 0.74308,0.74308 z"
       style="fill:#800080;fill-opacity:1;fill-rule:evenodd;stroke:none;stroke-width:0.26458332"
       inkscape:connector-curvature="0" />
    <path
       id="path255"
       d="m 127.38153,203.84818 c 0,0.41171 -0.33137,0.74309 -0.74308,0.74309 -0.41171,0 -0.74308,-0.33138 -0.74308,-0.74309 0,-0.41171 0.33137,-0.74308 0.74308,-0.74308 0.41171,0 0.74308,0.33137 0.74308,0.74308 z"
       style="fill:#800080;fill-opacity:1;fill-rule:evenodd;stroke:none;stroke-width:0.26458332"
       inkscape:connector-curvature="0" />
    <path
       id="path257"
       d="m 118.70553,191.51702 c 0,0.4117 -0.33137,0.74308 -0.74308,0.74308 -0.41171,0 -0.74308,-0.33138 -0.74308,-0.74308 0,-0.41171 0.33137,-0.74309 0.74308,-0.74309 0.41171,0 0.74308,0.33138 0.74308,0.74309 z"
       style="fill:#800080;fill-opacity:1;fill-rule:evenodd;stroke:none;stroke-width:0.26458332"
       inkscape:connector-curvature="0" />
    <path
       id="path259"
       d="m 115.4922,192.56135 c 0,0.41171 -0.33137,0.74308 -0.74308,0.74308 -0.41171,0 -0.74309,-0.33137 -0.74309,-0.74308 0,-0.41171 0.33138,-0.74308 0.74309,-0.74308 0.41171,0 0.74308,0.33137 0.74308,0.74308 z"
       style="fill:#800080;fill-opacity:1;fill-rule:evenodd;stroke:none;stroke-width:0.26458332"
       inkscape:connector-curvature="0" />
    <path
       id="path261"
       d="m 124.6502,192.72202 c 0,0.4117 -0.33138,0.74308 -0.74308,0.74308 -0.41171,0 -0.74309,-0.33138 -0.74309,-0.74308 0,-0.41171 0.33138,-0.74309 0.74309,-0.74309 0.4117,0 0.74308,0.33138 0.74308,0.74309 z"
       style="fill:#800080;fill-opacity:1;fill-rule:evenodd;stroke:none;stroke-width:0.26458332"
       inkscape:connector-curvature="0" />
    <path
       id="path263"
       d="m 103.21124,176.09302 c 0.0803,-0.62259 -0.41171,-1.46609 -1.02425,-2.18909 -0.30125,-0.35145 -1.02425,-1.25521 -1.30541,-1.61671 -0.35146,-0.44183 -0.87363,-1.38575 -0.86359,-2.04849 0.0201,-0.6728 -0.291208,0.37154 -0.331374,1.32549 -0.03013,0.723 0.401664,1.42592 0.773204,1.88784 0.32134,0.43179 0.97405,1.13471 1.52634,1.84767 0.38158,0.50208 0.80333,0.8435 0.8435,1.30541 0.0703,0.8435 0.21087,0.77321 0.38158,-0.51212"
       style="fill:none;stroke:#ff6347;stroke-width:0.04016666px;stroke-linecap:butt;stroke-linejoin:miter;stroke-miterlimit:2;stroke-dasharray:none;stroke-opacity:1"
       inkscape:connector-curvature="0" />
    <path
       id="path265"
       d="m 103.21124,176.09302 c 0.0803,-0.62259 -0.41171,-1.46609 -1.02425,-2.18909 -0.30125,-0.35145 -1.02425,-1.25521 -1.30541,-1.61671 -0.35146,-0.44183 -0.87363,-1.38575 -0.86359,-2.04849 0.0201,-0.6728 -0.291208,0.37154 -0.331374,1.32549 -0.03013,0.723 0.401664,1.42592 0.773204,1.88784 0.32134,0.43179 0.97405,1.13471 1.52634,1.84767 0.38158,0.50208 0.80333,0.8435 0.8435,1.30541 0.0703,0.8435 0.21087,0.77321 0.38158,-0.51212 z"
       style="fill:#700000;fill-opacity:1;fill-rule:nonzero;stroke:#ff6347;stroke-width:0.26458332;stroke-opacity:1"
       inkscape:connector-curvature="0" />
    <path
       id="path267"
       d="m 105.76183,165.45889 c 0.0803,-0.62258 -0.41172,-1.46608 -1.02425,-2.18908 -0.30126,-0.35146 -1.02426,-1.25521 -1.31547,-1.61671 -0.34141,-0.43179 -0.87362,-1.37571 -0.85354,-2.0485 0.0201,-0.67279 -0.2912,0.37154 -0.33137,1.3255 -0.0301,0.723 0.40167,1.42592 0.76317,1.89787 0.33137,0.42175 0.98408,1.12467 1.53637,1.83763 0.38158,0.51212 0.80333,0.8435 0.8435,1.30542 0.0703,0.85354 0.21088,0.7732 0.38159,-0.51213"
       style="fill:none;stroke:#ff6347;stroke-width:0.04016666px;stroke-linecap:butt;stroke-linejoin:miter;stroke-miterlimit:2;stroke-dasharray:none;stroke-opacity:1"
       inkscape:connector-curvature="0" />
    <path
       id="path269"
       d="m 105.76183,165.45889 c 0.0803,-0.62258 -0.41172,-1.46608 -1.02425,-2.18908 -0.30126,-0.35146 -1.02426,-1.25521 -1.31547,-1.61671 -0.34141,-0.43179 -0.87362,-1.37571 -0.85354,-2.0485 0.0201,-0.67279 -0.2912,0.37154 -0.33137,1.3255 -0.0301,0.723 0.40167,1.42592 0.76317,1.89787 0.33137,0.42175 0.98408,1.12467 1.53637,1.83763 0.38158,0.51212 0.80333,0.8435 0.8435,1.30542 0.0703,0.85354 0.21088,0.7732 0.38159,-0.51213 z"
       style="fill:#700000;fill-opacity:1;fill-rule:nonzero;stroke:#ff6347;stroke-width:0.26458332;stroke-opacity:1"
       inkscape:connector-curvature="0" />
    <path
       id="path271"
       d="m 103.99449,172.79935 c 0.0803,-0.62258 -0.40167,-1.46608 -1.01421,-2.18908 -0.30125,-0.35146 -1.02425,-1.25521 -1.31546,-1.61671 -0.34141,-0.44184 -0.87362,-1.38575 -0.85354,-2.0485 0.0201,-0.67279 -0.29121,0.37154 -0.33137,1.3255 -0.0301,0.71296 0.40167,1.42591 0.76317,1.88783 0.33137,0.43179 0.98408,1.13471 1.52633,1.84767 0.39162,0.50208 0.81337,0.8435 0.85354,1.30541 0.0703,0.8435 0.21087,0.76317 0.37154,-0.51212"
       style="fill:none;stroke:#ff6347;stroke-width:0.04016666px;stroke-linecap:butt;stroke-linejoin:miter;stroke-miterlimit:2;stroke-dasharray:none;stroke-opacity:1"
       inkscape:connector-curvature="0" />
    <path
       id="path273"
       d="m 103.99449,172.79935 c 0.0803,-0.62258 -0.40167,-1.46608 -1.01421,-2.18908 -0.30125,-0.35146 -1.02425,-1.25521 -1.31546,-1.61671 -0.34141,-0.44184 -0.87362,-1.38575 -0.85354,-2.0485 0.0201,-0.67279 -0.29121,0.37154 -0.33137,1.3255 -0.0301,0.71296 0.40167,1.42591 0.76317,1.88783 0.33137,0.43179 0.98408,1.13471 1.52633,1.84767 0.39162,0.50208 0.81337,0.8435 0.85354,1.30541 0.0703,0.8435 0.21087,0.76317 0.37154,-0.51212 z"
       style="fill:#ff0000;fill-opacity:1;fill-rule:nonzero;stroke:#ff6347;stroke-width:0.26458332;stroke-opacity:1"
       inkscape:connector-curvature="0" />
    <path
       id="path275"
       d="m 103.72337,174.03447 c -0.20084,0.59246 -1.02425,1.13471 -1.90792,1.50625 -0.43179,0.1908 -1.49621,0.6728 -1.917959,0.86359 -0.512125,0.241 -1.415875,0.85354 -1.697043,1.46608 -0.271123,0.6025 -0.100417,-0.47196 0.291209,-1.34558 0.291208,-0.65271 0.994124,-1.09454 1.546423,-1.35563 0.49204,-0.23095 1.39579,-0.57237 2.2192,-0.97404 0.57238,-0.27112 1.10459,-0.39162 1.34558,-0.78325 0.45188,-0.73304 0.54226,-0.6025 0.12051,0.62258"
       style="fill:none;stroke:#ff6347;stroke-width:0.04016666px;stroke-linecap:butt;stroke-linejoin:miter;stroke-miterlimit:2;stroke-dasharray:none;stroke-opacity:1"
       inkscape:connector-curvature="0" />
    <path
       id="path277"
       d="m 103.72337,174.03447 c -0.20084,0.59246 -1.02425,1.13471 -1.90792,1.50625 -0.43179,0.1908 -1.49621,0.6728 -1.917959,0.86359 -0.512125,0.241 -1.415875,0.85354 -1.697043,1.46608 -0.271123,0.6025 -0.100417,-0.47196 0.291209,-1.34558 0.291208,-0.65271 0.994124,-1.09454 1.546423,-1.35563 0.49204,-0.23095 1.39579,-0.57237 2.2192,-0.97404 0.57238,-0.27112 1.10459,-0.39162 1.34558,-0.78325 0.45188,-0.73304 0.54226,-0.6025 0.12051,0.62258 z"
       style="fill:#b20000;fill-opacity:1;fill-rule:nonzero;stroke:#ff6347;stroke-width:0.26458332;stroke-opacity:1"
       inkscape:connector-curvature="0" />
    <path
       id="path279"
       d="m 106.54507,162.16522 c 0.0803,-0.62258 -0.40166,-1.46608 -1.0142,-2.18908 -0.30125,-0.35146 -1.02425,-1.25521 -1.31546,-1.61671 -0.34142,-0.43179 -0.87363,-1.37571 -0.85354,-2.0485 0.0201,-0.67279 -0.29121,0.37155 -0.33138,1.3255 -0.0301,0.723 0.40167,1.42592 0.76317,1.89788 0.33137,0.42175 0.97404,1.12466 1.52633,1.83762 0.39163,0.51213 0.81338,0.8435 0.85354,1.30542 0.0703,0.85354 0.21088,0.77321 0.37154,-0.51213"
       style="fill:none;stroke:#ff6347;stroke-width:0.04016666px;stroke-linecap:butt;stroke-linejoin:miter;stroke-miterlimit:2;stroke-dasharray:none;stroke-opacity:1"
       inkscape:connector-curvature="0" />
    <path
       id="path281"
       d="m 106.54507,162.16522 c 0.0803,-0.62258 -0.40166,-1.46608 -1.0142,-2.18908 -0.30125,-0.35146 -1.02425,-1.25521 -1.31546,-1.61671 -0.34142,-0.43179 -0.87363,-1.37571 -0.85354,-2.0485 0.0201,-0.67279 -0.29121,0.37155 -0.33138,1.3255 -0.0301,0.723 0.40167,1.42592 0.76317,1.89788 0.33137,0.42175 0.97404,1.12466 1.52633,1.83762 0.39163,0.51213 0.81338,0.8435 0.85354,1.30542 0.0703,0.85354 0.21088,0.77321 0.37154,-0.51213 z"
       style="fill:#840000;fill-opacity:1;fill-rule:nonzero;stroke:#ff6347;stroke-width:0.26458332;stroke-opacity:1"
       inkscape:connector-curvature="0" />
    <path
       id="path283"
       d="m 106.27395,163.40035 c -0.20083,0.6025 -1.02425,1.13471 -1.90792,1.51629 -0.43179,0.18075 -1.49621,0.66275 -1.91795,0.86358 -0.51213,0.23096 -1.41588,0.84351 -1.69705,1.45605 -0.28117,0.6025 -0.10042,-0.46192 0.29121,-1.33554 0.29121,-0.66275 0.99412,-1.10459 1.54642,-1.35563 0.482,-0.241 1.38575,-0.58242 2.20916,-0.97404 0.58242,-0.28117 1.11463,-0.40167 1.35563,-0.79329 0.44183,-0.73305 0.54225,-0.59246 0.1205,0.62258"
       style="fill:none;stroke:#ff6347;stroke-width:0.04016666px;stroke-linecap:butt;stroke-linejoin:miter;stroke-miterlimit:2;stroke-dasharray:none;stroke-opacity:1"
       inkscape:connector-curvature="0" />
    <path
       id="path285"
       d="m 106.27395,163.40035 c -0.20083,0.6025 -1.02425,1.13471 -1.90792,1.51629 -0.43179,0.18075 -1.49621,0.66275 -1.91795,0.86358 -0.51213,0.23096 -1.41588,0.84351 -1.69705,1.45605 -0.28117,0.6025 -0.10042,-0.46192 0.29121,-1.33554 0.29121,-0.66275 0.99412,-1.10459 1.54642,-1.35563 0.482,-0.241 1.38575,-0.58242 2.20916,-0.97404 0.58242,-0.28117 1.11463,-0.40167 1.35563,-0.79329 0.44183,-0.73305 0.54225,-0.59246 0.1205,0.62258 z"
       style="fill:#b20000;fill-opacity:1;fill-rule:nonzero;stroke:#ff6347;stroke-width:0.26458332;stroke-opacity:1"
       inkscape:connector-curvature="0" />
    <path
       id="path287"
       d="m 102.93007,177.32814 c -0.20083,0.59246 -1.0142,1.13471 -1.89787,1.50625 -0.44183,0.19079 -1.496209,0.67279 -1.91796,0.86358 -0.512125,0.241 -1.415876,0.85355 -1.69704,1.46609 -0.281168,0.6025 -0.110459,-0.47196 0.281164,-1.34558 0.291209,-0.65271 1.004168,-1.09455 1.546419,-1.35563 0.49204,-0.23096 1.395787,-0.57237 2.219207,-0.97404 0.57237,-0.27113 1.11463,-0.39163 1.35563,-0.78325 0.44183,-0.73304 0.5322,-0.6025 0.11045,0.62258"
       style="fill:none;stroke:#930000;stroke-width:0.04016666px;stroke-linecap:butt;stroke-linejoin:miter;stroke-miterlimit:2;stroke-dasharray:none;stroke-opacity:1"
       inkscape:connector-curvature="0" />
    <path
       id="path289"
       d="m 102.93007,177.32814 c -0.20083,0.59246 -1.0142,1.13471 -1.89787,1.50625 -0.44183,0.19079 -1.496209,0.67279 -1.91796,0.86358 -0.512125,0.241 -1.415876,0.85355 -1.69704,1.46609 -0.281168,0.6025 -0.110459,-0.47196 0.281164,-1.34558 0.291209,-0.65271 1.004168,-1.09455 1.546419,-1.35563 0.49204,-0.23096 1.395787,-0.57237 2.219207,-0.97404 0.57237,-0.27113 1.11463,-0.39163 1.35563,-0.78325 0.44183,-0.73304 0.5322,-0.6025 0.11045,0.62258 z"
       style="fill:#930000;fill-opacity:1;fill-rule:nonzero;stroke:none;stroke-width:0.26458332"
       inkscape:connector-curvature="0" />
    <path
       id="path291"
       d="m 105.48066,166.69401 c -0.20084,0.60251 -1.02425,1.13472 -1.90792,1.5163 -0.43179,0.18075 -1.48617,0.66275 -1.91796,0.86358 -0.51212,0.23096 -1.40583,0.8435 -1.686997,1.45604 -0.281167,0.6025 -0.110458,-0.46191 0.281167,-1.33554 0.29121,-0.66275 1.00417,-1.10458 1.54642,-1.35562 0.49204,-0.241 1.39579,-0.58242 2.21921,-0.97405 0.57237,-0.28116 1.11462,-0.40166 1.35562,-0.79329 0.44183,-0.73304 0.53221,-0.59246 0.11046,0.62258"
       style="fill:none;stroke:#ff6347;stroke-width:0.04016666px;stroke-linecap:butt;stroke-linejoin:miter;stroke-miterlimit:2;stroke-dasharray:none;stroke-opacity:1"
       inkscape:connector-curvature="0" />
    <path
       id="path293"
       d="m 105.48066,166.69401 c -0.20084,0.60251 -1.02425,1.13472 -1.90792,1.5163 -0.43179,0.18075 -1.48617,0.66275 -1.91796,0.86358 -0.51212,0.23096 -1.40583,0.8435 -1.686997,1.45604 -0.281167,0.6025 -0.110458,-0.46191 0.281167,-1.33554 0.29121,-0.66275 1.00417,-1.10458 1.54642,-1.35562 0.49204,-0.241 1.39579,-0.58242 2.21921,-0.97405 0.57237,-0.28116 1.11462,-0.40166 1.35562,-0.79329 0.44183,-0.73304 0.53221,-0.59246 0.11046,0.62258 z"
       style="fill:#930000;fill-opacity:1;fill-rule:nonzero;stroke:#ff6347;stroke-width:0.26458332;stroke-opacity:1"
       inkscape:connector-curvature="0" />
    <path
       id="path295"
       d="m 105.36016,166.04131 c 0,0 -1.50625,-0.35146 -2.45017,-0.58242"
       style="fill:none;stroke:#ff6347;stroke-width:0.19079167px;stroke-linecap:butt;stroke-linejoin:miter;stroke-miterlimit:2;stroke-dasharray:none;stroke-opacity:1"
       inkscape:connector-curvature="0" />
    <path
       id="path297"
       d="m 104.09491,166.84464 c 0,0 -1.49621,-0.3615 -2.45017,-0.58241"
       style="fill:none;stroke:#ff6347;stroke-width:0.19079167px;stroke-linecap:butt;stroke-linejoin:miter;stroke-miterlimit:2;stroke-dasharray:none;stroke-opacity:1"
       inkscape:connector-curvature="0" />
    <path
       id="path299"
       d="m 102.64891,167.52747 c 0,0 -1.1548,-0.27112 -1.88784,-0.45187"
       style="fill:none;stroke:#ff6347;stroke-width:0.19079167px;stroke-linecap:butt;stroke-linejoin:miter;stroke-miterlimit:2;stroke-dasharray:none;stroke-opacity:1"
       inkscape:connector-curvature="0" />
    <path
       id="path301"
       d="m 101.86566,170.80106 c 0,0 -1.15479,-0.28117 -1.877795,-0.45188"
       style="fill:none;stroke:#ff6347;stroke-width:0.19079167px;stroke-linecap:butt;stroke-linejoin:miter;stroke-miterlimit:2;stroke-dasharray:none;stroke-opacity:1"
       inkscape:connector-curvature="0" />
    <path
       id="path303"
       d="m 102.82966,172.12656 c 0,0 -1.49621,-0.3615 -2.45017,-0.58242"
       style="fill:none;stroke:#ff6347;stroke-width:0.19079167px;stroke-linecap:butt;stroke-linejoin:miter;stroke-miterlimit:2;stroke-dasharray:none;stroke-opacity:1"
       inkscape:connector-curvature="0" />
    <path
       id="path305"
       d="m 103.62295,173.39181 c 0,0 -1.49621,-0.3615 -2.45017,-0.59246"
       style="fill:none;stroke:#ff6347;stroke-width:0.19079167px;stroke-linecap:butt;stroke-linejoin:miter;stroke-miterlimit:2;stroke-dasharray:none;stroke-opacity:1"
       inkscape:connector-curvature="0" />
    <path
       id="path307"
       d="m 102.79953,176.70556 c 0,0 -1.49621,-0.3615 -2.45016,-0.58242"
       style="fill:none;stroke:#ff6347;stroke-width:0.19079167px;stroke-linecap:butt;stroke-linejoin:miter;stroke-miterlimit:2;stroke-dasharray:none;stroke-opacity:1"
       inkscape:connector-curvature="0" />
    <path
       id="path309"
       d="m 101.53428,177.49885 c 0,0 -1.4962,-0.35146 -2.440122,-0.58242"
       style="fill:none;stroke:#ff6347;stroke-width:0.19079167px;stroke-linecap:butt;stroke-linejoin:miter;stroke-miterlimit:2;stroke-dasharray:none;stroke-opacity:1"
       inkscape:connector-curvature="0" />
    <path
       id="path311"
       d="m 100.08828,178.19172 c 0,0 -1.15479,-0.27112 -1.887832,-0.45187"
       style="fill:none;stroke:#ff6347;stroke-width:0.19079167px;stroke-linecap:butt;stroke-linejoin:miter;stroke-miterlimit:2;stroke-dasharray:none;stroke-opacity:1"
       inkscape:connector-curvature="0" />
    <path
       id="path313"
       d="m 104.41624,160.16693 c 0,0 -1.15479,-0.28116 -1.87779,-0.45187"
       style="fill:none;stroke:#ff6347;stroke-width:0.19079167px;stroke-linecap:butt;stroke-linejoin:miter;stroke-miterlimit:2;stroke-dasharray:none;stroke-opacity:1"
       inkscape:connector-curvature="0" />
    <path
       id="path315"
       d="m 105.38024,161.49243 c 0,0 -1.49621,-0.35146 -2.45017,-0.58241"
       style="fill:none;stroke:#ff6347;stroke-width:0.19079167px;stroke-linecap:butt;stroke-linejoin:miter;stroke-miterlimit:2;stroke-dasharray:none;stroke-opacity:1"
       inkscape:connector-curvature="0" />
    <path
       id="path317"
       d="m 106.17353,162.75768 c 0,0 -1.49621,-0.3615 -2.45016,-0.59246"
       style="fill:none;stroke:#ff6347;stroke-width:0.19079167px;stroke-linecap:butt;stroke-linejoin:miter;stroke-miterlimit:2;stroke-dasharray:none;stroke-opacity:1"
       inkscape:connector-curvature="0" />
    <path
       id="path319"
       d="m 115.1307,163.89239 c 0,9.52954 -7.72204,17.25158 -17.251585,17.25158 -9.5195,0 -17.241541,-7.72204 -17.241541,-17.25158 0,-9.5195 7.722041,-17.24154 17.241541,-17.24154 9.529545,0 17.251585,7.72204 17.251585,17.24154"
       style="fill:none;stroke:#ff6347;stroke-width:1.8075px;stroke-linecap:butt;stroke-linejoin:miter;stroke-miterlimit:2;stroke-dasharray:none;stroke-opacity:1"
       inkscape:connector-curvature="0" />
    <path
       id="path321"
       d="m 140.06416,157.30506 c -0.0502,-1.98825 -1.69705,-3.57483 -3.69533,-3.52463 -1.25521,0.0201 -2.4803,0.76317 -3.0828,1.86775"
       style="fill:none;stroke:#008000;stroke-width:0.65270835px;stroke-linecap:round;stroke-linejoin:miter;stroke-miterlimit:2;stroke-dasharray:none;stroke-opacity:1"
       inkscape:connector-curvature="0" />
    <path
       id="path323"
       d="m 139.14033,159.79539 c 0,0 0.33137,-3.11291 0.33137,-3.11291 0,0 0.28116,0.51212 0.59246,0.62258 0.30125,0.1205 0.8435,-0.0803 0.8435,-0.0803 0,0 -1.76733,2.57066 -1.76733,2.57066 0,0 0,0 0,0"
       style="fill:none;stroke:#008000;stroke-width:0.04016666px;stroke-linecap:round;stroke-linejoin:miter;stroke-miterlimit:2;stroke-dasharray:none;stroke-opacity:1"
       inkscape:connector-curvature="0" />
    <path
       id="path325"
       d="m 139.14033,159.79539 c 0,0 0.33137,-3.11291 0.33137,-3.11291 0,0 0.28116,0.51212 0.59246,0.62258 0.30125,0.1205 0.8435,-0.0803 0.8435,-0.0803 0,0 -1.76733,2.57066 -1.76733,2.57066 0,0 0,0 0,0 z"
       style="fill:#008000;fill-opacity:1;fill-rule:nonzero;stroke:none;stroke-width:0.26458332"
       inkscape:connector-curvature="0" />
    <path
       id="path327"
       d="m 136.0977,172.90981 c 1.11462,1.65687 3.36396,2.08866 5.01079,0.964 1.65688,-1.11463 2.08867,-3.36396 0.964,-5.01079 -0.11046,-0.17071 -0.241,-0.33138 -0.39163,-0.482"
       style="fill:none;stroke:#008000;stroke-width:0.65270835px;stroke-linecap:round;stroke-linejoin:miter;stroke-miterlimit:2;stroke-dasharray:none;stroke-opacity:1"
       inkscape:connector-curvature="0" />
    <path
       id="path329"
       d="m 134.79228,173.87381 2.14892,-2.34975 0.46192,0.42175 -2.14892,2.34975 z"
       style="fill:#008000;fill-opacity:1;fill-rule:evenodd;stroke:none;stroke-width:0.26458332"
       inkscape:connector-curvature="0" />
    <path
       id="path331"
       d="m 160.70983,174.38593 c 0,25.305 -20.50509,45.81009 -45.81009,45.81009 -25.294958,0 -45.800041,-20.50509 -45.800041,-45.81009 0,-25.29496 20.505083,-45.80004 45.800041,-45.80004 25.305,0 45.81009,20.50508 45.81009,45.80004"
       style="fill:none;stroke:#b0e3fa;stroke-width:2.74137497px;stroke-linecap:butt;stroke-linejoin:miter;stroke-miterlimit:2;stroke-dasharray:none;stroke-opacity:1"
       inkscape:connector-curvature="0" />
    <text
       id="text337"
       y="225.31233"
       x="87.258995"
       style="font-style:normal;font-variant:normal;font-weight:700;font-size:5.47282267px;line-height:125%;font-family:Arial;text-align:start;letter-spacing:0px;word-spacing:0px;text-anchor:start;fill:#000000;fill-opacity:1;stroke:none;stroke-width:0.45136681"
       xml:space="preserve"><tspan
         id="tspan335"
         y="225.31233"
         x="87.258995"
         sodipodi:role="line"
         style="stroke-width:0.45136681"><tspan
           id="tspan333"
           style="font-style:normal;font-variant:normal;font-weight:700;font-size:5.47282267px;font-family:Arial;fill:#0080ff;stroke-width:0.45136681"
           dy="0"
           dx="0">Compartmentalisation</tspan></tspan></text>
    <text
       id="text343"
       y="216.09398"
       x="100.16705"
       style="font-style:normal;font-variant:normal;font-weight:700;font-size:5.47282267px;line-height:125%;font-family:Arial;text-align:start;letter-spacing:0px;word-spacing:0px;text-anchor:start;fill:#000000;fill-opacity:1;stroke:none;stroke-width:0.45136681"
       xml:space="preserve"><tspan
         id="tspan341"
         y="216.09398"
         x="100.16705"
         sodipodi:role="line"
         style="stroke-width:0.45136681"><tspan
           id="tspan339"
           style="font-style:normal;font-variant:normal;font-weight:700;font-size:5.47282267px;font-family:Arial;fill:#8000ff;stroke-width:0.45136681"
           dy="0"
           dx="0">Metabolism</tspan></tspan></text>
    <text
       id="text349"
       y="144.34628"
       x="120.76199"
       style="font-style:normal;font-variant:normal;font-weight:700;font-size:5.47282267px;line-height:125%;font-family:Arial;text-align:start;letter-spacing:0px;word-spacing:0px;text-anchor:start;fill:#000000;fill-opacity:1;stroke:none;stroke-width:0.45136681"
       xml:space="preserve"><tspan
         id="tspan347"
         y="144.34628"
         x="120.76199"
         sodipodi:role="line"
         style="stroke-width:0.45136681"><tspan
           id="tspan345"
           style="font-style:normal;font-variant:normal;font-weight:700;font-size:5.47282267px;font-family:Arial;fill:#008000;stroke-width:0.45136681"
           dy="0"
           dx="0">Catalysis</tspan></tspan></text>
    <text
       id="text355"
       y="145.1481"
       x="83.393257"
       style="font-style:normal;font-variant:normal;font-weight:700;font-size:5.47282267px;line-height:125%;font-family:Arial;text-align:start;letter-spacing:0px;word-spacing:0px;text-anchor:start;fill:#000000;fill-opacity:1;stroke:none;stroke-width:0.45136681"
       xml:space="preserve"><tspan
         id="tspan353"
         y="145.1481"
         x="83.393257"
         sodipodi:role="line"
         style="stroke-width:0.45136681"><tspan
           id="tspan351"
           style="font-style:normal;font-variant:normal;font-weight:700;font-size:5.47282267px;font-family:Arial;fill:#ff0000;stroke-width:0.45136681"
           dy="0"
           dx="0">Information</tspan></tspan></text>
  </g>
</svg>
