<?xml version="1.0" encoding="UTF-8" standalone="no"?>
<!-- Created with Inkscape (http://www.inkscape.org/) -->

<svg
   xmlns:dc="http://purl.org/dc/elements/1.1/"
   xmlns:cc="http://creativecommons.org/ns#"
   xmlns:rdf="http://www.w3.org/1999/02/22-rdf-syntax-ns#"
   xmlns:svg="http://www.w3.org/2000/svg"
   xmlns="http://www.w3.org/2000/svg"
   xmlns:sodipodi="http://sodipodi.sourceforge.net/DTD/sodipodi-0.dtd"
   xmlns:inkscape="http://www.inkscape.org/namespaces/inkscape"
   width="210mm"
   height="297mm"
   viewBox="0 0 210 297"
   version="1.1"
   id="svg8"
   sodipodi:docname="website_figure.svg"
   inkscape:version="0.92.4 (5da689c313, 2019-01-14)">
  <defs
     id="defs2">
    <pattern
       y="0"
       x="0"
       height="6"
       width="6"
       patternUnits="userSpaceOnUse"
       id="EMFhbasepattern" />
  </defs>
  <sodipodi:namedview
     id="base"
     pagecolor="#ffffff"
     bordercolor="#666666"
     borderopacity="1.0"
     inkscape:pageopacity="0.0"
     inkscape:pageshadow="2"
     inkscape:zoom="0.55070041"
     inkscape:cx="964.94102"
     inkscape:cy="665.23485"
     inkscape:document-units="mm"
     inkscape:current-layer="layer1"
     showgrid="false"
     inkscape:window-width="1920"
     inkscape:window-height="986"
     inkscape:window-x="-11"
     inkscape:window-y="-11"
     inkscape:window-maximized="1" />
  <metadata
     id="metadata5">
    <rdf:RDF>
      <cc:Work
         rdf:about="">
        <dc:format>image/svg+xml</dc:format>
        <dc:type
           rdf:resource="http://purl.org/dc/dcmitype/StillImage" />
        <dc:title></dc:title>
      </cc:Work>
    </rdf:RDF>
  </metadata>
  <g
     inkscape:label="Layer 1"
     inkscape:groupmode="layer"
     id="layer1">
    <path
       id="path13"
       d="m 87.769947,55.019066 c -0.61254,0.50208 -0.89371,1.70708 -0.95396,2.90204 -0.0201,0.59246 -0.14058,2.0485 -0.18075,2.63091 -0.0703,0.71296 -0.39163,2.03846 -0.99413,2.64096 -0.59246,0.6025 0.59246,-0.0904 1.45604,-0.93387 0.65271,-0.64267 0.86359,-1.66692 0.93388,-2.42004 0.0703,-0.68284 0.0803,-1.88784 0.19079,-3.03259 0.0803,-0.79329 -0.0201,-1.47612 0.34142,-1.93804 0.67279,-0.8435 0.47196,-0.89371 -0.79329,0.15063"
       style="fill:none;stroke:#700000;stroke-width:0.04016666px;stroke-linecap:butt;stroke-linejoin:miter;stroke-miterlimit:2;stroke-dasharray:none;stroke-opacity:1"
       inkscape:connector-curvature="0" />
    <path
       id="path15"
       d="m 87.769947,55.019066 c -0.61254,0.50208 -0.89371,1.70708 -0.95396,2.90204 -0.0201,0.59246 -0.14058,2.0485 -0.18075,2.63091 -0.0703,0.71296 -0.39163,2.03846 -0.99413,2.64096 -0.59246,0.6025 0.59246,-0.0904 1.45604,-0.93387 0.65271,-0.64267 0.86359,-1.66692 0.93388,-2.42004 0.0703,-0.68284 0.0803,-1.88784 0.19079,-3.03259 0.0803,-0.79329 -0.0201,-1.47612 0.34142,-1.93804 0.67279,-0.8435 0.47196,-0.89371 -0.79329,0.15063 z"
       style="fill:#700000;fill-opacity:1;fill-rule:nonzero;stroke:none;stroke-width:0.26458332"
       inkscape:connector-curvature="0" />
    <path
       id="path17"
       d="m 76.201947,62.630646 c -0.62259,0.51212 -0.90375,1.70708 -0.95396,2.91208 -0.0301,0.59246 -0.14058,2.0485 -0.19079,2.63092 -0.0602,0.70292 -0.39163,2.02842 -0.99413,2.63092 -0.59246,0.6025 0.59246,-0.0803 1.45604,-0.93388 0.66275,-0.64267 0.86359,-1.66692 0.94392,-2.42004 0.0602,-0.67279 0.0703,-1.88783 0.18075,-3.02254 0.0803,-0.80333 -0.01,-1.48617 0.35146,-1.93804 0.66275,-0.85354 0.46192,-0.90375 -0.79329,0.14058"
       style="fill:none;stroke:#700000;stroke-width:0.04016666px;stroke-linecap:butt;stroke-linejoin:miter;stroke-miterlimit:2;stroke-dasharray:none;stroke-opacity:1"
       inkscape:connector-curvature="0" />
    <path
       id="path19"
       d="m 76.201947,62.630646 c -0.62259,0.51212 -0.90375,1.70708 -0.95396,2.91208 -0.0301,0.59246 -0.14058,2.0485 -0.19079,2.63092 -0.0602,0.70292 -0.39163,2.02842 -0.99413,2.63092 -0.59246,0.6025 0.59246,-0.0803 1.45604,-0.93388 0.66275,-0.64267 0.86359,-1.66692 0.94392,-2.42004 0.0602,-0.67279 0.0703,-1.88783 0.18075,-3.02254 0.0803,-0.80333 -0.01,-1.48617 0.35146,-1.93804 0.66275,-0.85354 0.46192,-0.90375 -0.79329,0.14058 z"
       style="fill:#700000;fill-opacity:1;fill-rule:nonzero;stroke:none;stroke-width:0.26458332"
       inkscape:connector-curvature="0" />
    <path
       id="path21"
       d="m 84.185067,57.378856 c -0.61254,0.50208 -0.89371,1.70708 -0.95396,2.90204 -0.0301,0.59246 -0.14058,2.0485 -0.19079,2.63092 -0.0602,0.71296 -0.38158,2.03846 -0.98408,2.64096 -0.6025,0.6025 0.59246,-0.0904 1.45604,-0.93388 0.65271,-0.64267 0.86358,-1.66692 0.93388,-2.42004 0.0602,-0.68283 0.0703,-1.88783 0.19079,-3.03259 0.0803,-0.79329 -0.0201,-1.47612 0.34141,-1.93804 0.6728,-0.8435 0.47196,-0.8937 -0.79329,0.15063"
       style="fill:none;stroke:#ff0000;stroke-width:0.04016666px;stroke-linecap:butt;stroke-linejoin:miter;stroke-miterlimit:2;stroke-dasharray:none;stroke-opacity:1"
       inkscape:connector-curvature="0" />
    <path
       id="path23"
       d="m 84.185067,57.378856 c -0.61254,0.50208 -0.89371,1.70708 -0.95396,2.90204 -0.0301,0.59246 -0.14058,2.0485 -0.19079,2.63092 -0.0602,0.71296 -0.38158,2.03846 -0.98408,2.64096 -0.6025,0.6025 0.59246,-0.0904 1.45604,-0.93388 0.65271,-0.64267 0.86358,-1.66692 0.93388,-2.42004 0.0602,-0.68283 0.0703,-1.88783 0.19079,-3.03259 0.0803,-0.79329 -0.0201,-1.47612 0.34141,-1.93804 0.6728,-0.8435 0.47196,-0.8937 -0.79329,0.15063 z"
       style="fill:#ff0000;fill-opacity:1;fill-rule:nonzero;stroke:none;stroke-width:0.26458332"
       inkscape:connector-curvature="0" />
    <path
       id="path25"
       d="m 85.510567,56.465066 c 0.71296,-0.37154 1.93804,-0.16067 3.07275,0.26108 0.56234,0.21088 1.95813,0.68283 2.52046,0.87362 0.68283,0.22092 2.0485,0.44184 2.83175,0.12051 0.79329,-0.32134 -0.30125,0.51212 -1.41588,0.98408 -0.84349,0.3615 -1.87779,0.15062 -2.61083,-0.0803 -0.65271,-0.21087 -1.78742,-0.68283 -2.892,-1.02425 -0.77321,-0.25104 -1.37571,-0.6025 -1.93804,-0.45187 -1.04433,0.2912 -1.01421,0.0904 0.43179,-0.68284"
       style="fill:none;stroke:#b20000;stroke-width:0.04016666px;stroke-linecap:butt;stroke-linejoin:miter;stroke-miterlimit:2;stroke-dasharray:none;stroke-opacity:1"
       inkscape:connector-curvature="0" />
    <path
       id="path27"
       d="m 85.510567,56.465066 c 0.71296,-0.37154 1.93804,-0.16067 3.07275,0.26108 0.56234,0.21088 1.95813,0.68283 2.52046,0.87362 0.68283,0.22092 2.0485,0.44184 2.83175,0.12051 0.79329,-0.32134 -0.30125,0.51212 -1.41588,0.98408 -0.84349,0.3615 -1.87779,0.15062 -2.61083,-0.0803 -0.65271,-0.21087 -1.78742,-0.68283 -2.892,-1.02425 -0.77321,-0.25104 -1.37571,-0.6025 -1.93804,-0.45187 -1.04433,0.2912 -1.01421,0.0904 0.43179,-0.68284 z"
       style="fill:#b20000;fill-opacity:1;fill-rule:nonzero;stroke:none;stroke-width:0.26458332"
       inkscape:connector-curvature="0" />
    <path
       id="path29"
       d="m 72.607027,64.990436 c -0.61254,0.51213 -0.89371,1.70709 -0.95396,2.91209 -0.0201,0.59245 -0.14058,2.04849 -0.18075,2.63091 -0.0602,0.70292 -0.39162,2.02842 -0.99412,2.63092 -0.59246,0.6025 0.59246,-0.0803 1.45604,-0.93388 0.65271,-0.64266 0.86358,-1.66691 0.93387,-2.42004 0.0703,-0.67279 0.0803,-1.88783 0.1908,-3.02254 0.0803,-0.80333 -0.0201,-1.48617 0.34141,-1.93804 0.67279,-0.85354 0.47196,-0.90375 -0.79329,0.14058"
       style="fill:none;stroke:#840000;stroke-width:0.04016666px;stroke-linecap:butt;stroke-linejoin:miter;stroke-miterlimit:2;stroke-dasharray:none;stroke-opacity:1"
       inkscape:connector-curvature="0" />
    <path
       id="path31"
       d="m 72.607027,64.990436 c -0.61254,0.51213 -0.89371,1.70709 -0.95396,2.91209 -0.0201,0.59245 -0.14058,2.04849 -0.18075,2.63091 -0.0602,0.70292 -0.39162,2.02842 -0.99412,2.63092 -0.59246,0.6025 0.59246,-0.0803 1.45604,-0.93388 0.65271,-0.64266 0.86358,-1.66691 0.93387,-2.42004 0.0703,-0.67279 0.0803,-1.88783 0.1908,-3.02254 0.0803,-0.80333 -0.0201,-1.48617 0.34141,-1.93804 0.67279,-0.85354 0.47196,-0.90375 -0.79329,0.14058 z"
       style="fill:#840000;fill-opacity:1;fill-rule:nonzero;stroke:none;stroke-width:0.26458332"
       inkscape:connector-curvature="0" />
    <path
       id="path33"
       d="m 73.942567,64.086686 c 0.70292,-0.37154 1.928,-0.16066 3.06271,0.26108 0.56233,0.20084 1.96817,0.6728 2.52046,0.86359 0.68283,0.22091 2.0485,0.44183 2.83175,0.1205 0.79329,-0.32133 -0.30125,0.52217 -1.41588,0.99412 -0.8435,0.35146 -1.87779,0.14059 -2.61083,-0.0904 -0.65271,-0.21087 -1.78742,-0.68283 -2.892,-1.02424 -0.77321,-0.241 -1.36567,-0.6025 -1.93804,-0.44184 -1.03429,0.29121 -1.01421,0.0803 0.44183,-0.68283"
       style="fill:none;stroke:#b20000;stroke-width:0.04016666px;stroke-linecap:butt;stroke-linejoin:miter;stroke-miterlimit:2;stroke-dasharray:none;stroke-opacity:1"
       inkscape:connector-curvature="0" />
    <path
       id="path35"
       d="m 73.942567,64.086686 c 0.70292,-0.37154 1.928,-0.16066 3.06271,0.26108 0.56233,0.20084 1.96817,0.6728 2.52046,0.86359 0.68283,0.22091 2.0485,0.44183 2.83175,0.1205 0.79329,-0.32133 -0.30125,0.52217 -1.41588,0.99412 -0.8435,0.35146 -1.87779,0.14059 -2.61083,-0.0904 -0.65271,-0.21087 -1.78742,-0.68283 -2.892,-1.02424 -0.77321,-0.241 -1.36567,-0.6025 -1.93804,-0.44184 -1.03429,0.29121 -1.01421,0.0803 0.44183,-0.68283 z"
       style="fill:#b20000;fill-opacity:1;fill-rule:nonzero;stroke:none;stroke-width:0.26458332"
       inkscape:connector-curvature="0" />
    <path
       id="path37"
       d="m 89.105487,54.105266 c 0.70292,-0.37154 1.928,-0.16066 3.06271,0.26109 0.56233,0.21087 1.96816,0.68283 2.52046,0.87362 0.68283,0.22092 2.0485,0.44184 2.83174,0.1205 0.7933,-0.32133 -0.30125,0.51213 -1.41587,0.98409 -0.8435,0.3615 -1.87779,0.15062 -2.61083,-0.0803 -0.65271,-0.21088 -1.78742,-0.68284 -2.892,-1.02425 -0.77321,-0.25104 -1.36567,-0.6025 -1.93805,-0.44184 -1.04433,0.28117 -1.0142,0.0803 0.44184,-0.69287"
       style="fill:none;stroke:#930000;stroke-width:0.04016666px;stroke-linecap:butt;stroke-linejoin:miter;stroke-miterlimit:2;stroke-dasharray:none;stroke-opacity:1"
       inkscape:connector-curvature="0" />
    <path
       id="path39"
       d="m 89.105487,54.105266 c 0.70292,-0.37154 1.928,-0.16066 3.06271,0.26109 0.56233,0.21087 1.96816,0.68283 2.52046,0.87362 0.68283,0.22092 2.0485,0.44184 2.83174,0.1205 0.7933,-0.32133 -0.30125,0.51213 -1.41587,0.98409 -0.8435,0.3615 -1.87779,0.15062 -2.61083,-0.0803 -0.65271,-0.21088 -1.78742,-0.68284 -2.892,-1.02425 -0.77321,-0.25104 -1.36567,-0.6025 -1.93805,-0.44184 -1.04433,0.28117 -1.0142,0.0803 0.44184,-0.69287 z"
       style="fill:#930000;fill-opacity:1;fill-rule:nonzero;stroke:none;stroke-width:0.26458332"
       inkscape:connector-curvature="0" />
    <path
       id="path41"
       d="m 77.527447,61.726896 c 0.70291,-0.37154 1.928,-0.16067 3.07275,0.26108 0.55229,0.20084 1.95812,0.67279 2.52045,0.86359 0.6728,0.22091 2.03846,0.44183 2.83176,0.1205 0.78324,-0.32134 -0.3113,0.52216 -1.42592,0.99412 -0.8435,0.35146 -1.87779,0.14059 -2.60079,-0.0904 -0.66275,-0.21087 -1.78742,-0.68283 -2.90204,-1.02425 -0.77321,-0.241 -1.36567,-0.6025 -1.928,-0.44183 -1.04434,0.29121 -1.02425,0.0803 0.43179,-0.68283"
       style="fill:none;stroke:#930000;stroke-width:0.04016666px;stroke-linecap:butt;stroke-linejoin:miter;stroke-miterlimit:2;stroke-dasharray:none;stroke-opacity:1"
       inkscape:connector-curvature="0" />
    <path
       id="path43"
       d="m 77.527447,61.726896 c 0.70291,-0.37154 1.928,-0.16067 3.07275,0.26108 0.55229,0.20084 1.95812,0.67279 2.52045,0.86359 0.6728,0.22091 2.03846,0.44183 2.83176,0.1205 0.78324,-0.32134 -0.3113,0.52216 -1.42592,0.99412 -0.8435,0.35146 -1.87779,0.14059 -2.60079,-0.0904 -0.66275,-0.21087 -1.78742,-0.68283 -2.90204,-1.02425 -0.77321,-0.241 -1.36567,-0.6025 -1.928,-0.44183 -1.04434,0.29121 -1.02425,0.0803 0.43179,-0.68283 z"
       style="fill:#930000;fill-opacity:1;fill-rule:nonzero;stroke:none;stroke-width:0.26458332"
       inkscape:connector-curvature="0" />
    <path
       id="path45"
       d="m 77.075567,62.439856 c 0,0 1.07446,1.63679 1.75729,2.67108"
       style="fill:none;stroke:#ff0000;stroke-width:0.19079167px;stroke-linecap:butt;stroke-linejoin:miter;stroke-miterlimit:2;stroke-dasharray:none;stroke-opacity:1"
       inkscape:connector-curvature="0" />
    <path
       id="path47"
       d="m 78.933277,62.801356 c 0,0 1.07446,1.62675 1.75729,2.66104"
       style="fill:none;stroke:#ff0000;stroke-width:0.19079167px;stroke-linecap:butt;stroke-linejoin:miter;stroke-miterlimit:2;stroke-dasharray:none;stroke-opacity:1"
       inkscape:connector-curvature="0" />
    <path
       id="path49"
       d="m 80.871317,63.413896 c 0,0 0.82342,1.25521 1.35563,2.05854"
       style="fill:none;stroke:#ff0000;stroke-width:0.19079167px;stroke-linecap:butt;stroke-linejoin:miter;stroke-miterlimit:2;stroke-dasharray:none;stroke-opacity:1"
       inkscape:connector-curvature="0" />
    <path
       id="path51"
       d="m 84.426067,61.074186 c 0,0 0.82342,1.25521 1.34559,2.0485"
       style="fill:none;stroke:#ff0000;stroke-width:0.19079167px;stroke-linecap:butt;stroke-linejoin:miter;stroke-miterlimit:2;stroke-dasharray:none;stroke-opacity:1"
       inkscape:connector-curvature="0" />
    <path
       id="path53"
       d="m 84.687147,59.015646 c 0,0 1.07446,1.62675 1.7573,2.66104"
       style="fill:none;stroke:#ff0000;stroke-width:0.19079167px;stroke-linecap:butt;stroke-linejoin:miter;stroke-miterlimit:2;stroke-dasharray:none;stroke-opacity:1"
       inkscape:connector-curvature="0" />
    <path
       id="path55"
       d="m 85.048647,57.157936 c 0,0 1.07446,1.62675 1.74725,2.66104"
       style="fill:none;stroke:#ff0000;stroke-width:0.19079167px;stroke-linecap:butt;stroke-linejoin:miter;stroke-miterlimit:2;stroke-dasharray:none;stroke-opacity:1"
       inkscape:connector-curvature="0" />
    <path
       id="path57"
       d="m 88.683737,54.808186 c 0,0 1.07446,1.62675 1.75729,2.66104"
       style="fill:none;stroke:#ff0000;stroke-width:0.19079167px;stroke-linecap:butt;stroke-linejoin:miter;stroke-miterlimit:2;stroke-dasharray:none;stroke-opacity:1"
       inkscape:connector-curvature="0" />
    <path
       id="path59"
       d="m 90.541447,55.159646 c 0,0 1.07445,1.62675 1.75729,2.66104"
       style="fill:none;stroke:#ff0000;stroke-width:0.19079167px;stroke-linecap:butt;stroke-linejoin:miter;stroke-miterlimit:2;stroke-dasharray:none;stroke-opacity:1"
       inkscape:connector-curvature="0" />
    <path
       id="path61"
       d="m 92.479487,55.782226 c 0,0 0.83346,1.25521 1.35562,2.0485"
       style="fill:none;stroke:#ff0000;stroke-width:0.19079167px;stroke-linecap:butt;stroke-linejoin:miter;stroke-miterlimit:2;stroke-dasharray:none;stroke-opacity:1"
       inkscape:connector-curvature="0" />
    <path
       id="path63"
       d="m 72.848027,68.695816 c 0,0 0.82342,1.24516 1.34558,2.03846"
       style="fill:none;stroke:#ff0000;stroke-width:0.19079167px;stroke-linecap:butt;stroke-linejoin:miter;stroke-miterlimit:2;stroke-dasharray:none;stroke-opacity:1"
       inkscape:connector-curvature="0" />
    <path
       id="path65"
       d="m 73.109107,66.627226 c 0,0 1.07446,1.62675 1.7573,2.66105"
       style="fill:none;stroke:#ff0000;stroke-width:0.19079167px;stroke-linecap:butt;stroke-linejoin:miter;stroke-miterlimit:2;stroke-dasharray:none;stroke-opacity:1"
       inkscape:connector-curvature="0" />
    <path
       id="path67"
       d="m 73.470607,64.769526 c 0,0 1.07446,1.62675 1.74725,2.66104"
       style="fill:none;stroke:#ff0000;stroke-width:0.19079167px;stroke-linecap:butt;stroke-linejoin:miter;stroke-miterlimit:2;stroke-dasharray:none;stroke-opacity:1"
       inkscape:connector-curvature="0" />
    <path
       id="path69"
       d="m 137.61678,67.119266 c 0,9.52955 -7.72204,17.25159 -17.25158,17.25159 -9.5195,0 -17.24155,-7.72204 -17.24155,-17.25159 0,-9.5195 7.72205,-17.24154 17.24155,-17.24154 9.52954,0 17.25158,7.72204 17.25158,17.24154"
       style="fill:none;stroke:#008000;stroke-width:1.8075px;stroke-linecap:butt;stroke-linejoin:miter;stroke-miterlimit:2;stroke-dasharray:none;stroke-opacity:1"
       inkscape:connector-curvature="0" />
    <path
       id="path71"
       d="m 120.42545,97.645936 c 0,9.529544 -7.72205,17.251594 -17.25159,17.251594 -9.519503,0 -17.241543,-7.72205 -17.241543,-17.251594 0,-9.5195 7.72204,-17.24154 17.241543,-17.24154 9.52954,0 17.25159,7.72204 17.25159,17.24154"
       style="fill:none;stroke:#8000ff;stroke-width:1.8075px;stroke-linecap:butt;stroke-linejoin:miter;stroke-miterlimit:2;stroke-dasharray:none;stroke-opacity:1"
       inkscape:connector-curvature="0" />
    <path
       id="path73"
       d="m 109.55032,63.674976 0.31129,-0.723 0.34142,-0.68283 0.3615,-0.63262 0.39162,-0.58242 0.41171,-0.53221 0.86359,-0.92383 0.45187,-0.38159 0.47196,-0.34141 0.482,-0.29121 0.482,-0.241 0.49204,-0.20084 0.49204,-0.15062 0.49204,-0.10042 0.49205,-0.0603 0.49204,-0.01 0.482,0.0402 0.47196,0.0703 0.46191,0.13055 0.45188,0.16066 0.43179,0.21088 0.42175,0.26108 0.40167,0.29121 0.37154,0.34142 0.35146,0.38158 0.33137,0.43179 0.30125,0.46192 0.26109,0.51212 0.24099,0.54225 0.20084,0.59246 0.16066,0.63262 0.1205,0.6728 0.0502,0.39162 0.0803,0.78325 0.0602,0.65271 0.01,1.27529 -0.0502,0.23096 -0.0703,0.14058 -0.0904,0.0602 -0.11045,-0.01 -0.14059,-0.0703 -0.15062,-0.13054 -0.17071,-0.17071 -0.20083,-0.22091 -0.21088,-0.241 -0.22092,-0.27113 -0.25104,-0.28116 -0.26108,-0.29121 -0.27112,-0.28117 -0.60251,-0.54225 -0.32133,-0.241 -0.33137,-0.20083 -0.34142,-0.16067 -0.35146,-0.1205 -0.3615,-0.0602 -0.38158,0.01 -0.38159,0.0803 -0.18075,0.0602 -0.76316,0.29121 -0.77321,0.27113 -0.77321,0.23095 -0.75312,0.21088 -0.74309,0.16066 -0.69287,0.11046 -0.65271,0.0703 h -0.58242 l -0.51212,-0.0602 -0.43179,-0.1205 -0.33138,-0.21087 -0.21087,-0.28117 -0.10042,-0.37154 0.0402,-0.46192 0.0402,-0.16066 z"
       style="fill:#b3d9b3;fill-opacity:1;fill-rule:evenodd;stroke:none;stroke-width:0.26458332"
       inkscape:connector-curvature="0" />
    <path
       id="path75"
       d="m 109.55032,63.674976 c 3.23342,-8.22412 11.6885,-7.471 12.54204,0.27113 0.86359,7.74212 -1.71712,-1.43596 -5.302,0 -3.58487,1.43596 -7.99316,2.25937 -7.24004,-0.32133"
       style="fill:none;stroke:#008000;stroke-width:0.65270835px;stroke-linecap:butt;stroke-linejoin:miter;stroke-miterlimit:2;stroke-dasharray:none;stroke-opacity:1"
       inkscape:connector-curvature="0" />
    <path
       id="path77"
       d="m 110.4139,71.417106 1.02425,-0.23096 0.98409,-0.33137 0.92383,-0.42176 0.86358,-0.482 0.78326,-0.50208 0.69287,-0.51212 0.6025,-0.49204 0.51213,-0.45188 0.38158,-0.37154 0.27112,-0.27113 0.14059,-0.15062 0.0201,-0.0301 -0.0201,0.0703 -0.0602,0.20083 -0.0803,0.30125 -0.0803,0.39163 -0.0703,0.45187 -0.0502,0.50209 -0.01,0.5322 0.0402,0.53221 0.11045,0.52217 0.19079,0.49204 0.29121,0.43179 0.41171,0.35146 0.53221,0.27112 0.68283,0.15063 0.83346,0.01 0.83346,-0.10042 0.68283,-0.0904 0.56234,0.01 0.45187,0.0803 0.34142,0.16067 0.25104,0.21088 0.16067,0.27112 0.0803,0.32134 v 0.35145 l -0.0602,0.38159 -0.13054,0.39162 -0.18075,0.41171 -0.23096,0.40167 -0.27113,0.39162 -0.30125,0.38158 -0.33137,0.34142 -0.34142,0.32133 -0.3615,0.26109 -0.3615,0.21087 -0.3615,0.15063 -0.35146,0.0703 h -0.33137 l -0.31129,-0.10042 -0.22092,-0.15062 -0.3615,-0.26109 -0.45187,-0.29121 -0.54225,-0.31129 -0.60251,-0.32133 -0.66275,-0.33137 -0.69287,-0.34142 -1.45604,-0.69288 -0.73304,-0.35145 -0.70292,-0.34142 -0.67279,-0.32134 -0.63263,-0.32133 -0.56233,-0.30125 -0.482,-0.28116 -0.39162,-0.26109 -0.29121,-0.241 -0.16067,-0.20083 -0.0301,-0.17071 0.13054,-0.14058 0.28117,-0.10042 h 0.0402 z"
       style="fill:#b3d9b3;fill-opacity:1;fill-rule:evenodd;stroke:none;stroke-width:0.26458332"
       inkscape:connector-curvature="0" />
    <path
       id="path79"
       d="m 110.4139,71.417106 c 4.02671,-0.64267 7.19988,-4.24763 7.19988,-4.24763 0,0 -2.08867,6.13546 3.55475,5.11121 5.64342,-1.02425 0.42175,6.507 -1.61671,4.77983 -2.03846,-1.71712 -11.60817,-5.10116 -8.97725,-5.58316"
       style="fill:none;stroke:#008000;stroke-width:0.65270835px;stroke-linecap:butt;stroke-linejoin:miter;stroke-miterlimit:2;stroke-dasharray:none;stroke-opacity:1"
       inkscape:connector-curvature="0" />
    <path
       id="path81"
       d="m 124.01032,68.575316 -0.0201,-0.68284 v -0.64266 l 0.0301,-0.6025 0.17071,-1.07446 0.15062,-0.45188 0.1908,-0.39162 0.25104,-0.33138 0.31129,-0.241 0.37154,-0.1707 0.43179,-0.0703 0.50208,0.01 0.58242,0.1205 0.66275,0.23096 0.74309,0.34141 0.83345,0.46192 0.59246,0.37154 0.78325,0.56233 0.59246,0.52217 0.40167,0.50208 0.241,0.46192 0.10041,0.43179 -0.0301,0.40167 -0.14058,0.38158 -0.23096,0.34142 -0.30125,0.33137 -0.3615,0.29121 -0.40166,0.28117 -0.41171,0.25104 -0.42175,0.23096 -0.39163,0.21087 -0.37154,0.1908 -0.31129,0.1707 -0.25104,0.16067 -0.10042,0.0803 -0.37154,0.19079 -0.49204,0.0402 -0.57238,-0.10041 -0.61254,-0.24101 -0.6025,-0.37154 -0.56233,-0.482 -0.482,-0.58241 -0.34142,-0.6728 -0.16067,-0.62258 z"
       style="fill:#b3d9b3;fill-opacity:1;fill-rule:evenodd;stroke:none;stroke-width:0.26458332"
       inkscape:connector-curvature="0" />
    <path
       id="path83"
       d="m 124.01032,68.575316 c -0.21087,-3.81584 0.59246,-6.507 5.80409,-3.12296 5.22166,3.38404 -0.74309,5.00075 -1.60667,5.80408 -0.86358,0.81338 -3.87609,-0.53221 -4.19742,-2.84179"
       style="fill:none;stroke:#008000;stroke-width:0.65270835px;stroke-linecap:butt;stroke-linejoin:miter;stroke-miterlimit:2;stroke-dasharray:none;stroke-opacity:1"
       inkscape:connector-curvature="0" />
    <path
       id="path85"
       d="m 89.728067,96.691976 v 0.46192 h 17.593003 v -0.46192 z"
       style="fill:#8000ff;fill-opacity:1;fill-rule:evenodd;stroke:none;stroke-width:0.26458332"
       inkscape:connector-curvature="0" />
    <path
       id="path87"
       d="m 99.458447,86.399276 v 20.203834 h 0.47196 V 86.399276 Z"
       style="fill:#8000ff;fill-opacity:1;fill-rule:evenodd;stroke:none;stroke-width:0.26458332"
       inkscape:connector-curvature="0" />
    <path
       id="path89"
       d="m 96.717067,102.23498 v 0.46192 h 18.075003 v -0.46192 z"
       style="fill:#8000ff;fill-opacity:1;fill-rule:evenodd;stroke:none;stroke-width:0.26458332"
       inkscape:connector-curvature="0" />
    <path
       id="path91"
       d="m 110.94611,98.529606 v 3.534674 h 0.47196 v -3.534674 z"
       style="fill:#8000ff;fill-opacity:1;fill-rule:evenodd;stroke:none;stroke-width:0.26458332"
       inkscape:connector-curvature="0" />
    <path
       id="path93"
       d="m 109.81141,99.985646 v 0.461924 h 5.38233 v -0.461924 z"
       style="fill:#8000ff;fill-opacity:1;fill-rule:evenodd;stroke:none;stroke-width:0.26458332"
       inkscape:connector-curvature="0" />
    <path
       id="path95"
       d="m 109.01811,88.005936 v 5.302 h 0.47196 v -5.302 z"
       style="fill:#8000ff;fill-opacity:1;fill-rule:evenodd;stroke:none;stroke-width:0.26458332"
       inkscape:connector-curvature="0" />
    <path
       id="path97"
       d="m 103.06341,90.024316 v 0.46191 h 13.41566 v -0.46191 z"
       style="fill:#8000ff;fill-opacity:1;fill-rule:evenodd;stroke:none;stroke-width:0.26458332"
       inkscape:connector-curvature="0" />
    <path
       id="path99"
       d="m 114.40045,91.701266 v 15.263344 h 0.47196 V 91.701266 Z"
       style="fill:#8000ff;fill-opacity:1;fill-rule:evenodd;stroke:none;stroke-width:0.26458332"
       inkscape:connector-curvature="0" />
    <path
       id="path101"
       d="m 102.70191,105.68932 v 0.46191 h 6.11537 v -0.46191 z"
       style="fill:#8000ff;fill-opacity:1;fill-rule:evenodd;stroke:none;stroke-width:0.26458332"
       inkscape:connector-curvature="0" />
    <path
       id="path103"
       d="m 105.24245,104.07261 v 6.82833 h 0.47195 v -6.82833 z"
       style="fill:#8000ff;fill-opacity:1;fill-rule:evenodd;stroke:none;stroke-width:0.26458332"
       inkscape:connector-curvature="0" />
    <path
       id="path105"
       d="m 91.264447,91.299606 v 13.496004 h 0.47196 V 91.299606 Z"
       style="fill:#8000ff;fill-opacity:1;fill-rule:evenodd;stroke:none;stroke-width:0.26458332"
       inkscape:connector-curvature="0" />
    <path
       id="path107"
       d="m 97.199067,109.94698 v 0.46192 h 15.665003 v -0.46192 z"
       style="fill:#8000ff;fill-opacity:1;fill-rule:evenodd;stroke:none;stroke-width:0.26458332"
       inkscape:connector-curvature="0" />
    <path
       id="path109"
       d="m 95.672737,87.614316 v 0.46191 H 108.3654 v -0.46191 z"
       style="fill:#8000ff;fill-opacity:1;fill-rule:evenodd;stroke:none;stroke-width:0.26458332"
       inkscape:connector-curvature="0" />
    <path
       id="path111"
       d="m 103.55545,81.980936 v 8.3145 h 0.47196 v -8.3145 z"
       style="fill:#8000ff;fill-opacity:1;fill-rule:evenodd;stroke:none;stroke-width:0.26458332"
       inkscape:connector-curvature="0" />
    <path
       id="path113"
       d="m 87.800067,94.040976 v 0.46192 h 9.55967 v -0.46192 z"
       style="fill:#8000ff;fill-opacity:1;fill-rule:evenodd;stroke:none;stroke-width:0.26458332"
       inkscape:connector-curvature="0" />
    <path
       id="path115"
       d="m 102.99311,106.56294 v 6.507 h 0.47196 v -6.507 z"
       style="fill:#8000ff;fill-opacity:1;fill-rule:evenodd;stroke:none;stroke-width:0.26458332"
       inkscape:connector-curvature="0" />
    <path
       id="path117"
       d="m 105.47341,94.603316 v 0.46191 h 9.25841 v -0.46191 z"
       style="fill:#8000ff;fill-opacity:1;fill-rule:evenodd;stroke:none;stroke-width:0.26458332"
       inkscape:connector-curvature="0" />
    <path
       id="path119"
       d="m 102.66174,95.647646 v 0.46192 h 9.25842 v -0.46192 z"
       style="fill:#8000ff;fill-opacity:1;fill-rule:evenodd;stroke:none;stroke-width:0.26458332"
       inkscape:connector-curvature="0" />
    <path
       id="path121"
       d="m 101.22578,96.119606 v 2.81167 h 0.47196 v -2.81167 z"
       style="fill:#8000ff;fill-opacity:1;fill-rule:evenodd;stroke:none;stroke-width:0.26458332"
       inkscape:connector-curvature="0" />
    <path
       id="path123"
       d="m 104.11778,94.593276 v 7.953004 h 0.47196 v -7.953004 z"
       style="fill:#8000ff;fill-opacity:1;fill-rule:evenodd;stroke:none;stroke-width:0.26458332"
       inkscape:connector-curvature="0" />
    <path
       id="path125"
       d="m 96.556407,91.369896 v 0.46192 h 18.155333 v -0.46192 z"
       style="fill:#8000ff;fill-opacity:1;fill-rule:evenodd;stroke:none;stroke-width:0.26458332"
       inkscape:connector-curvature="0" />
    <path
       id="path127"
       d="m 94.297027,91.169066 v 17.482544 h 0.46192 V 91.169066 Z"
       style="fill:#8000ff;fill-opacity:1;fill-rule:evenodd;stroke:none;stroke-width:0.26458332"
       inkscape:connector-curvature="0" />
    <path
       id="path129"
       d="m 90.129737,100.25678 v 0.46191 h 2.47025 v -0.46191 z"
       style="fill:#8000ff;fill-opacity:1;fill-rule:evenodd;stroke:none;stroke-width:0.26458332"
       inkscape:connector-curvature="0" />
    <path
       id="path131"
       d="m 93.563987,104.00232 v 0.46191 h 2.99242 v -0.46191 z"
       style="fill:#8000ff;fill-opacity:1;fill-rule:evenodd;stroke:none;stroke-width:0.26458332"
       inkscape:connector-curvature="0" />
    <path
       id="path133"
       d="m 92.369027,99.312856 v 7.069334 h 0.46192 v -7.069334 z"
       style="fill:#8000ff;fill-opacity:1;fill-rule:evenodd;stroke:none;stroke-width:0.26458332"
       inkscape:connector-curvature="0" />
    <path
       id="path135"
       d="m 91.846857,105.28765 v 0.46192 h 7.92288 v -0.46192 z"
       style="fill:#8000ff;fill-opacity:1;fill-rule:evenodd;stroke:none;stroke-width:0.26458332"
       inkscape:connector-curvature="0" />
    <path
       id="path137"
       d="m 92.268607,96.872726 c 0,0.41171 -0.33137,0.74309 -0.74308,0.74309 -0.41171,0 -0.74308,-0.33138 -0.74308,-0.74309 0,-0.4117 0.33137,-0.74308 0.74308,-0.74308 0.41171,0 0.74308,0.33138 0.74308,0.74308 z"
       style="fill:#800080;fill-opacity:1;fill-rule:evenodd;stroke:none;stroke-width:0.26458332"
       inkscape:connector-curvature="0" />
    <path
       id="path139"
       d="m 95.281107,96.872726 c 0,0.41171 -0.33137,0.74309 -0.74308,0.74309 -0.41171,0 -0.74308,-0.33138 -0.74308,-0.74309 0,-0.4117 0.33137,-0.74308 0.74308,-0.74308 0.41171,0 0.74308,0.33138 0.74308,0.74308 z"
       style="fill:#800080;fill-opacity:1;fill-rule:evenodd;stroke:none;stroke-width:0.26458332"
       inkscape:connector-curvature="0" />
    <path
       id="path141"
       d="m 100.42245,96.872726 c 0,0.41171 -0.33138,0.74309 -0.743093,0.74309 -0.41171,0 -0.74308,-0.33138 -0.74308,-0.74309 0,-0.4117 0.33137,-0.74308 0.74308,-0.74308 0.411713,0 0.743093,0.33138 0.743093,0.74308 z"
       style="fill:#800080;fill-opacity:1;fill-rule:evenodd;stroke:none;stroke-width:0.26458332"
       inkscape:connector-curvature="0" />
    <path
       id="path143"
       d="m 102.22995,96.792396 c 0,0.41171 -0.33138,0.74308 -0.74309,0.74308 -0.4117,0 -0.74308,-0.33137 -0.74308,-0.74308 0,-0.41171 0.33138,-0.74308 0.74308,-0.74308 0.41171,0 0.74309,0.33137 0.74309,0.74308 z"
       style="fill:#800080;fill-opacity:1;fill-rule:evenodd;stroke:none;stroke-width:0.26458332"
       inkscape:connector-curvature="0" />
    <path
       id="path145"
       d="m 105.08178,96.872726 c 0,0.41171 -0.33137,0.74309 -0.74308,0.74309 -0.41171,0 -0.74309,-0.33138 -0.74309,-0.74309 0,-0.4117 0.33138,-0.74308 0.74309,-0.74308 0.41171,0 0.74308,0.33138 0.74308,0.74308 z"
       style="fill:#800080;fill-opacity:1;fill-rule:evenodd;stroke:none;stroke-width:0.26458332"
       inkscape:connector-curvature="0" />
    <path
       id="path147"
       d="m 108.05411,96.872726 c 0,0.41171 -0.33137,0.74309 -0.74308,0.74309 -0.41171,0 -0.74308,-0.33138 -0.74308,-0.74309 0,-0.4117 0.33137,-0.74308 0.74308,-0.74308 0.41171,0 0.74308,0.33138 0.74308,0.74308 z"
       style="fill:#800080;fill-opacity:1;fill-rule:evenodd;stroke:none;stroke-width:0.26458332"
       inkscape:connector-curvature="0" />
    <path
       id="path149"
       d="m 111.99045,100.24673 c 0,0.41171 -0.33138,0.74309 -0.74309,0.74309 -0.4117,0 -0.74308,-0.33138 -0.74308,-0.74309 0,-0.411714 0.33138,-0.743084 0.74308,-0.743084 0.41171,0 0.74309,0.33137 0.74309,0.743084 z"
       style="fill:#800080;fill-opacity:1;fill-rule:evenodd;stroke:none;stroke-width:0.26458332"
       inkscape:connector-curvature="0" />
    <path
       id="path151"
       d="m 115.48495,100.24673 c 0,0.41171 -0.33138,0.74309 -0.74309,0.74309 -0.4117,0 -0.74308,-0.33138 -0.74308,-0.74309 0,-0.411714 0.33138,-0.743084 0.74308,-0.743084 0.41171,0 0.74309,0.33137 0.74309,0.743084 z"
       style="fill:#800080;fill-opacity:1;fill-rule:evenodd;stroke:none;stroke-width:0.26458332"
       inkscape:connector-curvature="0" />
    <path
       id="path153"
       d="m 110.06245,100.24673 c 0,0.41171 -0.33138,0.74309 -0.74309,0.74309 -0.4117,0 -0.74308,-0.33138 -0.74308,-0.74309 0,-0.411714 0.33138,-0.743084 0.74308,-0.743084 0.41171,0 0.74309,0.33137 0.74309,0.743084 z"
       style="fill:#800080;fill-opacity:1;fill-rule:evenodd;stroke:none;stroke-width:0.26458332"
       inkscape:connector-curvature="0" />
    <path
       id="path155"
       d="m 111.99045,98.399066 c 0,0.4117 -0.33138,0.74308 -0.74309,0.74308 -0.4117,0 -0.74308,-0.33138 -0.74308,-0.74308 0,-0.41171 0.33138,-0.74309 0.74308,-0.74309 0.41171,0 0.74309,0.33138 0.74309,0.74309 z"
       style="fill:#800080;fill-opacity:1;fill-rule:evenodd;stroke:none;stroke-width:0.26458332"
       inkscape:connector-curvature="0" />
    <path
       id="path157"
       d="m 111.99045,102.3354 c 0,0.41171 -0.33138,0.74308 -0.74309,0.74308 -0.4117,0 -0.74308,-0.33137 -0.74308,-0.74308 0,-0.41171 0.33138,-0.74308 0.74308,-0.74308 0.41171,0 0.74309,0.33137 0.74309,0.74308 z"
       style="fill:#800080;fill-opacity:1;fill-rule:evenodd;stroke:none;stroke-width:0.26458332"
       inkscape:connector-curvature="0" />
    <path
       id="path159"
       d="m 105.12195,102.3354 c 0,0.41171 -0.33138,0.74308 -0.74309,0.74308 -0.41171,0 -0.74308,-0.33137 -0.74308,-0.74308 0,-0.41171 0.33137,-0.74308 0.74308,-0.74308 0.41171,0 0.74309,0.33137 0.74309,0.74308 z"
       style="fill:#800080;fill-opacity:1;fill-rule:evenodd;stroke:none;stroke-width:0.26458332"
       inkscape:connector-curvature="0" />
    <path
       id="path161"
       d="m 97.249277,102.3354 c 0,0.41171 -0.33137,0.74308 -0.74308,0.74308 -0.41171,0 -0.74309,-0.33137 -0.74309,-0.74308 0,-0.41171 0.33138,-0.74308 0.74309,-0.74308 0.41171,0 0.74308,0.33137 0.74308,0.74308 z"
       style="fill:#800080;fill-opacity:1;fill-rule:evenodd;stroke:none;stroke-width:0.26458332"
       inkscape:connector-curvature="0" />
    <path
       id="path163"
       d="m 100.50278,102.3354 c 0,0.41171 -0.33138,0.74308 -0.743083,0.74308 -0.41171,0 -0.74309,-0.33137 -0.74309,-0.74308 0,-0.41171 0.33138,-0.74308 0.74309,-0.74308 0.411703,0 0.743083,0.33137 0.743083,0.74308 z"
       style="fill:#800080;fill-opacity:1;fill-rule:evenodd;stroke:none;stroke-width:0.26458332"
       inkscape:connector-curvature="0" />
    <path
       id="path165"
       d="m 100.50278,106.83407 c 0,0.41171 -0.33138,0.74308 -0.743083,0.74308 -0.41171,0 -0.74309,-0.33137 -0.74309,-0.74308 0,-0.41171 0.33138,-0.74309 0.74309,-0.74309 0.411703,0 0.743083,0.33138 0.743083,0.74309 z"
       style="fill:#800080;fill-opacity:1;fill-rule:evenodd;stroke:none;stroke-width:0.26458332"
       inkscape:connector-curvature="0" />
    <path
       id="path167"
       d="m 100.50278,105.14707 c 0,0.4117 -0.33138,0.74308 -0.743083,0.74308 -0.41171,0 -0.74309,-0.33138 -0.74309,-0.74308 0,-0.41171 0.33138,-0.74309 0.74309,-0.74309 0.411703,0 0.743083,0.33138 0.743083,0.74309 z"
       style="fill:#800080;fill-opacity:1;fill-rule:evenodd;stroke:none;stroke-width:0.26458332"
       inkscape:connector-curvature="0" />
    <path
       id="path169"
       d="m 95.321277,105.54873 c 0,0.41171 -0.33137,0.74309 -0.74308,0.74309 -0.41171,0 -0.74309,-0.33138 -0.74309,-0.74309 0,-0.4117 0.33138,-0.74308 0.74309,-0.74308 0.41171,0 0.74308,0.33138 0.74308,0.74308 z"
       style="fill:#800080;fill-opacity:1;fill-rule:evenodd;stroke:none;stroke-width:0.26458332"
       inkscape:connector-curvature="0" />
    <path
       id="path171"
       d="m 95.321277,108.8424 c 0,0.41171 -0.33137,0.74308 -0.74308,0.74308 -0.41171,0 -0.74309,-0.33137 -0.74309,-0.74308 0,-0.41171 0.33138,-0.74308 0.74309,-0.74308 0.41171,0 0.74308,0.33137 0.74308,0.74308 z"
       style="fill:#800080;fill-opacity:1;fill-rule:evenodd;stroke:none;stroke-width:0.26458332"
       inkscape:connector-curvature="0" />
    <path
       id="path173"
       d="m 97.650947,110.08757 c 0,0.41171 -0.33138,0.74308 -0.74309,0.74308 -0.41171,0 -0.74308,-0.33137 -0.74308,-0.74308 0,-0.41171 0.33137,-0.74309 0.74308,-0.74309 0.41171,0 0.74309,0.33138 0.74309,0.74309 z"
       style="fill:#800080;fill-opacity:1;fill-rule:evenodd;stroke:none;stroke-width:0.26458332"
       inkscape:connector-curvature="0" />
    <path
       id="path175"
       d="m 103.95711,110.08757 c 0,0.41171 -0.33137,0.74308 -0.74308,0.74308 -0.41171,0 -0.74308,-0.33137 -0.74308,-0.74308 0,-0.41171 0.33137,-0.74309 0.74308,-0.74309 0.41171,0 0.74308,0.33138 0.74308,0.74309 z"
       style="fill:#800080;fill-opacity:1;fill-rule:evenodd;stroke:none;stroke-width:0.26458332"
       inkscape:connector-curvature="0" />
    <path
       id="path177"
       d="m 106.24661,110.20807 c 0,0.4117 -0.33137,0.74308 -0.74308,0.74308 -0.41171,0 -0.74308,-0.33138 -0.74308,-0.74308 0,-0.41171 0.33137,-0.74309 0.74308,-0.74309 0.41171,0 0.74308,0.33138 0.74308,0.74309 z"
       style="fill:#800080;fill-opacity:1;fill-rule:evenodd;stroke:none;stroke-width:0.26458332"
       inkscape:connector-curvature="0" />
    <path
       id="path179"
       d="m 113.59711,110.20807 c 0,0.4117 -0.33137,0.74308 -0.74308,0.74308 -0.41171,0 -0.74308,-0.33138 -0.74308,-0.74308 0,-0.41171 0.33137,-0.74309 0.74308,-0.74309 0.41171,0 0.74308,0.33138 0.74308,0.74309 z"
       style="fill:#800080;fill-opacity:1;fill-rule:evenodd;stroke:none;stroke-width:0.26458332"
       inkscape:connector-curvature="0" />
    <path
       id="path181"
       d="m 103.95711,105.8299 c 0,0.41171 -0.33137,0.74308 -0.74308,0.74308 -0.41171,0 -0.74308,-0.33137 -0.74308,-0.74308 0,-0.41171 0.33137,-0.74308 0.74308,-0.74308 0.41171,0 0.74308,0.33137 0.74308,0.74308 z"
       style="fill:#800080;fill-opacity:1;fill-rule:evenodd;stroke:none;stroke-width:0.26458332"
       inkscape:connector-curvature="0" />
    <path
       id="path183"
       d="m 103.95711,113.3009 c 0,0.41171 -0.33137,0.74308 -0.74308,0.74308 -0.41171,0 -0.74308,-0.33137 -0.74308,-0.74308 0,-0.41171 0.33137,-0.74308 0.74308,-0.74308 0.41171,0 0.74308,0.33137 0.74308,0.74308 z"
       style="fill:#800080;fill-opacity:1;fill-rule:evenodd;stroke:none;stroke-width:0.26458332"
       inkscape:connector-curvature="0" />
    <path
       id="path185"
       d="m 106.24661,105.87007 c 0,0.4117 -0.33137,0.74308 -0.74308,0.74308 -0.41171,0 -0.74308,-0.33138 -0.74308,-0.74308 0,-0.41171 0.33137,-0.74309 0.74308,-0.74309 0.41171,0 0.74308,0.33138 0.74308,0.74309 z"
       style="fill:#800080;fill-opacity:1;fill-rule:evenodd;stroke:none;stroke-width:0.26458332"
       inkscape:connector-curvature="0" />
    <path
       id="path187"
       d="m 109.45995,105.87007 c 0,0.4117 -0.33138,0.74308 -0.74309,0.74308 -0.41171,0 -0.74308,-0.33138 -0.74308,-0.74308 0,-0.41171 0.33137,-0.74309 0.74308,-0.74309 0.41171,0 0.74309,0.33138 0.74309,0.74309 z"
       style="fill:#800080;fill-opacity:1;fill-rule:evenodd;stroke:none;stroke-width:0.26458332"
       inkscape:connector-curvature="0" />
    <path
       id="path189"
       d="m 106.24661,103.9019 c 0,0.41171 -0.33137,0.74308 -0.74308,0.74308 -0.41171,0 -0.74308,-0.33137 -0.74308,-0.74308 0,-0.41171 0.33137,-0.74308 0.74308,-0.74308 0.41171,0 0.74308,0.33137 0.74308,0.74308 z"
       style="fill:#800080;fill-opacity:1;fill-rule:evenodd;stroke:none;stroke-width:0.26458332"
       inkscape:connector-curvature="0" />
    <path
       id="path191"
       d="m 102.22995,99.483566 c 0,0.41171 -0.33138,0.743084 -0.74309,0.743084 -0.4117,0 -0.74308,-0.331374 -0.74308,-0.743084 0,-0.41171 0.33138,-0.74309 0.74308,-0.74309 0.41171,0 0.74309,0.33138 0.74309,0.74309 z"
       style="fill:#800080;fill-opacity:1;fill-rule:evenodd;stroke:none;stroke-width:0.26458332"
       inkscape:connector-curvature="0" />
    <path
       id="path193"
       d="m 100.42245,91.450226 c 0,0.41171 -0.33138,0.74309 -0.743093,0.74309 -0.41171,0 -0.74308,-0.33138 -0.74308,-0.74309 0,-0.4117 0.33137,-0.74308 0.74308,-0.74308 0.411713,0 0.743093,0.33138 0.743093,0.74308 z"
       style="fill:#800080;fill-opacity:1;fill-rule:evenodd;stroke:none;stroke-width:0.26458332"
       inkscape:connector-curvature="0" />
    <path
       id="path195"
       d="m 100.42245,87.915566 c 0,0.41171 -0.33138,0.74308 -0.743093,0.74308 -0.41171,0 -0.74308,-0.33137 -0.74308,-0.74308 0,-0.41171 0.33137,-0.74309 0.74308,-0.74309 0.411713,0 0.743093,0.33138 0.743093,0.74309 z"
       style="fill:#800080;fill-opacity:1;fill-rule:evenodd;stroke:none;stroke-width:0.26458332"
       inkscape:connector-curvature="0" />
    <path
       id="path197"
       d="m 96.405777,87.915566 c 0,0.41171 -0.33137,0.74308 -0.74308,0.74308 -0.41171,0 -0.74309,-0.33137 -0.74309,-0.74308 0,-0.41171 0.33138,-0.74309 0.74309,-0.74309 0.41171,0 0.74308,0.33138 0.74308,0.74309 z"
       style="fill:#800080;fill-opacity:1;fill-rule:evenodd;stroke:none;stroke-width:0.26458332"
       inkscape:connector-curvature="0" />
    <path
       id="path199"
       d="m 109.70095,87.915566 c 0,0.41171 -0.33138,0.74308 -0.74309,0.74308 -0.4117,0 -0.74308,-0.33137 -0.74308,-0.74308 0,-0.41171 0.33138,-0.74309 0.74308,-0.74309 0.41171,0 0.74309,0.33138 0.74309,0.74309 z"
       style="fill:#800080;fill-opacity:1;fill-rule:evenodd;stroke:none;stroke-width:0.26458332"
       inkscape:connector-curvature="0" />
    <path
       id="path201"
       d="m 100.42245,85.947396 c 0,0.41171 -0.33138,0.74308 -0.743093,0.74308 -0.41171,0 -0.74308,-0.33137 -0.74308,-0.74308 0,-0.41171 0.33137,-0.74308 0.74308,-0.74308 0.411713,0 0.743093,0.33137 0.743093,0.74308 z"
       style="fill:#800080;fill-opacity:1;fill-rule:evenodd;stroke:none;stroke-width:0.26458332"
       inkscape:connector-curvature="0" />
    <path
       id="path203"
       d="m 97.088607,91.530566 c 0,0.41171 -0.33137,0.74308 -0.74308,0.74308 -0.41171,0 -0.74308,-0.33137 -0.74308,-0.74308 0,-0.41171 0.33137,-0.74309 0.74308,-0.74309 0.41171,0 0.74308,0.33138 0.74308,0.74309 z"
       style="fill:#800080;fill-opacity:1;fill-rule:evenodd;stroke:none;stroke-width:0.26458332"
       inkscape:connector-curvature="0" />
    <path
       id="path205"
       d="m 95.281107,94.261896 c 0,0.41171 -0.33137,0.74308 -0.74308,0.74308 -0.41171,0 -0.74308,-0.33137 -0.74308,-0.74308 0,-0.41171 0.33137,-0.74308 0.74308,-0.74308 0.41171,0 0.74308,0.33137 0.74308,0.74308 z"
       style="fill:#800080;fill-opacity:1;fill-rule:evenodd;stroke:none;stroke-width:0.26458332"
       inkscape:connector-curvature="0" />
    <path
       id="path207"
       d="m 95.281107,90.767396 c 0,0.41171 -0.33137,0.74308 -0.74308,0.74308 -0.41171,0 -0.74308,-0.33137 -0.74308,-0.74308 0,-0.41171 0.33137,-0.74308 0.74308,-0.74308 0.41171,0 0.74308,0.33137 0.74308,0.74308 z"
       style="fill:#800080;fill-opacity:1;fill-rule:evenodd;stroke:none;stroke-width:0.26458332"
       inkscape:connector-curvature="0" />
    <path
       id="path209"
       d="m 98.293607,94.261896 c 0,0.41171 -0.33137,0.74308 -0.74308,0.74308 -0.41171,0 -0.74308,-0.33137 -0.74308,-0.74308 0,-0.41171 0.33137,-0.74308 0.74308,-0.74308 0.41171,0 0.74308,0.33137 0.74308,0.74308 z"
       style="fill:#800080;fill-opacity:1;fill-rule:evenodd;stroke:none;stroke-width:0.26458332"
       inkscape:connector-curvature="0" />
    <path
       id="path211"
       d="m 92.228447,94.261896 c 0,0.41171 -0.33138,0.74308 -0.74309,0.74308 -0.4117,0 -0.74308,-0.33137 -0.74308,-0.74308 0,-0.41171 0.33138,-0.74308 0.74308,-0.74308 0.41171,0 0.74309,0.33137 0.74309,0.74308 z"
       style="fill:#800080;fill-opacity:1;fill-rule:evenodd;stroke:none;stroke-width:0.26458332"
       inkscape:connector-curvature="0" />
    <path
       id="path213"
       d="m 92.228447,91.048566 c 0,0.41171 -0.33138,0.74308 -0.74309,0.74308 -0.4117,0 -0.74308,-0.33137 -0.74308,-0.74308 0,-0.41171 0.33138,-0.74309 0.74308,-0.74309 0.41171,0 0.74309,0.33138 0.74309,0.74309 z"
       style="fill:#800080;fill-opacity:1;fill-rule:evenodd;stroke:none;stroke-width:0.26458332"
       inkscape:connector-curvature="0" />
    <path
       id="path215"
       d="m 88.653607,94.261896 c 0,0.41171 -0.33137,0.74308 -0.74308,0.74308 -0.41171,0 -0.74308,-0.33137 -0.74308,-0.74308 0,-0.41171 0.33137,-0.74308 0.74308,-0.74308 0.41171,0 0.74308,0.33137 0.74308,0.74308 z"
       style="fill:#800080;fill-opacity:1;fill-rule:evenodd;stroke:none;stroke-width:0.26458332"
       inkscape:connector-curvature="0" />
    <path
       id="path217"
       d="m 90.179947,96.872726 c 0,0.41171 -0.33138,0.74309 -0.74309,0.74309 -0.41171,0 -0.74308,-0.33138 -0.74308,-0.74309 0,-0.4117 0.33137,-0.74308 0.74308,-0.74308 0.41171,0 0.74309,0.33138 0.74309,0.74308 z"
       style="fill:#800080;fill-opacity:1;fill-rule:evenodd;stroke:none;stroke-width:0.26458332"
       inkscape:connector-curvature="0" />
    <path
       id="path219"
       d="m 92.268607,100.44757 c 0,0.4117 -0.33137,0.74308 -0.74308,0.74308 -0.41171,0 -0.74308,-0.33138 -0.74308,-0.74308 0,-0.41171 0.33137,-0.743094 0.74308,-0.743094 0.41171,0 0.74308,0.331384 0.74308,0.743094 z"
       style="fill:#800080;fill-opacity:1;fill-rule:evenodd;stroke:none;stroke-width:0.26458332"
       inkscape:connector-curvature="0" />
    <path
       id="path221"
       d="m 90.501277,100.44757 c 0,0.4117 -0.33137,0.74308 -0.74308,0.74308 -0.41171,0 -0.74309,-0.33138 -0.74309,-0.74308 0,-0.41171 0.33138,-0.743094 0.74309,-0.743094 0.41171,0 0.74308,0.331384 0.74308,0.743094 z"
       style="fill:#800080;fill-opacity:1;fill-rule:evenodd;stroke:none;stroke-width:0.26458332"
       inkscape:connector-curvature="0" />
    <path
       id="path223"
       d="m 92.268607,105.30773 c 0,0.41171 -0.33137,0.74309 -0.74308,0.74309 -0.41171,0 -0.74308,-0.33138 -0.74308,-0.74309 0,-0.41171 0.33137,-0.74308 0.74308,-0.74308 0.41171,0 0.74308,0.33137 0.74308,0.74308 z"
       style="fill:#800080;fill-opacity:1;fill-rule:evenodd;stroke:none;stroke-width:0.26458332"
       inkscape:connector-curvature="0" />
    <path
       id="path225"
       d="m 93.353107,106.7939 c 0,0.41171 -0.33137,0.74308 -0.74308,0.74308 -0.41171,0 -0.74308,-0.33137 -0.74308,-0.74308 0,-0.41171 0.33137,-0.74308 0.74308,-0.74308 0.41171,0 0.74308,0.33137 0.74308,0.74308 z"
       style="fill:#800080;fill-opacity:1;fill-rule:evenodd;stroke:none;stroke-width:0.26458332"
       inkscape:connector-curvature="0" />
    <path
       id="path227"
       d="m 93.353107,98.760566 c 0,0.4117 -0.33137,0.74308 -0.74308,0.74308 -0.41171,0 -0.74308,-0.33138 -0.74308,-0.74308 0,-0.41171 0.33137,-0.74309 0.74308,-0.74309 0.41171,0 0.74308,0.33138 0.74308,0.74309 z"
       style="fill:#800080;fill-opacity:1;fill-rule:evenodd;stroke:none;stroke-width:0.26458332"
       inkscape:connector-curvature="0" />
    <path
       id="path229"
       d="m 97.490277,104.22323 c 0,0.41171 -0.33137,0.74309 -0.74308,0.74309 -0.41171,0 -0.74309,-0.33138 -0.74309,-0.74309 0,-0.4117 0.33138,-0.74308 0.74309,-0.74308 0.41171,0 0.74308,0.33138 0.74308,0.74308 z"
       style="fill:#800080;fill-opacity:1;fill-rule:evenodd;stroke:none;stroke-width:0.26458332"
       inkscape:connector-curvature="0" />
    <path
       id="path231"
       d="m 94.276947,104.22323 c 0,0.41171 -0.33138,0.74309 -0.74309,0.74309 -0.4117,0 -0.74308,-0.33138 -0.74308,-0.74309 0,-0.4117 0.33138,-0.74308 0.74308,-0.74308 0.41171,0 0.74309,0.33138 0.74309,0.74308 z"
       style="fill:#800080;fill-opacity:1;fill-rule:evenodd;stroke:none;stroke-width:0.26458332"
       inkscape:connector-curvature="0" />
    <path
       id="path233"
       d="m 104.55961,87.915566 c 0,0.41171 -0.33137,0.74308 -0.74308,0.74308 -0.41171,0 -0.74308,-0.33137 -0.74308,-0.74308 0,-0.41171 0.33137,-0.74309 0.74308,-0.74309 0.41171,0 0.74308,0.33138 0.74308,0.74309 z"
       style="fill:#800080;fill-opacity:1;fill-rule:evenodd;stroke:none;stroke-width:0.26458332"
       inkscape:connector-curvature="0" />
    <path
       id="path235"
       d="m 104.47928,90.164896 c 0,0.41171 -0.33138,0.74308 -0.74308,0.74308 -0.41171,0 -0.74309,-0.33137 -0.74309,-0.74308 0,-0.41171 0.33138,-0.74308 0.74309,-0.74308 0.4117,0 0.74308,0.33137 0.74308,0.74308 z"
       style="fill:#800080;fill-opacity:1;fill-rule:evenodd;stroke:none;stroke-width:0.26458332"
       inkscape:connector-curvature="0" />
    <path
       id="path237"
       d="m 104.55961,82.011066 c 0,0.4117 -0.33137,0.74308 -0.74308,0.74308 -0.41171,0 -0.74308,-0.33138 -0.74308,-0.74308 0,-0.41171 0.33137,-0.74309 0.74308,-0.74309 0.41171,0 0.74308,0.33138 0.74308,0.74309 z"
       style="fill:#800080;fill-opacity:1;fill-rule:evenodd;stroke:none;stroke-width:0.26458332"
       inkscape:connector-curvature="0" />
    <path
       id="path239"
       d="m 109.98211,90.164896 c 0,0.41171 -0.33137,0.74308 -0.74308,0.74308 -0.41171,0 -0.74308,-0.33137 -0.74308,-0.74308 0,-0.41171 0.33137,-0.74308 0.74308,-0.74308 0.41171,0 0.74308,0.33137 0.74308,0.74308 z"
       style="fill:#800080;fill-opacity:1;fill-rule:evenodd;stroke:none;stroke-width:0.26458332"
       inkscape:connector-curvature="0" />
    <path
       id="path241"
       d="m 117.61378,90.164896 c 0,0.41171 -0.33137,0.74308 -0.74308,0.74308 -0.41171,0 -0.74309,-0.33137 -0.74309,-0.74308 0,-0.41171 0.33138,-0.74308 0.74309,-0.74308 0.41171,0 0.74308,0.33137 0.74308,0.74308 z"
       style="fill:#800080;fill-opacity:1;fill-rule:evenodd;stroke:none;stroke-width:0.26458332"
       inkscape:connector-curvature="0" />
    <path
       id="path243"
       d="m 109.98211,91.771566 c 0,0.4117 -0.33137,0.74308 -0.74308,0.74308 -0.41171,0 -0.74308,-0.33138 -0.74308,-0.74308 0,-0.41171 0.33137,-0.74309 0.74308,-0.74309 0.41171,0 0.74308,0.33138 0.74308,0.74309 z"
       style="fill:#800080;fill-opacity:1;fill-rule:evenodd;stroke:none;stroke-width:0.26458332"
       inkscape:connector-curvature="0" />
    <path
       id="path245"
       d="m 115.40461,91.771566 c 0,0.4117 -0.33137,0.74308 -0.74308,0.74308 -0.41171,0 -0.74308,-0.33138 -0.74308,-0.74308 0,-0.41171 0.33137,-0.74309 0.74308,-0.74309 0.41171,0 0.74308,0.33138 0.74308,0.74309 z"
       style="fill:#800080;fill-opacity:1;fill-rule:evenodd;stroke:none;stroke-width:0.26458332"
       inkscape:connector-curvature="0" />
    <path
       id="path247"
       d="m 109.98211,93.458566 c 0,0.41171 -0.33137,0.74308 -0.74308,0.74308 -0.41171,0 -0.74308,-0.33137 -0.74308,-0.74308 0,-0.41171 0.33137,-0.74309 0.74308,-0.74309 0.41171,0 0.74308,0.33138 0.74308,0.74309 z"
       style="fill:#800080;fill-opacity:1;fill-rule:evenodd;stroke:none;stroke-width:0.26458332"
       inkscape:connector-curvature="0" />
    <path
       id="path249"
       d="m 105.08178,94.382396 c 0,0.41171 -0.33137,0.74308 -0.74308,0.74308 -0.41171,0 -0.74309,-0.33137 -0.74309,-0.74308 0,-0.41171 0.33138,-0.74308 0.74309,-0.74308 0.41171,0 0.74308,0.33137 0.74308,0.74308 z"
       style="fill:#800080;fill-opacity:1;fill-rule:evenodd;stroke:none;stroke-width:0.26458332"
       inkscape:connector-curvature="0" />
    <path
       id="path251"
       d="m 115.36445,94.743896 c 0,0.41171 -0.33138,0.74308 -0.74309,0.74308 -0.41171,0 -0.74308,-0.33137 -0.74308,-0.74308 0,-0.41171 0.33137,-0.74308 0.74308,-0.74308 0.41171,0 0.74309,0.33137 0.74309,0.74308 z"
       style="fill:#800080;fill-opacity:1;fill-rule:evenodd;stroke:none;stroke-width:0.26458332"
       inkscape:connector-curvature="0" />
    <path
       id="path253"
       d="m 115.48495,102.37557 c 0,0.4117 -0.33138,0.74308 -0.74309,0.74308 -0.4117,0 -0.74308,-0.33138 -0.74308,-0.74308 0,-0.41171 0.33138,-0.74309 0.74308,-0.74309 0.41171,0 0.74309,0.33138 0.74309,0.74309 z"
       style="fill:#800080;fill-opacity:1;fill-rule:evenodd;stroke:none;stroke-width:0.26458332"
       inkscape:connector-curvature="0" />
    <path
       id="path255"
       d="m 115.48495,107.07507 c 0,0.4117 -0.33138,0.74308 -0.74309,0.74308 -0.4117,0 -0.74308,-0.33138 -0.74308,-0.74308 0,-0.41171 0.33138,-0.74309 0.74308,-0.74309 0.41171,0 0.74309,0.33138 0.74309,0.74309 z"
       style="fill:#800080;fill-opacity:1;fill-rule:evenodd;stroke:none;stroke-width:0.26458332"
       inkscape:connector-curvature="0" />
    <path
       id="path257"
       d="m 106.80895,94.743896 c 0,0.41171 -0.33138,0.74308 -0.74309,0.74308 -0.4117,0 -0.74308,-0.33137 -0.74308,-0.74308 0,-0.41171 0.33138,-0.74308 0.74308,-0.74308 0.41171,0 0.74309,0.33137 0.74309,0.74308 z"
       style="fill:#800080;fill-opacity:1;fill-rule:evenodd;stroke:none;stroke-width:0.26458332"
       inkscape:connector-curvature="0" />
    <path
       id="path259"
       d="m 103.59561,95.788226 c 0,0.41171 -0.33137,0.74309 -0.74308,0.74309 -0.41171,0 -0.74308,-0.33138 -0.74308,-0.74309 0,-0.4117 0.33137,-0.74308 0.74308,-0.74308 0.41171,0 0.74308,0.33138 0.74308,0.74308 z"
       style="fill:#800080;fill-opacity:1;fill-rule:evenodd;stroke:none;stroke-width:0.26458332"
       inkscape:connector-curvature="0" />
    <path
       id="path261"
       d="m 112.75361,95.948896 c 0,0.41171 -0.33137,0.74308 -0.74308,0.74308 -0.41171,0 -0.74308,-0.33137 -0.74308,-0.74308 0,-0.41171 0.33137,-0.74308 0.74308,-0.74308 0.41171,0 0.74308,0.33137 0.74308,0.74308 z"
       style="fill:#800080;fill-opacity:1;fill-rule:evenodd;stroke:none;stroke-width:0.26458332"
       inkscape:connector-curvature="0" />
    <path
       id="path263"
       d="m 91.314647,79.319896 c 0.0803,-0.62258 -0.4117,-1.46608 -1.02424,-2.18908 -0.30125,-0.35146 -1.02425,-1.25521 -1.30542,-1.61671 -0.35146,-0.44183 -0.87363,-1.38575 -0.86359,-2.0485 0.0201,-0.67279 -0.2912,0.37154 -0.33137,1.3255 -0.0301,0.723 0.40167,1.42591 0.77321,1.88783 0.32133,0.43179 0.97404,1.13471 1.52633,1.84767 0.38159,0.50208 0.80334,0.8435 0.8435,1.30541 0.0703,0.84351 0.21088,0.77321 0.38158,-0.51212"
       style="fill:none;stroke:#700000;stroke-width:0.04016666px;stroke-linecap:butt;stroke-linejoin:miter;stroke-miterlimit:2;stroke-dasharray:none;stroke-opacity:1"
       inkscape:connector-curvature="0" />
    <path
       id="path265"
       d="m 91.314647,79.319896 c 0.0803,-0.62258 -0.4117,-1.46608 -1.02424,-2.18908 -0.30125,-0.35146 -1.02425,-1.25521 -1.30542,-1.61671 -0.35146,-0.44183 -0.87363,-1.38575 -0.86359,-2.0485 0.0201,-0.67279 -0.2912,0.37154 -0.33137,1.3255 -0.0301,0.723 0.40167,1.42591 0.77321,1.88783 0.32133,0.43179 0.97404,1.13471 1.52633,1.84767 0.38159,0.50208 0.80334,0.8435 0.8435,1.30541 0.0703,0.84351 0.21088,0.77321 0.38158,-0.51212 z"
       style="fill:#700000;fill-opacity:1;fill-rule:nonzero;stroke:none;stroke-width:0.26458332"
       inkscape:connector-curvature="0" />
    <path
       id="path267"
       d="m 93.865237,68.685766 c 0.0803,-0.62258 -0.41171,-1.46608 -1.02425,-2.18908 -0.30125,-0.35146 -1.02425,-1.25521 -1.31546,-1.61671 -0.34142,-0.43179 -0.87362,-1.37571 -0.85354,-2.0485 0.0201,-0.67279 -0.29121,0.37155 -0.33138,1.3255 -0.0301,0.723 0.40167,1.42592 0.76317,1.89788 0.33137,0.42175 0.98408,1.12466 1.53637,1.83762 0.38159,0.51213 0.80334,0.8435 0.84351,1.30542 0.0703,0.85354 0.21087,0.77321 0.38158,-0.51213"
       style="fill:none;stroke:#700000;stroke-width:0.04016666px;stroke-linecap:butt;stroke-linejoin:miter;stroke-miterlimit:2;stroke-dasharray:none;stroke-opacity:1"
       inkscape:connector-curvature="0" />
    <path
       id="path269"
       d="m 93.865237,68.685766 c 0.0803,-0.62258 -0.41171,-1.46608 -1.02425,-2.18908 -0.30125,-0.35146 -1.02425,-1.25521 -1.31546,-1.61671 -0.34142,-0.43179 -0.87362,-1.37571 -0.85354,-2.0485 0.0201,-0.67279 -0.29121,0.37155 -0.33138,1.3255 -0.0301,0.723 0.40167,1.42592 0.76317,1.89788 0.33137,0.42175 0.98408,1.12466 1.53637,1.83762 0.38159,0.51213 0.80334,0.8435 0.84351,1.30542 0.0703,0.85354 0.21087,0.77321 0.38158,-0.51213 z"
       style="fill:#700000;fill-opacity:1;fill-rule:nonzero;stroke:none;stroke-width:0.26458332"
       inkscape:connector-curvature="0" />
    <path
       id="path271"
       d="m 92.097907,76.026226 c 0.0803,-0.62258 -0.40167,-1.46608 -1.01421,-2.18908 -0.30125,-0.35146 -1.02425,-1.25521 -1.31546,-1.61671 -0.34142,-0.44183 -0.87363,-1.38575 -0.85354,-2.0485 0.0201,-0.67279 -0.29121,0.37154 -0.33138,1.3255 -0.0301,0.71296 0.40167,1.42592 0.76317,1.88783 0.33137,0.4318 0.98408,1.13471 1.52633,1.84767 0.39163,0.50209 0.81338,0.8435 0.85354,1.30542 0.0703,0.8435 0.21088,0.76317 0.37155,-0.51213"
       style="fill:none;stroke:#ff0000;stroke-width:0.04016666px;stroke-linecap:butt;stroke-linejoin:miter;stroke-miterlimit:2;stroke-dasharray:none;stroke-opacity:1"
       inkscape:connector-curvature="0" />
    <path
       id="path273"
       d="m 92.097907,76.026226 c 0.0803,-0.62258 -0.40167,-1.46608 -1.01421,-2.18908 -0.30125,-0.35146 -1.02425,-1.25521 -1.31546,-1.61671 -0.34142,-0.44183 -0.87363,-1.38575 -0.85354,-2.0485 0.0201,-0.67279 -0.29121,0.37154 -0.33138,1.3255 -0.0301,0.71296 0.40167,1.42592 0.76317,1.88783 0.33137,0.4318 0.98408,1.13471 1.52633,1.84767 0.39163,0.50209 0.81338,0.8435 0.85354,1.30542 0.0703,0.8435 0.21088,0.76317 0.37155,-0.51213 z"
       style="fill:#ff0000;fill-opacity:1;fill-rule:nonzero;stroke:none;stroke-width:0.26458332"
       inkscape:connector-curvature="0" />
    <path
       id="path275"
       d="m 91.826777,77.261356 c -0.20083,0.59246 -1.02425,1.13471 -1.90792,1.50625 -0.43179,0.19079 -1.4962,0.67279 -1.91796,0.86358 -0.51212,0.241 -1.41587,0.85354 -1.69704,1.46608 -0.27112,0.60251 -0.10041,-0.47195 0.29121,-1.34558 0.29121,-0.65271 0.99413,-1.09454 1.54642,-1.35562 0.49204,-0.23096 1.39579,-0.57238 2.21921,-0.97405 0.57237,-0.27112 1.10458,-0.39162 1.34558,-0.78324 0.45187,-0.73305 0.54225,-0.60251 0.1205,0.62258"
       style="fill:none;stroke:#b20000;stroke-width:0.04016666px;stroke-linecap:butt;stroke-linejoin:miter;stroke-miterlimit:2;stroke-dasharray:none;stroke-opacity:1"
       inkscape:connector-curvature="0" />
    <path
       id="path277"
       d="m 91.826777,77.261356 c -0.20083,0.59246 -1.02425,1.13471 -1.90792,1.50625 -0.43179,0.19079 -1.4962,0.67279 -1.91796,0.86358 -0.51212,0.241 -1.41587,0.85354 -1.69704,1.46608 -0.27112,0.60251 -0.10041,-0.47195 0.29121,-1.34558 0.29121,-0.65271 0.99413,-1.09454 1.54642,-1.35562 0.49204,-0.23096 1.39579,-0.57238 2.21921,-0.97405 0.57237,-0.27112 1.10458,-0.39162 1.34558,-0.78324 0.45187,-0.73305 0.54225,-0.60251 0.1205,0.62258 z"
       style="fill:#b20000;fill-opacity:1;fill-rule:nonzero;stroke:none;stroke-width:0.26458332"
       inkscape:connector-curvature="0" />
    <path
       id="path279"
       d="m 94.648487,65.392106 c 0.0803,-0.62258 -0.40167,-1.46608 -1.01421,-2.18908 -0.30125,-0.35146 -1.02425,-1.25521 -1.31546,-1.61671 -0.34142,-0.43179 -0.87362,-1.37571 -0.85354,-2.0485 0.0201,-0.67279 -0.29121,0.37154 -0.33138,1.3255 -0.0301,0.723 0.40167,1.42591 0.76317,1.89787 0.33138,0.42175 0.97404,1.12467 1.52634,1.83763 0.39162,0.51212 0.81337,0.8435 0.85354,1.30541 0.0703,0.85355 0.21087,0.77321 0.37154,-0.51212"
       style="fill:none;stroke:#840000;stroke-width:0.04016666px;stroke-linecap:butt;stroke-linejoin:miter;stroke-miterlimit:2;stroke-dasharray:none;stroke-opacity:1"
       inkscape:connector-curvature="0" />
    <path
       id="path281"
       d="m 94.648487,65.392106 c 0.0803,-0.62258 -0.40167,-1.46608 -1.01421,-2.18908 -0.30125,-0.35146 -1.02425,-1.25521 -1.31546,-1.61671 -0.34142,-0.43179 -0.87362,-1.37571 -0.85354,-2.0485 0.0201,-0.67279 -0.29121,0.37154 -0.33138,1.3255 -0.0301,0.723 0.40167,1.42591 0.76317,1.89787 0.33138,0.42175 0.97404,1.12467 1.52634,1.83763 0.39162,0.51212 0.81337,0.8435 0.85354,1.30541 0.0703,0.85355 0.21087,0.77321 0.37154,-0.51212 z"
       style="fill:#840000;fill-opacity:1;fill-rule:nonzero;stroke:none;stroke-width:0.26458332"
       inkscape:connector-curvature="0" />
    <path
       id="path283"
       d="m 94.377357,66.627226 c -0.20083,0.6025 -1.02425,1.13471 -1.90791,1.5163 -0.43179,0.18075 -1.49621,0.66275 -1.91796,0.86358 -0.51213,0.23096 -1.41588,0.8435 -1.69704,1.45604 -0.28117,0.6025 -0.10042,-0.46192 0.29121,-1.33554 0.2912,-0.66275 0.99412,-1.10459 1.54641,-1.35563 0.482,-0.241 1.38575,-0.58241 2.20917,-0.97404 0.58242,-0.28116 1.11462,-0.40166 1.35562,-0.79329 0.44184,-0.73304 0.54225,-0.59246 0.1205,0.62258"
       style="fill:none;stroke:#b20000;stroke-width:0.04016666px;stroke-linecap:butt;stroke-linejoin:miter;stroke-miterlimit:2;stroke-dasharray:none;stroke-opacity:1"
       inkscape:connector-curvature="0" />
    <path
       id="path285"
       d="m 94.377357,66.627226 c -0.20083,0.6025 -1.02425,1.13471 -1.90791,1.5163 -0.43179,0.18075 -1.49621,0.66275 -1.91796,0.86358 -0.51213,0.23096 -1.41588,0.8435 -1.69704,1.45604 -0.28117,0.6025 -0.10042,-0.46192 0.29121,-1.33554 0.2912,-0.66275 0.99412,-1.10459 1.54641,-1.35563 0.482,-0.241 1.38575,-0.58241 2.20917,-0.97404 0.58242,-0.28116 1.11462,-0.40166 1.35562,-0.79329 0.44184,-0.73304 0.54225,-0.59246 0.1205,0.62258 z"
       style="fill:#b20000;fill-opacity:1;fill-rule:nonzero;stroke:none;stroke-width:0.26458332"
       inkscape:connector-curvature="0" />
    <path
       id="path287"
       d="m 91.033487,80.555016 c -0.20083,0.59246 -1.01421,1.13471 -1.89788,1.50626 -0.44183,0.19079 -1.49621,0.67279 -1.91795,0.86358 -0.51213,0.241 -1.41588,0.85354 -1.69705,1.46608 -0.28116,0.6025 -0.11046,-0.47196 0.28117,-1.34558 0.29121,-0.65271 1.00417,-1.09454 1.54642,-1.35563 0.49204,-0.23095 1.39579,-0.57237 2.2192,-0.97404 0.57238,-0.27112 1.11463,-0.39162 1.35563,-0.78325 0.44183,-0.73304 0.53221,-0.6025 0.11046,0.62258"
       style="fill:none;stroke:#930000;stroke-width:0.04016666px;stroke-linecap:butt;stroke-linejoin:miter;stroke-miterlimit:2;stroke-dasharray:none;stroke-opacity:1"
       inkscape:connector-curvature="0" />
    <path
       id="path289"
       d="m 91.033487,80.555016 c -0.20083,0.59246 -1.01421,1.13471 -1.89788,1.50626 -0.44183,0.19079 -1.49621,0.67279 -1.91795,0.86358 -0.51213,0.241 -1.41588,0.85354 -1.69705,1.46608 -0.28116,0.6025 -0.11046,-0.47196 0.28117,-1.34558 0.29121,-0.65271 1.00417,-1.09454 1.54642,-1.35563 0.49204,-0.23095 1.39579,-0.57237 2.2192,-0.97404 0.57238,-0.27112 1.11463,-0.39162 1.35563,-0.78325 0.44183,-0.73304 0.53221,-0.6025 0.11046,0.62258 z"
       style="fill:#930000;fill-opacity:1;fill-rule:nonzero;stroke:none;stroke-width:0.26458332"
       inkscape:connector-curvature="0" />
    <path
       id="path291"
       d="m 93.584067,69.920896 c -0.20083,0.6025 -1.02425,1.13471 -1.90791,1.51629 -0.4318,0.18075 -1.48617,0.66275 -1.91796,0.86359 -0.51213,0.23095 -1.40584,0.8435 -1.687,1.45604 -0.28117,0.6025 -0.11046,-0.46192 0.28116,-1.33554 0.29121,-0.66275 1.00417,-1.10459 1.54642,-1.35563 0.49204,-0.241 1.39579,-0.58242 2.21921,-0.97404 0.57237,-0.28117 1.11462,-0.40167 1.35562,-0.79329 0.44184,-0.73305 0.53221,-0.59246 0.11046,0.62258"
       style="fill:none;stroke:#930000;stroke-width:0.04016666px;stroke-linecap:butt;stroke-linejoin:miter;stroke-miterlimit:2;stroke-dasharray:none;stroke-opacity:1"
       inkscape:connector-curvature="0" />
    <path
       id="path293"
       d="m 93.584067,69.920896 c -0.20083,0.6025 -1.02425,1.13471 -1.90791,1.51629 -0.4318,0.18075 -1.48617,0.66275 -1.91796,0.86359 -0.51213,0.23095 -1.40584,0.8435 -1.687,1.45604 -0.28117,0.6025 -0.11046,-0.46192 0.28116,-1.33554 0.29121,-0.66275 1.00417,-1.10459 1.54642,-1.35563 0.49204,-0.241 1.39579,-0.58242 2.21921,-0.97404 0.57237,-0.28117 1.11462,-0.40167 1.35562,-0.79329 0.44184,-0.73305 0.53221,-0.59246 0.11046,0.62258 z"
       style="fill:#930000;fill-opacity:1;fill-rule:nonzero;stroke:none;stroke-width:0.26458332"
       inkscape:connector-curvature="0" />
    <path
       id="path295"
       d="m 93.463567,69.268186 c 0,0 -1.50625,-0.35146 -2.45016,-0.58242"
       style="fill:none;stroke:#ff0000;stroke-width:0.19079167px;stroke-linecap:butt;stroke-linejoin:miter;stroke-miterlimit:2;stroke-dasharray:none;stroke-opacity:1"
       inkscape:connector-curvature="0" />
    <path
       id="path297"
       d="m 92.198317,70.071526 c 0,0 -1.49621,-0.3615 -2.45017,-0.58242"
       style="fill:none;stroke:#ff0000;stroke-width:0.19079167px;stroke-linecap:butt;stroke-linejoin:miter;stroke-miterlimit:2;stroke-dasharray:none;stroke-opacity:1"
       inkscape:connector-curvature="0" />
    <path
       id="path299"
       d="m 90.752317,70.754356 c 0,0 -1.15479,-0.27113 -1.88783,-0.45188"
       style="fill:none;stroke:#ff0000;stroke-width:0.19079167px;stroke-linecap:butt;stroke-linejoin:miter;stroke-miterlimit:2;stroke-dasharray:none;stroke-opacity:1"
       inkscape:connector-curvature="0" />
    <path
       id="path301"
       d="m 89.969067,74.027936 c 0,0 -1.15479,-0.28117 -1.87779,-0.45187"
       style="fill:none;stroke:#ff0000;stroke-width:0.19079167px;stroke-linecap:butt;stroke-linejoin:miter;stroke-miterlimit:2;stroke-dasharray:none;stroke-opacity:1"
       inkscape:connector-curvature="0" />
    <path
       id="path303"
       d="m 90.933067,75.353436 c 0,0 -1.49621,-0.3615 -2.45017,-0.58242"
       style="fill:none;stroke:#ff0000;stroke-width:0.19079167px;stroke-linecap:butt;stroke-linejoin:miter;stroke-miterlimit:2;stroke-dasharray:none;stroke-opacity:1"
       inkscape:connector-curvature="0" />
    <path
       id="path305"
       d="m 91.726357,76.618686 c 0,0 -1.49621,-0.3615 -2.45016,-0.59246"
       style="fill:none;stroke:#ff0000;stroke-width:0.19079167px;stroke-linecap:butt;stroke-linejoin:miter;stroke-miterlimit:2;stroke-dasharray:none;stroke-opacity:1"
       inkscape:connector-curvature="0" />
    <path
       id="path307"
       d="m 90.902947,79.932436 c 0,0 -1.49621,-0.3615 -2.45017,-0.58242"
       style="fill:none;stroke:#ff0000;stroke-width:0.19079167px;stroke-linecap:butt;stroke-linejoin:miter;stroke-miterlimit:2;stroke-dasharray:none;stroke-opacity:1"
       inkscape:connector-curvature="0" />
    <path
       id="path309"
       d="m 89.637697,80.725726 c 0,0 -1.49621,-0.35146 -2.44013,-0.58241"
       style="fill:none;stroke:#ff0000;stroke-width:0.19079167px;stroke-linecap:butt;stroke-linejoin:miter;stroke-miterlimit:2;stroke-dasharray:none;stroke-opacity:1"
       inkscape:connector-curvature="0" />
    <path
       id="path311"
       d="m 88.191697,81.418606 c 0,0 -1.15479,-0.27113 -1.88784,-0.45188"
       style="fill:none;stroke:#ff0000;stroke-width:0.19079167px;stroke-linecap:butt;stroke-linejoin:miter;stroke-miterlimit:2;stroke-dasharray:none;stroke-opacity:1"
       inkscape:connector-curvature="0" />
    <path
       id="path313"
       d="m 92.519647,63.393816 c 0,0 -1.15479,-0.28117 -1.87779,-0.45188"
       style="fill:none;stroke:#ff0000;stroke-width:0.19079167px;stroke-linecap:butt;stroke-linejoin:miter;stroke-miterlimit:2;stroke-dasharray:none;stroke-opacity:1"
       inkscape:connector-curvature="0" />
    <path
       id="path315"
       d="m 93.483657,64.719316 c 0,0 -1.49621,-0.35146 -2.45017,-0.58242"
       style="fill:none;stroke:#ff0000;stroke-width:0.19079167px;stroke-linecap:butt;stroke-linejoin:miter;stroke-miterlimit:2;stroke-dasharray:none;stroke-opacity:1"
       inkscape:connector-curvature="0" />
    <path
       id="path317"
       d="m 94.276947,65.984566 c 0,0 -1.49621,-0.3615 -2.45017,-0.59246"
       style="fill:none;stroke:#ff0000;stroke-width:0.19079167px;stroke-linecap:butt;stroke-linejoin:miter;stroke-miterlimit:2;stroke-dasharray:none;stroke-opacity:1"
       inkscape:connector-curvature="0" />
    <path
       id="path319"
       d="m 103.23411,67.119266 c 0,9.52955 -7.722043,17.25159 -17.251583,17.25159 -9.5195,0 -17.24154,-7.72204 -17.24154,-17.25159 0,-9.5195 7.72204,-17.24154 17.24154,-17.24154 9.52954,0 17.251583,7.72204 17.251583,17.24154"
       style="fill:none;stroke:#ff0000;stroke-width:1.8075px;stroke-linecap:butt;stroke-linejoin:miter;stroke-miterlimit:2;stroke-dasharray:none;stroke-opacity:1"
       inkscape:connector-curvature="0" />
    <path
       id="path321"
       d="m 128.16757,60.531936 c -0.0502,-1.98825 -1.69704,-3.57483 -3.69533,-3.52462 -1.25521,0.0201 -2.48029,0.76316 -3.08279,1.86775"
       style="fill:none;stroke:#008000;stroke-width:0.65270835px;stroke-linecap:round;stroke-linejoin:miter;stroke-miterlimit:2;stroke-dasharray:none;stroke-opacity:1"
       inkscape:connector-curvature="0" />
    <path
       id="path323"
       d="m 127.24374,63.022276 c 0,0 0.33137,-3.11292 0.33137,-3.11292 0,0 0.28117,0.51212 0.59246,0.62258 0.30125,0.1205 0.8435,-0.0803 0.8435,-0.0803 0,0 -1.76733,2.57067 -1.76733,2.57067 0,0 0,0 0,0"
       style="fill:none;stroke:#008000;stroke-width:0.04016666px;stroke-linecap:round;stroke-linejoin:miter;stroke-miterlimit:2;stroke-dasharray:none;stroke-opacity:1"
       inkscape:connector-curvature="0" />
    <path
       id="path325"
       d="m 127.24374,63.022276 c 0,0 0.33137,-3.11292 0.33137,-3.11292 0,0 0.28117,0.51212 0.59246,0.62258 0.30125,0.1205 0.8435,-0.0803 0.8435,-0.0803 0,0 -1.76733,2.57067 -1.76733,2.57067 0,0 0,0 0,0 z"
       style="fill:#008000;fill-opacity:1;fill-rule:nonzero;stroke:none;stroke-width:0.26458332"
       inkscape:connector-curvature="0" />
    <path
       id="path327"
       d="m 124.20111,76.136686 c 1.11463,1.65688 3.36396,2.08867 5.01079,0.964 1.65688,-1.11462 2.08867,-3.36396 0.96401,-5.01079 -0.11046,-0.17071 -0.241,-0.33137 -0.39163,-0.482"
       style="fill:none;stroke:#008000;stroke-width:0.65270835px;stroke-linecap:round;stroke-linejoin:miter;stroke-miterlimit:2;stroke-dasharray:none;stroke-opacity:1"
       inkscape:connector-curvature="0" />
    <path
       id="path329"
       d="m 122.8957,77.100686 2.14891,-2.34975 0.46192,0.42175 -2.14892,2.34975 z"
       style="fill:#008000;fill-opacity:1;fill-rule:evenodd;stroke:none;stroke-width:0.26458332"
       inkscape:connector-curvature="0" />
    <text
       id="text335"
       y="48.170647"
       x="77.226196"
       style="font-style:normal;font-variant:normal;font-weight:700;font-size:3.2080729px;line-height:125%;font-family:Arial;text-align:start;letter-spacing:0px;word-spacing:0px;text-anchor:start;fill:#000000;fill-opacity:1;stroke:none;stroke-width:0.26458332"
       xml:space="preserve"><tspan
         id="tspan333"
         y="48.170647"
         x="77.226196"
         sodipodi:role="line"
         style="stroke-width:0.26458332"><tspan
           id="tspan331"
           style="font-style:normal;font-variant:normal;font-weight:700;font-size:3.2080729px;font-family:Arial;fill:#ff0000;stroke-width:0.26458332"
           dy="0"
           dx="0">Information</tspan></tspan></text>
    <text
       id="text341"
       y="119.18531"
       x="94.578186"
       style="font-style:normal;font-variant:normal;font-weight:700;font-size:3.2080729px;line-height:125%;font-family:Arial;text-align:start;letter-spacing:0px;word-spacing:0px;text-anchor:start;fill:#000000;fill-opacity:1;stroke:none;stroke-width:0.26458332"
       xml:space="preserve"><tspan
         id="tspan339"
         y="119.18531"
         x="94.578186"
         sodipodi:role="line"
         style="stroke-width:0.26458332"><tspan
           id="tspan337"
           style="font-style:normal;font-variant:normal;font-weight:700;font-size:3.2080729px;font-family:Arial;fill:#8000ff;stroke-width:0.26458332"
           dy="0"
           dx="0">Metabolism</tspan></tspan></text>
    <text
       id="text347"
       y="48.170647"
       x="114.50085"
       style="font-style:normal;font-variant:normal;font-weight:700;font-size:3.2080729px;line-height:125%;font-family:Arial;text-align:start;letter-spacing:0px;word-spacing:0px;text-anchor:start;fill:#000000;fill-opacity:1;stroke:none;stroke-width:0.26458332"
       xml:space="preserve"><tspan
         id="tspan345"
         y="48.170647"
         x="114.50085"
         sodipodi:role="line"
         style="stroke-width:0.26458332"><tspan
           id="tspan343"
           style="font-style:normal;font-variant:normal;font-weight:700;font-size:3.2080729px;font-family:Arial;fill:#008000;stroke-width:0.26458332"
           dy="0"
           dx="0">Catalysis</tspan></tspan></text>
    <text
       id="text353"
       y="129.14665"
       x="87.187531"
       style="font-style:normal;font-variant:normal;font-weight:700;font-size:3.2080729px;line-height:125%;font-family:Arial;text-align:start;letter-spacing:0px;word-spacing:0px;text-anchor:start;fill:#000000;fill-opacity:1;stroke:none;stroke-width:0.26458332"
       xml:space="preserve"><tspan
         id="tspan351"
         y="129.14665"
         x="87.187531"
         sodipodi:role="line"
         style="stroke-width:0.26458332"><tspan
           id="tspan349"
           style="font-style:normal;font-variant:normal;font-weight:700;font-size:3.2080729px;font-family:Arial;fill:#0080ff;stroke-width:0.26458332"
           dy="0"
           dx="0">Compartmentalisation</tspan></tspan></text>
    <path
       id="path355"
       d="m 148.81324,77.612816 c 0,25.305004 -20.50509,45.810084 -45.81008,45.810084 -25.294963,0 -45.800053,-20.50508 -45.800053,-45.810084 0,-25.29496 20.50509,-45.80004 45.800053,-45.80004 25.30499,0 45.81008,20.50508 45.81008,45.80004"
       style="fill:none;stroke:#0080ff;stroke-width:4.54887486px;stroke-linecap:butt;stroke-linejoin:miter;stroke-miterlimit:2;stroke-dasharray:none;stroke-opacity:1"
       inkscape:connector-curvature="0" />
  </g>
</svg>
