<?xml version="1.0" encoding="UTF-8" standalone="no"?>
<!-- Created with Inkscape (http://www.inkscape.org/) -->

<svg
   xmlns:dc="http://purl.org/dc/elements/1.1/"
   xmlns:cc="http://creativecommons.org/ns#"
   xmlns:rdf="http://www.w3.org/1999/02/22-rdf-syntax-ns#"
   xmlns:svg="http://www.w3.org/2000/svg"
   xmlns="http://www.w3.org/2000/svg"
   xmlns:sodipodi="http://sodipodi.sourceforge.net/DTD/sodipodi-0.dtd"
   xmlns:inkscape="http://www.inkscape.org/namespaces/inkscape"
   width="94.351494mm"
   height="94.351501mm"
   viewBox="0 0 94.351494 94.351502"
   version="1.1"
   id="svg8"
   inkscape:version="0.92.4 (5da689c313, 2019-01-14)"
   sodipodi:docname="website_figure.svg">
  <defs
     id="defs2">
    <pattern
       y="0"
       x="0"
       height="6"
       width="6"
       patternUnits="userSpaceOnUse"
       id="EMFhbasepattern" />
    <pattern
       y="0"
       x="0"
       height="6"
       width="6"
       patternUnits="userSpaceOnUse"
       id="EMFhbasepattern-3" />
    <pattern
       y="0"
       x="0"
       height="6"
       width="6"
       patternUnits="userSpaceOnUse"
       id="EMFhbasepattern-9" />
    <pattern
       y="0"
       x="0"
       height="6"
       width="6"
       patternUnits="userSpaceOnUse"
       id="EMFhbasepattern-7" />
    <pattern
       y="0"
       x="0"
       height="6"
       width="6"
       patternUnits="userSpaceOnUse"
       id="EMFhbasepattern-2" />
  </defs>
  <sodipodi:namedview
     id="base"
     pagecolor="#ffffff"
     bordercolor="#666666"
     borderopacity="1.0"
     inkscape:pageopacity="0.0"
     inkscape:pageshadow="2"
     inkscape:zoom="0.35"
     inkscape:cx="12.672268"
     inkscape:cy="301.24379"
     inkscape:document-units="mm"
     inkscape:current-layer="layer1"
     showgrid="false"
     inkscape:window-width="1920"
     inkscape:window-height="986"
     inkscape:window-x="-11"
     inkscape:window-y="-11"
     inkscape:window-maximized="1" />
  <metadata
     id="metadata5">
    <rdf:RDF>
      <cc:Work
         rdf:about="">
        <dc:format>image/svg+xml</dc:format>
        <dc:type
           rdf:resource="http://purl.org/dc/dcmitype/StillImage" />
        <dc:title></dc:title>
      </cc:Work>
    </rdf:RDF>
  </metadata>
  <g
     inkscape:label="Layer 1"
     inkscape:groupmode="layer"
     id="layer1"
     transform="translate(-102.48046,-134.18591)">
    <path
       id="path1016"
       d="m 134.41798,158.76289 c -0.61254,0.50209 -0.89371,1.70709 -0.95396,2.90204 -0.0201,0.59246 -0.14058,2.0485 -0.18075,2.63092 -0.0703,0.71296 -0.39162,2.03846 -0.99412,2.64096 -0.59246,0.6025 0.59245,-0.0904 1.45604,-0.93388 0.65271,-0.64266 0.86358,-1.66691 0.93387,-2.42004 0.0703,-0.68283 0.0803,-1.88783 0.1908,-3.03258 0.0803,-0.79329 -0.0201,-1.47613 0.34141,-1.93804 0.67279,-0.8435 0.47196,-0.89371 -0.79329,0.15062"
       style="fill:none;stroke:#700000;stroke-width:0.04016666px;stroke-linecap:butt;stroke-linejoin:miter;stroke-miterlimit:2;stroke-dasharray:none;stroke-opacity:1"
       inkscape:connector-curvature="0" />
    <path
       id="path1018"
       d="m 134.41798,158.76289 c -0.61254,0.50209 -0.89371,1.70709 -0.95396,2.90204 -0.0201,0.59246 -0.14058,2.0485 -0.18075,2.63092 -0.0703,0.71296 -0.39162,2.03846 -0.99412,2.64096 -0.59246,0.6025 0.59245,-0.0904 1.45604,-0.93388 0.65271,-0.64266 0.86358,-1.66691 0.93387,-2.42004 0.0703,-0.68283 0.0803,-1.88783 0.1908,-3.03258 0.0803,-0.79329 -0.0201,-1.47613 0.34141,-1.93804 0.67279,-0.8435 0.47196,-0.89371 -0.79329,0.15062 z"
       style="fill:#700000;fill-opacity:1;fill-rule:nonzero;stroke:none;stroke-width:0.26458332"
       inkscape:connector-curvature="0" />
    <path
       id="path1020"
       d="m 122.84998,166.37448 c -0.62258,0.51212 -0.90375,1.70708 -0.95396,2.91208 -0.0301,0.59246 -0.14058,2.0485 -0.19079,2.63092 -0.0603,0.70291 -0.39162,2.02841 -0.99413,2.63091 -0.59245,0.6025 0.59246,-0.0803 1.45605,-0.93387 0.66275,-0.64267 0.86358,-1.66692 0.94391,-2.42004 0.0602,-0.6728 0.0703,-1.88784 0.18075,-3.02254 0.0803,-0.80334 -0.01,-1.48617 0.35146,-1.93805 0.66275,-0.85354 0.46192,-0.90375 -0.79329,0.14059"
       style="fill:none;stroke:#700000;stroke-width:0.04016666px;stroke-linecap:butt;stroke-linejoin:miter;stroke-miterlimit:2;stroke-dasharray:none;stroke-opacity:1"
       inkscape:connector-curvature="0" />
    <path
       id="path1022"
       d="m 122.84998,166.37448 c -0.62258,0.51212 -0.90375,1.70708 -0.95396,2.91208 -0.0301,0.59246 -0.14058,2.0485 -0.19079,2.63092 -0.0603,0.70291 -0.39162,2.02841 -0.99413,2.63091 -0.59245,0.6025 0.59246,-0.0803 1.45605,-0.93387 0.66275,-0.64267 0.86358,-1.66692 0.94391,-2.42004 0.0602,-0.6728 0.0703,-1.88784 0.18075,-3.02254 0.0803,-0.80334 -0.01,-1.48617 0.35146,-1.93805 0.66275,-0.85354 0.46192,-0.90375 -0.79329,0.14059 z"
       style="fill:#700000;fill-opacity:1;fill-rule:nonzero;stroke:none;stroke-width:0.26458332"
       inkscape:connector-curvature="0" />
    <path
       id="path1024"
       d="m 130.83311,161.12268 c -0.61255,0.50209 -0.89371,1.70709 -0.95396,2.90205 -0.0301,0.59245 -0.14059,2.0485 -0.19079,2.63091 -0.0602,0.71296 -0.38159,2.03846 -0.98409,2.64096 -0.6025,0.6025 0.59246,-0.0904 1.45604,-0.93387 0.65271,-0.64267 0.86359,-1.66692 0.93388,-2.42004 0.0602,-0.68284 0.0703,-1.88784 0.19079,-3.03259 0.0803,-0.79329 -0.0201,-1.47612 0.34142,-1.93804 0.67279,-0.8435 0.47196,-0.89371 -0.79329,0.15062"
       style="fill:none;stroke:#ff0000;stroke-width:0.04016666px;stroke-linecap:butt;stroke-linejoin:miter;stroke-miterlimit:2;stroke-dasharray:none;stroke-opacity:1"
       inkscape:connector-curvature="0" />
    <path
       id="path1026"
       d="m 130.83311,161.12268 c -0.61255,0.50209 -0.89371,1.70709 -0.95396,2.90205 -0.0301,0.59245 -0.14059,2.0485 -0.19079,2.63091 -0.0602,0.71296 -0.38159,2.03846 -0.98409,2.64096 -0.6025,0.6025 0.59246,-0.0904 1.45604,-0.93387 0.65271,-0.64267 0.86359,-1.66692 0.93388,-2.42004 0.0602,-0.68284 0.0703,-1.88784 0.19079,-3.03259 0.0803,-0.79329 -0.0201,-1.47612 0.34142,-1.93804 0.67279,-0.8435 0.47196,-0.89371 -0.79329,0.15062 z"
       style="fill:#ff0000;fill-opacity:1;fill-rule:nonzero;stroke:none;stroke-width:0.26458332"
       inkscape:connector-curvature="0" />
    <path
       id="path1028"
       d="m 132.1586,160.20889 c 0.71296,-0.37154 1.93805,-0.16066 3.07276,0.26109 0.56233,0.21087 1.95812,0.68283 2.52045,0.87362 0.68284,0.22092 2.0485,0.44183 2.83175,0.1205 0.79329,-0.32133 -0.30125,0.51213 -1.41587,0.98409 -0.8435,0.3615 -1.87779,0.15062 -2.61084,-0.0803 -0.6527,-0.21087 -1.78741,-0.68283 -2.89199,-1.02425 -0.77321,-0.25104 -1.37571,-0.6025 -1.93805,-0.45187 -1.04433,0.29121 -1.0142,0.0904 0.43179,-0.68284"
       style="fill:none;stroke:#b20000;stroke-width:0.04016666px;stroke-linecap:butt;stroke-linejoin:miter;stroke-miterlimit:2;stroke-dasharray:none;stroke-opacity:1"
       inkscape:connector-curvature="0" />
    <path
       id="path1030"
       d="m 132.1586,160.20889 c 0.71296,-0.37154 1.93805,-0.16066 3.07276,0.26109 0.56233,0.21087 1.95812,0.68283 2.52045,0.87362 0.68284,0.22092 2.0485,0.44183 2.83175,0.1205 0.79329,-0.32133 -0.30125,0.51213 -1.41587,0.98409 -0.8435,0.3615 -1.87779,0.15062 -2.61084,-0.0803 -0.6527,-0.21087 -1.78741,-0.68283 -2.89199,-1.02425 -0.77321,-0.25104 -1.37571,-0.6025 -1.93805,-0.45187 -1.04433,0.29121 -1.0142,0.0904 0.43179,-0.68284 z"
       style="fill:#b20000;fill-opacity:1;fill-rule:nonzero;stroke:none;stroke-width:0.26458332"
       inkscape:connector-curvature="0" />
    <path
       id="path1032"
       d="m 119.25506,168.73427 c -0.61254,0.51212 -0.8937,1.70708 -0.95396,2.91208 -0.0201,0.59246 -0.14058,2.0485 -0.18075,2.63092 -0.0602,0.70292 -0.39162,2.02842 -0.99412,2.63091 -0.59246,0.6025 0.59246,-0.0803 1.45604,-0.93387 0.65271,-0.64267 0.86358,-1.66692 0.93388,-2.42004 0.0703,-0.67279 0.0803,-1.88783 0.19079,-3.02254 0.0803,-0.80334 -0.0201,-1.48617 0.34142,-1.93805 0.67279,-0.85354 0.47195,-0.90375 -0.7933,0.14059"
       style="fill:none;stroke:#840000;stroke-width:0.04016666px;stroke-linecap:butt;stroke-linejoin:miter;stroke-miterlimit:2;stroke-dasharray:none;stroke-opacity:1"
       inkscape:connector-curvature="0" />
    <path
       id="path1034"
       d="m 119.25506,168.73427 c -0.61254,0.51212 -0.8937,1.70708 -0.95396,2.91208 -0.0201,0.59246 -0.14058,2.0485 -0.18075,2.63092 -0.0602,0.70292 -0.39162,2.02842 -0.99412,2.63091 -0.59246,0.6025 0.59246,-0.0803 1.45604,-0.93387 0.65271,-0.64267 0.86358,-1.66692 0.93388,-2.42004 0.0703,-0.67279 0.0803,-1.88783 0.19079,-3.02254 0.0803,-0.80334 -0.0201,-1.48617 0.34142,-1.93805 0.67279,-0.85354 0.47195,-0.90375 -0.7933,0.14059 z"
       style="fill:#840000;fill-opacity:1;fill-rule:nonzero;stroke:none;stroke-width:0.26458332"
       inkscape:connector-curvature="0" />
    <path
       id="path1036"
       d="m 120.5906,167.83052 c 0.70292,-0.37154 1.92801,-0.16067 3.06271,0.26108 0.56234,0.20083 1.96817,0.67279 2.52046,0.86358 0.68283,0.22092 2.0485,0.44184 2.83175,0.12051 0.79329,-0.32134 -0.30125,0.52216 -1.41587,0.99412 -0.8435,0.35146 -1.87779,0.14058 -2.61084,-0.0904 -0.6527,-0.21087 -1.78741,-0.68283 -2.892,-1.02425 -0.7732,-0.24099 -1.36566,-0.60249 -1.93804,-0.44183 -1.03429,0.29121 -1.01421,0.0803 0.44183,-0.68283"
       style="fill:none;stroke:#b20000;stroke-width:0.04016666px;stroke-linecap:butt;stroke-linejoin:miter;stroke-miterlimit:2;stroke-dasharray:none;stroke-opacity:1"
       inkscape:connector-curvature="0" />
    <path
       id="path1038"
       d="m 120.5906,167.83052 c 0.70292,-0.37154 1.92801,-0.16067 3.06271,0.26108 0.56234,0.20083 1.96817,0.67279 2.52046,0.86358 0.68283,0.22092 2.0485,0.44184 2.83175,0.12051 0.79329,-0.32134 -0.30125,0.52216 -1.41587,0.99412 -0.8435,0.35146 -1.87779,0.14058 -2.61084,-0.0904 -0.6527,-0.21087 -1.78741,-0.68283 -2.892,-1.02425 -0.7732,-0.24099 -1.36566,-0.60249 -1.93804,-0.44183 -1.03429,0.29121 -1.01421,0.0803 0.44183,-0.68283 z"
       style="fill:#b20000;fill-opacity:1;fill-rule:nonzero;stroke:none;stroke-width:0.26458332"
       inkscape:connector-curvature="0" />
    <path
       id="path1040"
       d="m 135.75352,157.8491 c 0.70292,-0.37154 1.928,-0.16067 3.06271,0.26109 0.56233,0.21087 1.96817,0.68283 2.52046,0.87362 0.68283,0.22092 2.0485,0.44183 2.83175,0.1205 0.79329,-0.32133 -0.30125,0.51213 -1.41588,0.98408 -0.8435,0.3615 -1.87779,0.15063 -2.61083,-0.0803 -0.65271,-0.21087 -1.78742,-0.68283 -2.892,-1.02425 -0.77321,-0.25104 -1.36567,-0.6025 -1.93804,-0.44183 -1.04434,0.28116 -1.01421,0.0803 0.44183,-0.69288"
       style="fill:none;stroke:#930000;stroke-width:0.04016666px;stroke-linecap:butt;stroke-linejoin:miter;stroke-miterlimit:2;stroke-dasharray:none;stroke-opacity:1"
       inkscape:connector-curvature="0" />
    <path
       id="path1042"
       d="m 135.75352,157.8491 c 0.70292,-0.37154 1.928,-0.16067 3.06271,0.26109 0.56233,0.21087 1.96817,0.68283 2.52046,0.87362 0.68283,0.22092 2.0485,0.44183 2.83175,0.1205 0.79329,-0.32133 -0.30125,0.51213 -1.41588,0.98408 -0.8435,0.3615 -1.87779,0.15063 -2.61083,-0.0803 -0.65271,-0.21087 -1.78742,-0.68283 -2.892,-1.02425 -0.77321,-0.25104 -1.36567,-0.6025 -1.93804,-0.44183 -1.04434,0.28116 -1.01421,0.0803 0.44183,-0.69288 z"
       style="fill:#930000;fill-opacity:1;fill-rule:nonzero;stroke:none;stroke-width:0.26458332"
       inkscape:connector-curvature="0" />
    <path
       id="path1044"
       d="m 124.17548,165.47073 c 0.70292,-0.37155 1.928,-0.16067 3.07275,0.26108 0.55229,0.20083 1.95812,0.67279 2.52046,0.86358 0.67279,0.22092 2.03846,0.44184 2.83175,0.1205 0.78325,-0.32133 -0.31129,0.52217 -1.42592,0.99413 -0.8435,0.35146 -1.87779,0.14058 -2.60079,-0.0904 -0.66275,-0.21087 -1.78742,-0.68283 -2.90204,-1.02425 -0.77321,-0.241 -1.36567,-0.6025 -1.928,-0.44183 -1.04434,0.29121 -1.02425,0.0803 0.43179,-0.68283"
       style="fill:none;stroke:#930000;stroke-width:0.04016666px;stroke-linecap:butt;stroke-linejoin:miter;stroke-miterlimit:2;stroke-dasharray:none;stroke-opacity:1"
       inkscape:connector-curvature="0" />
    <path
       id="path1046"
       d="m 124.17548,165.47073 c 0.70292,-0.37155 1.928,-0.16067 3.07275,0.26108 0.55229,0.20083 1.95812,0.67279 2.52046,0.86358 0.67279,0.22092 2.03846,0.44184 2.83175,0.1205 0.78325,-0.32133 -0.31129,0.52217 -1.42592,0.99413 -0.8435,0.35146 -1.87779,0.14058 -2.60079,-0.0904 -0.66275,-0.21087 -1.78742,-0.68283 -2.90204,-1.02425 -0.77321,-0.241 -1.36567,-0.6025 -1.928,-0.44183 -1.04434,0.29121 -1.02425,0.0803 0.43179,-0.68283 z"
       style="fill:#930000;fill-opacity:1;fill-rule:nonzero;stroke:none;stroke-width:0.26458332"
       inkscape:connector-curvature="0" />
    <path
       id="path1048"
       d="m 123.7236,166.18368 c 0,0 1.07446,1.6368 1.7573,2.67109"
       style="fill:none;stroke:#ff0000;stroke-width:0.19079167px;stroke-linecap:butt;stroke-linejoin:miter;stroke-miterlimit:2;stroke-dasharray:none;stroke-opacity:1"
       inkscape:connector-curvature="0" />
    <path
       id="path1050"
       d="m 125.58131,166.54518 c 0,0 1.07446,1.62676 1.75729,2.66105"
       style="fill:none;stroke:#ff0000;stroke-width:0.19079167px;stroke-linecap:butt;stroke-linejoin:miter;stroke-miterlimit:2;stroke-dasharray:none;stroke-opacity:1"
       inkscape:connector-curvature="0" />
    <path
       id="path1052"
       d="m 127.51935,167.15773 c 0,0 0.82342,1.2552 1.35563,2.05854"
       style="fill:none;stroke:#ff0000;stroke-width:0.19079167px;stroke-linecap:butt;stroke-linejoin:miter;stroke-miterlimit:2;stroke-dasharray:none;stroke-opacity:1"
       inkscape:connector-curvature="0" />
    <path
       id="path1054"
       d="m 131.07411,164.81802 c 0,0 0.82341,1.25521 1.34558,2.0485"
       style="fill:none;stroke:#ff0000;stroke-width:0.19079167px;stroke-linecap:butt;stroke-linejoin:miter;stroke-miterlimit:2;stroke-dasharray:none;stroke-opacity:1"
       inkscape:connector-curvature="0" />
    <path
       id="path1056"
       d="m 131.33519,162.75948 c 0,0 1.07446,1.62675 1.75729,2.66104"
       style="fill:none;stroke:#ff0000;stroke-width:0.19079167px;stroke-linecap:butt;stroke-linejoin:miter;stroke-miterlimit:2;stroke-dasharray:none;stroke-opacity:1"
       inkscape:connector-curvature="0" />
    <path
       id="path1058"
       d="m 131.69669,160.90177 c 0,0 1.07446,1.62675 1.74725,2.66104"
       style="fill:none;stroke:#ff0000;stroke-width:0.19079167px;stroke-linecap:butt;stroke-linejoin:miter;stroke-miterlimit:2;stroke-dasharray:none;stroke-opacity:1"
       inkscape:connector-curvature="0" />
    <path
       id="path1060"
       d="m 135.33177,158.55202 c 0,0 1.07446,1.62675 1.75729,2.66104"
       style="fill:none;stroke:#ff0000;stroke-width:0.19079167px;stroke-linecap:butt;stroke-linejoin:miter;stroke-miterlimit:2;stroke-dasharray:none;stroke-opacity:1"
       inkscape:connector-curvature="0" />
    <path
       id="path1062"
       d="m 137.18948,158.90348 c 0,0 1.07446,1.62675 1.75729,2.66104"
       style="fill:none;stroke:#ff0000;stroke-width:0.19079167px;stroke-linecap:butt;stroke-linejoin:miter;stroke-miterlimit:2;stroke-dasharray:none;stroke-opacity:1"
       inkscape:connector-curvature="0" />
    <path
       id="path1064"
       d="m 139.12752,159.52606 c 0,0 0.83346,1.25521 1.35563,2.0485"
       style="fill:none;stroke:#ff0000;stroke-width:0.19079167px;stroke-linecap:butt;stroke-linejoin:miter;stroke-miterlimit:2;stroke-dasharray:none;stroke-opacity:1"
       inkscape:connector-curvature="0" />
    <path
       id="path1066"
       d="m 119.49606,172.43964 c 0,0 0.82342,1.24517 1.34559,2.03846"
       style="fill:none;stroke:#ff0000;stroke-width:0.19079167px;stroke-linecap:butt;stroke-linejoin:miter;stroke-miterlimit:2;stroke-dasharray:none;stroke-opacity:1"
       inkscape:connector-curvature="0" />
    <path
       id="path1068"
       d="m 119.75715,170.37106 c 0,0 1.07446,1.62675 1.75729,2.66104"
       style="fill:none;stroke:#ff0000;stroke-width:0.19079167px;stroke-linecap:butt;stroke-linejoin:miter;stroke-miterlimit:2;stroke-dasharray:none;stroke-opacity:1"
       inkscape:connector-curvature="0" />
    <path
       id="path1070"
       d="m 120.11865,168.51335 c 0,0 1.07446,1.62675 1.74725,2.66104"
       style="fill:none;stroke:#ff0000;stroke-width:0.19079167px;stroke-linecap:butt;stroke-linejoin:miter;stroke-miterlimit:2;stroke-dasharray:none;stroke-opacity:1"
       inkscape:connector-curvature="0" />
    <path
       id="path1072"
       d="m 184.26481,170.8631 c 0,9.52954 -7.72204,17.25158 -17.25158,17.25158 -9.5195,0 -17.24154,-7.72204 -17.24154,-17.25158 0,-9.5195 7.72204,-17.24154 17.24154,-17.24154 9.52954,0 17.25158,7.72204 17.25158,17.24154"
       style="fill:none;stroke:#008000;stroke-width:1.8075px;stroke-linecap:butt;stroke-linejoin:miter;stroke-miterlimit:2;stroke-dasharray:none;stroke-opacity:1"
       inkscape:connector-curvature="0" />
    <path
       id="path1074"
       d="m 167.07348,201.38977 c 0,9.52954 -7.72204,17.25158 -17.25158,17.25158 -9.5195,0 -17.24154,-7.72204 -17.24154,-17.25158 0,-9.5195 7.72204,-17.24154 17.24154,-17.24154 9.52954,0 17.25158,7.72204 17.25158,17.24154"
       style="fill:none;stroke:#8000ff;stroke-width:1.8075px;stroke-linecap:butt;stroke-linejoin:miter;stroke-miterlimit:2;stroke-dasharray:none;stroke-opacity:1"
       inkscape:connector-curvature="0" />
    <path
       id="path1076"
       d="m 156.19835,167.41881 0.3113,-0.723 0.34141,-0.68283 0.3615,-0.63263 0.39163,-0.58242 0.41171,-0.5322 0.86358,-0.92384 0.45187,-0.38158 0.47196,-0.34142 0.482,-0.29121 0.482,-0.24099 0.49205,-0.20084 0.49204,-0.15062 0.49204,-0.10042 0.49204,-0.0602 0.49204,-0.01 0.482,0.0402 0.47196,0.0703 0.46192,0.13054 0.45187,0.16066 0.43179,0.21088 0.42175,0.26108 0.40167,0.29121 0.37154,0.34142 0.35146,0.38158 0.33138,0.43179 0.30125,0.46192 0.26108,0.51213 0.241,0.54225 0.20083,0.59245 0.16067,0.63263 0.1205,0.67279 0.0502,0.39162 0.0803,0.78326 0.0602,0.6527 0.01,1.2753 -0.0502,0.23095 -0.0703,0.14059 -0.0904,0.0603 -0.11046,-0.0101 -0.14058,-0.0703 -0.15063,-0.13054 -0.17071,-0.17071 -0.20083,-0.22091 -0.21088,-0.241 -0.22091,-0.27113 -0.25104,-0.28117 -0.26109,-0.2912 -0.27112,-0.28117 -0.6025,-0.54225 -0.32134,-0.241 -0.33137,-0.20083 -0.34142,-0.16067 -0.35146,-0.1205 -0.3615,-0.0602 -0.38158,0.01 -0.38158,0.0803 -0.18075,0.0602 -0.76317,0.29121 -0.77321,0.27113 -0.77321,0.23096 -0.75312,0.21087 -0.74309,0.16067 -0.69287,0.11046 -0.65271,0.0703 h -0.58242 l -0.51212,-0.0603 -0.43179,-0.1205 -0.33138,-0.21088 -0.21087,-0.28116 -0.10042,-0.37154 0.0402,-0.46192 0.0402,-0.16067 z"
       style="fill:#b3d9b3;fill-opacity:1;fill-rule:evenodd;stroke:none;stroke-width:0.26458332"
       inkscape:connector-curvature="0" />
    <path
       id="path1078"
       d="m 156.19835,167.41881 c 3.23342,-8.22413 11.68851,-7.471 12.54205,0.27112 0.86358,7.74213 -1.71713,-1.43595 -5.302,0 -3.58488,1.43596 -7.99317,2.25938 -7.24005,-0.32133"
       style="fill:none;stroke:#008000;stroke-width:0.65270835px;stroke-linecap:butt;stroke-linejoin:miter;stroke-miterlimit:2;stroke-dasharray:none;stroke-opacity:1"
       inkscape:connector-curvature="0" />
    <path
       id="path1080"
       d="m 157.06194,175.16094 1.02425,-0.23096 0.98408,-0.33138 0.92383,-0.42175 0.86359,-0.482 0.78325,-0.50208 0.69287,-0.51213 0.6025,-0.49204 0.51213,-0.45187 0.38158,-0.37155 0.27113,-0.27112 0.14058,-0.15062 0.0201,-0.0301 -0.0201,0.0703 -0.0602,0.20083 -0.0803,0.30126 -0.0803,0.39162 -0.0703,0.45188 -0.0502,0.50208 -0.01,0.53221 0.0402,0.53221 0.11046,0.52216 0.19079,0.49204 0.29121,0.43179 0.41171,0.35146 0.5322,0.27113 0.68284,0.15062 0.83345,0.01 0.83346,-0.10042 0.68284,-0.0904 0.56233,0.01 0.45188,0.0803 0.34141,0.16067 0.25104,0.21087 0.16067,0.27113 0.0803,0.32133 v 0.35146 l -0.0602,0.38158 -0.13054,0.39163 -0.18075,0.4117 -0.23096,0.40167 -0.27112,0.39163 -0.30125,0.38158 -0.33138,0.34141 -0.34141,0.32134 -0.3615,0.26108 -0.3615,0.21088 -0.3615,0.15062 -0.35146,0.0703 h -0.33138 l -0.31129,-0.10041 -0.22091,-0.15063 -0.3615,-0.26108 -0.45188,-0.29121 -0.54225,-0.31129 -0.6025,-0.32133 -0.66275,-0.33138 -0.69287,-0.34142 -1.45605,-0.69287 -0.73304,-0.35146 -0.70292,-0.34142 -0.67279,-0.32133 -0.63262,-0.32133 -0.56234,-0.30125 -0.48199,-0.28117 -0.39163,-0.26108 -0.29121,-0.241 -0.16066,-0.20084 -0.0301,-0.1707 0.13054,-0.14059 0.28117,-0.10042 h 0.0402 z"
       style="fill:#b3d9b3;fill-opacity:1;fill-rule:evenodd;stroke:none;stroke-width:0.26458332"
       inkscape:connector-curvature="0" />
    <path
       id="path1082"
       d="m 157.06194,175.16094 c 4.02671,-0.64267 7.19987,-4.24763 7.19987,-4.24763 0,0 -2.08866,6.13546 3.55475,5.11121 5.64342,-1.02425 0.42175,6.507 -1.6167,4.77983 -2.03846,-1.71712 -11.60817,-5.10117 -8.97726,-5.58317"
       style="fill:none;stroke:#008000;stroke-width:0.65270835px;stroke-linecap:butt;stroke-linejoin:miter;stroke-miterlimit:2;stroke-dasharray:none;stroke-opacity:1"
       inkscape:connector-curvature="0" />
    <path
       id="path1084"
       d="m 170.65836,172.31914 -0.0201,-0.68283 v -0.64267 l 0.0301,-0.6025 0.17071,-1.07446 0.15062,-0.45187 0.19079,-0.39162 0.25104,-0.33138 0.3113,-0.241 0.37154,-0.17071 0.43179,-0.0703 0.50208,0.01 0.58242,0.1205 0.66275,0.23096 0.74308,0.34142 0.83346,0.46191 0.59246,0.37155 0.78325,0.56233 0.59246,0.52217 0.40166,0.50208 0.241,0.46191 0.10042,0.4318 -0.0301,0.40166 -0.14059,0.38159 -0.23096,0.34141 -0.30125,0.33138 -0.3615,0.29121 -0.40166,0.28116 -0.41171,0.25104 -0.42175,0.23096 -0.39163,0.21088 -0.37154,0.19079 -0.31129,0.17071 -0.25104,0.16067 -0.10042,0.0803 -0.37154,0.19079 -0.49204,0.0402 -0.57238,-0.10042 -0.61254,-0.241 -0.6025,-0.37154 -0.56233,-0.482 -0.482,-0.58242 -0.34142,-0.67279 -0.16066,-0.62258 z"
       style="fill:#b3d9b3;fill-opacity:1;fill-rule:evenodd;stroke:none;stroke-width:0.26458332"
       inkscape:connector-curvature="0" />
    <path
       id="path1086"
       d="m 170.65836,172.31914 c -0.21088,-3.81583 0.59245,-6.507 5.80408,-3.12295 5.22167,3.38404 -0.74308,5.00074 -1.60667,5.80408 -0.86358,0.81337 -3.87608,-0.53221 -4.19741,-2.84179"
       style="fill:none;stroke:#008000;stroke-width:0.65270835px;stroke-linecap:butt;stroke-linejoin:miter;stroke-miterlimit:2;stroke-dasharray:none;stroke-opacity:1"
       inkscape:connector-curvature="0" />
    <path
       id="path1088"
       d="m 136.3761,200.43581 v 0.46192 h 17.59301 v -0.46192 z"
       style="fill:#8000ff;fill-opacity:1;fill-rule:evenodd;stroke:none;stroke-width:0.26458332"
       inkscape:connector-curvature="0" />
    <path
       id="path1090"
       d="m 146.10648,190.1431 v 20.20383 h 0.47196 V 190.1431 Z"
       style="fill:#8000ff;fill-opacity:1;fill-rule:evenodd;stroke:none;stroke-width:0.26458332"
       inkscape:connector-curvature="0" />
    <path
       id="path1092"
       d="m 143.36511,205.97881 v 0.46192 h 18.075 v -0.46192 z"
       style="fill:#8000ff;fill-opacity:1;fill-rule:evenodd;stroke:none;stroke-width:0.26458332"
       inkscape:connector-curvature="0" />
    <path
       id="path1094"
       d="m 157.59415,202.27344 v 3.53466 h 0.47195 v -3.53466 z"
       style="fill:#8000ff;fill-opacity:1;fill-rule:evenodd;stroke:none;stroke-width:0.26458332"
       inkscape:connector-curvature="0" />
    <path
       id="path1096"
       d="m 156.45944,203.72948 v 0.46191 h 5.38233 v -0.46191 z"
       style="fill:#8000ff;fill-opacity:1;fill-rule:evenodd;stroke:none;stroke-width:0.26458332"
       inkscape:connector-curvature="0" />
    <path
       id="path1098"
       d="m 155.66615,191.74977 v 5.302 h 0.47195 v -5.302 z"
       style="fill:#8000ff;fill-opacity:1;fill-rule:evenodd;stroke:none;stroke-width:0.26458332"
       inkscape:connector-curvature="0" />
    <path
       id="path1100"
       d="m 149.71144,193.76814 v 0.46192 h 13.41566 v -0.46192 z"
       style="fill:#8000ff;fill-opacity:1;fill-rule:evenodd;stroke:none;stroke-width:0.26458332"
       inkscape:connector-curvature="0" />
    <path
       id="path1102"
       d="m 161.04848,195.4451 v 15.26333 h 0.47196 V 195.4451 Z"
       style="fill:#8000ff;fill-opacity:1;fill-rule:evenodd;stroke:none;stroke-width:0.26458332"
       inkscape:connector-curvature="0" />
    <path
       id="path1104"
       d="m 149.34994,209.43314 v 0.46192 h 6.11537 v -0.46192 z"
       style="fill:#8000ff;fill-opacity:1;fill-rule:evenodd;stroke:none;stroke-width:0.26458332"
       inkscape:connector-curvature="0" />
    <path
       id="path1106"
       d="m 151.89048,207.81644 v 6.82833 h 0.47196 v -6.82833 z"
       style="fill:#8000ff;fill-opacity:1;fill-rule:evenodd;stroke:none;stroke-width:0.26458332"
       inkscape:connector-curvature="0" />
    <path
       id="path1108"
       d="m 137.91248,195.04343 v 13.49601 h 0.47196 v -13.49601 z"
       style="fill:#8000ff;fill-opacity:1;fill-rule:evenodd;stroke:none;stroke-width:0.26458332"
       inkscape:connector-curvature="0" />
    <path
       id="path1110"
       d="m 143.8471,213.69081 v 0.46192 h 15.665 v -0.46192 z"
       style="fill:#8000ff;fill-opacity:1;fill-rule:evenodd;stroke:none;stroke-width:0.26458332"
       inkscape:connector-curvature="0" />
    <path
       id="path1112"
       d="m 142.32077,191.35814 v 0.46192 h 12.69267 v -0.46192 z"
       style="fill:#8000ff;fill-opacity:1;fill-rule:evenodd;stroke:none;stroke-width:0.26458332"
       inkscape:connector-curvature="0" />
    <path
       id="path1114"
       d="m 150.20348,185.72477 v 8.3145 h 0.47196 v -8.3145 z"
       style="fill:#8000ff;fill-opacity:1;fill-rule:evenodd;stroke:none;stroke-width:0.26458332"
       inkscape:connector-curvature="0" />
    <path
       id="path1116"
       d="m 134.4481,197.78481 v 0.46192 h 9.55967 v -0.46192 z"
       style="fill:#8000ff;fill-opacity:1;fill-rule:evenodd;stroke:none;stroke-width:0.26458332"
       inkscape:connector-curvature="0" />
    <path
       id="path1118"
       d="m 149.64115,210.30677 v 6.507 h 0.47195 v -6.507 z"
       style="fill:#8000ff;fill-opacity:1;fill-rule:evenodd;stroke:none;stroke-width:0.26458332"
       inkscape:connector-curvature="0" />
    <path
       id="path1120"
       d="m 152.12144,198.34714 v 0.46192 h 9.25841 v -0.46192 z"
       style="fill:#8000ff;fill-opacity:1;fill-rule:evenodd;stroke:none;stroke-width:0.26458332"
       inkscape:connector-curvature="0" />
    <path
       id="path1122"
       d="m 149.30977,199.39148 v 0.46191 h 9.25842 v -0.46191 z"
       style="fill:#8000ff;fill-opacity:1;fill-rule:evenodd;stroke:none;stroke-width:0.26458332"
       inkscape:connector-curvature="0" />
    <path
       id="path1124"
       d="m 147.87381,199.86343 v 2.81167 h 0.47196 v -2.81167 z"
       style="fill:#8000ff;fill-opacity:1;fill-rule:evenodd;stroke:none;stroke-width:0.26458332"
       inkscape:connector-curvature="0" />
    <path
       id="path1126"
       d="m 150.76581,198.3371 v 7.953 h 0.47196 v -7.953 z"
       style="fill:#8000ff;fill-opacity:1;fill-rule:evenodd;stroke:none;stroke-width:0.26458332"
       inkscape:connector-curvature="0" />
    <path
       id="path1128"
       d="m 143.20444,195.11373 v 0.46191 h 18.15533 v -0.46191 z"
       style="fill:#8000ff;fill-opacity:1;fill-rule:evenodd;stroke:none;stroke-width:0.26458332"
       inkscape:connector-curvature="0" />
    <path
       id="path1130"
       d="m 140.94506,194.91289 v 17.48254 h 0.46192 v -17.48254 z"
       style="fill:#8000ff;fill-opacity:1;fill-rule:evenodd;stroke:none;stroke-width:0.26458332"
       inkscape:connector-curvature="0" />
    <path
       id="path1132"
       d="m 136.77777,204.0006 v 0.46192 h 2.47025 v -0.46192 z"
       style="fill:#8000ff;fill-opacity:1;fill-rule:evenodd;stroke:none;stroke-width:0.26458332"
       inkscape:connector-curvature="0" />
    <path
       id="path1134"
       d="m 140.21202,207.74614 v 0.46192 h 2.99242 v -0.46192 z"
       style="fill:#8000ff;fill-opacity:1;fill-rule:evenodd;stroke:none;stroke-width:0.26458332"
       inkscape:connector-curvature="0" />
    <path
       id="path1136"
       d="m 139.01706,203.05668 v 7.06934 h 0.46192 v -7.06934 z"
       style="fill:#8000ff;fill-opacity:1;fill-rule:evenodd;stroke:none;stroke-width:0.26458332"
       inkscape:connector-curvature="0" />
    <path
       id="path1138"
       d="m 138.4949,209.03148 v 0.46191 h 7.92287 v -0.46191 z"
       style="fill:#8000ff;fill-opacity:1;fill-rule:evenodd;stroke:none;stroke-width:0.26458332"
       inkscape:connector-curvature="0" />
    <path
       id="path1140"
       d="m 138.91665,200.61656 c 0,0.41171 -0.33138,0.74308 -0.74309,0.74308 -0.41171,0 -0.74308,-0.33137 -0.74308,-0.74308 0,-0.41171 0.33137,-0.74308 0.74308,-0.74308 0.41171,0 0.74309,0.33137 0.74309,0.74308 z"
       style="fill:#800080;fill-opacity:1;fill-rule:evenodd;stroke:none;stroke-width:0.26458332"
       inkscape:connector-curvature="0" />
    <path
       id="path1142"
       d="m 141.92915,200.61656 c 0,0.41171 -0.33138,0.74308 -0.74309,0.74308 -0.4117,0 -0.74308,-0.33137 -0.74308,-0.74308 0,-0.41171 0.33138,-0.74308 0.74308,-0.74308 0.41171,0 0.74309,0.33137 0.74309,0.74308 z"
       style="fill:#800080;fill-opacity:1;fill-rule:evenodd;stroke:none;stroke-width:0.26458332"
       inkscape:connector-curvature="0" />
    <path
       id="path1144"
       d="m 147.07048,200.61656 c 0,0.41171 -0.33138,0.74308 -0.74308,0.74308 -0.41171,0 -0.74309,-0.33137 -0.74309,-0.74308 0,-0.41171 0.33138,-0.74308 0.74309,-0.74308 0.4117,0 0.74308,0.33137 0.74308,0.74308 z"
       style="fill:#800080;fill-opacity:1;fill-rule:evenodd;stroke:none;stroke-width:0.26458332"
       inkscape:connector-curvature="0" />
    <path
       id="path1146"
       d="m 148.87798,200.53623 c 0,0.4117 -0.33138,0.74308 -0.74308,0.74308 -0.41171,0 -0.74309,-0.33138 -0.74309,-0.74308 0,-0.41171 0.33138,-0.74309 0.74309,-0.74309 0.4117,0 0.74308,0.33138 0.74308,0.74309 z"
       style="fill:#800080;fill-opacity:1;fill-rule:evenodd;stroke:none;stroke-width:0.26458332"
       inkscape:connector-curvature="0" />
    <path
       id="path1148"
       d="m 151.72981,200.61656 c 0,0.41171 -0.33137,0.74308 -0.74308,0.74308 -0.41171,0 -0.74308,-0.33137 -0.74308,-0.74308 0,-0.41171 0.33137,-0.74308 0.74308,-0.74308 0.41171,0 0.74308,0.33137 0.74308,0.74308 z"
       style="fill:#800080;fill-opacity:1;fill-rule:evenodd;stroke:none;stroke-width:0.26458332"
       inkscape:connector-curvature="0" />
    <path
       id="path1150"
       d="m 154.70215,200.61656 c 0,0.41171 -0.33138,0.74308 -0.74309,0.74308 -0.41171,0 -0.74308,-0.33137 -0.74308,-0.74308 0,-0.41171 0.33137,-0.74308 0.74308,-0.74308 0.41171,0 0.74309,0.33137 0.74309,0.74308 z"
       style="fill:#800080;fill-opacity:1;fill-rule:evenodd;stroke:none;stroke-width:0.26458332"
       inkscape:connector-curvature="0" />
    <path
       id="path1152"
       d="m 158.63848,203.99056 c 0,0.41171 -0.33137,0.74308 -0.74308,0.74308 -0.41171,0 -0.74309,-0.33137 -0.74309,-0.74308 0,-0.41171 0.33138,-0.74308 0.74309,-0.74308 0.41171,0 0.74308,0.33137 0.74308,0.74308 z"
       style="fill:#800080;fill-opacity:1;fill-rule:evenodd;stroke:none;stroke-width:0.26458332"
       inkscape:connector-curvature="0" />
    <path
       id="path1154"
       d="m 162.13298,203.99056 c 0,0.41171 -0.33137,0.74308 -0.74308,0.74308 -0.41171,0 -0.74309,-0.33137 -0.74309,-0.74308 0,-0.41171 0.33138,-0.74308 0.74309,-0.74308 0.41171,0 0.74308,0.33137 0.74308,0.74308 z"
       style="fill:#800080;fill-opacity:1;fill-rule:evenodd;stroke:none;stroke-width:0.26458332"
       inkscape:connector-curvature="0" />
    <path
       id="path1156"
       d="m 156.71048,203.99056 c 0,0.41171 -0.33138,0.74308 -0.74308,0.74308 -0.41171,0 -0.74309,-0.33137 -0.74309,-0.74308 0,-0.41171 0.33138,-0.74308 0.74309,-0.74308 0.4117,0 0.74308,0.33137 0.74308,0.74308 z"
       style="fill:#800080;fill-opacity:1;fill-rule:evenodd;stroke:none;stroke-width:0.26458332"
       inkscape:connector-curvature="0" />
    <path
       id="path1158"
       d="m 158.63848,202.14289 c 0,0.41171 -0.33137,0.74309 -0.74308,0.74309 -0.41171,0 -0.74309,-0.33138 -0.74309,-0.74309 0,-0.4117 0.33138,-0.74308 0.74309,-0.74308 0.41171,0 0.74308,0.33138 0.74308,0.74308 z"
       style="fill:#800080;fill-opacity:1;fill-rule:evenodd;stroke:none;stroke-width:0.26458332"
       inkscape:connector-curvature="0" />
    <path
       id="path1160"
       d="m 158.63848,206.07923 c 0,0.4117 -0.33137,0.74308 -0.74308,0.74308 -0.41171,0 -0.74309,-0.33138 -0.74309,-0.74308 0,-0.41171 0.33138,-0.74309 0.74309,-0.74309 0.41171,0 0.74308,0.33138 0.74308,0.74309 z"
       style="fill:#800080;fill-opacity:1;fill-rule:evenodd;stroke:none;stroke-width:0.26458332"
       inkscape:connector-curvature="0" />
    <path
       id="path1162"
       d="m 151.76998,206.07923 c 0,0.4117 -0.33138,0.74308 -0.74308,0.74308 -0.41171,0 -0.74309,-0.33138 -0.74309,-0.74308 0,-0.41171 0.33138,-0.74309 0.74309,-0.74309 0.4117,0 0.74308,0.33138 0.74308,0.74309 z"
       style="fill:#800080;fill-opacity:1;fill-rule:evenodd;stroke:none;stroke-width:0.26458332"
       inkscape:connector-curvature="0" />
    <path
       id="path1164"
       d="m 143.89731,206.07923 c 0,0.4117 -0.33137,0.74308 -0.74308,0.74308 -0.41171,0 -0.74308,-0.33138 -0.74308,-0.74308 0,-0.41171 0.33137,-0.74309 0.74308,-0.74309 0.41171,0 0.74308,0.33138 0.74308,0.74309 z"
       style="fill:#800080;fill-opacity:1;fill-rule:evenodd;stroke:none;stroke-width:0.26458332"
       inkscape:connector-curvature="0" />
    <path
       id="path1166"
       d="m 147.15081,206.07923 c 0,0.4117 -0.33137,0.74308 -0.74308,0.74308 -0.41171,0 -0.74308,-0.33138 -0.74308,-0.74308 0,-0.41171 0.33137,-0.74309 0.74308,-0.74309 0.41171,0 0.74308,0.33138 0.74308,0.74309 z"
       style="fill:#800080;fill-opacity:1;fill-rule:evenodd;stroke:none;stroke-width:0.26458332"
       inkscape:connector-curvature="0" />
    <path
       id="path1168"
       d="m 147.15081,210.57789 c 0,0.41171 -0.33137,0.74309 -0.74308,0.74309 -0.41171,0 -0.74308,-0.33138 -0.74308,-0.74309 0,-0.41171 0.33137,-0.74308 0.74308,-0.74308 0.41171,0 0.74308,0.33137 0.74308,0.74308 z"
       style="fill:#800080;fill-opacity:1;fill-rule:evenodd;stroke:none;stroke-width:0.26458332"
       inkscape:connector-curvature="0" />
    <path
       id="path1170"
       d="m 147.15081,208.89089 c 0,0.41171 -0.33137,0.74309 -0.74308,0.74309 -0.41171,0 -0.74308,-0.33138 -0.74308,-0.74309 0,-0.4117 0.33137,-0.74308 0.74308,-0.74308 0.41171,0 0.74308,0.33138 0.74308,0.74308 z"
       style="fill:#800080;fill-opacity:1;fill-rule:evenodd;stroke:none;stroke-width:0.26458332"
       inkscape:connector-curvature="0" />
    <path
       id="path1172"
       d="m 141.96931,209.29256 c 0,0.41171 -0.33137,0.74308 -0.74308,0.74308 -0.41171,0 -0.74308,-0.33137 -0.74308,-0.74308 0,-0.41171 0.33137,-0.74308 0.74308,-0.74308 0.41171,0 0.74308,0.33137 0.74308,0.74308 z"
       style="fill:#800080;fill-opacity:1;fill-rule:evenodd;stroke:none;stroke-width:0.26458332"
       inkscape:connector-curvature="0" />
    <path
       id="path1174"
       d="m 141.96931,212.58623 c 0,0.41171 -0.33137,0.74308 -0.74308,0.74308 -0.41171,0 -0.74308,-0.33137 -0.74308,-0.74308 0,-0.41171 0.33137,-0.74309 0.74308,-0.74309 0.41171,0 0.74308,0.33138 0.74308,0.74309 z"
       style="fill:#800080;fill-opacity:1;fill-rule:evenodd;stroke:none;stroke-width:0.26458332"
       inkscape:connector-curvature="0" />
    <path
       id="path1176"
       d="m 144.29898,213.83139 c 0,0.41171 -0.33138,0.74309 -0.74308,0.74309 -0.41171,0 -0.74309,-0.33138 -0.74309,-0.74309 0,-0.4117 0.33138,-0.74308 0.74309,-0.74308 0.4117,0 0.74308,0.33138 0.74308,0.74308 z"
       style="fill:#800080;fill-opacity:1;fill-rule:evenodd;stroke:none;stroke-width:0.26458332"
       inkscape:connector-curvature="0" />
    <path
       id="path1178"
       d="m 150.60515,213.83139 c 0,0.41171 -0.33138,0.74309 -0.74309,0.74309 -0.4117,0 -0.74308,-0.33138 -0.74308,-0.74309 0,-0.4117 0.33138,-0.74308 0.74308,-0.74308 0.41171,0 0.74309,0.33138 0.74309,0.74308 z"
       style="fill:#800080;fill-opacity:1;fill-rule:evenodd;stroke:none;stroke-width:0.26458332"
       inkscape:connector-curvature="0" />
    <path
       id="path1180"
       d="m 152.89465,213.95189 c 0,0.41171 -0.33138,0.74309 -0.74309,0.74309 -0.4117,0 -0.74308,-0.33138 -0.74308,-0.74309 0,-0.4117 0.33138,-0.74308 0.74308,-0.74308 0.41171,0 0.74309,0.33138 0.74309,0.74308 z"
       style="fill:#800080;fill-opacity:1;fill-rule:evenodd;stroke:none;stroke-width:0.26458332"
       inkscape:connector-curvature="0" />
    <path
       id="path1182"
       d="m 160.24515,213.95189 c 0,0.41171 -0.33138,0.74309 -0.74309,0.74309 -0.41171,0 -0.74308,-0.33138 -0.74308,-0.74309 0,-0.4117 0.33137,-0.74308 0.74308,-0.74308 0.41171,0 0.74309,0.33138 0.74309,0.74308 z"
       style="fill:#800080;fill-opacity:1;fill-rule:evenodd;stroke:none;stroke-width:0.26458332"
       inkscape:connector-curvature="0" />
    <path
       id="path1184"
       d="m 150.60515,209.57373 c 0,0.4117 -0.33138,0.74308 -0.74309,0.74308 -0.4117,0 -0.74308,-0.33138 -0.74308,-0.74308 0,-0.41171 0.33138,-0.74309 0.74308,-0.74309 0.41171,0 0.74309,0.33138 0.74309,0.74309 z"
       style="fill:#800080;fill-opacity:1;fill-rule:evenodd;stroke:none;stroke-width:0.26458332"
       inkscape:connector-curvature="0" />
    <path
       id="path1186"
       d="m 150.60515,217.04473 c 0,0.4117 -0.33138,0.74308 -0.74309,0.74308 -0.4117,0 -0.74308,-0.33138 -0.74308,-0.74308 0,-0.41171 0.33138,-0.74309 0.74308,-0.74309 0.41171,0 0.74309,0.33138 0.74309,0.74309 z"
       style="fill:#800080;fill-opacity:1;fill-rule:evenodd;stroke:none;stroke-width:0.26458332"
       inkscape:connector-curvature="0" />
    <path
       id="path1188"
       d="m 152.89465,209.61389 c 0,0.41171 -0.33138,0.74309 -0.74309,0.74309 -0.4117,0 -0.74308,-0.33138 -0.74308,-0.74309 0,-0.4117 0.33138,-0.74308 0.74308,-0.74308 0.41171,0 0.74309,0.33138 0.74309,0.74308 z"
       style="fill:#800080;fill-opacity:1;fill-rule:evenodd;stroke:none;stroke-width:0.26458332"
       inkscape:connector-curvature="0" />
    <path
       id="path1190"
       d="m 156.10798,209.61389 c 0,0.41171 -0.33137,0.74309 -0.74308,0.74309 -0.41171,0 -0.74309,-0.33138 -0.74309,-0.74309 0,-0.4117 0.33138,-0.74308 0.74309,-0.74308 0.41171,0 0.74308,0.33138 0.74308,0.74308 z"
       style="fill:#800080;fill-opacity:1;fill-rule:evenodd;stroke:none;stroke-width:0.26458332"
       inkscape:connector-curvature="0" />
    <path
       id="path1192"
       d="m 152.89465,207.64573 c 0,0.4117 -0.33138,0.74308 -0.74309,0.74308 -0.4117,0 -0.74308,-0.33138 -0.74308,-0.74308 0,-0.41171 0.33138,-0.74309 0.74308,-0.74309 0.41171,0 0.74309,0.33138 0.74309,0.74309 z"
       style="fill:#800080;fill-opacity:1;fill-rule:evenodd;stroke:none;stroke-width:0.26458332"
       inkscape:connector-curvature="0" />
    <path
       id="path1194"
       d="m 148.87798,203.22739 c 0,0.41171 -0.33138,0.74309 -0.74308,0.74309 -0.41171,0 -0.74309,-0.33138 -0.74309,-0.74309 0,-0.4117 0.33138,-0.74308 0.74309,-0.74308 0.4117,0 0.74308,0.33138 0.74308,0.74308 z"
       style="fill:#800080;fill-opacity:1;fill-rule:evenodd;stroke:none;stroke-width:0.26458332"
       inkscape:connector-curvature="0" />
    <path
       id="path1196"
       d="m 147.07048,195.19406 c 0,0.41171 -0.33138,0.74308 -0.74308,0.74308 -0.41171,0 -0.74309,-0.33137 -0.74309,-0.74308 0,-0.41171 0.33138,-0.74308 0.74309,-0.74308 0.4117,0 0.74308,0.33137 0.74308,0.74308 z"
       style="fill:#800080;fill-opacity:1;fill-rule:evenodd;stroke:none;stroke-width:0.26458332"
       inkscape:connector-curvature="0" />
    <path
       id="path1198"
       d="m 147.07048,191.65939 c 0,0.41171 -0.33138,0.74309 -0.74308,0.74309 -0.41171,0 -0.74309,-0.33138 -0.74309,-0.74309 0,-0.41171 0.33138,-0.74308 0.74309,-0.74308 0.4117,0 0.74308,0.33137 0.74308,0.74308 z"
       style="fill:#800080;fill-opacity:1;fill-rule:evenodd;stroke:none;stroke-width:0.26458332"
       inkscape:connector-curvature="0" />
    <path
       id="path1200"
       d="m 143.05381,191.65939 c 0,0.41171 -0.33137,0.74309 -0.74308,0.74309 -0.41171,0 -0.74308,-0.33138 -0.74308,-0.74309 0,-0.41171 0.33137,-0.74308 0.74308,-0.74308 0.41171,0 0.74308,0.33137 0.74308,0.74308 z"
       style="fill:#800080;fill-opacity:1;fill-rule:evenodd;stroke:none;stroke-width:0.26458332"
       inkscape:connector-curvature="0" />
    <path
       id="path1202"
       d="m 156.34898,191.65939 c 0,0.41171 -0.33138,0.74309 -0.74308,0.74309 -0.41171,0 -0.74309,-0.33138 -0.74309,-0.74309 0,-0.41171 0.33138,-0.74308 0.74309,-0.74308 0.4117,0 0.74308,0.33137 0.74308,0.74308 z"
       style="fill:#800080;fill-opacity:1;fill-rule:evenodd;stroke:none;stroke-width:0.26458332"
       inkscape:connector-curvature="0" />
    <path
       id="path1204"
       d="m 147.07048,189.69123 c 0,0.41171 -0.33138,0.74308 -0.74308,0.74308 -0.41171,0 -0.74309,-0.33137 -0.74309,-0.74308 0,-0.41171 0.33138,-0.74309 0.74309,-0.74309 0.4117,0 0.74308,0.33138 0.74308,0.74309 z"
       style="fill:#800080;fill-opacity:1;fill-rule:evenodd;stroke:none;stroke-width:0.26458332"
       inkscape:connector-curvature="0" />
    <path
       id="path1206"
       d="m 143.73665,195.27439 c 0,0.41171 -0.33138,0.74309 -0.74309,0.74309 -0.41171,0 -0.74308,-0.33138 -0.74308,-0.74309 0,-0.41171 0.33137,-0.74308 0.74308,-0.74308 0.41171,0 0.74309,0.33137 0.74309,0.74308 z"
       style="fill:#800080;fill-opacity:1;fill-rule:evenodd;stroke:none;stroke-width:0.26458332"
       inkscape:connector-curvature="0" />
    <path
       id="path1208"
       d="m 141.92915,198.00573 c 0,0.41171 -0.33138,0.74308 -0.74309,0.74308 -0.4117,0 -0.74308,-0.33137 -0.74308,-0.74308 0,-0.41171 0.33138,-0.74309 0.74308,-0.74309 0.41171,0 0.74309,0.33138 0.74309,0.74309 z"
       style="fill:#800080;fill-opacity:1;fill-rule:evenodd;stroke:none;stroke-width:0.26458332"
       inkscape:connector-curvature="0" />
    <path
       id="path1210"
       d="m 141.92915,194.51123 c 0,0.41171 -0.33138,0.74308 -0.74309,0.74308 -0.4117,0 -0.74308,-0.33137 -0.74308,-0.74308 0,-0.41171 0.33138,-0.74309 0.74308,-0.74309 0.41171,0 0.74309,0.33138 0.74309,0.74309 z"
       style="fill:#800080;fill-opacity:1;fill-rule:evenodd;stroke:none;stroke-width:0.26458332"
       inkscape:connector-curvature="0" />
    <path
       id="path1212"
       d="m 144.94165,198.00573 c 0,0.41171 -0.33138,0.74308 -0.74309,0.74308 -0.41171,0 -0.74308,-0.33137 -0.74308,-0.74308 0,-0.41171 0.33137,-0.74309 0.74308,-0.74309 0.41171,0 0.74309,0.33138 0.74309,0.74309 z"
       style="fill:#800080;fill-opacity:1;fill-rule:evenodd;stroke:none;stroke-width:0.26458332"
       inkscape:connector-curvature="0" />
    <path
       id="path1214"
       d="m 138.87648,198.00573 c 0,0.41171 -0.33137,0.74308 -0.74308,0.74308 -0.41171,0 -0.74309,-0.33137 -0.74309,-0.74308 0,-0.41171 0.33138,-0.74309 0.74309,-0.74309 0.41171,0 0.74308,0.33138 0.74308,0.74309 z"
       style="fill:#800080;fill-opacity:1;fill-rule:evenodd;stroke:none;stroke-width:0.26458332"
       inkscape:connector-curvature="0" />
    <path
       id="path1216"
       d="m 138.87648,194.79239 c 0,0.41171 -0.33137,0.74309 -0.74308,0.74309 -0.41171,0 -0.74309,-0.33138 -0.74309,-0.74309 0,-0.41171 0.33138,-0.74308 0.74309,-0.74308 0.41171,0 0.74308,0.33137 0.74308,0.74308 z"
       style="fill:#800080;fill-opacity:1;fill-rule:evenodd;stroke:none;stroke-width:0.26458332"
       inkscape:connector-curvature="0" />
    <path
       id="path1218"
       d="m 135.30165,198.00573 c 0,0.41171 -0.33138,0.74308 -0.74309,0.74308 -0.4117,0 -0.74308,-0.33137 -0.74308,-0.74308 0,-0.41171 0.33138,-0.74309 0.74308,-0.74309 0.41171,0 0.74309,0.33138 0.74309,0.74309 z"
       style="fill:#800080;fill-opacity:1;fill-rule:evenodd;stroke:none;stroke-width:0.26458332"
       inkscape:connector-curvature="0" />
    <path
       id="path1220"
       d="m 136.82798,200.61656 c 0,0.41171 -0.33138,0.74308 -0.74308,0.74308 -0.41171,0 -0.74309,-0.33137 -0.74309,-0.74308 0,-0.41171 0.33138,-0.74308 0.74309,-0.74308 0.4117,0 0.74308,0.33137 0.74308,0.74308 z"
       style="fill:#800080;fill-opacity:1;fill-rule:evenodd;stroke:none;stroke-width:0.26458332"
       inkscape:connector-curvature="0" />
    <path
       id="path1222"
       d="m 138.91665,204.19139 c 0,0.41171 -0.33138,0.74309 -0.74309,0.74309 -0.41171,0 -0.74308,-0.33138 -0.74308,-0.74309 0,-0.4117 0.33137,-0.74308 0.74308,-0.74308 0.41171,0 0.74309,0.33138 0.74309,0.74308 z"
       style="fill:#800080;fill-opacity:1;fill-rule:evenodd;stroke:none;stroke-width:0.26458332"
       inkscape:connector-curvature="0" />
    <path
       id="path1224"
       d="m 137.14931,204.19139 c 0,0.41171 -0.33137,0.74309 -0.74308,0.74309 -0.41171,0 -0.74308,-0.33138 -0.74308,-0.74309 0,-0.4117 0.33137,-0.74308 0.74308,-0.74308 0.41171,0 0.74308,0.33138 0.74308,0.74308 z"
       style="fill:#800080;fill-opacity:1;fill-rule:evenodd;stroke:none;stroke-width:0.26458332"
       inkscape:connector-curvature="0" />
    <path
       id="path1226"
       d="m 138.91665,209.05156 c 0,0.41171 -0.33138,0.74308 -0.74309,0.74308 -0.41171,0 -0.74308,-0.33137 -0.74308,-0.74308 0,-0.41171 0.33137,-0.74308 0.74308,-0.74308 0.41171,0 0.74309,0.33137 0.74309,0.74308 z"
       style="fill:#800080;fill-opacity:1;fill-rule:evenodd;stroke:none;stroke-width:0.26458332"
       inkscape:connector-curvature="0" />
    <path
       id="path1228"
       d="m 140.00115,210.53773 c 0,0.41171 -0.33138,0.74308 -0.74309,0.74308 -0.4117,0 -0.74308,-0.33137 -0.74308,-0.74308 0,-0.41171 0.33138,-0.74309 0.74308,-0.74309 0.41171,0 0.74309,0.33138 0.74309,0.74309 z"
       style="fill:#800080;fill-opacity:1;fill-rule:evenodd;stroke:none;stroke-width:0.26458332"
       inkscape:connector-curvature="0" />
    <path
       id="path1230"
       d="m 140.00115,202.50439 c 0,0.41171 -0.33138,0.74309 -0.74309,0.74309 -0.4117,0 -0.74308,-0.33138 -0.74308,-0.74309 0,-0.4117 0.33138,-0.74308 0.74308,-0.74308 0.41171,0 0.74309,0.33138 0.74309,0.74308 z"
       style="fill:#800080;fill-opacity:1;fill-rule:evenodd;stroke:none;stroke-width:0.26458332"
       inkscape:connector-curvature="0" />
    <path
       id="path1232"
       d="m 144.13831,207.96706 c 0,0.41171 -0.33137,0.74308 -0.74308,0.74308 -0.41171,0 -0.74308,-0.33137 -0.74308,-0.74308 0,-0.41171 0.33137,-0.74308 0.74308,-0.74308 0.41171,0 0.74308,0.33137 0.74308,0.74308 z"
       style="fill:#800080;fill-opacity:1;fill-rule:evenodd;stroke:none;stroke-width:0.26458332"
       inkscape:connector-curvature="0" />
    <path
       id="path1234"
       d="m 140.92498,207.96706 c 0,0.41171 -0.33137,0.74308 -0.74308,0.74308 -0.41171,0 -0.74309,-0.33137 -0.74309,-0.74308 0,-0.41171 0.33138,-0.74308 0.74309,-0.74308 0.41171,0 0.74308,0.33137 0.74308,0.74308 z"
       style="fill:#800080;fill-opacity:1;fill-rule:evenodd;stroke:none;stroke-width:0.26458332"
       inkscape:connector-curvature="0" />
    <path
       id="path1236"
       d="m 151.20765,191.65939 c 0,0.41171 -0.33138,0.74309 -0.74309,0.74309 -0.41171,0 -0.74308,-0.33138 -0.74308,-0.74309 0,-0.41171 0.33137,-0.74308 0.74308,-0.74308 0.41171,0 0.74309,0.33137 0.74309,0.74308 z"
       style="fill:#800080;fill-opacity:1;fill-rule:evenodd;stroke:none;stroke-width:0.26458332"
       inkscape:connector-curvature="0" />
    <path
       id="path1238"
       d="m 151.12731,193.90873 c 0,0.4117 -0.33137,0.74308 -0.74308,0.74308 -0.41171,0 -0.74308,-0.33138 -0.74308,-0.74308 0,-0.41171 0.33137,-0.74309 0.74308,-0.74309 0.41171,0 0.74308,0.33138 0.74308,0.74309 z"
       style="fill:#800080;fill-opacity:1;fill-rule:evenodd;stroke:none;stroke-width:0.26458332"
       inkscape:connector-curvature="0" />
    <path
       id="path1240"
       d="m 151.20765,185.75489 c 0,0.41171 -0.33138,0.74309 -0.74309,0.74309 -0.41171,0 -0.74308,-0.33138 -0.74308,-0.74309 0,-0.4117 0.33137,-0.74308 0.74308,-0.74308 0.41171,0 0.74309,0.33138 0.74309,0.74308 z"
       style="fill:#800080;fill-opacity:1;fill-rule:evenodd;stroke:none;stroke-width:0.26458332"
       inkscape:connector-curvature="0" />
    <path
       id="path1242"
       d="m 156.63015,193.90873 c 0,0.4117 -0.33138,0.74308 -0.74309,0.74308 -0.41171,0 -0.74308,-0.33138 -0.74308,-0.74308 0,-0.41171 0.33137,-0.74309 0.74308,-0.74309 0.41171,0 0.74309,0.33138 0.74309,0.74309 z"
       style="fill:#800080;fill-opacity:1;fill-rule:evenodd;stroke:none;stroke-width:0.26458332"
       inkscape:connector-curvature="0" />
    <path
       id="path1244"
       d="m 164.26181,193.90873 c 0,0.4117 -0.33137,0.74308 -0.74308,0.74308 -0.41171,0 -0.74308,-0.33138 -0.74308,-0.74308 0,-0.41171 0.33137,-0.74309 0.74308,-0.74309 0.41171,0 0.74308,0.33138 0.74308,0.74309 z"
       style="fill:#800080;fill-opacity:1;fill-rule:evenodd;stroke:none;stroke-width:0.26458332"
       inkscape:connector-curvature="0" />
    <path
       id="path1246"
       d="m 156.63015,195.51539 c 0,0.41171 -0.33138,0.74309 -0.74309,0.74309 -0.41171,0 -0.74308,-0.33138 -0.74308,-0.74309 0,-0.4117 0.33137,-0.74308 0.74308,-0.74308 0.41171,0 0.74309,0.33138 0.74309,0.74308 z"
       style="fill:#800080;fill-opacity:1;fill-rule:evenodd;stroke:none;stroke-width:0.26458332"
       inkscape:connector-curvature="0" />
    <path
       id="path1248"
       d="m 162.05265,195.51539 c 0,0.41171 -0.33138,0.74309 -0.74309,0.74309 -0.41171,0 -0.74308,-0.33138 -0.74308,-0.74309 0,-0.4117 0.33137,-0.74308 0.74308,-0.74308 0.41171,0 0.74309,0.33138 0.74309,0.74308 z"
       style="fill:#800080;fill-opacity:1;fill-rule:evenodd;stroke:none;stroke-width:0.26458332"
       inkscape:connector-curvature="0" />
    <path
       id="path1250"
       d="m 156.63015,197.20239 c 0,0.41171 -0.33138,0.74309 -0.74309,0.74309 -0.41171,0 -0.74308,-0.33138 -0.74308,-0.74309 0,-0.41171 0.33137,-0.74308 0.74308,-0.74308 0.41171,0 0.74309,0.33137 0.74309,0.74308 z"
       style="fill:#800080;fill-opacity:1;fill-rule:evenodd;stroke:none;stroke-width:0.26458332"
       inkscape:connector-curvature="0" />
    <path
       id="path1252"
       d="m 151.72981,198.12623 c 0,0.4117 -0.33137,0.74308 -0.74308,0.74308 -0.41171,0 -0.74308,-0.33138 -0.74308,-0.74308 0,-0.41171 0.33137,-0.74309 0.74308,-0.74309 0.41171,0 0.74308,0.33138 0.74308,0.74309 z"
       style="fill:#800080;fill-opacity:1;fill-rule:evenodd;stroke:none;stroke-width:0.26458332"
       inkscape:connector-curvature="0" />
    <path
       id="path1254"
       d="m 162.01248,198.48773 c 0,0.4117 -0.33137,0.74308 -0.74308,0.74308 -0.41171,0 -0.74309,-0.33138 -0.74309,-0.74308 0,-0.41171 0.33138,-0.74309 0.74309,-0.74309 0.41171,0 0.74308,0.33138 0.74308,0.74309 z"
       style="fill:#800080;fill-opacity:1;fill-rule:evenodd;stroke:none;stroke-width:0.26458332"
       inkscape:connector-curvature="0" />
    <path
       id="path1256"
       d="m 162.13298,206.11939 c 0,0.41171 -0.33137,0.74309 -0.74308,0.74309 -0.41171,0 -0.74309,-0.33138 -0.74309,-0.74309 0,-0.4117 0.33138,-0.74308 0.74309,-0.74308 0.41171,0 0.74308,0.33138 0.74308,0.74308 z"
       style="fill:#800080;fill-opacity:1;fill-rule:evenodd;stroke:none;stroke-width:0.26458332"
       inkscape:connector-curvature="0" />
    <path
       id="path1258"
       d="m 162.13298,210.81889 c 0,0.41171 -0.33137,0.74309 -0.74308,0.74309 -0.41171,0 -0.74309,-0.33138 -0.74309,-0.74309 0,-0.4117 0.33138,-0.74308 0.74309,-0.74308 0.41171,0 0.74308,0.33138 0.74308,0.74308 z"
       style="fill:#800080;fill-opacity:1;fill-rule:evenodd;stroke:none;stroke-width:0.26458332"
       inkscape:connector-curvature="0" />
    <path
       id="path1260"
       d="m 153.45698,198.48773 c 0,0.4117 -0.33137,0.74308 -0.74308,0.74308 -0.41171,0 -0.74309,-0.33138 -0.74309,-0.74308 0,-0.41171 0.33138,-0.74309 0.74309,-0.74309 0.41171,0 0.74308,0.33138 0.74308,0.74309 z"
       style="fill:#800080;fill-opacity:1;fill-rule:evenodd;stroke:none;stroke-width:0.26458332"
       inkscape:connector-curvature="0" />
    <path
       id="path1262"
       d="m 150.24365,199.53206 c 0,0.41171 -0.33138,0.74308 -0.74309,0.74308 -0.4117,0 -0.74308,-0.33137 -0.74308,-0.74308 0,-0.41171 0.33138,-0.74308 0.74308,-0.74308 0.41171,0 0.74309,0.33137 0.74309,0.74308 z"
       style="fill:#800080;fill-opacity:1;fill-rule:evenodd;stroke:none;stroke-width:0.26458332"
       inkscape:connector-curvature="0" />
    <path
       id="path1264"
       d="m 159.40165,199.69273 c 0,0.4117 -0.33138,0.74308 -0.74309,0.74308 -0.41171,0 -0.74308,-0.33138 -0.74308,-0.74308 0,-0.41171 0.33137,-0.74309 0.74308,-0.74309 0.41171,0 0.74309,0.33138 0.74309,0.74309 z"
       style="fill:#800080;fill-opacity:1;fill-rule:evenodd;stroke:none;stroke-width:0.26458332"
       inkscape:connector-curvature="0" />
    <path
       id="path1266"
       d="m 137.96269,183.06373 c 0.0803,-0.62259 -0.41171,-1.46609 -1.02425,-2.18909 -0.30125,-0.35145 -1.02425,-1.2552 -1.30542,-1.6167 -0.35146,-0.44184 -0.87362,-1.38575 -0.86358,-2.0485 0.0201,-0.6728 -0.29121,0.37154 -0.33138,1.32549 -0.0301,0.72301 0.40167,1.42592 0.77321,1.88784 0.32134,0.43179 0.97404,1.13471 1.52634,1.84767 0.38158,0.50208 0.80333,0.8435 0.84349,1.30541 0.0703,0.8435 0.21088,0.77321 0.38159,-0.51212"
       style="fill:none;stroke:#700000;stroke-width:0.04016666px;stroke-linecap:butt;stroke-linejoin:miter;stroke-miterlimit:2;stroke-dasharray:none;stroke-opacity:1"
       inkscape:connector-curvature="0" />
    <path
       id="path1268"
       d="m 137.96269,183.06373 c 0.0803,-0.62259 -0.41171,-1.46609 -1.02425,-2.18909 -0.30125,-0.35145 -1.02425,-1.2552 -1.30542,-1.6167 -0.35146,-0.44184 -0.87362,-1.38575 -0.86358,-2.0485 0.0201,-0.6728 -0.29121,0.37154 -0.33138,1.32549 -0.0301,0.72301 0.40167,1.42592 0.77321,1.88784 0.32134,0.43179 0.97404,1.13471 1.52634,1.84767 0.38158,0.50208 0.80333,0.8435 0.84349,1.30541 0.0703,0.8435 0.21088,0.77321 0.38159,-0.51212 z"
       style="fill:#700000;fill-opacity:1;fill-rule:nonzero;stroke:none;stroke-width:0.26458332"
       inkscape:connector-curvature="0" />
    <path
       id="path1270"
       d="m 140.51327,172.4296 c 0.0803,-0.62258 -0.41171,-1.46608 -1.02425,-2.18908 -0.30125,-0.35146 -1.02425,-1.25521 -1.31546,-1.61671 -0.34141,-0.43179 -0.87362,-1.37571 -0.85354,-2.0485 0.0201,-0.67279 -0.29121,0.37154 -0.33137,1.3255 -0.0301,0.723 0.40166,1.42592 0.76316,1.89787 0.33138,0.42176 0.98409,1.12467 1.53638,1.83763 0.38158,0.51213 0.80333,0.8435 0.8435,1.30542 0.0703,0.85354 0.21087,0.77321 0.38158,-0.51213"
       style="fill:none;stroke:#700000;stroke-width:0.04016666px;stroke-linecap:butt;stroke-linejoin:miter;stroke-miterlimit:2;stroke-dasharray:none;stroke-opacity:1"
       inkscape:connector-curvature="0" />
    <path
       id="path1272"
       d="m 140.51327,172.4296 c 0.0803,-0.62258 -0.41171,-1.46608 -1.02425,-2.18908 -0.30125,-0.35146 -1.02425,-1.25521 -1.31546,-1.61671 -0.34141,-0.43179 -0.87362,-1.37571 -0.85354,-2.0485 0.0201,-0.67279 -0.29121,0.37154 -0.33137,1.3255 -0.0301,0.723 0.40166,1.42592 0.76316,1.89787 0.33138,0.42176 0.98409,1.12467 1.53638,1.83763 0.38158,0.51213 0.80333,0.8435 0.8435,1.30542 0.0703,0.85354 0.21087,0.77321 0.38158,-0.51213 z"
       style="fill:#700000;fill-opacity:1;fill-rule:nonzero;stroke:none;stroke-width:0.26458332"
       inkscape:connector-curvature="0" />
    <path
       id="path1274"
       d="m 138.74594,179.77006 c 0.0803,-0.62258 -0.40167,-1.46608 -1.01421,-2.18908 -0.30125,-0.35146 -1.02425,-1.25521 -1.31546,-1.61671 -0.34141,-0.44184 -0.87362,-1.38575 -0.85354,-2.0485 0.0201,-0.67279 -0.29121,0.37154 -0.33137,1.3255 -0.0301,0.71296 0.40166,1.42592 0.76316,1.88783 0.33138,0.43179 0.98409,1.13471 1.52633,1.84767 0.39163,0.50208 0.81338,0.8435 0.85355,1.30541 0.0703,0.8435 0.21087,0.76317 0.37154,-0.51212"
       style="fill:none;stroke:#ff0000;stroke-width:0.04016666px;stroke-linecap:butt;stroke-linejoin:miter;stroke-miterlimit:2;stroke-dasharray:none;stroke-opacity:1"
       inkscape:connector-curvature="0" />
    <path
       id="path1276"
       d="m 138.74594,179.77006 c 0.0803,-0.62258 -0.40167,-1.46608 -1.01421,-2.18908 -0.30125,-0.35146 -1.02425,-1.25521 -1.31546,-1.61671 -0.34141,-0.44184 -0.87362,-1.38575 -0.85354,-2.0485 0.0201,-0.67279 -0.29121,0.37154 -0.33137,1.3255 -0.0301,0.71296 0.40166,1.42592 0.76316,1.88783 0.33138,0.43179 0.98409,1.13471 1.52633,1.84767 0.39163,0.50208 0.81338,0.8435 0.85355,1.30541 0.0703,0.8435 0.21087,0.76317 0.37154,-0.51212 z"
       style="fill:#ff0000;fill-opacity:1;fill-rule:nonzero;stroke:none;stroke-width:0.26458332"
       inkscape:connector-curvature="0" />
    <path
       id="path1278"
       d="m 138.47481,181.00519 c -0.20083,0.59245 -1.02425,1.1347 -1.90791,1.50624 -0.4318,0.1908 -1.49621,0.6728 -1.91796,0.86359 -0.51213,0.241 -1.41588,0.85354 -1.69704,1.46608 -0.27113,0.6025 -0.10042,-0.47196 0.2912,-1.34558 0.29121,-0.65271 0.99413,-1.09454 1.54642,-1.35563 0.49204,-0.23095 1.39579,-0.57237 2.21921,-0.97404 0.57237,-0.27112 1.10458,-0.39162 1.34558,-0.78325 0.45188,-0.73304 0.54225,-0.6025 0.1205,0.62259"
       style="fill:none;stroke:#b20000;stroke-width:0.04016666px;stroke-linecap:butt;stroke-linejoin:miter;stroke-miterlimit:2;stroke-dasharray:none;stroke-opacity:1"
       inkscape:connector-curvature="0" />
    <path
       id="path1280"
       d="m 138.47481,181.00519 c -0.20083,0.59245 -1.02425,1.1347 -1.90791,1.50624 -0.4318,0.1908 -1.49621,0.6728 -1.91796,0.86359 -0.51213,0.241 -1.41588,0.85354 -1.69704,1.46608 -0.27113,0.6025 -0.10042,-0.47196 0.2912,-1.34558 0.29121,-0.65271 0.99413,-1.09454 1.54642,-1.35563 0.49204,-0.23095 1.39579,-0.57237 2.21921,-0.97404 0.57237,-0.27112 1.10458,-0.39162 1.34558,-0.78325 0.45188,-0.73304 0.54225,-0.6025 0.1205,0.62259 z"
       style="fill:#b20000;fill-opacity:1;fill-rule:nonzero;stroke:none;stroke-width:0.26458332"
       inkscape:connector-curvature="0" />
    <path
       id="path1282"
       d="m 141.29652,169.13593 c 0.0803,-0.62258 -0.40167,-1.46608 -1.01421,-2.18908 -0.30125,-0.35146 -1.02425,-1.25521 -1.31546,-1.61671 -0.34141,-0.43179 -0.87362,-1.3757 -0.85354,-2.0485 0.0201,-0.67279 -0.2912,0.37155 -0.33137,1.3255 -0.0301,0.723 0.40167,1.42592 0.76317,1.89788 0.33137,0.42175 0.97404,1.12467 1.52633,1.83762 0.39162,0.51213 0.81337,0.8435 0.85354,1.30542 0.0703,0.85354 0.21088,0.77321 0.37154,-0.51213"
       style="fill:none;stroke:#840000;stroke-width:0.04016666px;stroke-linecap:butt;stroke-linejoin:miter;stroke-miterlimit:2;stroke-dasharray:none;stroke-opacity:1"
       inkscape:connector-curvature="0" />
    <path
       id="path1284"
       d="m 141.29652,169.13593 c 0.0803,-0.62258 -0.40167,-1.46608 -1.01421,-2.18908 -0.30125,-0.35146 -1.02425,-1.25521 -1.31546,-1.61671 -0.34141,-0.43179 -0.87362,-1.3757 -0.85354,-2.0485 0.0201,-0.67279 -0.2912,0.37155 -0.33137,1.3255 -0.0301,0.723 0.40167,1.42592 0.76317,1.89788 0.33137,0.42175 0.97404,1.12467 1.52633,1.83762 0.39162,0.51213 0.81337,0.8435 0.85354,1.30542 0.0703,0.85354 0.21088,0.77321 0.37154,-0.51213 z"
       style="fill:#840000;fill-opacity:1;fill-rule:nonzero;stroke:none;stroke-width:0.26458332"
       inkscape:connector-curvature="0" />
    <path
       id="path1286"
       d="m 141.0254,170.37106 c -0.20084,0.6025 -1.02425,1.13471 -1.90792,1.51629 -0.43179,0.18075 -1.49621,0.66275 -1.91796,0.86358 -0.51212,0.23096 -1.41587,0.84351 -1.69704,1.45605 -0.28117,0.6025 -0.10042,-0.46192 0.29121,-1.33554 0.29121,-0.66275 0.99412,-1.10459 1.54642,-1.35563 0.482,-0.241 1.38575,-0.58242 2.20916,-0.97404 0.58242,-0.28117 1.11463,-0.40167 1.35563,-0.79329 0.44183,-0.73304 0.54225,-0.59246 0.1205,0.62258"
       style="fill:none;stroke:#b20000;stroke-width:0.04016666px;stroke-linecap:butt;stroke-linejoin:miter;stroke-miterlimit:2;stroke-dasharray:none;stroke-opacity:1"
       inkscape:connector-curvature="0" />
    <path
       id="path1288"
       d="m 141.0254,170.37106 c -0.20084,0.6025 -1.02425,1.13471 -1.90792,1.51629 -0.43179,0.18075 -1.49621,0.66275 -1.91796,0.86358 -0.51212,0.23096 -1.41587,0.84351 -1.69704,1.45605 -0.28117,0.6025 -0.10042,-0.46192 0.29121,-1.33554 0.29121,-0.66275 0.99412,-1.10459 1.54642,-1.35563 0.482,-0.241 1.38575,-0.58242 2.20916,-0.97404 0.58242,-0.28117 1.11463,-0.40167 1.35563,-0.79329 0.44183,-0.73304 0.54225,-0.59246 0.1205,0.62258 z"
       style="fill:#b20000;fill-opacity:1;fill-rule:nonzero;stroke:none;stroke-width:0.26458332"
       inkscape:connector-curvature="0" />
    <path
       id="path1290"
       d="m 137.68152,184.29885 c -0.20083,0.59246 -1.01421,1.13471 -1.89787,1.50625 -0.44184,0.19079 -1.49621,0.67279 -1.91796,0.86358 -0.51213,0.24101 -1.41588,0.85355 -1.69704,1.46609 -0.28117,0.6025 -0.11046,-0.47196 0.28116,-1.34558 0.29121,-0.65271 1.00417,-1.09455 1.54642,-1.35563 0.49204,-0.23096 1.39579,-0.57237 2.21921,-0.97404 0.57237,-0.27113 1.11462,-0.39163 1.35562,-0.78325 0.44184,-0.73304 0.53221,-0.6025 0.11046,0.62258"
       style="fill:none;stroke:#930000;stroke-width:0.04016666px;stroke-linecap:butt;stroke-linejoin:miter;stroke-miterlimit:2;stroke-dasharray:none;stroke-opacity:1"
       inkscape:connector-curvature="0" />
    <path
       id="path1292"
       d="m 137.68152,184.29885 c -0.20083,0.59246 -1.01421,1.13471 -1.89787,1.50625 -0.44184,0.19079 -1.49621,0.67279 -1.91796,0.86358 -0.51213,0.24101 -1.41588,0.85355 -1.69704,1.46609 -0.28117,0.6025 -0.11046,-0.47196 0.28116,-1.34558 0.29121,-0.65271 1.00417,-1.09455 1.54642,-1.35563 0.49204,-0.23096 1.39579,-0.57237 2.21921,-0.97404 0.57237,-0.27113 1.11462,-0.39163 1.35562,-0.78325 0.44184,-0.73304 0.53221,-0.6025 0.11046,0.62258 z"
       style="fill:#930000;fill-opacity:1;fill-rule:nonzero;stroke:none;stroke-width:0.26458332"
       inkscape:connector-curvature="0" />
    <path
       id="path1294"
       d="m 140.23211,173.66473 c -0.20084,0.6025 -1.02425,1.13471 -1.90792,1.51629 -0.43179,0.18075 -1.48617,0.66275 -1.91796,0.86358 -0.51212,0.23096 -1.40583,0.8435 -1.687,1.45604 -0.28117,0.6025 -0.11046,-0.46191 0.28117,-1.33554 0.2912,-0.66275 1.00416,-1.10458 1.54641,-1.35562 0.49204,-0.241 1.39579,-0.58242 2.21921,-0.97405 0.57238,-0.28116 1.11463,-0.40166 1.35563,-0.79329 0.44183,-0.73304 0.5322,-0.59246 0.11046,0.62259"
       style="fill:none;stroke:#930000;stroke-width:0.04016666px;stroke-linecap:butt;stroke-linejoin:miter;stroke-miterlimit:2;stroke-dasharray:none;stroke-opacity:1"
       inkscape:connector-curvature="0" />
    <path
       id="path1296"
       d="m 140.23211,173.66473 c -0.20084,0.6025 -1.02425,1.13471 -1.90792,1.51629 -0.43179,0.18075 -1.48617,0.66275 -1.91796,0.86358 -0.51212,0.23096 -1.40583,0.8435 -1.687,1.45604 -0.28117,0.6025 -0.11046,-0.46191 0.28117,-1.33554 0.2912,-0.66275 1.00416,-1.10458 1.54641,-1.35562 0.49204,-0.241 1.39579,-0.58242 2.21921,-0.97405 0.57238,-0.28116 1.11463,-0.40166 1.35563,-0.79329 0.44183,-0.73304 0.5322,-0.59246 0.11046,0.62259 z"
       style="fill:#930000;fill-opacity:1;fill-rule:nonzero;stroke:none;stroke-width:0.26458332"
       inkscape:connector-curvature="0" />
    <path
       id="path1298"
       d="m 140.11161,173.01202 c 0,0 -1.50626,-0.35146 -2.45017,-0.58242"
       style="fill:none;stroke:#ff0000;stroke-width:0.19079167px;stroke-linecap:butt;stroke-linejoin:miter;stroke-miterlimit:2;stroke-dasharray:none;stroke-opacity:1"
       inkscape:connector-curvature="0" />
    <path
       id="path1300"
       d="m 138.84636,173.81535 c 0,0 -1.49621,-0.3615 -2.45017,-0.58241"
       style="fill:none;stroke:#ff0000;stroke-width:0.19079167px;stroke-linecap:butt;stroke-linejoin:miter;stroke-miterlimit:2;stroke-dasharray:none;stroke-opacity:1"
       inkscape:connector-curvature="0" />
    <path
       id="path1302"
       d="m 137.40035,174.49818 c 0,0 -1.15479,-0.27112 -1.88783,-0.45187"
       style="fill:none;stroke:#ff0000;stroke-width:0.19079167px;stroke-linecap:butt;stroke-linejoin:miter;stroke-miterlimit:2;stroke-dasharray:none;stroke-opacity:1"
       inkscape:connector-curvature="0" />
    <path
       id="path1304"
       d="m 136.61711,177.77177 c 0,0 -1.1548,-0.28117 -1.8778,-0.45188"
       style="fill:none;stroke:#ff0000;stroke-width:0.19079167px;stroke-linecap:butt;stroke-linejoin:miter;stroke-miterlimit:2;stroke-dasharray:none;stroke-opacity:1"
       inkscape:connector-curvature="0" />
    <path
       id="path1306"
       d="m 137.5811,179.09727 c 0,0 -1.4962,-0.3615 -2.45016,-0.58242"
       style="fill:none;stroke:#ff0000;stroke-width:0.19079167px;stroke-linecap:butt;stroke-linejoin:miter;stroke-miterlimit:2;stroke-dasharray:none;stroke-opacity:1"
       inkscape:connector-curvature="0" />
    <path
       id="path1308"
       d="m 138.3744,180.36252 c 0,0 -1.49621,-0.3615 -2.45017,-0.59246"
       style="fill:none;stroke:#ff0000;stroke-width:0.19079167px;stroke-linecap:butt;stroke-linejoin:miter;stroke-miterlimit:2;stroke-dasharray:none;stroke-opacity:1"
       inkscape:connector-curvature="0" />
    <path
       id="path1310"
       d="m 137.55098,183.67627 c 0,0 -1.49621,-0.3615 -2.45017,-0.58242"
       style="fill:none;stroke:#ff0000;stroke-width:0.19079167px;stroke-linecap:butt;stroke-linejoin:miter;stroke-miterlimit:2;stroke-dasharray:none;stroke-opacity:1"
       inkscape:connector-curvature="0" />
    <path
       id="path1312"
       d="m 136.28573,184.46956 c 0,0 -1.49621,-0.35146 -2.44012,-0.58242"
       style="fill:none;stroke:#ff0000;stroke-width:0.19079167px;stroke-linecap:butt;stroke-linejoin:miter;stroke-miterlimit:2;stroke-dasharray:none;stroke-opacity:1"
       inkscape:connector-curvature="0" />
    <path
       id="path1314"
       d="m 134.83973,185.16243 c 0,0 -1.15479,-0.27112 -1.88783,-0.45187"
       style="fill:none;stroke:#ff0000;stroke-width:0.19079167px;stroke-linecap:butt;stroke-linejoin:miter;stroke-miterlimit:2;stroke-dasharray:none;stroke-opacity:1"
       inkscape:connector-curvature="0" />
    <path
       id="path1316"
       d="m 139.16769,167.13764 c 0,0 -1.15479,-0.28116 -1.87779,-0.45187"
       style="fill:none;stroke:#ff0000;stroke-width:0.19079167px;stroke-linecap:butt;stroke-linejoin:miter;stroke-miterlimit:2;stroke-dasharray:none;stroke-opacity:1"
       inkscape:connector-curvature="0" />
    <path
       id="path1318"
       d="m 140.13169,168.46314 c 0,0 -1.49621,-0.35146 -2.45017,-0.58241"
       style="fill:none;stroke:#ff0000;stroke-width:0.19079167px;stroke-linecap:butt;stroke-linejoin:miter;stroke-miterlimit:2;stroke-dasharray:none;stroke-opacity:1"
       inkscape:connector-curvature="0" />
    <path
       id="path1320"
       d="m 140.92498,169.72839 c 0,0 -1.49621,-0.3615 -2.45017,-0.59246"
       style="fill:none;stroke:#ff0000;stroke-width:0.19079167px;stroke-linecap:butt;stroke-linejoin:miter;stroke-miterlimit:2;stroke-dasharray:none;stroke-opacity:1"
       inkscape:connector-curvature="0" />
    <path
       id="path1322"
       d="m 149.88215,170.8631 c 0,9.52954 -7.72204,17.25158 -17.25159,17.25158 -9.5195,0 -17.24154,-7.72204 -17.24154,-17.25158 0,-9.5195 7.72204,-17.24154 17.24154,-17.24154 9.52955,0 17.25159,7.72204 17.25159,17.24154"
       style="fill:none;stroke:#ff0000;stroke-width:1.8075px;stroke-linecap:butt;stroke-linejoin:miter;stroke-miterlimit:2;stroke-dasharray:none;stroke-opacity:1"
       inkscape:connector-curvature="0" />
    <path
       id="path1324"
       d="m 174.8156,164.27577 c -0.0502,-1.98825 -1.69704,-3.57483 -3.69533,-3.52463 -1.25521,0.0201 -2.48029,0.76317 -3.08279,1.86775"
       style="fill:none;stroke:#008000;stroke-width:0.65270835px;stroke-linecap:round;stroke-linejoin:miter;stroke-miterlimit:2;stroke-dasharray:none;stroke-opacity:1"
       inkscape:connector-curvature="0" />
    <path
       id="path1326"
       d="m 173.89177,166.7661 c 0,0 0.33138,-3.11291 0.33138,-3.11291 0,0 0.28116,0.51212 0.59245,0.62258 0.30125,0.1205 0.8435,-0.0803 0.8435,-0.0803 0,0 -1.76733,2.57066 -1.76733,2.57066 0,0 0,0 0,0"
       style="fill:none;stroke:#008000;stroke-width:0.04016666px;stroke-linecap:round;stroke-linejoin:miter;stroke-miterlimit:2;stroke-dasharray:none;stroke-opacity:1"
       inkscape:connector-curvature="0" />
    <path
       id="path1328"
       d="m 173.89177,166.7661 c 0,0 0.33138,-3.11291 0.33138,-3.11291 0,0 0.28116,0.51212 0.59245,0.62258 0.30125,0.1205 0.8435,-0.0803 0.8435,-0.0803 0,0 -1.76733,2.57066 -1.76733,2.57066 0,0 0,0 0,0 z"
       style="fill:#008000;fill-opacity:1;fill-rule:nonzero;stroke:none;stroke-width:0.26458332"
       inkscape:connector-curvature="0" />
    <path
       id="path1330"
       d="m 170.84915,179.88052 c 1.11462,1.65687 3.36395,2.08866 5.01079,0.964 1.65687,-1.11463 2.08866,-3.36396 0.964,-5.01079 -0.11046,-0.17071 -0.241,-0.33138 -0.39163,-0.482"
       style="fill:none;stroke:#008000;stroke-width:0.65270835px;stroke-linecap:round;stroke-linejoin:miter;stroke-miterlimit:2;stroke-dasharray:none;stroke-opacity:1"
       inkscape:connector-curvature="0" />
    <path
       id="path1332"
       d="m 169.54373,180.84452 2.14892,-2.34975 0.46191,0.42175 -2.14891,2.34975 z"
       style="fill:#008000;fill-opacity:1;fill-rule:evenodd;stroke:none;stroke-width:0.26458332"
       inkscape:connector-curvature="0" />
    <path
       id="path1334"
       d="m 195.46127,181.35664 c 0,25.305 -20.50508,45.81009 -45.81008,45.81009 -25.29496,0 -45.80004,-20.50509 -45.80004,-45.81009 0,-25.29495 20.50508,-45.80004 45.80004,-45.80004 25.305,0 45.81008,20.50509 45.81008,45.80004"
       style="fill:none;stroke:#0080ff;stroke-width:2.74137497px;stroke-linecap:butt;stroke-linejoin:miter;stroke-miterlimit:2;stroke-dasharray:none;stroke-opacity:1"
       inkscape:connector-curvature="0" />
  </g>
</svg>
