<?xml version="1.0"?><svg xmlns="http://www.w3.org/2000/svg" xmlns:xlink="http://www.w3.org/1999/xlink" viewBox="142.33 206.23 299.28 312.77" preserveAspectRatio="xMidYMid" width="100%" height="100%"><clipPath id="449"><rect x="0.3" y="0.3" width="539.4" height="719.15" /></clipPath><g id="drawing"><rect x="142.33" y="206.23" width="100%" height="100%" fill="rgb(255, 255, 255)" /><g id="page" clip-path="url(#449)"><g id="Spline"><path d="M244.56 285.54 C242.65 287.12 241.77 290.86 241.59 294.59 C241.5 296.43 241.15 300.96 241.01 302.78 C240.81 304.97 239.79 309.11 237.93 310.98 C236.07 312.86 239.77 310.71 242.46 308.07 C244.5 306.08 245.15 302.89 245.37 300.55 C245.57 298.44 245.6 294.67 245.95 291.12 C246.2 288.63 245.9 286.52 247.03 285.09 C249.12 282.45 248.49 282.3 244.56 285.54 Z" stroke="rgb(111, 0, 0)" stroke-width="0.6" fill-rule="evenodd" stroke-linejoin="bevel" fill="rgb(111, 0, 0)" shape-rendering="geometricPrecision" /></g><g id="Spline"><path d="M208.53 309.24 C206.62 310.82 205.74 314.55 205.56 318.29 C205.48 320.13 205.13 324.66 204.98 326.47 C204.79 328.67 203.76 332.81 201.9 334.68 C200.04 336.56 203.74 334.41 206.44 331.77 C208.47 329.78 209.13 326.59 209.35 324.25 C209.54 322.13 209.57 318.37 209.93 314.82 C210.17 312.33 209.88 310.22 211.01 308.79 C213.09 306.15 212.47 305.99 208.53 309.24 Z" stroke="rgb(111, 0, 0)" stroke-width="0.6" fill-rule="evenodd" stroke-linejoin="bevel" fill="rgb(111, 0, 0)" shape-rendering="geometricPrecision" /></g><g id="Spline"><path d="M233.4 292.88 C231.49 294.46 230.61 298.2 230.43 301.93 C230.34 303.77 229.99 308.3 229.84 310.12 C229.65 312.31 228.63 316.45 226.76 318.33 C224.9 320.2 228.61 318.05 231.3 315.42 C233.33 313.43 233.99 310.24 234.21 307.89 C234.41 305.78 234.44 302.02 234.79 298.46 C235.04 295.97 234.74 293.86 235.87 292.44 C237.95 289.8 237.33 289.64 233.4 292.88 Z" stroke="rgb(255, 0, 0)" stroke-width="0.6" fill-rule="evenodd" stroke-linejoin="bevel" fill="rgb(255, 0, 0)" shape-rendering="geometricPrecision" /></g><g id="Spline"><path d="M237.53 290.06 C239.72 288.9 243.54 289.56 247.09 290.87 C248.83 291.52 253.19 292.99 254.93 293.57 C257.05 294.26 261.29 294.94 263.74 293.94 C266.19 292.95 262.79 295.55 259.32 297.02 C256.7 298.13 253.48 297.48 251.21 296.76 C249.16 296.1 245.65 294.64 242.2 293.56 C239.79 292.81 237.93 291.7 236.18 292.19 C232.93 293.09 233.02 292.44 237.53 290.06 Z" stroke="rgb(177, 0, 0)" stroke-width="0.6" fill-rule="evenodd" stroke-linejoin="bevel" fill="rgb(177, 0, 0)" shape-rendering="geometricPrecision" /></g><g id="Spline"><path d="M197.37 316.58 C195.46 318.16 194.58 321.9 194.4 325.63 C194.31 327.47 193.97 332 193.82 333.82 C193.63 336.01 192.6 340.15 190.74 342.02 C188.88 343.9 192.58 341.75 195.28 339.11 C197.31 337.12 197.96 333.94 198.18 331.59 C198.38 329.48 198.41 325.72 198.76 322.16 C199.01 319.67 198.72 317.56 199.84 316.14 C201.93 313.5 201.31 313.34 197.37 316.58 Z" stroke="rgb(131, 0, 0)" stroke-width="0.6" fill-rule="evenodd" stroke-linejoin="bevel" fill="rgb(131, 0, 0)" shape-rendering="geometricPrecision" /></g><g id="Spline"><path d="M201.51 313.76 C203.7 312.6 207.51 313.26 211.06 314.57 C212.81 315.22 217.16 316.69 218.91 317.27 C221.03 317.96 225.27 318.64 227.72 317.64 C230.17 316.65 226.77 319.25 223.29 320.72 C220.67 321.83 217.45 321.18 215.19 320.45 C213.14 319.8 209.62 318.34 206.18 317.26 C203.76 316.51 201.91 315.4 200.15 315.89 C196.91 316.78 197 316.14 201.51 313.76 Z" stroke="rgb(177, 0, 0)" stroke-width="0.6" fill-rule="evenodd" stroke-linejoin="bevel" fill="rgb(177, 0, 0)" shape-rendering="geometricPrecision" /></g><g id="Spline"><path d="M248.69 282.72 C250.89 281.56 254.7 282.22 258.25 283.53 C259.99 284.18 264.35 285.65 266.09 286.23 C268.21 286.91 272.46 287.6 274.9 286.6 C277.35 285.61 273.96 288.21 270.48 289.68 C267.86 290.79 264.64 290.14 262.37 289.41 C260.33 288.76 256.81 287.3 253.36 286.22 C250.95 285.47 249.1 284.36 247.34 284.84 C244.09 285.74 244.18 285.1 248.69 282.72 Z" stroke="rgb(147, 0, 0)" stroke-width="0.6" fill-rule="evenodd" stroke-linejoin="bevel" fill="rgb(147, 0, 0)" shape-rendering="geometricPrecision" /></g><g id="Spline"><path d="M212.67 306.42 C214.86 305.26 218.67 305.92 222.22 307.23 C223.97 307.88 228.32 309.34 230.07 309.92 C232.19 310.61 236.43 311.3 238.88 310.3 C241.33 309.31 237.93 311.91 234.45 313.38 C231.83 314.49 228.61 313.84 226.35 313.11 C224.3 312.46 220.78 311 217.34 309.92 C214.92 309.17 213.07 308.06 211.32 308.54 C208.07 309.44 208.16 308.8 212.67 306.42 Z" stroke="rgb(147, 0, 0)" stroke-width="0.6" fill-rule="evenodd" stroke-linejoin="bevel" fill="rgb(147, 0, 0)" shape-rendering="geometricPrecision" /></g><g id="Spline"><path d="M211.27 308.65 C211.27 308.65 214.61 313.72 216.72 316.94 " stroke="rgb(255, 0, 0)" stroke-width="0.6" fill-rule="evenodd" stroke-linejoin="bevel" fill="none" shape-rendering="geometricPrecision" /></g><g id="Spline"><path d="M217.05 309.76 C217.05 309.76 220.39 314.82 222.51 318.04 " stroke="rgb(255, 0, 0)" stroke-width="0.6" fill-rule="evenodd" stroke-linejoin="bevel" fill="none" shape-rendering="geometricPrecision" /></g><g id="Spline"><path d="M223.08 311.68 C223.08 311.68 225.66 315.59 227.29 318.08 " stroke="rgb(255, 0, 0)" stroke-width="0.6" fill-rule="evenodd" stroke-linejoin="bevel" fill="none" shape-rendering="geometricPrecision" /></g><g id="Spline"><path d="M234.14 304.41 C234.14 304.41 236.7 308.29 238.33 310.76 " stroke="rgb(255, 0, 0)" stroke-width="0.6" fill-rule="evenodd" stroke-linejoin="bevel" fill="none" shape-rendering="geometricPrecision" /></g><g id="Spline"><path d="M234.96 297.98 C234.96 297.98 238.3 303.04 240.42 306.26 " stroke="rgb(255, 0, 0)" stroke-width="0.6" fill-rule="evenodd" stroke-linejoin="bevel" fill="none" shape-rendering="geometricPrecision" /></g><g id="Spline"><path d="M236.07 292.2 C236.07 292.2 239.41 297.26 241.53 300.48 " stroke="rgb(255, 0, 0)" stroke-width="0.6" fill-rule="evenodd" stroke-linejoin="bevel" fill="none" shape-rendering="geometricPrecision" /></g><g id="Spline"><path d="M247.39 284.89 C247.39 284.89 250.73 289.95 252.85 293.17 " stroke="rgb(255, 0, 0)" stroke-width="0.6" fill-rule="evenodd" stroke-linejoin="bevel" fill="none" shape-rendering="geometricPrecision" /></g><g id="Spline"><path d="M253.17 286 C253.17 286 256.52 291.06 258.64 294.28 " stroke="rgb(255, 0, 0)" stroke-width="0.6" fill-rule="evenodd" stroke-linejoin="bevel" fill="none" shape-rendering="geometricPrecision" /></g><g id="Spline"><path d="M259.21 287.92 C259.21 287.92 261.78 291.83 263.42 294.31 " stroke="rgb(255, 0, 0)" stroke-width="0.6" fill-rule="evenodd" stroke-linejoin="bevel" fill="none" shape-rendering="geometricPrecision" /></g><g id="Spline"><path d="M198.11 328.11 C198.11 328.11 200.67 331.99 202.3 334.46 " stroke="rgb(255, 0, 0)" stroke-width="0.6" fill-rule="evenodd" stroke-linejoin="bevel" fill="none" shape-rendering="geometricPrecision" /></g><g id="Spline"><path d="M198.93 321.68 C198.93 321.68 202.27 326.74 204.39 329.96 " stroke="rgb(255, 0, 0)" stroke-width="0.6" fill-rule="evenodd" stroke-linejoin="bevel" fill="none" shape-rendering="geometricPrecision" /></g><g id="Spline"><path d="M200.04 315.9 C200.04 315.9 203.38 320.97 205.5 324.18 " stroke="rgb(255, 0, 0)" stroke-width="0.6" fill-rule="evenodd" stroke-linejoin="bevel" fill="none" shape-rendering="geometricPrecision" /></g><g id="Oval"><circle cx="345.99" cy="323.22" r="50.835" stroke="rgb(0, 128, 0)" stroke-width="5.67" fill="none" /></g><g id="Oval"><circle cx="292.49" cy="418.22" r="50.835" stroke="rgb(128, 0, 255)" stroke-width="5.67" fill="none" /></g><g id="Spline"><path d="M312.34 312.5 C322.38 286.91 348.7 289.25 351.37 313.34 C354.05 337.43 346.02 308.88 334.87 313.34 C323.71 317.8 310 320.36 312.34 312.33 " stroke="rgb(0, 128, 0)" stroke-width="2" fill-rule="evenodd" stroke-linejoin="bevel" fill="rgb(179, 217, 179)" shape-rendering="geometricPrecision" /></g><g id="Spline"><path d="M315.02 336.59 C327.56 334.58 337.43 323.37 337.43 323.37 C337.43 323.37 330.91 342.44 348.47 339.27 C366.04 336.09 349.81 359.51 343.45 354.15 C337.1 348.8 307.32 338.26 315.52 336.76 " stroke="rgb(0, 128, 0)" stroke-width="2" fill-rule="evenodd" stroke-linejoin="bevel" fill="rgb(179, 217, 179)" shape-rendering="geometricPrecision" /></g><g id="Spline"><path d="M357.34 327.72 C356.67 315.85 359.18 307.48 375.41 318.02 C391.63 328.56 373.06 333.58 370.39 336.09 C367.71 338.6 358.34 334.41 357.34 327.22 " stroke="rgb(0, 128, 0)" stroke-width="2" fill-rule="evenodd" stroke-linejoin="bevel" fill="rgb(179, 217, 179)" shape-rendering="geometricPrecision" /></g><line x1="305.41" y1="415.97" x2="250.66" y2="415.97" stroke="rgb(128, 0, 255)" stroke-width="1.42" shape-rendering="auto" /><line x1="281.66" y1="446.08" x2="281.66" y2="383.22" stroke="rgb(128, 0, 255)" stroke-width="1.42" shape-rendering="auto" /><line x1="328.66" y1="433.22" x2="272.41" y2="433.22" stroke="rgb(128, 0, 255)" stroke-width="1.42" shape-rendering="auto" /><line x1="317.41" y1="420.97" x2="317.41" y2="431.97" stroke="rgb(128, 0, 255)" stroke-width="1.42" shape-rendering="auto" /><line x1="329.91" y1="426.22" x2="313.16" y2="426.22" stroke="rgb(128, 0, 255)" stroke-width="1.42" shape-rendering="auto" /><line x1="311.41" y1="404.72" x2="311.41" y2="388.22" stroke="rgb(128, 0, 255)" stroke-width="1.42" shape-rendering="auto" /><line x1="333.91" y1="395.22" x2="292.16" y2="395.22" stroke="rgb(128, 0, 255)" stroke-width="1.42" shape-rendering="auto" /><line x1="328.16" y1="447.22" x2="328.16" y2="399.72" stroke="rgb(128, 0, 255)" stroke-width="1.42" shape-rendering="auto" /><line x1="310.03" y1="443.97" x2="291.01" y2="443.97" stroke="rgb(128, 0, 255)" stroke-width="1.42" shape-rendering="auto" /><line x1="299.66" y1="459.47" x2="299.66" y2="438.22" stroke="rgb(128, 0, 255)" stroke-width="1.42" shape-rendering="auto" /><line x1="256.16" y1="440.47" x2="256.16" y2="398.47" stroke="rgb(128, 0, 255)" stroke-width="1.42" shape-rendering="auto" /><line x1="322.66" y1="457.22" x2="273.91" y2="457.22" stroke="rgb(128, 0, 255)" stroke-width="1.42" shape-rendering="auto" /><line x1="308.66" y1="387.72" x2="269.16" y2="387.72" stroke="rgb(128, 0, 255)" stroke-width="1.42" shape-rendering="auto" /><line x1="294.41" y1="395.32" x2="294.41" y2="369.47" stroke="rgb(128, 0, 255)" stroke-width="1.42" shape-rendering="auto" /><line x1="274.41" y1="407.72" x2="244.66" y2="407.72" stroke="rgb(128, 0, 255)" stroke-width="1.42" shape-rendering="auto" /><line x1="292.66" y1="466.22" x2="292.66" y2="445.97" stroke="rgb(128, 0, 255)" stroke-width="1.42" shape-rendering="auto" /><line x1="328.46" y1="409.47" x2="299.66" y2="409.47" stroke="rgb(128, 0, 255)" stroke-width="1.42" shape-rendering="auto" /><line x1="319.71" y1="412.72" x2="290.91" y2="412.72" stroke="rgb(128, 0, 255)" stroke-width="1.42" shape-rendering="auto" /><line x1="287.16" y1="422.22" x2="287.16" y2="413.47" stroke="rgb(128, 0, 255)" stroke-width="1.42" shape-rendering="auto" /><line x1="296.16" y1="433.47" x2="296.16" y2="408.72" stroke="rgb(128, 0, 255)" stroke-width="1.42" shape-rendering="auto" /><line x1="328.41" y1="399.38" x2="271.91" y2="399.38" stroke="rgb(128, 0, 255)" stroke-width="1.42" shape-rendering="auto" /><line x1="265.57" y1="452.47" x2="265.57" y2="398.05" stroke="rgb(128, 0, 255)" stroke-width="1.42" shape-rendering="auto" /><line x1="259.57" y1="427.05" x2="251.91" y2="427.05" stroke="rgb(128, 0, 255)" stroke-width="1.42" shape-rendering="auto" /><line x1="271.91" y1="438.72" x2="262.57" y2="438.72" stroke="rgb(128, 0, 255)" stroke-width="1.42" shape-rendering="auto" /><line x1="259.57" y1="445.38" x2="259.57" y2="423.38" stroke="rgb(128, 0, 255)" stroke-width="1.42" shape-rendering="auto" /><line x1="281.91" y1="442.72" x2="257.24" y2="442.72" stroke="rgb(128, 0, 255)" stroke-width="1.42" shape-rendering="auto" /><g id="Oval"><circle cx="256.24" cy="415.8" r="2.01" stroke="rgb(128, 0, 128)" stroke-width="0.6" fill="rgb(128, 0, 128)" /></g><g id="Oval"><circle cx="265.62" cy="415.8" r="2.00000000000001" stroke="rgb(128, 0, 128)" stroke-width="0.6" fill="rgb(128, 0, 128)" /></g><g id="Oval"><circle cx="281.62" cy="415.8" r="2.00000000000001" stroke="rgb(128, 0, 128)" stroke-width="0.6" fill="rgb(128, 0, 128)" /></g><g id="Oval"><circle cx="287.24" cy="415.55" r="2.01" stroke="rgb(128, 0, 128)" stroke-width="0.6" fill="rgb(128, 0, 128)" /></g><g id="Oval"><circle cx="296.12" cy="415.8" r="2.00000000000001" stroke="rgb(128, 0, 128)" stroke-width="0.6" fill="rgb(128, 0, 128)" /></g><g id="Oval"><circle cx="305.37" cy="415.8" r="2.00000000000001" stroke="rgb(128, 0, 128)" stroke-width="0.6" fill="rgb(128, 0, 128)" /></g><g id="Oval"><circle cx="317.62" cy="426.3" r="2.00000000000001" stroke="rgb(128, 0, 128)" stroke-width="0.6" fill="rgb(128, 0, 128)" /></g><g id="Oval"><circle cx="328.49" cy="426.3" r="2.01" stroke="rgb(128, 0, 128)" stroke-width="0.6" fill="rgb(128, 0, 128)" /></g><g id="Oval"><circle cx="311.62" cy="426.3" r="2.00000000000001" stroke="rgb(128, 0, 128)" stroke-width="0.6" fill="rgb(128, 0, 128)" /></g><g id="Oval"><circle cx="317.62" cy="420.55" r="2.00000000000001" stroke="rgb(128, 0, 128)" stroke-width="0.6" fill="rgb(128, 0, 128)" /></g><g id="Oval"><circle cx="317.62" cy="432.8" r="2.00000000000001" stroke="rgb(128, 0, 128)" stroke-width="0.6" fill="rgb(128, 0, 128)" /></g><g id="Oval"><circle cx="296.24" cy="432.8" r="2.01" stroke="rgb(128, 0, 128)" stroke-width="0.6" fill="rgb(128, 0, 128)" /></g><g id="Oval"><circle cx="271.74" cy="432.8" r="2.01" stroke="rgb(128, 0, 128)" stroke-width="0.6" fill="rgb(128, 0, 128)" /></g><g id="Oval"><circle cx="281.87" cy="432.8" r="2.00000000000001" stroke="rgb(128, 0, 128)" stroke-width="0.6" fill="rgb(128, 0, 128)" /></g><g id="Oval"><circle cx="281.87" cy="446.8" r="2.00000000000001" stroke="rgb(128, 0, 128)" stroke-width="0.6" fill="rgb(128, 0, 128)" /></g><g id="Oval"><circle cx="281.87" cy="441.55" r="2.00000000000001" stroke="rgb(128, 0, 128)" stroke-width="0.6" fill="rgb(128, 0, 128)" /></g><g id="Oval"><circle cx="265.74" cy="442.8" r="2.01" stroke="rgb(128, 0, 128)" stroke-width="0.6" fill="rgb(128, 0, 128)" /></g><g id="Oval"><circle cx="265.74" cy="453.05" r="2.01" stroke="rgb(128, 0, 128)" stroke-width="0.6" fill="rgb(128, 0, 128)" /></g><g id="Oval"><circle cx="272.99" cy="456.93" r="2.01" stroke="rgb(128, 0, 128)" stroke-width="0.6" fill="rgb(128, 0, 128)" /></g><g id="Oval"><circle cx="292.62" cy="456.93" r="2.00000000000001" stroke="rgb(128, 0, 128)" stroke-width="0.6" fill="rgb(128, 0, 128)" /></g><g id="Oval"><circle cx="299.74" cy="457.3" r="2.01" stroke="rgb(128, 0, 128)" stroke-width="0.6" fill="rgb(128, 0, 128)" /></g><g id="Oval"><circle cx="322.62" cy="457.3" r="2.00000000000001" stroke="rgb(128, 0, 128)" stroke-width="0.6" fill="rgb(128, 0, 128)" /></g><g id="Oval"><circle cx="292.62" cy="443.68" r="2.00000000000001" stroke="rgb(128, 0, 128)" stroke-width="0.6" fill="rgb(128, 0, 128)" /></g><g id="Oval"><circle cx="292.62" cy="466.93" r="2.00000000000001" stroke="rgb(128, 0, 128)" stroke-width="0.6" fill="rgb(128, 0, 128)" /></g><g id="Oval"><circle cx="299.74" cy="443.8" r="2.01" stroke="rgb(128, 0, 128)" stroke-width="0.6" fill="rgb(128, 0, 128)" /></g><g id="Oval"><circle cx="309.74" cy="443.8" r="2.01" stroke="rgb(128, 0, 128)" stroke-width="0.6" fill="rgb(128, 0, 128)" /></g><g id="Oval"><circle cx="299.74" cy="437.68" r="2.01" stroke="rgb(128, 0, 128)" stroke-width="0.6" fill="rgb(128, 0, 128)" /></g><g id="Oval"><circle cx="287.24" cy="423.93" r="2.01" stroke="rgb(128, 0, 128)" stroke-width="0.6" fill="rgb(128, 0, 128)" /></g><g id="Oval"><circle cx="281.62" cy="398.93" r="2.00000000000001" stroke="rgb(128, 0, 128)" stroke-width="0.6" fill="rgb(128, 0, 128)" /></g><g id="Oval"><circle cx="281.62" cy="387.93" r="2.00000000000001" stroke="rgb(128, 0, 128)" stroke-width="0.6" fill="rgb(128, 0, 128)" /></g><g id="Oval"><circle cx="269.12" cy="387.93" r="2.00000000000001" stroke="rgb(128, 0, 128)" stroke-width="0.6" fill="rgb(128, 0, 128)" /></g><g id="Oval"><circle cx="310.49" cy="387.93" r="2.01" stroke="rgb(128, 0, 128)" stroke-width="0.6" fill="rgb(128, 0, 128)" /></g><g id="Oval"><circle cx="281.62" cy="381.8" r="2.00000000000001" stroke="rgb(128, 0, 128)" stroke-width="0.6" fill="rgb(128, 0, 128)" /></g><g id="Oval"><circle cx="271.24" cy="399.18" r="2.01" stroke="rgb(128, 0, 128)" stroke-width="0.6" fill="rgb(128, 0, 128)" /></g><g id="Oval"><circle cx="265.62" cy="407.68" r="2.00000000000001" stroke="rgb(128, 0, 128)" stroke-width="0.6" fill="rgb(128, 0, 128)" /></g><g id="Oval"><circle cx="265.62" cy="396.8" r="2.00000000000001" stroke="rgb(128, 0, 128)" stroke-width="0.6" fill="rgb(128, 0, 128)" /></g><g id="Oval"><circle cx="274.99" cy="407.68" r="2.01" stroke="rgb(128, 0, 128)" stroke-width="0.6" fill="rgb(128, 0, 128)" /></g><g id="Oval"><circle cx="256.12" cy="407.68" r="2.00000000000001" stroke="rgb(128, 0, 128)" stroke-width="0.6" fill="rgb(128, 0, 128)" /></g><g id="Oval"><circle cx="256.12" cy="397.68" r="2.00000000000001" stroke="rgb(128, 0, 128)" stroke-width="0.6" fill="rgb(128, 0, 128)" /></g><g id="Oval"><circle cx="244.99" cy="407.68" r="2.01" stroke="rgb(128, 0, 128)" stroke-width="0.6" fill="rgb(128, 0, 128)" /></g><g id="Oval"><circle cx="249.74" cy="415.8" r="2.01" stroke="rgb(128, 0, 128)" stroke-width="0.6" fill="rgb(128, 0, 128)" /></g><g id="Oval"><circle cx="256.24" cy="426.93" r="2.01" stroke="rgb(128, 0, 128)" stroke-width="0.6" fill="rgb(128, 0, 128)" /></g><g id="Oval"><circle cx="250.74" cy="426.93" r="2.01" stroke="rgb(128, 0, 128)" stroke-width="0.6" fill="rgb(128, 0, 128)" /></g><g id="Oval"><circle cx="256.24" cy="442.05" r="2.01" stroke="rgb(128, 0, 128)" stroke-width="0.6" fill="rgb(128, 0, 128)" /></g><g id="Oval"><circle cx="259.62" cy="446.68" r="2.00000000000001" stroke="rgb(128, 0, 128)" stroke-width="0.6" fill="rgb(128, 0, 128)" /></g><g id="Oval"><circle cx="259.62" cy="421.68" r="2.00000000000001" stroke="rgb(128, 0, 128)" stroke-width="0.6" fill="rgb(128, 0, 128)" /></g><g id="Oval"><circle cx="272.49" cy="438.68" r="2.01" stroke="rgb(128, 0, 128)" stroke-width="0.6" fill="rgb(128, 0, 128)" /></g><g id="Oval"><circle cx="262.49" cy="438.68" r="2.01" stroke="rgb(128, 0, 128)" stroke-width="0.6" fill="rgb(128, 0, 128)" /></g><g id="Oval"><circle cx="294.49" cy="387.93" r="2.01" stroke="rgb(128, 0, 128)" stroke-width="0.6" fill="rgb(128, 0, 128)" /></g><g id="Oval"><circle cx="294.24" cy="394.93" r="2.01" stroke="rgb(128, 0, 128)" stroke-width="0.6" fill="rgb(128, 0, 128)" /></g><g id="Oval"><circle cx="294.49" cy="369.55" r="2.01" stroke="rgb(128, 0, 128)" stroke-width="0.6" fill="rgb(128, 0, 128)" /></g><g id="Oval"><circle cx="311.37" cy="394.93" r="2.00000000000001" stroke="rgb(128, 0, 128)" stroke-width="0.6" fill="rgb(128, 0, 128)" /></g><g id="Oval"><circle cx="335.12" cy="394.93" r="2.00000000000001" stroke="rgb(128, 0, 128)" stroke-width="0.6" fill="rgb(128, 0, 128)" /></g><g id="Oval"><circle cx="311.37" cy="399.93" r="2.00000000000001" stroke="rgb(128, 0, 128)" stroke-width="0.6" fill="rgb(128, 0, 128)" /></g><g id="Oval"><circle cx="328.24" cy="399.93" r="2.01" stroke="rgb(128, 0, 128)" stroke-width="0.6" fill="rgb(128, 0, 128)" /></g><g id="Oval"><circle cx="311.37" cy="405.18" r="2.00000000000001" stroke="rgb(128, 0, 128)" stroke-width="0.6" fill="rgb(128, 0, 128)" /></g><g id="Oval"><circle cx="296.12" cy="408.05" r="2.00000000000001" stroke="rgb(128, 0, 128)" stroke-width="0.6" fill="rgb(128, 0, 128)" /></g><g id="Oval"><circle cx="328.12" cy="409.18" r="2.00000000000001" stroke="rgb(128, 0, 128)" stroke-width="0.6" fill="rgb(128, 0, 128)" /></g><g id="Oval"><circle cx="328.49" cy="432.93" r="2.01" stroke="rgb(128, 0, 128)" stroke-width="0.6" fill="rgb(128, 0, 128)" /></g><g id="Oval"><circle cx="328.49" cy="447.55" r="2.01" stroke="rgb(128, 0, 128)" stroke-width="0.6" fill="rgb(128, 0, 128)" /></g><g id="Oval"><circle cx="301.49" cy="409.18" r="2.01" stroke="rgb(128, 0, 128)" stroke-width="0.6" fill="rgb(128, 0, 128)" /></g><g id="Oval"><circle cx="291.49" cy="412.43" r="2.01" stroke="rgb(128, 0, 128)" stroke-width="0.6" fill="rgb(128, 0, 128)" /></g><g id="Oval"><circle cx="319.99" cy="412.93" r="2.01" stroke="rgb(128, 0, 128)" stroke-width="0.6" fill="rgb(128, 0, 128)" /></g><g id="Spline"><path d="M255.57 361.17 C255.82 359.23 254.31 356.6 252.4 354.36 C251.45 353.25 249.21 350.46 248.31 349.33 C247.24 347.96 245.6 345.03 245.65 342.95 C245.71 340.86 244.74 344.1 244.62 347.07 C244.52 349.31 245.86 351.5 247 352.97 C248.03 354.29 250.05 356.47 251.76 358.71 C252.96 360.28 254.27 361.33 254.39 362.76 C254.62 365.4 255.06 365.16 255.57 361.17 Z" stroke="rgb(111, 0, 0)" stroke-width="0.6" fill-rule="evenodd" stroke-linejoin="bevel" fill="rgb(111, 0, 0)" shape-rendering="geometricPrecision" /></g><g id="Spline"><path d="M263.51 328.08 C263.75 326.14 262.24 323.52 260.33 321.27 C259.39 320.17 257.14 317.37 256.25 316.25 C255.17 314.88 253.53 311.95 253.59 309.86 C253.65 307.78 252.68 311.01 252.55 313.99 C252.45 316.23 253.8 318.42 254.94 319.88 C255.97 321.21 257.98 323.39 259.7 325.62 C260.9 327.19 262.2 328.25 262.33 329.67 C262.55 332.32 263 332.07 263.51 328.08 Z" stroke="rgb(111, 0, 0)" stroke-width="0.6" fill-rule="evenodd" stroke-linejoin="bevel" fill="rgb(111, 0, 0)" shape-rendering="geometricPrecision" /></g><g id="Spline"><path d="M258.03 350.92 C258.28 348.98 256.77 346.35 254.85 344.11 C253.91 343 251.67 340.21 250.77 339.08 C249.7 337.71 248.05 334.78 248.11 332.7 C248.17 330.61 247.2 333.85 247.07 336.82 C246.98 339.06 248.32 341.25 249.46 342.72 C250.49 344.04 252.5 346.22 254.22 348.46 C255.42 350.03 256.73 351.08 256.85 352.51 C257.08 355.15 257.52 354.91 258.03 350.92 Z" stroke="rgb(255, 0, 0)" stroke-width="0.6" fill-rule="evenodd" stroke-linejoin="bevel" fill="rgb(255, 0, 0)" shape-rendering="geometricPrecision" /></g><g id="Spline"><path d="M257.18 354.77 C256.54 356.62 253.99 358.3 251.24 359.46 C249.89 360.03 246.59 361.54 245.27 362.15 C243.68 362.9 240.87 364.79 240 366.69 C239.13 368.58 239.68 365.25 240.88 362.53 C241.79 360.48 244 359.11 245.69 358.31 C247.22 357.58 250.03 356.52 252.6 355.28 C254.4 354.41 256.06 354.05 256.81 352.82 C258.19 350.55 258.49 350.97 257.18 354.77 Z" stroke="rgb(177, 0, 0)" stroke-width="0.6" fill-rule="evenodd" stroke-linejoin="bevel" fill="rgb(177, 0, 0)" shape-rendering="geometricPrecision" /></g><g id="Spline"><path d="M265.96 317.83 C266.21 315.89 264.7 313.27 262.79 311.02 C261.85 309.92 259.6 307.12 258.71 306 C257.63 304.63 255.99 301.7 256.05 299.61 C256.11 297.53 255.13 300.76 255.01 303.74 C254.91 305.98 256.26 308.17 257.4 309.63 C258.42 310.96 260.44 313.14 262.15 315.37 C263.36 316.94 264.66 318 264.78 319.42 C265.01 322.07 265.45 321.82 265.96 317.83 Z" stroke="rgb(131, 0, 0)" stroke-width="0.6" fill-rule="evenodd" stroke-linejoin="bevel" fill="rgb(131, 0, 0)" shape-rendering="geometricPrecision" /></g><g id="Spline"><path d="M265.11 321.69 C264.47 323.54 261.93 325.22 259.18 326.38 C257.82 326.95 254.52 328.45 253.21 329.06 C251.61 329.81 248.81 331.71 247.93 333.6 C247.06 335.5 247.61 332.17 248.82 329.44 C249.73 327.39 251.93 326.03 253.63 325.22 C255.16 324.49 257.97 323.43 260.53 322.19 C262.33 321.32 263.99 320.96 264.74 319.73 C266.12 317.46 266.42 317.88 265.11 321.69 Z" stroke="rgb(177, 0, 0)" stroke-width="0.6" fill-rule="evenodd" stroke-linejoin="bevel" fill="rgb(177, 0, 0)" shape-rendering="geometricPrecision" /></g><g id="Spline"><path d="M254.72 365.02 C254.08 366.87 251.53 368.55 248.78 369.71 C247.43 370.28 244.13 371.79 242.81 372.4 C241.22 373.15 238.41 375.05 237.54 376.94 C236.67 378.83 237.22 375.5 238.43 372.78 C239.34 370.73 241.54 369.36 243.23 368.56 C244.76 367.83 247.58 366.77 250.14 365.53 C251.94 364.66 253.6 364.3 254.35 363.07 C255.73 360.8 256.03 361.22 254.72 365.02 Z" stroke="rgb(147, 0, 0)" stroke-width="0.6" fill-rule="evenodd" stroke-linejoin="bevel" fill="rgb(147, 0, 0)" shape-rendering="geometricPrecision" /></g><g id="Spline"><path d="M262.65 331.94 C262.02 333.79 259.47 335.47 256.72 336.63 C255.36 337.2 252.07 338.71 250.75 339.31 C249.16 340.06 246.35 341.96 245.47 343.85 C244.6 345.75 245.15 342.42 246.36 339.69 C247.27 337.64 249.47 336.28 251.17 335.47 C252.7 334.74 255.51 333.68 258.07 332.44 C259.87 331.57 261.54 331.21 262.28 329.98 C263.67 327.71 263.96 328.13 262.65 331.94 Z" stroke="rgb(147, 0, 0)" stroke-width="0.6" fill-rule="evenodd" stroke-linejoin="bevel" fill="rgb(147, 0, 0)" shape-rendering="geometricPrecision" /></g><g id="Spline"><path d="M262.25 329.89 C262.25 329.89 257.59 328.78 254.64 328.07 " stroke="rgb(255, 0, 0)" stroke-width="0.6" fill-rule="evenodd" stroke-linejoin="bevel" fill="none" shape-rendering="geometricPrecision" /></g><g id="Spline"><path d="M258.33 332.38 C258.33 332.38 253.67 331.27 250.71 330.56 " stroke="rgb(255, 0, 0)" stroke-width="0.6" fill-rule="evenodd" stroke-linejoin="bevel" fill="none" shape-rendering="geometricPrecision" /></g><g id="Spline"><path d="M253.82 334.53 C253.82 334.53 250.22 333.67 247.94 333.12 " stroke="rgb(255, 0, 0)" stroke-width="0.6" fill-rule="evenodd" stroke-linejoin="bevel" fill="none" shape-rendering="geometricPrecision" /></g><g id="Spline"><path d="M251.38 344.69 C251.38 344.69 247.81 343.84 245.54 343.29 " stroke="rgb(255, 0, 0)" stroke-width="0.6" fill-rule="evenodd" stroke-linejoin="bevel" fill="none" shape-rendering="geometricPrecision" /></g><g id="Spline"><path d="M254.38 348.83 C254.38 348.83 249.73 347.72 246.77 347.01 " stroke="rgb(255, 0, 0)" stroke-width="0.6" fill-rule="evenodd" stroke-linejoin="bevel" fill="none" shape-rendering="geometricPrecision" /></g><g id="Spline"><path d="M256.86 352.76 C256.86 352.76 252.21 351.64 249.25 350.93 " stroke="rgb(255, 0, 0)" stroke-width="0.6" fill-rule="evenodd" stroke-linejoin="bevel" fill="none" shape-rendering="geometricPrecision" /></g><g id="Spline"><path d="M254.3 363.07 C254.3 363.07 249.64 361.96 246.68 361.25 " stroke="rgb(255, 0, 0)" stroke-width="0.6" fill-rule="evenodd" stroke-linejoin="bevel" fill="none" shape-rendering="geometricPrecision" /></g><g id="Spline"><path d="M250.37 365.56 C250.37 365.56 245.71 364.45 242.76 363.74 " stroke="rgb(255, 0, 0)" stroke-width="0.6" fill-rule="evenodd" stroke-linejoin="bevel" fill="none" shape-rendering="geometricPrecision" /></g><g id="Spline"><path d="M245.86 367.71 C245.86 367.71 242.27 366.85 239.99 366.3 " stroke="rgb(255, 0, 0)" stroke-width="0.6" fill-rule="evenodd" stroke-linejoin="bevel" fill="none" shape-rendering="geometricPrecision" /></g><g id="Spline"><path d="M259.32 311.6 C259.32 311.6 255.74 310.75 253.48 310.2 " stroke="rgb(255, 0, 0)" stroke-width="0.6" fill-rule="evenodd" stroke-linejoin="bevel" fill="none" shape-rendering="geometricPrecision" /></g><g id="Spline"><path d="M262.32 315.74 C262.32 315.74 257.66 314.63 254.7 313.92 " stroke="rgb(255, 0, 0)" stroke-width="0.6" fill-rule="evenodd" stroke-linejoin="bevel" fill="none" shape-rendering="geometricPrecision" /></g><g id="Spline"><path d="M264.8 319.67 C264.8 319.67 260.14 318.55 257.19 317.84 " stroke="rgb(255, 0, 0)" stroke-width="0.6" fill-rule="evenodd" stroke-linejoin="bevel" fill="none" shape-rendering="geometricPrecision" /></g><g id="Oval"><circle cx="238.99" cy="323.22" r="50.835" stroke="rgb(255, 0, 0)" stroke-width="5.67" fill="none" /></g><g id="Arrow"><path d="M370.26 303.18 C370.39 296.97 365.46 291.83 359.25 291.71 C355.16 291.62 351.14 293.95 349.17 297.54 " stroke="rgb(0, 128, 0)" stroke-width="2" fill-rule="evenodd" stroke-linejoin="bevel" fill="none" shape-rendering="geometricPrecision" /><path d="M367.4 310.44 L372.92 302.22 C371.09 303.3 369.11 302.59 368.4 300.59 Z" stroke="rgb(0, 128, 0)" stroke-width="0" fill-rule="evenodd" stroke-linejoin="miter" stroke-miterlimit="23.1480212206198" fill="rgb(0, 128, 0)" shape-rendering="geometricPrecision" /></g><path d="M357.92 351.27 C361.4 356.4 368.39 357.75 373.52 354.27 C378.65 350.79 380 343.8 376.52 338.67 C376.16 338.13 375.75 337.63 375.3 337.16 " stroke="rgb(0, 128, 0)" stroke-width="2" fill-rule="evenodd" stroke-linejoin="bevel" fill="none" shape-rendering="geometricPrecision" /><line x1="354.58" y1="354.93" x2="361.27" y2="347.62" stroke="rgb(0, 128, 0)" stroke-width="2" shape-rendering="auto" /><g><text xml:space="preserve" text-anchor="start" text-rendering="geometricPrecision"><tspan x="212" y="264.5" font-family="Arial" font-weight="bold" font-size="10" fill="rgb(255, 0, 0)">Information</tspan></text></g><g><text xml:space="preserve" text-anchor="start" text-rendering="geometricPrecision"><tspan x="268.15" y="485" font-family="Arial" font-weight="bold" font-size="10" fill="rgb(128, 0, 255)">Metabolism</tspan></text></g><g><text xml:space="preserve" text-anchor="start" text-rendering="geometricPrecision"><tspan x="328" y="264.5" font-family="Arial" font-weight="bold" font-size="10" fill="rgb(0, 128, 0)">Catalysis</tspan></text></g><g><text xml:space="preserve" text-anchor="start" text-rendering="geometricPrecision"><tspan x="242.85" y="516.5" font-family="Arial" font-weight="bold" font-size="10" fill="rgb(0, 128, 255)">Compartmentalisation</tspan></text></g><g id="Oval"><circle cx="291.97" cy="355.87" r="135.465" stroke="rgb(0, 128, 255)" stroke-width="14.17" fill="none" /></g></g></g></svg>